<svg width="500" height="500" viewBox="0 0 500 500" fill="none" xmlns="http://www.w3.org/2000/svg">
<path d="M104.167 41.667C81.1875 41.667 62.5 60.3545 62.5 83.3337V333.334C62.5 356.313 81.1875 375 104.167 375H178.875L250 446.125L321.125 375H395.833C418.812 375 437.5 356.313 437.5 333.334V83.3337C437.5 60.3545 418.812 41.667 395.833 41.667H104.167ZM395.833 333.334H303.875L250 387.209L196.125 333.334H104.167V83.3337H395.833V333.334Z" fill="black" fill-opacity="0.1"/>
<path d="M145.833 145.833H354.167V187.5H145.833V145.833ZM145.833 229.166H291.667V270.833H145.833V229.166Z" fill="black" fill-opacity="0.1"/>
</svg>
