<svg width="28" height="28" viewBox="0 0 28 28" fill="none" xmlns="http://www.w3.org/2000/svg">
<path d="M4.92583 23.0745C5.46701 23.6165 6.10995 24.0461 6.81771 24.3389C7.52547 24.6316 8.28409 24.7815 9.04999 24.7802C9.81606 24.7815 10.5748 24.6315 11.2828 24.3388C11.9907 24.0461 12.6339 23.6164 13.1753 23.0745L16.4747 19.774L14.825 18.1243L11.5257 21.4248C10.8682 22.0793 9.97828 22.4468 9.05058 22.4468C8.12288 22.4468 7.23294 22.0793 6.57549 21.4248C5.92041 20.7677 5.55257 19.8776 5.55257 18.9497C5.55257 18.0219 5.92041 17.1318 6.57549 16.4747L9.87599 13.1753L8.22633 11.5257L4.92583 14.825C3.8336 15.9199 3.22021 17.4032 3.22021 18.9497C3.22021 20.4963 3.8336 21.9796 4.92583 23.0745ZM23.0745 13.1753C24.1661 12.0802 24.7791 10.5969 24.7791 9.05058C24.7791 7.50426 24.1661 6.02099 23.0745 4.92583C21.9796 3.8336 20.4963 3.22021 18.9497 3.22021C17.4032 3.22021 15.9199 3.8336 14.825 4.92583L11.5257 8.22633L13.1753 9.87599L16.4747 6.57549C17.1321 5.92098 18.022 5.55353 18.9497 5.55353C19.8774 5.55353 20.7674 5.92098 21.4248 6.57549C22.0799 7.23264 22.4478 8.12269 22.4478 9.05058C22.4478 9.97846 22.0799 10.8685 21.4248 11.5257L18.1243 14.825L19.774 16.4747L23.0745 13.1753Z" fill="black" fill-opacity="0.3"/>
<path d="M9.87456 19.7749L8.22372 18.1252L18.1252 8.22485L19.7749 9.87569L9.87456 19.7749Z" fill="black" fill-opacity="0.3"/>
</svg>
