<svg width="35" height="35" viewBox="0 0 35 35" fill="none" xmlns="http://www.w3.org/2000/svg">
<path d="M7.29166 10.2027L7.29166 21.8752C7.29166 24.5556 8.36645 27.1047 10.3192 29.056C12.2719 31.0087 14.821 32.0835 17.5 32.0835C20.1804 32.0835 22.7296 31.0087 24.6808 29.056C26.6335 27.1047 27.7083 24.5556 27.7083 21.8752V10.2085H24.7917V21.8752C24.7917 23.7754 24.0202 25.5939 22.6187 26.9939C21.2187 28.3954 19.4002 29.1668 17.5 29.1668C15.6012 29.1668 13.7827 28.3954 12.3812 26.9939C10.9798 25.5939 10.2083 23.7754 10.2083 21.8752L10.2083 10.2085H8.74999L10.2083 10.207V10.2027C10.2083 9.05058 10.6662 7.95828 11.5004 7.12703C12.3331 6.29432 13.4283 5.83495 14.5862 5.83349C15.1589 5.83397 15.7259 5.94817 16.2541 6.16947C16.7823 6.39077 17.2613 6.71477 17.6633 7.12266C18.0719 7.5263 18.3966 8.00672 18.6189 8.5363C18.8411 9.06588 18.9565 9.63417 18.9583 10.2085V21.8752C18.956 22.0653 18.9162 22.2531 18.8411 22.4278C18.766 22.6024 18.6572 22.7606 18.5208 22.8931C18.3882 23.0302 18.2297 23.1398 18.0545 23.2154C17.8792 23.291 17.6908 23.3311 17.5 23.3335C17.1325 23.3335 16.7606 23.1731 16.4821 22.8945C16.3448 22.7623 16.2352 22.604 16.1596 22.429C16.084 22.254 16.0439 22.0658 16.0417 21.8752V10.2085H13.125L13.125 21.8752C13.125 23.0272 13.5844 24.1225 14.4214 24.9581C15.2556 25.7922 16.3494 26.2502 17.5 26.2502C18.6506 26.2502 19.7458 25.7922 20.5829 24.9552C20.9912 24.5527 21.3155 24.0732 21.5373 23.5445C21.7591 23.0159 21.8739 22.4485 21.875 21.8752V10.207C21.8743 9.2501 21.6841 8.30277 21.3154 7.41972C20.9467 6.53666 20.4068 5.73536 19.7269 5.06204C19.0533 4.3828 18.252 3.84369 17.369 3.47582C16.486 3.10796 15.5388 2.91863 14.5823 2.91877C13.6257 2.9189 12.6787 3.1085 11.7958 3.47661C10.9129 3.84472 10.1117 4.38406 9.43832 5.06349C8.75801 5.73527 8.21792 6.53549 7.84941 7.41772C7.4809 8.29993 7.29131 9.24657 7.29166 10.2027Z" fill="black" fill-opacity="0.3"/>
</svg>
