<svg width="60" height="60" viewBox="0 0 60 60" fill="none" xmlns="http://www.w3.org/2000/svg">
<path d="M18.7476 27.5C20.8186 27.5 22.4976 25.8211 22.4976 23.75C22.4976 21.6789 20.8186 20 18.7476 20C16.6765 20 14.9976 21.6789 14.9976 23.75C14.9976 25.8211 16.6765 27.5 18.7476 27.5Z" fill="black"/>
<path d="M26.2476 35L22.4976 30L14.9976 40H44.9976L33.7476 25L26.2476 35Z" fill="black"/>
<path d="M49.9976 10H9.99756C7.24006 10 4.99756 12.2425 4.99756 15V45C4.99756 47.7575 7.24006 50 9.99756 50H49.9976C52.7551 50 54.9976 47.7575 54.9976 45V15C54.9976 12.2425 52.7551 10 49.9976 10ZM9.99756 45V15H49.9976L50.0026 45H9.99756Z" fill="black"/>
</svg>
