<svg width="271" height="39" viewBox="0 0 271 39" fill="none" xmlns="http://www.w3.org/2000/svg">
<rect y="0.595337" width="271" height="38.169" rx="18.1271" fill="#FFFEFE"/>
<path d="M19.3076 24.5953V13.9313H22.7939C23.9512 13.9313 24.8203 14.1705 25.4014 14.649C25.9873 15.1276 26.2803 15.8356 26.2803 16.7731C26.2803 17.2711 26.1387 17.713 25.8555 18.0988C25.5723 18.4796 25.1865 18.775 24.6982 18.985C25.2744 19.1461 25.7285 19.4537 26.0605 19.9078C26.3975 20.3571 26.5659 20.8942 26.5659 21.5192C26.5659 22.4762 26.2559 23.2281 25.6357 23.775C25.0156 24.3219 24.1392 24.5953 23.0063 24.5953H19.3076ZM20.7139 19.6075V23.4454H23.0356C23.6899 23.4454 24.2051 23.277 24.5811 22.9401C24.9619 22.5983 25.1523 22.1295 25.1523 21.5338C25.1523 20.2496 24.4541 19.6075 23.0576 19.6075H20.7139ZM20.7139 18.4796H22.8379C23.4531 18.4796 23.9438 18.3258 24.3101 18.0182C24.6812 17.7106 24.8667 17.2931 24.8667 16.7657C24.8667 16.1798 24.6958 15.755 24.354 15.4913C24.0122 15.2228 23.4922 15.0885 22.7939 15.0885H20.7139V18.4796ZM33.3335 23.8116C32.8062 24.4318 32.0322 24.7418 31.0117 24.7418C30.167 24.7418 29.5225 24.4977 29.0781 24.0094C28.6387 23.5162 28.4165 22.7887 28.4116 21.8268V16.6705H29.7666V21.7902C29.7666 22.9913 30.2549 23.5919 31.2314 23.5919C32.2666 23.5919 32.9551 23.2062 33.2969 22.4347V16.6705H34.6519V24.5953H33.3628L33.3335 23.8116ZM41.3315 22.4933C41.3315 22.1271 41.1924 21.8439 40.9141 21.6437C40.6406 21.4386 40.1597 21.2628 39.4712 21.1163C38.7876 20.9698 38.2432 20.7941 37.8379 20.589C37.4375 20.3839 37.1396 20.1398 36.9443 19.8566C36.7539 19.5734 36.6587 19.2365 36.6587 18.8458C36.6587 18.1964 36.9321 17.6471 37.479 17.1979C38.0308 16.7487 38.7339 16.524 39.5884 16.524C40.4868 16.524 41.2144 16.756 41.771 17.2198C42.3325 17.6837 42.6133 18.277 42.6133 18.9996H41.251C41.251 18.6285 41.0923 18.3087 40.7749 18.0402C40.4624 17.7716 40.0669 17.6373 39.5884 17.6373C39.0952 17.6373 38.7095 17.7448 38.4312 17.9596C38.1528 18.1744 38.0137 18.4552 38.0137 18.8019C38.0137 19.129 38.1431 19.3756 38.4019 19.5416C38.6606 19.7076 39.127 19.8663 39.8008 20.0177C40.4795 20.1691 41.0288 20.3497 41.4487 20.5597C41.8687 20.7697 42.1787 21.0236 42.3789 21.3214C42.584 21.6144 42.6865 21.9733 42.6865 22.3981C42.6865 23.1061 42.4033 23.6749 41.8369 24.1046C41.2705 24.5294 40.5356 24.7418 39.6323 24.7418C38.9976 24.7418 38.436 24.6295 37.9478 24.4049C37.4595 24.1803 37.0762 23.8678 36.7979 23.4674C36.5244 23.0621 36.3877 22.6251 36.3877 22.1564H37.7427C37.7671 22.6105 37.9478 22.9718 38.2847 23.2404C38.6265 23.504 39.0757 23.6359 39.6323 23.6359C40.145 23.6359 40.5552 23.5333 40.8628 23.3282C41.1753 23.1183 41.3315 22.84 41.3315 22.4933ZM47.6304 23.6359C48.1138 23.6359 48.5361 23.4894 48.8975 23.1964C49.2588 22.9034 49.459 22.5372 49.498 22.0978H50.7798C50.7554 22.5519 50.5991 22.984 50.311 23.3942C50.0229 23.8043 49.6372 24.1315 49.1538 24.3756C48.6753 24.6198 48.1675 24.7418 47.6304 24.7418C46.5513 24.7418 45.6919 24.3829 45.0522 23.6652C44.4175 22.9425 44.1001 21.9562 44.1001 20.7062V20.4791C44.1001 19.7076 44.2417 19.0216 44.5249 18.421C44.8081 17.8204 45.2134 17.3541 45.7407 17.0221C46.2729 16.6901 46.9004 16.524 47.623 16.524C48.5117 16.524 49.249 16.7902 49.835 17.3224C50.4258 17.8546 50.7407 18.5455 50.7798 19.3951H49.498C49.459 18.8824 49.2637 18.4625 48.9121 18.1354C48.5654 17.8033 48.1357 17.6373 47.623 17.6373C46.9346 17.6373 46.3999 17.8864 46.019 18.3844C45.6431 18.8776 45.4551 19.5929 45.4551 20.5304V20.7867C45.4551 21.6998 45.6431 22.403 46.019 22.8961C46.395 23.3893 46.9321 23.6359 47.6304 23.6359ZM57.1958 24.5953C57.1177 24.4391 57.0542 24.1608 57.0054 23.7604C56.3755 24.4147 55.6235 24.7418 54.7495 24.7418C53.9683 24.7418 53.3262 24.5221 52.8232 24.0826C52.3252 23.6383 52.0762 23.0768 52.0762 22.3981C52.0762 21.5729 52.3887 20.9332 53.0137 20.4791C53.6436 20.0201 54.5273 19.7906 55.665 19.7906H56.9834V19.1681C56.9834 18.6945 56.8418 18.3185 56.5586 18.0402C56.2754 17.757 55.8579 17.6154 55.3062 17.6154C54.8228 17.6154 54.4175 17.7374 54.0903 17.9816C53.7632 18.2257 53.5996 18.5211 53.5996 18.8678H52.2373C52.2373 18.4723 52.3765 18.0914 52.6548 17.7252C52.938 17.3541 53.3188 17.0612 53.7974 16.8463C54.2808 16.6315 54.8105 16.524 55.3867 16.524C56.2998 16.524 57.0151 16.7535 57.5327 17.2125C58.0503 17.6666 58.3188 18.2941 58.3384 19.0948V22.7423C58.3384 23.4698 58.4312 24.0485 58.6167 24.4781V24.5953H57.1958ZM54.9473 23.5626C55.3721 23.5626 55.7749 23.4528 56.1558 23.233C56.5366 23.0133 56.8125 22.7277 56.9834 22.3761V20.7501H55.9214C54.2612 20.7501 53.4312 21.236 53.4312 22.2076C53.4312 22.6324 53.5728 22.9645 53.856 23.2037C54.1392 23.443 54.5029 23.5626 54.9473 23.5626ZM56.1997 13.3453H57.8403L55.8774 15.4987H54.7861L56.1997 13.3453ZM67.4717 24.7418C66.3975 24.7418 65.5234 24.3903 64.8496 23.6871C64.1758 22.9791 63.8389 22.0343 63.8389 20.8527V20.6036C63.8389 19.8175 63.9878 19.1168 64.2856 18.5016C64.5884 17.8815 65.0083 17.3981 65.5454 17.0514C66.0874 16.6998 66.6733 16.524 67.3032 16.524C68.3335 16.524 69.1343 16.8634 69.7056 17.5421C70.2769 18.2208 70.5625 19.1925 70.5625 20.4572V21.0211H65.1938C65.2134 21.8024 65.4404 22.4347 65.875 22.9181C66.3145 23.3966 66.8711 23.6359 67.5449 23.6359C68.0234 23.6359 68.4287 23.5382 68.7607 23.3429C69.0928 23.1476 69.3833 22.8888 69.6323 22.5665L70.46 23.2111C69.7959 24.2316 68.7998 24.7418 67.4717 24.7418ZM67.3032 17.6373C66.7563 17.6373 66.2974 17.8375 65.9263 18.2379C65.5552 18.6334 65.3257 19.1901 65.2378 19.9078H69.2075V19.8053C69.1685 19.1168 68.9829 18.5846 68.6509 18.2086C68.3188 17.8278 67.8696 17.6373 67.3032 17.6373ZM73.4189 16.6705L73.4629 17.6666C74.0684 16.9049 74.8594 16.524 75.8359 16.524C77.5107 16.524 78.3555 17.4689 78.3701 19.3585V24.5953H77.0151V19.3512C77.0103 18.7799 76.8784 18.3575 76.6196 18.0841C76.3657 17.8107 75.9678 17.674 75.4258 17.674C74.9863 17.674 74.6006 17.7911 74.2686 18.0255C73.9365 18.2599 73.6777 18.5675 73.4922 18.9484V24.5953H72.1372V16.6705H73.4189ZM87.877 22.7277L90.9238 13.9313H92.4619L88.5068 24.5953H87.2617L83.314 13.9313H84.8447L87.877 22.7277ZM98.2407 24.5953C98.1626 24.4391 98.0991 24.1608 98.0503 23.7604C97.4204 24.4147 96.6685 24.7418 95.7944 24.7418C95.0132 24.7418 94.3711 24.5221 93.8682 24.0826C93.3701 23.6383 93.1211 23.0768 93.1211 22.3981C93.1211 21.5729 93.4336 20.9332 94.0586 20.4791C94.6885 20.0201 95.5723 19.7906 96.71 19.7906H98.0283V19.1681C98.0283 18.6945 97.8867 18.3185 97.6035 18.0402C97.3203 17.757 96.9028 17.6154 96.3511 17.6154C95.8677 17.6154 95.4624 17.7374 95.1353 17.9816C94.8081 18.2257 94.6445 18.5211 94.6445 18.8678H93.2822C93.2822 18.4723 93.4214 18.0914 93.6997 17.7252C93.9829 17.3541 94.3638 17.0612 94.8423 16.8463C95.3257 16.6315 95.8555 16.524 96.4316 16.524C97.3447 16.524 98.0601 16.7535 98.5776 17.2125C99.0952 17.6666 99.3638 18.2941 99.3833 19.0948V22.7423C99.3833 23.4698 99.4761 24.0485 99.6616 24.4781V24.5953H98.2407ZM95.9922 23.5626C96.417 23.5626 96.8198 23.4528 97.2007 23.233C97.5815 23.0133 97.8574 22.7277 98.0283 22.3761V20.7501H96.9663C95.3062 20.7501 94.4761 21.236 94.4761 22.2076C94.4761 22.6324 94.6177 22.9645 94.9009 23.2037C95.1841 23.443 95.5479 23.5626 95.9922 23.5626ZM106.122 22.4933C106.122 22.1271 105.982 21.8439 105.704 21.6437C105.431 21.4386 104.95 21.2628 104.261 21.1163C103.578 20.9698 103.033 20.7941 102.628 20.589C102.228 20.3839 101.93 20.1398 101.734 19.8566C101.544 19.5734 101.449 19.2365 101.449 18.8458C101.449 18.1964 101.722 17.6471 102.269 17.1979C102.821 16.7487 103.524 16.524 104.378 16.524C105.277 16.524 106.004 16.756 106.561 17.2198C107.123 17.6837 107.403 18.277 107.403 18.9996H106.041C106.041 18.6285 105.882 18.3087 105.565 18.0402C105.252 17.7716 104.857 17.6373 104.378 17.6373C103.885 17.6373 103.5 17.7448 103.221 17.9596C102.943 18.1744 102.804 18.4552 102.804 18.8019C102.804 19.129 102.933 19.3756 103.192 19.5416C103.451 19.7076 103.917 19.8663 104.591 20.0177C105.27 20.1691 105.819 20.3497 106.239 20.5597C106.659 20.7697 106.969 21.0236 107.169 21.3214C107.374 21.6144 107.477 21.9733 107.477 22.3981C107.477 23.1061 107.193 23.6749 106.627 24.1046C106.061 24.5294 105.326 24.7418 104.422 24.7418C103.788 24.7418 103.226 24.6295 102.738 24.4049C102.25 24.1803 101.866 23.8678 101.588 23.4674C101.314 23.0621 101.178 22.6251 101.178 22.1564H102.533C102.557 22.6105 102.738 22.9718 103.075 23.2404C103.417 23.504 103.866 23.6359 104.422 23.6359C104.935 23.6359 105.345 23.5333 105.653 23.3282C105.965 23.1183 106.122 22.84 106.122 22.4933ZM114.134 24.5953C114.056 24.4391 113.993 24.1608 113.944 23.7604C113.314 24.4147 112.562 24.7418 111.688 24.7418C110.907 24.7418 110.265 24.5221 109.762 24.0826C109.264 23.6383 109.015 23.0768 109.015 22.3981C109.015 21.5729 109.327 20.9332 109.952 20.4791C110.582 20.0201 111.466 19.7906 112.604 19.7906H113.922V19.1681C113.922 18.6945 113.78 18.3185 113.497 18.0402C113.214 17.757 112.796 17.6154 112.245 17.6154C111.761 17.6154 111.356 17.7374 111.029 17.9816C110.702 18.2257 110.538 18.5211 110.538 18.8678H109.176C109.176 18.4723 109.315 18.0914 109.593 17.7252C109.876 17.3541 110.257 17.0612 110.736 16.8463C111.219 16.6315 111.749 16.524 112.325 16.524C113.238 16.524 113.954 16.7535 114.471 17.2125C114.989 17.6666 115.257 18.2941 115.277 19.0948V22.7423C115.277 23.4698 115.37 24.0485 115.555 24.4781V24.5953H114.134ZM111.886 23.5626C112.311 23.5626 112.713 23.4528 113.094 23.233C113.475 23.0133 113.751 22.7277 113.922 22.3761V20.7501H112.86C111.2 20.7501 110.37 21.236 110.37 22.2076C110.37 22.6324 110.511 22.9645 110.794 23.2037C111.078 23.443 111.441 23.5626 111.886 23.5626ZM125.809 24.5953H124.396L119.027 16.3776V24.5953H117.613V13.9313H119.027L124.41 22.1857V13.9313H125.809V24.5953ZM131.383 24.7418C130.309 24.7418 129.435 24.3903 128.761 23.6871C128.087 22.9791 127.75 22.0343 127.75 20.8527V20.6036C127.75 19.8175 127.899 19.1168 128.197 18.5016C128.5 17.8815 128.919 17.3981 129.457 17.0514C129.999 16.6998 130.584 16.524 131.214 16.524C132.245 16.524 133.045 16.8634 133.617 17.5421C134.188 18.2208 134.474 19.1925 134.474 20.4572V21.0211H129.105C129.125 21.8024 129.352 22.4347 129.786 22.9181C130.226 23.3966 130.782 23.6359 131.456 23.6359C131.935 23.6359 132.34 23.5382 132.672 23.3429C133.004 23.1476 133.294 22.8888 133.543 22.5665L134.371 23.2111C133.707 24.2316 132.711 24.7418 131.383 24.7418ZM131.214 17.6373C130.667 17.6373 130.208 17.8375 129.837 18.2379C129.466 18.6334 129.237 19.1901 129.149 19.9078H133.119V19.8053C133.08 19.1168 132.894 18.5846 132.562 18.2086C132.23 17.8278 131.781 17.6373 131.214 17.6373ZM137.887 14.7516V16.6705H139.366V17.7179H137.887V22.6324C137.887 22.9498 137.953 23.1891 138.084 23.3502C138.216 23.5065 138.441 23.5846 138.758 23.5846C138.915 23.5846 139.129 23.5553 139.403 23.4967V24.5953C139.046 24.693 138.7 24.7418 138.363 24.7418C137.757 24.7418 137.301 24.5587 136.993 24.1925C136.686 23.8263 136.532 23.3063 136.532 22.6324V17.7179H135.089V16.6705H136.532V14.7516H137.887Z" fill="#C7C3C4"/>
<path d="M239.782 30.1223C242.68 30.1217 245.493 29.1518 247.776 27.3671L254.951 34.5423L257.259 32.2344L250.084 25.0592C251.87 22.7768 252.84 19.9626 252.841 17.0647C252.841 9.86505 246.982 4.00708 239.782 4.00708C232.582 4.00708 226.724 9.86505 226.724 17.0647C226.724 24.2643 232.582 30.1223 239.782 30.1223ZM239.782 7.27148C245.184 7.27148 249.576 11.6637 249.576 17.0647C249.576 22.4656 245.184 26.8579 239.782 26.8579C234.381 26.8579 229.989 22.4656 229.989 17.0647C229.989 11.6637 234.381 7.27148 239.782 7.27148Z" fill="black" fill-opacity="0.3"/>
</svg>
