<svg width="105" height="26" viewBox="0 0 105 26" fill="none" xmlns="http://www.w3.org/2000/svg">
<rect x="0.996567" y="0.5" width="104" height="25" rx="5" fill="#4969D9"/>
<path d="M25.9966 6.3277H20.9966C18.9284 6.3277 17.2466 8.00957 17.2466 10.0777V17.5777C17.2466 17.7435 17.3124 17.9024 17.4296 18.0196C17.5468 18.1369 17.7058 18.2027 17.8716 18.2027H25.9966C28.0647 18.2027 29.7466 16.5208 29.7466 14.4527V10.0777C29.7466 8.00957 28.0647 6.3277 25.9966 6.3277ZM28.4966 14.4527C28.4966 15.8314 27.3753 16.9527 25.9966 16.9527H18.4966V10.0777C18.4966 8.69895 19.6178 7.5777 20.9966 7.5777H25.9966C27.3753 7.5777 28.4966 8.69895 28.4966 10.0777V14.4527Z" fill="#FFFCFC"/>
<path d="M41.9419 14.3004H43.4067C43.3598 14.8589 43.2036 15.357 42.938 15.7945C42.6723 16.2281 42.2993 16.5699 41.8188 16.8199C41.3384 17.0699 40.7544 17.1949 40.0669 17.1949C39.5395 17.1949 39.0649 17.1011 38.6431 16.9136C38.2212 16.7222 37.8598 16.4527 37.5591 16.105C37.2583 15.7535 37.0278 15.3297 36.8677 14.8336C36.7114 14.3375 36.6333 13.7828 36.6333 13.1695V12.4605C36.6333 11.8472 36.7134 11.2925 36.8735 10.7964C37.0376 10.3004 37.272 9.87653 37.5766 9.52496C37.8813 9.16949 38.2466 8.89801 38.6723 8.71051C39.102 8.52301 39.5845 8.42926 40.1196 8.42926C40.7993 8.42926 41.3735 8.55426 41.8423 8.80426C42.311 9.05426 42.6743 9.39996 42.9321 9.84137C43.1938 10.2828 43.354 10.7886 43.4126 11.3589H41.9477C41.9087 10.9918 41.8227 10.6773 41.6899 10.4156C41.561 10.1539 41.3696 9.95465 41.1157 9.81793C40.8618 9.67731 40.5298 9.60699 40.1196 9.60699C39.7837 9.60699 39.4907 9.66949 39.2407 9.79449C38.9907 9.91949 38.7817 10.1031 38.6138 10.3453C38.4458 10.5875 38.3188 10.8863 38.2329 11.2418C38.1509 11.5933 38.1098 11.9957 38.1098 12.4488V13.1695C38.1098 13.5992 38.147 13.9898 38.2212 14.3414C38.2993 14.689 38.4165 14.9879 38.5727 15.2379C38.7329 15.4879 38.936 15.6812 39.1821 15.8179C39.4282 15.9547 39.7231 16.023 40.0669 16.023C40.4848 16.023 40.8227 15.9566 41.0806 15.8238C41.3423 15.691 41.5395 15.4976 41.6723 15.2437C41.8091 14.9859 41.8989 14.6714 41.9419 14.3004ZM44.3325 13.9781V13.8433C44.3325 13.3863 44.3989 12.9625 44.5317 12.5718C44.6645 12.1773 44.8559 11.8355 45.1059 11.5464C45.3598 11.2535 45.6684 11.0269 46.0317 10.8668C46.3989 10.7027 46.813 10.6207 47.2739 10.6207C47.7388 10.6207 48.1528 10.7027 48.5161 10.8668C48.8833 11.0269 49.1938 11.2535 49.4477 11.5464C49.7016 11.8355 49.895 12.1773 50.0278 12.5718C50.1606 12.9625 50.227 13.3863 50.227 13.8433V13.9781C50.227 14.4351 50.1606 14.8589 50.0278 15.2496C49.895 15.6402 49.7016 15.982 49.4477 16.275C49.1938 16.564 48.8852 16.7906 48.522 16.9547C48.1587 17.1148 47.7466 17.1949 47.2856 17.1949C46.8208 17.1949 46.4048 17.1148 46.0376 16.9547C45.6743 16.7906 45.3657 16.564 45.1118 16.275C44.8579 15.982 44.6645 15.6402 44.5317 15.2496C44.3989 14.8589 44.3325 14.4351 44.3325 13.9781ZM45.7446 13.8433V13.9781C45.7446 14.2632 45.7739 14.5328 45.8325 14.7867C45.8911 15.0406 45.9829 15.2632 46.1079 15.4547C46.2329 15.6461 46.3931 15.7964 46.5884 15.9058C46.7837 16.0152 47.0161 16.0699 47.2856 16.0699C47.5473 16.0699 47.7739 16.0152 47.9653 15.9058C48.1606 15.7964 48.3208 15.6461 48.4458 15.4547C48.5708 15.2632 48.6626 15.0406 48.7212 14.7867C48.7837 14.5328 48.8149 14.2632 48.8149 13.9781V13.8433C48.8149 13.5621 48.7837 13.2964 48.7212 13.0464C48.6626 12.7925 48.5688 12.5679 48.4399 12.3726C48.3149 12.1773 48.1548 12.025 47.9595 11.9156C47.7681 11.8023 47.5395 11.7457 47.2739 11.7457C47.0083 11.7457 46.7778 11.8023 46.5825 11.9156C46.3911 12.025 46.2329 12.1773 46.1079 12.3726C45.9829 12.5679 45.8911 12.7925 45.8325 13.0464C45.7739 13.2964 45.7446 13.5621 45.7446 13.8433ZM52.8227 12.0269V17.0777H51.4106V10.7379H52.7407L52.8227 12.0269ZM52.5942 13.6734L52.1138 13.6675C52.1138 13.23 52.1684 12.8257 52.2778 12.4547C52.3872 12.0836 52.5473 11.7613 52.7583 11.4879C52.9692 11.2105 53.2309 10.9976 53.5434 10.8492C53.8598 10.6968 54.2251 10.6207 54.6391 10.6207C54.9282 10.6207 55.1919 10.6636 55.4302 10.7496C55.6723 10.8316 55.8813 10.9625 56.0571 11.1422C56.2368 11.3218 56.3735 11.5523 56.4673 11.8336C56.5649 12.1148 56.6138 12.4547 56.6138 12.8531V17.0777H55.2016V12.9761C55.2016 12.6675 55.1548 12.4254 55.061 12.2496C54.9712 12.0738 54.8403 11.9488 54.6684 11.8746C54.5005 11.7964 54.2993 11.7574 54.0649 11.7574C53.7993 11.7574 53.5727 11.8082 53.3852 11.9097C53.2016 12.0113 53.0513 12.15 52.9341 12.3257C52.8169 12.5015 52.7309 12.7047 52.6763 12.9351C52.6216 13.1656 52.5942 13.4117 52.5942 13.6734ZM56.5259 13.2984L55.8638 13.4449C55.8638 13.0621 55.9165 12.7007 56.022 12.3609C56.1313 12.0172 56.2895 11.7164 56.4966 11.4586C56.7075 11.1968 56.9673 10.9918 57.2759 10.8433C57.5845 10.6949 57.938 10.6207 58.3364 10.6207C58.6606 10.6207 58.9497 10.6656 59.2036 10.7554C59.4614 10.8414 59.6802 10.9781 59.8598 11.1656C60.0395 11.3531 60.1763 11.5972 60.27 11.898C60.3638 12.1949 60.4106 12.5543 60.4106 12.9761V17.0777H58.9927V12.9703C58.9927 12.65 58.9458 12.4019 58.852 12.2261C58.7622 12.0504 58.6333 11.9293 58.4653 11.8629C58.2973 11.7925 58.0962 11.7574 57.8618 11.7574C57.6431 11.7574 57.4497 11.7984 57.2817 11.8804C57.1177 11.9586 56.979 12.0699 56.8657 12.2144C56.7524 12.355 56.6665 12.5172 56.6079 12.7007C56.5532 12.8843 56.5259 13.0836 56.5259 13.2984ZM64.6587 17.1949C64.1899 17.1949 63.7661 17.1187 63.3872 16.9664C63.0122 16.8101 62.6919 16.5933 62.4263 16.316C62.1645 16.0386 61.9634 15.7125 61.8227 15.3375C61.6821 14.9625 61.6118 14.5582 61.6118 14.1246V13.8902C61.6118 13.3941 61.6841 12.9449 61.8286 12.5425C61.9731 12.1402 62.1743 11.7964 62.4321 11.5113C62.6899 11.2222 62.9946 11.0015 63.3462 10.8492C63.6977 10.6968 64.0786 10.6207 64.4888 10.6207C64.9419 10.6207 65.3384 10.6968 65.6782 10.8492C66.0181 11.0015 66.2993 11.2164 66.522 11.4937C66.7485 11.7672 66.9165 12.0933 67.0259 12.4722C67.1391 12.8511 67.1958 13.2691 67.1958 13.7261V14.3297H62.2973V13.316H65.8013V13.2047C65.7934 12.9507 65.7427 12.7125 65.6489 12.4898C65.5591 12.2672 65.4204 12.0875 65.2329 11.9507C65.0454 11.814 64.7954 11.7457 64.4829 11.7457C64.2485 11.7457 64.0395 11.7964 63.8559 11.898C63.6763 11.9957 63.5259 12.1382 63.4048 12.3257C63.2837 12.5132 63.1899 12.7398 63.1235 13.0054C63.061 13.2672 63.0298 13.5621 63.0298 13.8902V14.1246C63.0298 14.4019 63.0669 14.6597 63.1411 14.898C63.2192 15.1324 63.3325 15.3375 63.4809 15.5132C63.6294 15.689 63.8091 15.8277 64.02 15.9293C64.2309 16.0269 64.4712 16.0757 64.7407 16.0757C65.0806 16.0757 65.3833 16.0074 65.6489 15.8707C65.9145 15.7339 66.145 15.5406 66.3403 15.2906L67.0845 16.0113C66.9477 16.2105 66.77 16.4019 66.5513 16.5855C66.3325 16.7652 66.0649 16.9117 65.7485 17.025C65.436 17.1382 65.0727 17.1949 64.6587 17.1949ZM69.6977 12.0914V17.0777H68.2856V10.7379H69.6157L69.6977 12.0914ZM69.4458 13.6734L68.9888 13.6675C68.9927 13.2183 69.0552 12.8062 69.1763 12.4312C69.3013 12.0562 69.4731 11.7339 69.6919 11.4644C69.9145 11.1949 70.1802 10.9879 70.4888 10.8433C70.7973 10.6949 71.1411 10.6207 71.52 10.6207C71.8247 10.6207 72.1001 10.6636 72.3462 10.7496C72.5962 10.8316 72.8091 10.9664 72.9848 11.1539C73.1645 11.3414 73.3013 11.5855 73.395 11.8863C73.4888 12.1832 73.5356 12.5484 73.5356 12.982V17.0777H72.1177V12.9761C72.1177 12.6714 72.0727 12.4312 71.9829 12.2554C71.897 12.0757 71.77 11.9488 71.602 11.8746C71.438 11.7964 71.2329 11.7574 70.9868 11.7574C70.7446 11.7574 70.5278 11.8082 70.3364 11.9097C70.145 12.0113 69.9829 12.15 69.8501 12.3257C69.7212 12.5015 69.6216 12.7047 69.5513 12.9351C69.4809 13.1656 69.4458 13.4117 69.4458 13.6734ZM77.8833 10.7379V11.7691H74.3091V10.7379H77.8833ZM75.3403 9.18512H76.7524V15.3257C76.7524 15.5211 76.7798 15.6714 76.8345 15.7769C76.8931 15.8785 76.9731 15.9468 77.0747 15.982C77.1763 16.0172 77.2954 16.0347 77.4321 16.0347C77.5298 16.0347 77.6235 16.0289 77.7134 16.0172C77.8032 16.0054 77.8755 15.9937 77.9302 15.982L77.936 17.0601C77.8188 17.0953 77.6821 17.1265 77.5259 17.1539C77.3735 17.1812 77.1977 17.1949 76.9985 17.1949C76.6743 17.1949 76.3872 17.1382 76.1372 17.025C75.8872 16.9078 75.6919 16.7183 75.5513 16.4566C75.4106 16.1949 75.3403 15.8472 75.3403 15.4136V9.18512ZM82.5473 15.8062V12.7828C82.5473 12.5562 82.5063 12.3609 82.4243 12.1968C82.3423 12.0328 82.2173 11.9058 82.0493 11.816C81.8852 11.7261 81.6782 11.6812 81.4282 11.6812C81.1977 11.6812 80.9985 11.7203 80.8306 11.7984C80.6626 11.8765 80.5317 11.982 80.438 12.1148C80.3442 12.2476 80.2973 12.398 80.2973 12.566H78.8911C78.8911 12.316 78.9516 12.0738 79.0727 11.8394C79.1938 11.605 79.3696 11.3961 79.6001 11.2125C79.8306 11.0289 80.1059 10.8843 80.4263 10.7789C80.7466 10.6734 81.1059 10.6207 81.5044 10.6207C81.9809 10.6207 82.4028 10.7007 82.77 10.8609C83.1411 11.0211 83.4321 11.2632 83.6431 11.5875C83.8579 11.9078 83.9653 12.3101 83.9653 12.7945V15.6129C83.9653 15.9019 83.9848 16.1617 84.0239 16.3922C84.0669 16.6187 84.1274 16.816 84.2056 16.9839V17.0777H82.7583C82.6919 16.9254 82.6391 16.732 82.6001 16.4976C82.5649 16.2593 82.5473 16.0289 82.5473 15.8062ZM82.7524 13.2222L82.7641 14.0953H81.7505C81.4888 14.0953 81.2583 14.1207 81.0591 14.1714C80.8598 14.2183 80.6938 14.2886 80.561 14.3824C80.4282 14.4761 80.3286 14.5894 80.2622 14.7222C80.1958 14.855 80.1626 15.0054 80.1626 15.1734C80.1626 15.3414 80.2016 15.4957 80.2798 15.6363C80.3579 15.773 80.4712 15.8804 80.6196 15.9586C80.772 16.0367 80.9556 16.0757 81.1704 16.0757C81.4595 16.0757 81.7114 16.0172 81.9263 15.9C82.145 15.7789 82.3169 15.6324 82.4419 15.4605C82.5669 15.2847 82.6333 15.1187 82.6411 14.9625L83.0981 15.5894C83.0513 15.7496 82.9712 15.9214 82.8579 16.105C82.7446 16.2886 82.5962 16.4644 82.4126 16.6324C82.2329 16.7964 82.0161 16.9312 81.7622 17.0367C81.5122 17.1422 81.2231 17.1949 80.895 17.1949C80.4809 17.1949 80.1118 17.1129 79.7876 16.9488C79.4634 16.7808 79.2095 16.5562 79.0259 16.275C78.8423 15.9898 78.7505 15.6675 78.7505 15.3082C78.7505 14.9722 78.813 14.6754 78.938 14.4175C79.0669 14.1558 79.2544 13.9371 79.5005 13.7613C79.7505 13.5855 80.0552 13.4527 80.4145 13.3629C80.7739 13.2691 81.1841 13.2222 81.645 13.2222H82.7524ZM86.8598 11.9449V17.0777H85.4477V10.7379H86.7954L86.8598 11.9449ZM88.7993 10.6968L88.7876 12.0093C88.7016 11.9937 88.6079 11.982 88.5063 11.9742C88.4087 11.9664 88.311 11.9625 88.2134 11.9625C87.9712 11.9625 87.7583 11.9976 87.5747 12.0679C87.3911 12.1343 87.2368 12.232 87.1118 12.3609C86.9907 12.4859 86.897 12.6382 86.8306 12.8179C86.7641 12.9976 86.7251 13.1988 86.7134 13.4214L86.3911 13.4449C86.3911 13.0464 86.4302 12.6773 86.5083 12.3375C86.5864 11.9976 86.7036 11.6988 86.8598 11.441C87.02 11.1832 87.2192 10.982 87.4575 10.8375C87.6997 10.6929 87.979 10.6207 88.2954 10.6207C88.3813 10.6207 88.4731 10.6285 88.5708 10.6441C88.6723 10.6597 88.7485 10.6773 88.7993 10.6968Z" fill="#FCFDFF"/>
</svg>
