<svg width="522" height="60" viewBox="0 0 522 60" fill="none" xmlns="http://www.w3.org/2000/svg">
<g filter="url(#filter0_d_168_180)">
<rect x="4.5" y="0.5" width="513" height="51" rx="11.7815" fill="#4969D9" stroke="#4969D9"/>
<path d="M164.619 29.3496C164.374 31.5957 163.569 33.3145 162.202 34.5059C160.844 35.6973 159.033 36.293 156.767 36.293C155.185 36.293 153.784 35.8975 152.563 35.1064C151.352 34.3154 150.414 33.1973 149.75 31.752C149.086 30.2969 148.749 28.6367 148.74 26.7715V24.0029C148.74 22.1084 149.072 20.4287 149.736 18.9639C150.4 17.499 151.352 16.3711 152.592 15.5801C153.842 14.7793 155.278 14.3789 156.899 14.3789C159.184 14.3789 160.986 14.999 162.304 16.2393C163.632 17.4697 164.404 19.1738 164.619 21.3516H162.802C162.353 17.7285 160.385 15.917 156.899 15.917C154.965 15.917 153.422 16.6396 152.27 18.085C151.127 19.5303 150.556 21.5273 150.556 24.0762V26.6836C150.556 29.1445 151.113 31.1074 152.226 32.5723C153.349 34.0371 154.863 34.7695 156.767 34.7695C158.652 34.7695 160.073 34.3203 161.03 33.4219C161.987 32.5137 162.578 31.1562 162.802 29.3496H164.619ZM175.913 21.6445C175.541 21.5762 175.146 21.542 174.726 21.542C173.632 21.542 172.705 21.8496 171.943 22.4648C171.191 23.0703 170.654 23.9541 170.331 25.1162V36H168.588V20.1504H170.302L170.331 22.6699C171.259 20.7949 172.748 19.8574 174.799 19.8574C175.288 19.8574 175.673 19.9209 175.956 20.0479L175.913 21.6445ZM184.54 36.293C183.193 36.293 181.972 35.9609 180.878 35.2969C179.794 34.6328 178.95 33.71 178.344 32.5283C177.739 31.3369 177.436 30.0039 177.436 28.5293V27.8994C177.436 26.376 177.729 25.0039 178.315 23.7832C178.911 22.5625 179.736 21.6055 180.79 20.9121C181.845 20.209 182.988 19.8574 184.218 19.8574C186.142 19.8574 187.665 20.5166 188.789 21.835C189.921 23.1436 190.488 24.9355 190.488 27.2109V28.1924H179.179V28.5293C179.179 30.3262 179.692 31.8252 180.717 33.0264C181.752 34.2178 183.051 34.8135 184.614 34.8135C185.551 34.8135 186.376 34.6426 187.089 34.3008C187.812 33.959 188.466 33.4121 189.052 32.6602L190.151 33.4951C188.862 35.3604 186.992 36.293 184.54 36.293ZM184.218 21.3516C182.9 21.3516 181.787 21.835 180.878 22.8018C179.98 23.7686 179.433 25.0674 179.238 26.6982H188.745V26.5078C188.696 24.9844 188.261 23.7441 187.441 22.7871C186.621 21.8301 185.546 21.3516 184.218 21.3516ZM203.906 36C203.73 35.502 203.618 34.7646 203.569 33.7881C202.954 34.5889 202.167 35.209 201.21 35.6484C200.263 36.0781 199.257 36.293 198.193 36.293C196.669 36.293 195.434 35.8682 194.487 35.0186C193.549 34.1689 193.081 33.0947 193.081 31.7959C193.081 30.2529 193.72 29.0322 194.999 28.1338C196.289 27.2354 198.081 26.7861 200.375 26.7861H203.554V24.9844C203.554 23.8516 203.203 22.9629 202.499 22.3184C201.806 21.6641 200.79 21.3369 199.453 21.3369C198.232 21.3369 197.221 21.6494 196.42 22.2744C195.62 22.8994 195.219 23.6514 195.219 24.5303L193.461 24.5156C193.461 23.2559 194.047 22.167 195.219 21.249C196.391 20.3213 197.831 19.8574 199.54 19.8574C201.308 19.8574 202.7 20.3018 203.715 21.1904C204.741 22.0693 205.268 23.2998 205.297 24.8818V32.3818C205.297 33.915 205.458 35.0625 205.781 35.8242V36H203.906ZM198.398 34.7402C199.57 34.7402 200.615 34.457 201.533 33.8906C202.46 33.3242 203.134 32.5674 203.554 31.6201V28.1338H200.419C198.671 28.1533 197.304 28.4756 196.318 29.1006C195.331 29.7158 194.838 30.5654 194.838 31.6494C194.838 32.5381 195.165 33.2754 195.82 33.8613C196.484 34.4473 197.343 34.7402 198.398 34.7402ZM217.309 21.6445C216.938 21.5762 216.542 21.542 216.122 21.542C215.029 21.542 214.101 21.8496 213.339 22.4648C212.587 23.0703 212.05 23.9541 211.728 25.1162V36H209.985V20.1504H211.699L211.728 22.6699C212.656 20.7949 214.145 19.8574 216.196 19.8574C216.684 19.8574 217.07 19.9209 217.353 20.0479L217.309 21.6445ZM240.131 28.2363C240.131 30.707 239.584 32.6699 238.491 34.125C237.397 35.5703 235.932 36.293 234.096 36.293C231.928 36.293 230.268 35.5312 229.116 34.0078V42.0938H227.372V20.1504H228.998L229.086 22.3916C230.229 20.7021 231.884 19.8574 234.052 19.8574C235.947 19.8574 237.431 20.5752 238.505 22.0107C239.589 23.4463 240.131 25.4385 240.131 27.9873V28.2363ZM238.373 27.9287C238.373 25.9072 237.958 24.3105 237.128 23.1387C236.298 21.9668 235.141 21.3809 233.657 21.3809C232.582 21.3809 231.66 21.6396 230.888 22.1572C230.117 22.6748 229.526 23.4268 229.116 24.4131V32.0156C229.536 32.9238 230.136 33.6172 230.917 34.0957C231.699 34.5742 232.622 34.8135 233.686 34.8135C235.161 34.8135 236.308 34.2275 237.128 33.0557C237.958 31.874 238.373 30.165 238.373 27.9287ZM254.223 33.9932C253.168 35.5264 251.484 36.293 249.169 36.293C247.48 36.293 246.196 35.8047 245.317 34.8281C244.438 33.8418 243.989 32.3867 243.969 30.4629V20.1504H245.712V30.2432C245.712 33.2607 246.933 34.7695 249.374 34.7695C251.914 34.7695 253.52 33.7197 254.194 31.6201V20.1504H255.952V36H254.252L254.223 33.9932ZM273.281 28.2363C273.281 30.707 272.734 32.6699 271.64 34.125C270.546 35.5703 269.077 36.293 267.231 36.293C265.024 36.293 263.354 35.4727 262.221 33.832L262.148 36H260.507V13.5H262.25V22.4502C263.364 20.7217 265.014 19.8574 267.202 19.8574C269.077 19.8574 270.556 20.5752 271.64 22.0107C272.734 23.4365 273.281 25.4238 273.281 27.9727V28.2363ZM271.523 27.9287C271.523 25.8389 271.118 24.2275 270.307 23.0947C269.497 21.9521 268.354 21.3809 266.879 21.3809C265.756 21.3809 264.804 21.6592 264.023 22.2158C263.242 22.7627 262.651 23.5684 262.25 24.6328V31.7812C263.129 33.7734 264.682 34.7695 266.909 34.7695C268.354 34.7695 269.482 34.1982 270.292 33.0557C271.113 31.9131 271.523 30.2041 271.523 27.9287ZM279.125 36H277.368V13.5H279.125V36ZM285.864 36H284.106V20.1504H285.864V36ZM283.798 15.5654C283.798 15.2334 283.906 14.9551 284.121 14.7305C284.335 14.4961 284.628 14.3789 284.999 14.3789C285.371 14.3789 285.664 14.4961 285.878 14.7305C286.103 14.9551 286.215 15.2334 286.215 15.5654C286.215 15.8975 286.103 16.1758 285.878 16.4004C285.664 16.625 285.371 16.7373 284.999 16.7373C284.628 16.7373 284.335 16.625 284.121 16.4004C283.906 16.1758 283.798 15.8975 283.798 15.5654ZM296.498 34.8135C297.719 34.8135 298.74 34.4717 299.56 33.7881C300.39 33.0947 300.839 32.2012 300.908 31.1074H302.592C302.543 32.0742 302.241 32.958 301.684 33.7588C301.127 34.5498 300.385 35.1699 299.457 35.6191C298.539 36.0684 297.553 36.293 296.498 36.293C294.418 36.293 292.768 35.5703 291.547 34.125C290.336 32.6797 289.731 30.7363 289.731 28.2949V27.7676C289.731 26.2051 290.004 24.8232 290.551 23.6221C291.098 22.4209 291.879 21.4932 292.895 20.8389C293.92 20.1846 295.117 19.8574 296.484 19.8574C298.222 19.8574 299.653 20.375 300.776 21.4102C301.909 22.4453 302.514 23.8076 302.592 25.4971H300.908C300.83 24.2568 300.38 23.2559 299.56 22.4941C298.749 21.7324 297.724 21.3516 296.484 21.3516C294.902 21.3516 293.671 21.9229 292.792 23.0654C291.923 24.208 291.489 25.8096 291.489 27.8701V28.3828C291.489 30.4043 291.923 31.9814 292.792 33.1143C293.671 34.2471 294.907 34.8135 296.498 34.8135ZM316.113 36C315.937 35.502 315.825 34.7646 315.776 33.7881C315.161 34.5889 314.374 35.209 313.417 35.6484C312.47 36.0781 311.464 36.293 310.4 36.293C308.876 36.293 307.641 35.8682 306.694 35.0186C305.756 34.1689 305.288 33.0947 305.288 31.7959C305.288 30.2529 305.927 29.0322 307.206 28.1338C308.496 27.2354 310.288 26.7861 312.582 26.7861H315.761V24.9844C315.761 23.8516 315.41 22.9629 314.706 22.3184C314.013 21.6641 312.997 21.3369 311.66 21.3369C310.439 21.3369 309.428 21.6494 308.627 22.2744C307.827 22.8994 307.426 23.6514 307.426 24.5303L305.668 24.5156C305.668 23.2559 306.254 22.167 307.426 21.249C308.598 20.3213 310.039 19.8574 311.747 19.8574C313.515 19.8574 314.907 20.3018 315.922 21.1904C316.948 22.0693 317.475 23.2998 317.504 24.8818V32.3818C317.504 33.915 317.665 35.0625 317.988 35.8242V36H316.113ZM310.605 34.7402C311.777 34.7402 312.822 34.457 313.74 33.8906C314.667 33.3242 315.341 32.5674 315.761 31.6201V28.1338H312.626C310.878 28.1533 309.511 28.4756 308.525 29.1006C307.539 29.7158 307.045 30.5654 307.045 31.6494C307.045 32.5381 307.372 33.2754 308.027 33.8613C308.691 34.4473 309.55 34.7402 310.605 34.7402ZM328.051 34.8135C329.272 34.8135 330.292 34.4717 331.113 33.7881C331.943 33.0947 332.392 32.2012 332.46 31.1074H334.145C334.096 32.0742 333.793 32.958 333.237 33.7588C332.68 34.5498 331.938 35.1699 331.01 35.6191C330.092 36.0684 329.106 36.293 328.051 36.293C325.971 36.293 324.321 35.5703 323.1 34.125C321.889 32.6797 321.284 30.7363 321.284 28.2949V27.7676C321.284 26.2051 321.557 24.8232 322.104 23.6221C322.651 22.4209 323.432 21.4932 324.448 20.8389C325.473 20.1846 326.669 19.8574 328.037 19.8574C329.775 19.8574 331.206 20.375 332.329 21.4102C333.461 22.4453 334.067 23.8076 334.145 25.4971H332.46C332.382 24.2568 331.933 23.2559 331.113 22.4941C330.302 21.7324 329.277 21.3516 328.037 21.3516C326.455 21.3516 325.224 21.9229 324.345 23.0654C323.476 24.208 323.041 25.8096 323.041 27.8701V28.3828C323.041 30.4043 323.476 31.9814 324.345 33.1143C325.224 34.2471 326.459 34.8135 328.051 34.8135ZM339.623 36H337.866V20.1504H339.623V36ZM337.558 15.5654C337.558 15.2334 337.665 14.9551 337.88 14.7305C338.095 14.4961 338.388 14.3789 338.759 14.3789C339.13 14.3789 339.423 14.4961 339.638 14.7305C339.863 14.9551 339.975 15.2334 339.975 15.5654C339.975 15.8975 339.863 16.1758 339.638 16.4004C339.423 16.625 339.13 16.7373 338.759 16.7373C338.388 16.7373 338.095 16.625 337.88 16.4004C337.665 16.1758 337.558 15.8975 337.558 15.5654ZM343.432 27.8408C343.432 26.3174 343.725 24.9453 344.311 23.7246C344.907 22.5039 345.742 21.5566 346.816 20.8828C347.9 20.1992 349.125 19.8574 350.493 19.8574C352.602 19.8574 354.311 20.5996 355.62 22.084C356.928 23.5586 357.582 25.5166 357.582 27.958V28.3242C357.582 29.8574 357.285 31.2393 356.689 32.4697C356.103 33.6904 355.273 34.6328 354.199 35.2969C353.124 35.9609 351.899 36.293 350.522 36.293C348.422 36.293 346.713 35.5557 345.395 34.0811C344.086 32.5967 343.432 30.6338 343.432 28.1924V27.8408ZM345.19 28.3242C345.19 30.2188 345.678 31.7764 346.655 32.9971C347.641 34.208 348.93 34.8135 350.522 34.8135C352.104 34.8135 353.383 34.208 354.36 32.9971C355.346 31.7764 355.839 30.1699 355.839 28.1777V27.8408C355.839 26.6299 355.615 25.5215 355.165 24.5156C354.716 23.5098 354.086 22.7334 353.276 22.1865C352.465 21.6299 351.538 21.3516 350.493 21.3516C348.93 21.3516 347.656 21.9668 346.669 23.1973C345.683 24.418 345.19 26.0195 345.19 28.002V28.3242ZM352.236 13.5H354.36L350.976 17.6016H349.438L352.236 13.5ZM362.885 20.1504L362.944 22.8604C363.539 21.8838 364.282 21.1416 365.17 20.6338C366.059 20.1162 367.04 19.8574 368.115 19.8574C369.814 19.8574 371.079 20.3359 371.909 21.293C372.739 22.25 373.159 23.6855 373.168 25.5996V36H371.425V25.585C371.415 24.1689 371.113 23.1143 370.517 22.4209C369.931 21.7275 368.989 21.3809 367.69 21.3809C366.606 21.3809 365.644 21.7227 364.804 22.4062C363.974 23.0801 363.359 23.9932 362.958 25.1455V36H361.215V20.1504H362.885Z" fill="#FFFEFE"/>
</g>
<defs>
<filter id="filter0_d_168_180" x="0" y="0" width="522" height="60" filterUnits="userSpaceOnUse" color-interpolation-filters="sRGB">
<feFlood flood-opacity="0" result="BackgroundImageFix"/>
<feColorMatrix in="SourceAlpha" type="matrix" values="0 0 0 0 0 0 0 0 0 0 0 0 0 0 0 0 0 0 127 0" result="hardAlpha"/>
<feOffset dy="4"/>
<feGaussianBlur stdDeviation="2"/>
<feComposite in2="hardAlpha" operator="out"/>
<feColorMatrix type="matrix" values="0 0 0 0 0 0 0 0 0 0 0 0 0 0 0 0 0 0 0.25 0"/>
<feBlend mode="normal" in2="BackgroundImageFix" result="effect1_dropShadow_168_180"/>
<feBlend mode="normal" in="SourceGraphic" in2="effect1_dropShadow_168_180" result="shape"/>
</filter>
</defs>
</svg>
