<svg width="104" height="25" viewBox="0 0 104 25" fill="none" xmlns="http://www.w3.org/2000/svg">
<rect width="104" height="25" rx="5.6768" fill="#0F39CE"/>
<path d="M16.4375 14.375C16.9844 14.3719 17.5105 14.1646 17.9125 13.7937L21.825 16.0312C21.7752 16.2039 21.7499 16.3828 21.75 16.5625C21.746 17.0697 21.9169 17.5628 22.2339 17.9588C22.5509 18.3548 22.9946 18.6294 23.4904 18.7365C23.9862 18.8436 24.5038 18.7765 24.9559 18.5467C25.4081 18.3168 25.7673 17.9382 25.9729 17.4745C26.1786 17.0109 26.2182 16.4905 26.0851 16.0011C25.952 15.5116 25.6544 15.0829 25.2422 14.7873C24.8301 14.4916 24.3286 14.347 23.8223 14.3778C23.316 14.4085 22.8358 14.6128 22.4625 14.9562L18.55 12.7187C18.5972 12.5647 18.6225 12.4048 18.625 12.2437L22.4687 10.0437C22.84 10.3793 23.3154 10.5769 23.8151 10.6036C24.3148 10.6302 24.8085 10.4842 25.2134 10.19C25.6182 9.89586 25.9096 9.47144 26.0387 8.98794C26.1677 8.50444 26.1266 7.99126 25.9222 7.53448C25.7178 7.07769 25.3626 6.70508 24.9161 6.47913C24.4695 6.25318 23.9589 6.18765 23.4698 6.2935C22.9807 6.39936 22.5429 6.67018 22.2297 7.06055C21.9166 7.45091 21.7472 7.93707 21.75 8.43749C21.7521 8.61706 21.7773 8.7956 21.825 8.96874L18.2687 11C18.0627 10.6812 17.7772 10.4215 17.4404 10.2465C17.1036 10.0714 16.7271 9.98705 16.3478 10.0016C15.9685 10.0162 15.5995 10.1292 15.2771 10.3295C14.9547 10.5298 14.69 10.8106 14.5089 11.1443C14.3279 11.4779 14.2368 11.8529 14.2446 12.2324C14.2524 12.6119 14.3588 12.9828 14.5533 13.3087C14.7479 13.6347 15.0239 13.9043 15.3543 14.0913C15.6846 14.2782 16.0579 14.376 16.4375 14.375ZM23.9375 15.625C24.1229 15.625 24.3042 15.68 24.4583 15.783C24.6125 15.886 24.7327 16.0324 24.8036 16.2037C24.8746 16.375 24.8932 16.5635 24.857 16.7454C24.8208 16.9272 24.7315 17.0943 24.6004 17.2254C24.4693 17.3565 24.3023 17.4458 24.1204 17.482C23.9385 17.5181 23.75 17.4996 23.5787 17.4286C23.4074 17.3577 23.261 17.2375 23.158 17.0833C23.055 16.9292 23 16.7479 23 16.5625C23 16.3138 23.0988 16.0754 23.2746 15.8996C23.4504 15.7238 23.6889 15.625 23.9375 15.625ZM23.9375 7.49999C24.1229 7.49999 24.3042 7.55497 24.4583 7.65799C24.6125 7.761 24.7327 7.90742 24.8036 8.07872C24.8746 8.25003 24.8932 8.43853 24.857 8.62039C24.8208 8.80224 24.7315 8.96929 24.6004 9.1004C24.4693 9.23151 24.3023 9.3208 24.1204 9.35698C23.9385 9.39315 23.75 9.37458 23.5787 9.30363C23.4074 9.23267 23.261 9.11251 23.158 8.95834C23.055 8.80417 23 8.62291 23 8.43749C23 8.18885 23.0988 7.95039 23.2746 7.77458C23.4504 7.59876 23.6889 7.49999 23.9375 7.49999ZM16.4375 11.25C16.6229 11.25 16.8042 11.305 16.9583 11.408C17.1125 11.511 17.2327 11.6574 17.3036 11.8287C17.3746 12 17.3932 12.1885 17.357 12.3704C17.3208 12.5522 17.2315 12.7193 17.1004 12.8504C16.9693 12.9815 16.8023 13.0708 16.6204 13.107C16.4385 13.1431 16.25 13.1246 16.0787 13.0536C15.9074 12.9827 15.761 12.8625 15.658 12.7083C15.555 12.5542 15.5 12.3729 15.5 12.1875C15.5 11.9388 15.5988 11.7004 15.7746 11.5246C15.9504 11.3488 16.1889 11.25 16.4375 11.25Z" fill="#FFFCFC"/>
<path d="M43.4617 13.4388C43.3619 14.2925 43.0459 14.9522 42.5137 15.4179C41.9852 15.8799 41.2812 16.1109 40.4016 16.1109C39.448 16.1109 38.683 15.769 38.1064 15.0853C37.5336 14.4016 37.2472 13.4868 37.2472 12.3411V11.565C37.2472 10.8147 37.3802 10.155 37.6463 9.58588C37.9161 9.01672 38.2968 8.58062 38.7883 8.27756C39.2799 7.9708 39.849 7.81743 40.4958 7.81743C41.3532 7.81743 42.0407 8.05766 42.5581 8.53811C43.0755 9.01488 43.3767 9.67643 43.4617 10.5228H42.3918C42.2994 9.8797 42.0979 9.41403 41.7875 9.12575C41.4807 8.83748 41.0502 8.69334 40.4958 8.69334C39.8158 8.69334 39.2817 8.94466 38.8937 9.44729C38.5093 9.94992 38.3171 10.6651 38.3171 11.5927V12.3744C38.3171 13.2503 38.5001 13.947 38.8659 14.4644C39.2318 14.9818 39.7437 15.2405 40.4016 15.2405C40.9929 15.2405 41.4456 15.1075 41.7598 14.8414C42.0776 14.5716 42.2883 14.104 42.3918 13.4388H43.4617ZM44.4873 12.9454C44.4873 12.3578 44.6019 11.8293 44.831 11.3599C45.0638 10.8905 45.3854 10.5283 45.7956 10.2733C46.2096 10.0183 46.6808 9.89079 47.2093 9.89079C48.0261 9.89079 48.6858 10.1735 49.1884 10.739C49.6947 11.3044 49.9479 12.0565 49.9479 12.9953V13.0674C49.9479 13.6513 49.8352 14.1761 49.6097 14.6418C49.388 15.1038 49.0683 15.4641 48.6507 15.7228C48.2367 15.9815 47.76 16.1109 47.2204 16.1109C46.4073 16.1109 45.7476 15.8281 45.2412 15.2627C44.7386 14.6972 44.4873 13.9488 44.4873 13.0175V12.9454ZM45.5184 13.0674C45.5184 13.7326 45.6718 14.2667 45.9786 14.6695C46.289 15.0723 46.703 15.2738 47.2204 15.2738C47.7415 15.2738 48.1554 15.0705 48.4622 14.664C48.7689 14.2537 48.9223 13.6809 48.9223 12.9454C48.9223 12.2875 48.7652 11.7553 48.4511 11.3488C48.1406 10.9386 47.7267 10.7334 47.2093 10.7334C46.703 10.7334 46.2946 10.9349 45.9841 11.3377C45.6737 11.7406 45.5184 12.3171 45.5184 13.0674ZM52.1987 10.0017L52.2264 10.6669C52.6662 10.1495 53.2594 9.89079 54.0059 9.89079C54.8449 9.89079 55.4159 10.2123 55.7189 10.8554C55.9185 10.5671 56.1772 10.3343 56.4951 10.1569C56.8166 9.97949 57.1954 9.89079 57.6315 9.89079C58.9472 9.89079 59.6162 10.5875 59.6384 11.9808V16H58.6128V12.0418C58.6128 11.613 58.5148 11.2934 58.319 11.0827C58.1231 10.8683 57.7941 10.7612 57.3322 10.7612C56.9515 10.7612 56.6355 10.8757 56.3842 11.1049C56.1329 11.3303 55.9869 11.6352 55.9462 12.0196V16H54.9151V12.0695C54.9151 11.1973 54.4882 10.7612 53.6345 10.7612C52.9618 10.7612 52.5017 11.0476 52.2541 11.6204V16H51.2285V10.0017H52.1987ZM66.2576 13.0674C66.2576 13.9802 66.0488 14.7157 65.6312 15.2738C65.2135 15.8318 64.6481 16.1109 63.9348 16.1109C63.2067 16.1109 62.6338 15.8799 62.2162 15.4179V18.3062H61.1906V10.0017H62.1275L62.1774 10.6669C62.595 10.1495 63.1753 9.89079 63.9181 9.89079C64.6388 9.89079 65.208 10.1624 65.6256 10.7057C66.0469 11.249 66.2576 12.0048 66.2576 12.9731V13.0674ZM65.232 12.9509C65.232 12.2746 65.0879 11.7406 64.7996 11.3488C64.5113 10.957 64.1159 10.7612 63.6132 10.7612C62.9923 10.7612 62.5267 11.0365 62.2162 11.5872V14.4533C62.523 15.0003 62.9923 15.2738 63.6243 15.2738C64.1159 15.2738 64.5058 15.0797 64.794 14.6917C65.086 14.2999 65.232 13.7197 65.232 12.9509ZM71.2691 16C71.21 15.8817 71.162 15.6711 71.125 15.368C70.6482 15.8633 70.0791 16.1109 69.4175 16.1109C68.8262 16.1109 68.3402 15.9446 67.9595 15.6119C67.5826 15.2756 67.3941 14.8506 67.3941 14.3369C67.3941 13.7123 67.6306 13.2281 68.1037 12.8844C68.5804 12.537 69.2494 12.3633 70.1105 12.3633H71.1084V11.8921C71.1084 11.5336 71.0012 11.249 70.7868 11.0383C70.5725 10.824 70.2565 10.7168 69.8389 10.7168C69.473 10.7168 69.1662 10.8092 68.9186 10.994C68.671 11.1788 68.5472 11.4024 68.5472 11.6648H67.516C67.516 11.3654 67.6214 11.0772 67.832 10.8C68.0464 10.5191 68.3347 10.2973 68.6968 10.1347C69.0627 9.9721 69.4637 9.89079 69.8998 9.89079C70.591 9.89079 71.1324 10.0645 71.5242 10.4119C71.9159 10.7556 72.1192 11.2305 72.134 11.8366V14.5974C72.134 15.1481 72.2042 15.5861 72.3446 15.9113V16H71.2691ZM69.5672 15.2183C69.8888 15.2183 70.1937 15.1352 70.4819 14.9689C70.7702 14.8026 70.979 14.5863 71.1084 14.3202V13.0895H70.3045C69.048 13.0895 68.4197 13.4573 68.4197 14.1927C68.4197 14.5143 68.5268 14.7656 68.7412 14.9467C68.9556 15.1278 69.2309 15.2183 69.5672 15.2183ZM76.641 10.9219C76.4858 10.8961 76.3177 10.8831 76.1366 10.8831C75.4639 10.8831 75.0075 11.1695 74.7673 11.7424V16H73.7417V10.0017H74.7395L74.7562 10.6946C75.0925 10.1587 75.5693 9.89079 76.1865 9.89079C76.386 9.89079 76.5376 9.91666 76.641 9.9684V10.9219ZM79.2577 8.5492V10.0017H80.3775V10.7944H79.2577V14.5143C79.2577 14.7545 79.3076 14.9356 79.4074 15.0576C79.5072 15.1758 79.6772 15.235 79.9174 15.235C80.0357 15.235 80.1983 15.2128 80.4052 15.1684V16C80.1354 16.0739 79.873 16.1109 79.618 16.1109C79.1597 16.1109 78.8142 15.9723 78.5813 15.6951C78.3485 15.4179 78.2321 15.0243 78.2321 14.5143V10.7944H77.14V10.0017H78.2321V8.5492H79.2577ZM82.6948 16H81.6692V10.0017H82.6948V16ZM81.5861 8.41061C81.5861 8.2443 81.636 8.10385 81.7357 7.98928C81.8392 7.87471 81.9908 7.81743 82.1903 7.81743C82.3899 7.81743 82.5414 7.87471 82.6449 7.98928C82.7484 8.10385 82.8001 8.2443 82.8001 8.41061C82.8001 8.57692 82.7484 8.71551 82.6449 8.82639C82.5414 8.93726 82.3899 8.9927 82.1903 8.9927C81.9908 8.9927 81.8392 8.93726 81.7357 8.82639C81.636 8.71551 81.5861 8.57692 81.5861 8.41061ZM87.2407 10.9219C87.0855 10.8961 86.9173 10.8831 86.7362 10.8831C86.0636 10.8831 85.6071 11.1695 85.3669 11.7424V16H84.3413V10.0017H85.3392L85.3558 10.6946C85.6921 10.1587 86.1689 9.89079 86.7861 9.89079C86.9857 9.89079 87.1372 9.91666 87.2407 9.9684V10.9219Z" fill="#FCFDFF"/>
</svg>
