<svg width="104" height="25" viewBox="0 0 104 25" fill="none" xmlns="http://www.w3.org/2000/svg">
<rect width="104" height="25" rx="5.6768" fill="#0F39CE"/>
<path d="M25 6.25H20C17.9319 6.25 16.25 7.93187 16.25 10V17.5C16.25 17.6658 16.3158 17.8247 16.4331 17.9419C16.5503 18.0592 16.7092 18.125 16.875 18.125H25C27.0681 18.125 28.75 16.4431 28.75 14.375V10C28.75 7.93187 27.0681 6.25 25 6.25ZM27.5 14.375C27.5 15.7537 26.3787 16.875 25 16.875H17.5V10C17.5 8.62125 18.6212 7.5 20 7.5H25C26.3787 7.5 27.5 8.62125 27.5 10V14.375Z" fill="#FFFCFC"/>
<path d="M43.4496 13.4388C43.3498 14.2925 43.0338 14.9522 42.5016 15.4179C41.9731 15.8799 41.269 16.1109 40.3894 16.1109C39.4359 16.1109 38.6708 15.769 38.0943 15.0853C37.5214 14.4016 37.235 13.4868 37.235 12.3411V11.565C37.235 10.8147 37.3681 10.155 37.6342 9.58588C37.904 9.01672 38.2846 8.58062 38.7762 8.27756C39.2677 7.9708 39.8369 7.81743 40.4837 7.81743C41.3411 7.81743 42.0285 8.05766 42.5459 8.53811C43.0633 9.01488 43.3646 9.67643 43.4496 10.5228H42.3796C42.2872 9.8797 42.0858 9.41403 41.7753 9.12575C41.4686 8.83748 41.038 8.69334 40.4837 8.69334C39.8036 8.69334 39.2696 8.94466 38.8815 9.44729C38.4971 9.94992 38.305 10.6651 38.305 11.5927V12.3744C38.305 13.2503 38.4879 13.947 38.8538 14.4644C39.2197 14.9818 39.7315 15.2405 40.3894 15.2405C40.9807 15.2405 41.4335 15.1075 41.7476 14.8414C42.0655 14.5716 42.2761 14.104 42.3796 13.4388H43.4496ZM44.4751 12.9454C44.4751 12.3578 44.5897 11.8293 44.8189 11.3599C45.0517 10.8905 45.3732 10.5283 45.7835 10.2733C46.1974 10.0183 46.6686 9.89079 47.1971 9.89079C48.0139 9.89079 48.6736 10.1735 49.1762 10.739C49.6826 11.3044 49.9357 12.0565 49.9357 12.9953V13.0674C49.9357 13.6513 49.823 14.1761 49.5976 14.6418C49.3758 15.1038 49.0561 15.4641 48.6385 15.7228C48.2246 15.9815 47.7478 16.1109 47.2082 16.1109C46.3951 16.1109 45.7354 15.8281 45.2291 15.2627C44.7265 14.6972 44.4751 13.9488 44.4751 13.0175V12.9454ZM45.5063 13.0674C45.5063 13.7326 45.6597 14.2667 45.9664 14.6695C46.2769 15.0723 46.6908 15.2738 47.2082 15.2738C47.7293 15.2738 48.1433 15.0705 48.45 14.664C48.7568 14.2537 48.9101 13.6809 48.9101 12.9454C48.9101 12.2875 48.7531 11.7553 48.4389 11.3488C48.1285 10.9386 47.7145 10.7334 47.1971 10.7334C46.6908 10.7334 46.2824 10.9349 45.972 11.3377C45.6615 11.7406 45.5063 12.3171 45.5063 13.0674ZM52.1865 10.0017L52.2142 10.6669C52.654 10.1495 53.2472 9.89079 53.9938 9.89079C54.8327 9.89079 55.4037 10.2123 55.7068 10.8554C55.9064 10.5671 56.1651 10.3343 56.4829 10.1569C56.8044 9.97949 57.1833 9.89079 57.6194 9.89079C58.9351 9.89079 59.604 10.5875 59.6262 11.9808V16H58.6006V12.0418C58.6006 11.613 58.5027 11.2934 58.3068 11.0827C58.1109 10.8683 57.782 10.7612 57.32 10.7612C56.9393 10.7612 56.6234 10.8757 56.372 11.1049C56.1207 11.3303 55.9747 11.6352 55.9341 12.0196V16H54.9029V12.0695C54.9029 11.1973 54.4761 10.7612 53.6223 10.7612C52.9497 10.7612 52.4896 11.0476 52.2419 11.6204V16H51.2163V10.0017H52.1865ZM63.6676 16.1109C62.8545 16.1109 62.193 15.8448 61.6829 15.3126C61.1729 14.7767 60.9179 14.0615 60.9179 13.1671V12.9787C60.9179 12.3836 61.0306 11.8533 61.2561 11.3876C61.4852 10.9182 61.8031 10.5523 62.2096 10.2899C62.6198 10.0238 63.0633 9.89079 63.5401 9.89079C64.3199 9.89079 64.926 10.1476 65.3584 10.6614C65.7909 11.1751 66.0071 11.9106 66.0071 12.8678V13.2947H61.9435C61.9583 13.886 62.1301 14.3646 62.4591 14.7305C62.7917 15.0927 63.213 15.2738 63.723 15.2738C64.0852 15.2738 64.392 15.1999 64.6433 15.052C64.8946 14.9042 65.1145 14.7083 65.303 14.4644L65.9295 14.9522C65.4268 15.7247 64.6729 16.1109 63.6676 16.1109ZM63.5401 10.7334C63.1262 10.7334 62.7788 10.885 62.4979 11.188C62.217 11.4874 62.0433 11.9087 61.9768 12.452H64.9815V12.3744C64.9519 11.8533 64.8115 11.4504 64.5601 11.1659C64.3088 10.8776 63.9688 10.7334 63.5401 10.7334ZM68.1691 10.0017L68.2024 10.7556C68.6607 10.1791 69.2594 9.89079 69.9986 9.89079C71.2662 9.89079 71.9056 10.6059 71.9167 12.0362V16H70.8911V12.0307C70.8874 11.5983 70.7876 11.2786 70.5918 11.0716C70.3996 10.8646 70.0984 10.7612 69.6881 10.7612C69.3555 10.7612 69.0635 10.8499 68.8122 11.0273C68.5609 11.2047 68.365 11.4375 68.2246 11.7258V16H67.199V10.0017H68.1691ZM74.8549 8.5492V10.0017H75.9747V10.7944H74.8549V14.5143C74.8549 14.7545 74.9048 14.9356 75.0046 15.0576C75.1044 15.1758 75.2744 15.235 75.5146 15.235C75.6329 15.235 75.7955 15.2128 76.0024 15.1684V16C75.7327 16.0739 75.4702 16.1109 75.2152 16.1109C74.757 16.1109 74.4114 15.9723 74.1786 15.6951C73.9457 15.4179 73.8293 15.0243 73.8293 14.5143V10.7944H72.7372V10.0017H73.8293V8.5492H74.8549ZM80.8809 16C80.8218 15.8817 80.7738 15.6711 80.7368 15.368C80.26 15.8633 79.6909 16.1109 79.0293 16.1109C78.438 16.1109 77.952 15.9446 77.5713 15.6119C77.1944 15.2756 77.0059 14.8506 77.0059 14.3369C77.0059 13.7123 77.2424 13.2281 77.7155 12.8844C78.1922 12.537 78.8612 12.3633 79.7223 12.3633H80.7202V11.8921C80.7202 11.5336 80.613 11.249 80.3986 11.0383C80.1843 10.824 79.8683 10.7168 79.4507 10.7168C79.0848 10.7168 78.778 10.8092 78.5304 10.994C78.2828 11.1788 78.159 11.4024 78.159 11.6648H77.1278C77.1278 11.3654 77.2332 11.0772 77.4438 10.8C77.6582 10.5191 77.9465 10.2973 78.3086 10.1347C78.6745 9.9721 79.0755 9.89079 79.5116 9.89079C80.2028 9.89079 80.7442 10.0645 81.136 10.4119C81.5277 10.7556 81.731 11.2305 81.7458 11.8366V14.5974C81.7458 15.1481 81.816 15.5861 81.9564 15.9113V16H80.8809ZM79.179 15.2183C79.5006 15.2183 79.8055 15.1352 80.0937 14.9689C80.382 14.8026 80.5908 14.5863 80.7202 14.3202V13.0895H79.9163C78.6597 13.0895 78.0315 13.4573 78.0315 14.1927C78.0315 14.5143 78.1386 14.7656 78.353 14.9467C78.5674 15.1278 78.8427 15.2183 79.179 15.2183ZM86.2528 10.9219C86.0976 10.8961 85.9295 10.8831 85.7484 10.8831C85.0757 10.8831 84.6193 11.1695 84.379 11.7424V16H83.3535V10.0017H84.3513L84.368 10.6946C84.7043 10.1587 85.181 9.89079 85.7982 9.89079C85.9978 9.89079 86.1494 9.91666 86.2528 9.9684V10.9219Z" fill="#FCFDFF"/>
</svg>
