<svg width="105" height="26" viewBox="0 0 105 26" fill="none" xmlns="http://www.w3.org/2000/svg">
<rect x="0.996567" y="0.5" width="104" height="25" rx="5" fill="#4969D9"/>
<path d="M17.4341 14.4527C17.981 14.4496 18.507 14.2423 18.9091 13.8714L22.8216 16.1089C22.7717 16.2816 22.7465 16.4605 22.7466 16.6402C22.7425 17.1474 22.9134 17.6405 23.2304 18.0365C23.5474 18.4325 23.9912 18.7071 24.487 18.8142C24.9828 18.9213 25.5003 18.8542 25.9525 18.6244C26.4047 18.3945 26.7638 18.0159 26.9695 17.5522C27.1752 17.0886 27.2148 16.5682 27.0817 16.0788C26.9486 15.5893 26.6509 15.1606 26.2388 14.865C25.8266 14.5693 25.3252 14.4247 24.8189 14.4555C24.3126 14.4862 23.8324 14.6905 23.4591 15.0339L19.5466 12.7964C19.5938 12.6424 19.619 12.4825 19.6216 12.3214L23.4653 10.1214C23.8366 10.457 24.312 10.6546 24.8117 10.6812C25.3114 10.7079 25.8051 10.5619 26.2099 10.2677C26.6148 9.97356 26.9062 9.54914 27.0352 9.06564C27.1643 8.58213 27.1232 8.06896 26.9188 7.61217C26.7144 7.15539 26.3591 6.78278 25.9126 6.55683C25.4661 6.33088 24.9555 6.26534 24.4664 6.3712C23.9773 6.47706 23.5394 6.74788 23.2263 7.13824C22.9132 7.5286 22.7438 8.01476 22.7466 8.51519C22.7487 8.69475 22.7739 8.8733 22.8216 9.04644L19.2653 11.0777C19.0593 10.7589 18.7738 10.4992 18.437 10.3242C18.1002 10.1491 17.7236 10.0648 17.3443 10.0793C16.965 10.0939 16.5961 10.2069 16.2736 10.4072C15.9512 10.6075 15.6865 10.8883 15.5055 11.2219C15.3245 11.5556 15.2334 11.9306 15.2412 12.3101C15.249 12.6896 15.3554 13.0605 15.5499 13.3864C15.7445 13.7124 16.0205 13.982 16.3508 14.169C16.6812 14.3559 17.0545 14.4537 17.4341 14.4527ZM24.9341 15.7027C25.1195 15.7027 25.3007 15.7577 25.4549 15.8607C25.6091 15.9637 25.7292 16.1101 25.8002 16.2814C25.8712 16.4527 25.8897 16.6412 25.8536 16.8231C25.8174 17.0049 25.7281 17.172 25.597 17.3031C25.4659 17.4342 25.2988 17.5235 25.117 17.5597C24.9351 17.5958 24.7466 17.5773 24.5753 17.5063C24.404 17.4354 24.2576 17.3152 24.1546 17.161C24.0515 17.0069 23.9966 16.8256 23.9966 16.6402C23.9966 16.3915 24.0953 16.1531 24.2712 15.9773C24.447 15.8015 24.6854 15.7027 24.9341 15.7027ZM24.9341 7.57769C25.1195 7.57769 25.3007 7.63267 25.4549 7.73568C25.6091 7.8387 25.7292 7.98512 25.8002 8.15642C25.8712 8.32773 25.8897 8.51623 25.8536 8.69808C25.8174 8.87994 25.7281 9.04699 25.597 9.1781C25.4659 9.30921 25.2988 9.3985 25.117 9.43467C24.9351 9.47085 24.7466 9.45228 24.5753 9.38132C24.404 9.31037 24.2576 9.19021 24.1546 9.03603C24.0515 8.88186 23.9966 8.70061 23.9966 8.51519C23.9966 8.26655 24.0953 8.02809 24.2712 7.85227C24.447 7.67646 24.6854 7.57769 24.9341 7.57769ZM17.4341 11.3277C17.6195 11.3277 17.8007 11.3827 17.9549 11.4857C18.1091 11.5887 18.2292 11.7351 18.3002 11.9064C18.3712 12.0777 18.3897 12.2662 18.3536 12.4481C18.3174 12.6299 18.2281 12.797 18.097 12.9281C17.9659 13.0592 17.7988 13.1485 17.617 13.1847C17.4351 13.2208 17.2466 13.2023 17.0753 13.1313C16.904 13.0604 16.7576 12.9402 16.6546 12.786C16.5515 12.6319 16.4966 12.4506 16.4966 12.2652C16.4966 12.0165 16.5953 11.7781 16.7712 11.6023C16.947 11.4265 17.1854 11.3277 17.4341 11.3277Z" fill="#FFFCFC"/>
<path d="M41.8266 14.3004H43.2915C43.2446 14.8589 43.0884 15.357 42.8227 15.7945C42.5571 16.2281 42.1841 16.5699 41.7036 16.8199C41.2231 17.0699 40.6391 17.1949 39.9516 17.1949C39.4243 17.1949 38.9497 17.1011 38.5278 16.9136C38.1059 16.7222 37.7446 16.4527 37.4438 16.105C37.1431 15.7535 36.9126 15.3297 36.7524 14.8336C36.5962 14.3375 36.5181 13.7828 36.5181 13.1695V12.4605C36.5181 11.8472 36.5981 11.2925 36.7583 10.7964C36.9223 10.3004 37.1567 9.87653 37.4614 9.52496C37.7661 9.16949 38.1313 8.89801 38.5571 8.71051C38.9868 8.52301 39.4692 8.42926 40.0044 8.42926C40.6841 8.42926 41.2583 8.55426 41.727 8.80426C42.1958 9.05426 42.5591 9.39996 42.8169 9.84137C43.0786 10.2828 43.2388 10.7886 43.2973 11.3589H41.8325C41.7934 10.9918 41.7075 10.6773 41.5747 10.4156C41.4458 10.1539 41.2544 9.95465 41.0005 9.81793C40.7466 9.67731 40.4145 9.60699 40.0044 9.60699C39.6684 9.60699 39.3755 9.66949 39.1255 9.79449C38.8755 9.91949 38.6665 10.1031 38.4985 10.3453C38.3306 10.5875 38.2036 10.8863 38.1177 11.2418C38.0356 11.5933 37.9946 11.9957 37.9946 12.4488V13.1695C37.9946 13.5992 38.0317 13.9898 38.1059 14.3414C38.1841 14.689 38.3013 14.9879 38.4575 15.2379C38.6177 15.4879 38.8208 15.6812 39.0669 15.8179C39.313 15.9547 39.6079 16.023 39.9516 16.023C40.3696 16.023 40.7075 15.9566 40.9653 15.8238C41.227 15.691 41.4243 15.4976 41.5571 15.2437C41.6938 14.9859 41.7837 14.6714 41.8266 14.3004ZM44.2173 13.9781V13.8433C44.2173 13.3863 44.2837 12.9625 44.4165 12.5718C44.5493 12.1773 44.7407 11.8355 44.9907 11.5464C45.2446 11.2535 45.5532 11.0269 45.9165 10.8668C46.2837 10.7027 46.6977 10.6207 47.1587 10.6207C47.6235 10.6207 48.0376 10.7027 48.4009 10.8668C48.7681 11.0269 49.0786 11.2535 49.3325 11.5464C49.5864 11.8355 49.7798 12.1773 49.9126 12.5718C50.0454 12.9625 50.1118 13.3863 50.1118 13.8433V13.9781C50.1118 14.4351 50.0454 14.8589 49.9126 15.2496C49.7798 15.6402 49.5864 15.982 49.3325 16.275C49.0786 16.564 48.77 16.7906 48.4067 16.9547C48.0434 17.1148 47.6313 17.1949 47.1704 17.1949C46.7056 17.1949 46.2895 17.1148 45.9223 16.9547C45.5591 16.7906 45.2505 16.564 44.9966 16.275C44.7427 15.982 44.5493 15.6402 44.4165 15.2496C44.2837 14.8589 44.2173 14.4351 44.2173 13.9781ZM45.6294 13.8433V13.9781C45.6294 14.2632 45.6587 14.5328 45.7173 14.7867C45.7759 15.0406 45.8677 15.2632 45.9927 15.4547C46.1177 15.6461 46.2778 15.7964 46.4731 15.9058C46.6684 16.0152 46.9009 16.0699 47.1704 16.0699C47.4321 16.0699 47.6587 16.0152 47.8501 15.9058C48.0454 15.7964 48.2056 15.6461 48.3306 15.4547C48.4556 15.2632 48.5473 15.0406 48.6059 14.7867C48.6684 14.5328 48.6997 14.2632 48.6997 13.9781V13.8433C48.6997 13.5621 48.6684 13.2964 48.6059 13.0464C48.5473 12.7925 48.4536 12.5679 48.3247 12.3726C48.1997 12.1773 48.0395 12.025 47.8442 11.9156C47.6528 11.8023 47.4243 11.7457 47.1587 11.7457C46.8931 11.7457 46.6626 11.8023 46.4673 11.9156C46.2759 12.025 46.1177 12.1773 45.9927 12.3726C45.8677 12.5679 45.7759 12.7925 45.7173 13.0464C45.6587 13.2964 45.6294 13.5621 45.6294 13.8433ZM52.7075 12.0269V17.0777H51.2954V10.7379H52.6255L52.7075 12.0269ZM52.479 13.6734L51.9985 13.6675C51.9985 13.23 52.0532 12.8257 52.1626 12.4547C52.272 12.0836 52.4321 11.7613 52.6431 11.4879C52.854 11.2105 53.1157 10.9976 53.4282 10.8492C53.7446 10.6968 54.1098 10.6207 54.5239 10.6207C54.813 10.6207 55.0766 10.6636 55.3149 10.7496C55.5571 10.8316 55.7661 10.9625 55.9419 11.1422C56.1216 11.3218 56.2583 11.5523 56.352 11.8336C56.4497 12.1148 56.4985 12.4547 56.4985 12.8531V17.0777H55.0864V12.9761C55.0864 12.6675 55.0395 12.4254 54.9458 12.2496C54.8559 12.0738 54.7251 11.9488 54.5532 11.8746C54.3852 11.7964 54.1841 11.7574 53.9497 11.7574C53.6841 11.7574 53.4575 11.8082 53.27 11.9097C53.0864 12.0113 52.936 12.15 52.8188 12.3257C52.7016 12.5015 52.6157 12.7047 52.561 12.9351C52.5063 13.1656 52.479 13.4117 52.479 13.6734ZM56.4106 13.2984L55.7485 13.4449C55.7485 13.0621 55.8013 12.7007 55.9067 12.3609C56.0161 12.0172 56.1743 11.7164 56.3813 11.4586C56.5923 11.1968 56.852 10.9918 57.1606 10.8433C57.4692 10.6949 57.8227 10.6207 58.2212 10.6207C58.5454 10.6207 58.8345 10.6656 59.0884 10.7554C59.3462 10.8414 59.5649 10.9781 59.7446 11.1656C59.9243 11.3531 60.061 11.5972 60.1548 11.898C60.2485 12.1949 60.2954 12.5543 60.2954 12.9761V17.0777H58.8774V12.9703C58.8774 12.65 58.8306 12.4019 58.7368 12.2261C58.647 12.0504 58.5181 11.9293 58.3501 11.8629C58.1821 11.7925 57.9809 11.7574 57.7466 11.7574C57.5278 11.7574 57.3345 11.7984 57.1665 11.8804C57.0024 11.9586 56.8638 12.0699 56.7505 12.2144C56.6372 12.355 56.5513 12.5172 56.4927 12.7007C56.438 12.8843 56.4106 13.0836 56.4106 13.2984ZM63.1665 11.9566V19.5152H61.7544V10.7379H63.0552L63.1665 11.9566ZM67.2973 13.8492V13.9722C67.2973 14.4332 67.2427 14.8609 67.1333 15.2554C67.0278 15.6461 66.8696 15.9879 66.6587 16.2808C66.4516 16.5699 66.1958 16.7945 65.8911 16.9547C65.5864 17.1148 65.2348 17.1949 64.8364 17.1949C64.4419 17.1949 64.0962 17.1226 63.7993 16.9781C63.5063 16.8297 63.2583 16.6207 63.0552 16.3511C62.852 16.0816 62.688 15.7652 62.563 15.4019C62.4419 15.0347 62.3559 14.6324 62.3052 14.1949V13.7203C62.3559 13.2554 62.4419 12.8336 62.563 12.4547C62.688 12.0757 62.852 11.7496 63.0552 11.4761C63.2583 11.2027 63.5063 10.9918 63.7993 10.8433C64.0923 10.6949 64.4341 10.6207 64.8247 10.6207C65.2231 10.6207 65.5766 10.6988 65.8852 10.855C66.1938 11.0074 66.4536 11.2261 66.6645 11.5113C66.8755 11.7925 67.0337 12.1324 67.1391 12.5308C67.2446 12.9254 67.2973 13.3648 67.2973 13.8492ZM65.8852 13.9722V13.8492C65.8852 13.5562 65.8579 13.2847 65.8032 13.0347C65.7485 12.7808 65.6626 12.5582 65.5454 12.3668C65.4282 12.1754 65.2778 12.0269 65.0942 11.9214C64.9145 11.8121 64.6977 11.7574 64.4438 11.7574C64.1938 11.7574 63.979 11.8004 63.7993 11.8863C63.6196 11.9683 63.4692 12.0836 63.3481 12.232C63.227 12.3804 63.1333 12.5543 63.0669 12.7535C63.0005 12.9488 62.9536 13.1617 62.9263 13.3922V14.5289C62.9731 14.8101 63.0532 15.0679 63.1665 15.3023C63.2798 15.5367 63.4399 15.7242 63.647 15.8648C63.8579 16.0015 64.1274 16.0699 64.4556 16.0699C64.7095 16.0699 64.9263 16.0152 65.1059 15.9058C65.2856 15.7964 65.4321 15.6461 65.5454 15.4547C65.6626 15.2593 65.7485 15.0347 65.8032 14.7808C65.8579 14.5269 65.8852 14.2574 65.8852 13.9722ZM72.0727 15.8062V12.7828C72.0727 12.5562 72.0317 12.3609 71.9497 12.1968C71.8677 12.0328 71.7427 11.9058 71.5747 11.816C71.4106 11.7261 71.2036 11.6812 70.9536 11.6812C70.7231 11.6812 70.5239 11.7203 70.3559 11.7984C70.188 11.8765 70.0571 11.982 69.9634 12.1148C69.8696 12.2476 69.8227 12.398 69.8227 12.566H68.4165C68.4165 12.316 68.477 12.0738 68.5981 11.8394C68.7192 11.605 68.895 11.3961 69.1255 11.2125C69.3559 11.0289 69.6313 10.8843 69.9516 10.7789C70.272 10.6734 70.6313 10.6207 71.0298 10.6207C71.5063 10.6207 71.9282 10.7007 72.2954 10.8609C72.6665 11.0211 72.9575 11.2632 73.1684 11.5875C73.3833 11.9078 73.4907 12.3101 73.4907 12.7945V15.6129C73.4907 15.9019 73.5102 16.1617 73.5493 16.3922C73.5923 16.6187 73.6528 16.816 73.7309 16.9839V17.0777H72.2837C72.2173 16.9254 72.1645 16.732 72.1255 16.4976C72.0903 16.2593 72.0727 16.0289 72.0727 15.8062ZM72.2778 13.2222L72.2895 14.0953H71.2759C71.0141 14.0953 70.7837 14.1207 70.5845 14.1714C70.3852 14.2183 70.2192 14.2886 70.0864 14.3824C69.9536 14.4761 69.854 14.5894 69.7876 14.7222C69.7212 14.855 69.688 15.0054 69.688 15.1734C69.688 15.3414 69.727 15.4957 69.8052 15.6363C69.8833 15.773 69.9966 15.8804 70.145 15.9586C70.2973 16.0367 70.4809 16.0757 70.6958 16.0757C70.9848 16.0757 71.2368 16.0172 71.4516 15.9C71.6704 15.7789 71.8423 15.6324 71.9673 15.4605C72.0923 15.2847 72.1587 15.1187 72.1665 14.9625L72.6235 15.5894C72.5766 15.7496 72.4966 15.9214 72.3833 16.105C72.27 16.2886 72.1216 16.4644 71.938 16.6324C71.7583 16.7964 71.5415 16.9312 71.2876 17.0367C71.0376 17.1422 70.7485 17.1949 70.4204 17.1949C70.0063 17.1949 69.6372 17.1129 69.313 16.9488C68.9888 16.7808 68.7348 16.5562 68.5513 16.275C68.3677 15.9898 68.2759 15.6675 68.2759 15.3082C68.2759 14.9722 68.3384 14.6754 68.4634 14.4175C68.5923 14.1558 68.7798 13.9371 69.0259 13.7613C69.2759 13.5855 69.5806 13.4527 69.9399 13.3629C70.2993 13.2691 70.7095 13.2222 71.1704 13.2222H72.2778ZM76.3852 11.9449V17.0777H74.9731V10.7379H76.3208L76.3852 11.9449ZM78.3247 10.6968L78.313 12.0093C78.227 11.9937 78.1333 11.982 78.0317 11.9742C77.9341 11.9664 77.8364 11.9625 77.7388 11.9625C77.4966 11.9625 77.2837 11.9976 77.1001 12.0679C76.9165 12.1343 76.7622 12.232 76.6372 12.3609C76.5161 12.4859 76.4223 12.6382 76.3559 12.8179C76.2895 12.9976 76.2505 13.1988 76.2388 13.4214L75.9165 13.4449C75.9165 13.0464 75.9556 12.6773 76.0337 12.3375C76.1118 11.9976 76.229 11.6988 76.3852 11.441C76.5454 11.1832 76.7446 10.982 76.9829 10.8375C77.2251 10.6929 77.5044 10.6207 77.8208 10.6207C77.9067 10.6207 77.9985 10.6285 78.0962 10.6441C78.1977 10.6597 78.2739 10.6773 78.3247 10.6968ZM82.4087 10.7379V11.7691H78.8345V10.7379H82.4087ZM79.8657 9.18512H81.2778V15.3257C81.2778 15.5211 81.3052 15.6714 81.3598 15.7769C81.4184 15.8785 81.4985 15.9468 81.6001 15.982C81.7016 16.0172 81.8208 16.0347 81.9575 16.0347C82.0552 16.0347 82.1489 16.0289 82.2388 16.0172C82.3286 16.0054 82.4009 15.9937 82.4556 15.982L82.4614 17.0601C82.3442 17.0953 82.2075 17.1265 82.0513 17.1539C81.8989 17.1812 81.7231 17.1949 81.5239 17.1949C81.1997 17.1949 80.9126 17.1382 80.6626 17.025C80.4126 16.9078 80.2173 16.7183 80.0766 16.4566C79.936 16.1949 79.8657 15.8472 79.8657 15.4136V9.18512ZM85.0102 10.7379V17.0777H83.5923V10.7379H85.0102ZM83.4985 9.07379C83.4985 8.85895 83.5688 8.68121 83.7095 8.54059C83.854 8.39606 84.0532 8.32379 84.3071 8.32379C84.5571 8.32379 84.7544 8.39606 84.8989 8.54059C85.0434 8.68121 85.1157 8.85895 85.1157 9.07379C85.1157 9.28473 85.0434 9.46051 84.8989 9.60114C84.7544 9.74176 84.5571 9.81207 84.3071 9.81207C84.0532 9.81207 83.854 9.74176 83.7095 9.60114C83.5688 9.46051 83.4985 9.28473 83.4985 9.07379ZM87.9751 11.9449V17.0777H86.563V10.7379H87.9106L87.9751 11.9449ZM89.9145 10.6968L89.9028 12.0093C89.8169 11.9937 89.7231 11.982 89.6216 11.9742C89.5239 11.9664 89.4263 11.9625 89.3286 11.9625C89.0864 11.9625 88.8735 11.9976 88.6899 12.0679C88.5063 12.1343 88.352 12.232 88.227 12.3609C88.1059 12.4859 88.0122 12.6382 87.9458 12.8179C87.8794 12.9976 87.8403 13.1988 87.8286 13.4214L87.5063 13.4449C87.5063 13.0464 87.5454 12.6773 87.6235 12.3375C87.7016 11.9976 87.8188 11.6988 87.9751 11.441C88.1352 11.1832 88.3345 10.982 88.5727 10.8375C88.8149 10.6929 89.0942 10.6207 89.4106 10.6207C89.4966 10.6207 89.5884 10.6285 89.686 10.6441C89.7876 10.6597 89.8638 10.6773 89.9145 10.6968Z" fill="#FCFDFF"/>
</svg>
