<svg width="104" height="25" viewBox="0 0 104 25" fill="none" xmlns="http://www.w3.org/2000/svg">
<rect width="104" height="25" rx="5.6768" fill="#0F39CE"/>
<path d="M32.7446 14.2168H28.2769L27.2734 17H25.8232L29.8955 6.33594H31.126L35.2056 17H33.7627L32.7446 14.2168ZM28.7017 13.0596H32.3271L30.5107 8.07178L28.7017 13.0596ZM36.1064 12.9717C36.1064 11.7363 36.3921 10.7549 36.9634 10.0273C37.5347 9.29492 38.2915 8.92871 39.2339 8.92871C40.2007 8.92871 40.9551 9.27051 41.4971 9.9541L41.563 9.0752H42.8008V16.8096C42.8008 17.835 42.4956 18.6431 41.8853 19.2339C41.2798 19.8247 40.4644 20.1201 39.439 20.1201C38.8677 20.1201 38.3086 19.998 37.7617 19.7539C37.2148 19.5098 36.7974 19.1753 36.5093 18.7505L37.2124 17.9375C37.7935 18.6553 38.5039 19.0142 39.3438 19.0142C40.0029 19.0142 40.5156 18.8286 40.8818 18.4575C41.2529 18.0864 41.4385 17.564 41.4385 16.8901V16.209C40.8965 16.834 40.1567 17.1465 39.2192 17.1465C38.2915 17.1465 37.5396 16.7729 36.9634 16.0259C36.3921 15.2788 36.1064 14.2607 36.1064 12.9717ZM37.4688 13.1255C37.4688 14.019 37.6519 14.7222 38.0181 15.2349C38.3843 15.7427 38.897 15.9966 39.5562 15.9966C40.4106 15.9966 41.0381 15.6084 41.4385 14.832V11.2139C41.0234 10.457 40.4009 10.0786 39.5708 10.0786C38.9116 10.0786 38.3965 10.335 38.0254 10.8477C37.6543 11.3604 37.4688 12.1196 37.4688 13.1255ZM48.6821 10.291C48.4771 10.2568 48.2549 10.2397 48.0156 10.2397C47.127 10.2397 46.5239 10.6182 46.2065 11.375V17H44.8516V9.0752H46.1699L46.1919 9.99072C46.6362 9.28271 47.2661 8.92871 48.0815 8.92871C48.3452 8.92871 48.5454 8.96289 48.6821 9.03125V10.291ZM53.0767 17.1465C52.0024 17.1465 51.1284 16.7949 50.4546 16.0918C49.7808 15.3838 49.4438 14.439 49.4438 13.2573V13.0083C49.4438 12.2222 49.5928 11.5215 49.8906 10.9062C50.1934 10.2861 50.6133 9.80273 51.1504 9.45605C51.6924 9.10449 52.2783 8.92871 52.9082 8.92871C53.9385 8.92871 54.7393 9.26807 55.3105 9.94678C55.8818 10.6255 56.1675 11.5972 56.1675 12.8618V13.4258H50.7988C50.8184 14.207 51.0454 14.8394 51.48 15.3228C51.9194 15.8013 52.4761 16.0405 53.1499 16.0405C53.6284 16.0405 54.0337 15.9429 54.3657 15.7476C54.6978 15.5522 54.9883 15.2935 55.2373 14.9712L56.0649 15.6157C55.4009 16.6362 54.4048 17.1465 53.0767 17.1465ZM52.9082 10.042C52.3613 10.042 51.9023 10.2422 51.5312 10.6426C51.1602 11.0381 50.9307 11.5947 50.8428 12.3125H54.8125V12.21C54.7734 11.5215 54.5879 10.9893 54.2559 10.6133C53.9238 10.2324 53.4746 10.042 52.9082 10.042ZM57.4199 12.9717C57.4199 11.7363 57.7056 10.7549 58.2769 10.0273C58.8481 9.29492 59.605 8.92871 60.5474 8.92871C61.5142 8.92871 62.2686 9.27051 62.8105 9.9541L62.8765 9.0752H64.1143V16.8096C64.1143 17.835 63.8091 18.6431 63.1987 19.2339C62.5933 19.8247 61.7778 20.1201 60.7524 20.1201C60.1812 20.1201 59.6221 19.998 59.0752 19.7539C58.5283 19.5098 58.1108 19.1753 57.8228 18.7505L58.5259 17.9375C59.1069 18.6553 59.8174 19.0142 60.6572 19.0142C61.3164 19.0142 61.8291 18.8286 62.1953 18.4575C62.5664 18.0864 62.752 17.564 62.752 16.8901V16.209C62.21 16.834 61.4702 17.1465 60.5327 17.1465C59.605 17.1465 58.853 16.7729 58.2769 16.0259C57.7056 15.2788 57.4199 14.2607 57.4199 12.9717ZM58.7822 13.1255C58.7822 14.019 58.9653 14.7222 59.3315 15.2349C59.6978 15.7427 60.2104 15.9966 60.8696 15.9966C61.7241 15.9966 62.3516 15.6084 62.752 14.832V11.2139C62.3369 10.457 61.7144 10.0786 60.8843 10.0786C60.2251 10.0786 59.71 10.335 59.3389 10.8477C58.9678 11.3604 58.7822 12.1196 58.7822 13.1255ZM71.0576 17C70.9795 16.8438 70.916 16.5654 70.8672 16.165C70.2373 16.8193 69.4854 17.1465 68.6113 17.1465C67.8301 17.1465 67.188 16.9268 66.6851 16.4873C66.187 16.043 65.938 15.4814 65.938 14.8027C65.938 13.9775 66.2505 13.3379 66.8755 12.8838C67.5054 12.4248 68.3892 12.1953 69.5269 12.1953H70.8452V11.5728C70.8452 11.0991 70.7036 10.7231 70.4204 10.4448C70.1372 10.1616 69.7197 10.02 69.168 10.02C68.6846 10.02 68.2793 10.1421 67.9521 10.3862C67.625 10.6304 67.4614 10.9258 67.4614 11.2725H66.0991C66.0991 10.877 66.2383 10.4961 66.5166 10.1299C66.7998 9.75879 67.1807 9.46582 67.6592 9.25098C68.1426 9.03613 68.6724 8.92871 69.2485 8.92871C70.1616 8.92871 70.877 9.1582 71.3945 9.61719C71.9121 10.0713 72.1807 10.6987 72.2002 11.4995V15.147C72.2002 15.8745 72.293 16.4531 72.4785 16.8828V17H71.0576ZM68.8091 15.9673C69.2339 15.9673 69.6367 15.8574 70.0176 15.6377C70.3984 15.418 70.6743 15.1323 70.8452 14.7808V13.1548H69.7832C68.123 13.1548 67.293 13.6406 67.293 14.6123C67.293 15.0371 67.4346 15.3691 67.7178 15.6084C68.001 15.8477 68.3647 15.9673 68.8091 15.9673ZM78.1548 10.291C77.9497 10.2568 77.7275 10.2397 77.4883 10.2397C76.5996 10.2397 75.9966 10.6182 75.6792 11.375V17H74.3242V9.0752H75.6426L75.6646 9.99072C76.1089 9.28271 76.7388 8.92871 77.5542 8.92871C77.8179 8.92871 78.0181 8.96289 78.1548 9.03125V10.291Z" fill="#FCFDFF"/>
</svg>
