<svg width="15" height="16" viewBox="0 0 15 16" fill="none" xmlns="http://www.w3.org/2000/svg">
<path d="M7.5 1.75C4.05375 1.75 1.25 4.55375 1.25 8C1.25 11.4463 4.05375 14.25 7.5 14.25C10.9463 14.25 13.75 11.4463 13.75 8C13.75 4.55375 10.9463 1.75 7.5 1.75ZM7.5 13C4.74313 13 2.5 10.7569 2.5 8C2.5 5.24313 4.74313 3 7.5 3C10.2569 3 12.5 5.24313 12.5 8C12.5 10.7569 10.2569 13 7.5 13Z" fill="#F5C413"/>
<path d="M5.3125 8C5.83027 8 6.25 7.58027 6.25 7.0625C6.25 6.54473 5.83027 6.125 5.3125 6.125C4.79473 6.125 4.375 6.54473 4.375 7.0625C4.375 7.58027 4.79473 8 5.3125 8Z" fill="#F5C413"/>
<path d="M9.68312 7.99125C10.1985 7.99125 10.6162 7.57348 10.6162 7.05812C10.6162 6.54277 10.1985 6.125 9.68312 6.125C9.16777 6.125 8.75 6.54277 8.75 7.05812C8.75 7.57348 9.16777 7.99125 9.68312 7.99125Z" fill="#F5C413"/>
<path d="M7.5 11.75C10 11.75 10.625 9.25 10.625 9.25H4.375C4.375 9.25 5 11.75 7.5 11.75Z" fill="#F5C413"/>
</svg>
