<svg width="35" height="35" viewBox="0 0 35 35" fill="none" xmlns="http://www.w3.org/2000/svg">
<path d="M17.5 2.9165C9.45874 2.9165 2.91666 9.45859 2.91666 17.4998C2.91666 25.5411 9.45874 32.0832 17.5 32.0832C25.5412 32.0832 32.0833 25.5411 32.0833 17.4998C32.0833 9.45859 25.5412 2.9165 17.5 2.9165ZM17.5 29.1665C11.0673 29.1665 5.83332 23.9325 5.83332 17.4998C5.83332 11.0671 11.0673 5.83317 17.5 5.83317C23.9327 5.83317 29.1667 11.0671 29.1667 17.4998C29.1667 23.9325 23.9327 29.1665 17.5 29.1665Z" fill="#F5C413"/>
<path d="M12.3958 17.5C13.604 17.5 14.5833 16.5206 14.5833 15.3125C14.5833 14.1044 13.604 13.125 12.3958 13.125C11.1877 13.125 10.2083 14.1044 10.2083 15.3125C10.2083 16.5206 11.1877 17.5 12.3958 17.5Z" fill="#F5C413"/>
<path d="M22.5939 17.4796C23.7964 17.4796 24.7712 16.5048 24.7712 15.3023C24.7712 14.0998 23.7964 13.125 22.5939 13.125C21.3915 13.125 20.4167 14.0998 20.4167 15.3023C20.4167 16.5048 21.3915 17.4796 22.5939 17.4796Z" fill="#F5C413"/>
<path d="M17.5 26.2498C23.3333 26.2498 24.7917 20.4165 24.7917 20.4165H10.2083C10.2083 20.4165 11.6667 26.2498 17.5 26.2498Z" fill="#F5C413"/>
</svg>
