<svg width="15" height="17" viewBox="0 0 15 17" fill="none" xmlns="http://www.w3.org/2000/svg">
<circle cx="7.5" cy="8.74219" r="7.5" fill="#F03F3F"/>
<path d="M5.87842 7.63818H6.93311C7.34326 7.63818 7.68262 7.56738 7.95117 7.42578C8.22461 7.28418 8.42725 7.08887 8.55908 6.83984C8.69092 6.59082 8.75684 6.30518 8.75684 5.98291C8.75684 5.646 8.6958 5.35791 8.57373 5.11865C8.45654 4.87451 8.27588 4.68652 8.03174 4.55469C7.79248 4.42285 7.4873 4.35693 7.11621 4.35693C6.80371 4.35693 6.52051 4.42041 6.2666 4.54736C6.01758 4.66943 5.81982 4.84521 5.67334 5.07471C5.52686 5.29932 5.45361 5.56787 5.45361 5.88037H3.68115C3.68115 5.31396 3.83008 4.81104 4.12793 4.37158C4.42578 3.93213 4.83105 3.58789 5.34375 3.33887C5.86133 3.08496 6.44238 2.95801 7.08691 2.95801C7.77539 2.95801 8.37598 3.07275 8.88867 3.30225C9.40625 3.52686 9.80908 3.86377 10.0972 4.31299C10.3853 4.76221 10.5293 5.31885 10.5293 5.98291C10.5293 6.28564 10.4585 6.59326 10.3169 6.90576C10.1753 7.21826 9.96533 7.50391 9.68701 7.7627C9.40869 8.0166 9.06201 8.22412 8.64697 8.38525C8.23193 8.5415 7.75098 8.61963 7.2041 8.61963H5.87842V7.63818ZM5.87842 9.01514V8.04834H7.2041C7.8291 8.04834 8.36133 8.12158 8.80078 8.26807C9.24512 8.41455 9.60645 8.61719 9.88477 8.87598C10.1631 9.12988 10.3657 9.42041 10.4927 9.74756C10.6245 10.0747 10.6904 10.4214 10.6904 10.7876C10.6904 11.2856 10.6001 11.73 10.4194 12.1206C10.2437 12.5063 9.99219 12.8335 9.66504 13.1021C9.33789 13.3706 8.95459 13.5732 8.51514 13.71C8.08057 13.8467 7.60693 13.915 7.09424 13.915C6.63525 13.915 6.1958 13.8516 5.77588 13.7246C5.35596 13.5977 4.97998 13.4097 4.64795 13.1606C4.31592 12.9067 4.05225 12.5918 3.85693 12.2158C3.6665 11.835 3.57129 11.3955 3.57129 10.8975H5.33643C5.33643 11.2148 5.40967 11.4956 5.55615 11.7397C5.70752 11.979 5.91748 12.167 6.18604 12.3037C6.45947 12.4404 6.77197 12.5088 7.12354 12.5088C7.49463 12.5088 7.81445 12.4429 8.08301 12.311C8.35156 12.1792 8.55664 11.9839 8.69824 11.7251C8.84473 11.4663 8.91797 11.1538 8.91797 10.7876C8.91797 10.3726 8.8374 10.0356 8.67627 9.77686C8.51514 9.51807 8.28564 9.32764 7.98779 9.20557C7.68994 9.07861 7.33838 9.01514 6.93311 9.01514H5.87842Z" fill="white"/>
</svg>
