<svg width="85" height="90" viewBox="0 0 85 90" fill="none" xmlns="http://www.w3.org/2000/svg">
<path d="M4.22734 49.3243H8.45558V80.7119C8.45558 85.6577 12.2483 89.6798 16.9121 89.6798H67.651C72.3147 89.6798 76.1075 85.6577 76.1075 80.7119V49.3243H80.3357C81.1718 49.3241 81.9891 49.061 82.6843 48.5683C83.3795 48.0756 83.9213 47.3754 84.2412 46.5562C84.5612 45.7369 84.6449 44.8355 84.4818 43.9658C84.3188 43.0962 83.9162 42.2973 83.3251 41.6702L45.2709 1.3147C44.8786 0.897934 44.4126 0.567298 43.8996 0.341707C43.3867 0.116117 42.8368 0 42.2815 0C41.7262 0 41.1763 0.116117 40.6634 0.341707C40.1504 0.567298 39.6845 0.897934 39.2922 1.3147L1.23797 41.6702C0.646826 42.2973 0.24427 43.0962 0.081197 43.9658C-0.081876 44.8355 0.001856 45.7369 0.321807 46.5562C0.641758 47.3754 1.18356 48.0756 1.87873 48.5683C2.57389 49.061 3.3912 49.3241 4.22734 49.3243ZM33.825 80.7119V58.2922H50.738V80.7119H33.825ZM42.2815 10.8251L67.651 37.7288V58.2922L67.6552 80.7119H59.1945V58.2922C59.1945 53.3464 55.4018 49.3243 50.738 49.3243H33.825C29.1613 49.3243 25.3685 53.3464 25.3685 58.2922V80.7119H16.9121V37.7288L42.2815 10.8251Z" fill="black"/>
</svg>
