<svg width="35" height="36" viewBox="0 0 35 36" fill="none" xmlns="http://www.w3.org/2000/svg">
<path d="M5.51201 28.4843V35.0306L8.11464 33.4505L16.2953 28.4843H24.409C26.3039 28.4843 27.8448 26.9251 27.8448 25.0078V11.1018C27.8448 9.18446 26.3039 7.62524 24.409 7.62524H3.7941C1.89924 7.62524 0.358276 9.18446 0.358276 11.1018V25.0078C0.358276 26.9251 1.89924 28.4843 3.7941 28.4843H5.51201ZM3.7941 11.1018H24.409V25.0078H15.3436L8.94783 28.8911V25.0078H3.7941V11.1018Z" fill="black" fill-opacity="0.3"/>
<path d="M31.2807 0.672241H10.6658C8.77095 0.672241 7.22998 2.23146 7.22998 4.14876H27.8449C29.7398 4.14876 31.2807 5.70797 31.2807 7.62527V21.5313C33.1756 21.5313 34.7166 19.9721 34.7166 18.0548V4.14876C34.7166 2.23146 33.1756 0.672241 31.2807 0.672241Z" fill="black" fill-opacity="0.3"/>
</svg>
