<svg width="38" height="38" viewBox="0 0 38 38" fill="none" xmlns="http://www.w3.org/2000/svg">
<path d="M6.45923 30.905V37.9546L9.26198 36.2531L18.0717 30.905H26.8092C28.8497 30.905 30.5092 29.2259 30.5092 27.1612V12.186C30.5092 10.1212 28.8497 8.44214 26.8092 8.44214H4.60923C2.56869 8.44214 0.909241 10.1212 0.909241 12.186V27.1612C0.909241 29.2259 2.56869 30.905 4.60923 30.905H6.45923ZM4.60923 12.186H26.8092V27.1612H17.0468L10.1592 31.3431V27.1612H4.60923V12.186Z" fill="#FFFBFB"/>
<path d="M34.2092 0.95459H12.0093C9.96874 0.95459 8.3093 2.63369 8.3093 4.69841H30.5093C32.5498 4.69841 34.2092 6.37751 34.2092 8.44222V23.4175C36.2498 23.4175 37.9092 21.7384 37.9092 19.6737V4.69841C37.9092 2.63369 36.2498 0.95459 34.2092 0.95459Z" fill="#FFFBFB"/>
</svg>
