<svg width="102" height="108" viewBox="0 0 102 108" fill="none" xmlns="http://www.w3.org/2000/svg">
<path d="M21.1413 80.7111V97.5977L27.5471 93.5218L47.6819 80.7111H67.6519C72.3157 80.7111 76.1084 76.689 76.1084 71.7433V35.8717C76.1084 30.9259 72.3157 26.9038 67.6519 26.9038H16.913C12.2493 26.9038 8.45654 30.9259 8.45654 35.8717V71.7433C8.45654 76.689 12.2493 80.7111 16.913 80.7111H21.1413ZM16.913 35.8717H67.6519V71.7433H45.3395L29.5978 81.7604V71.7433H16.913V35.8717Z" fill="black"/>
<path d="M84.5648 8.96777H33.8259C29.1621 8.96777 25.3694 12.9899 25.3694 17.9357H76.1083C80.772 17.9357 84.5648 21.9578 84.5648 26.9036V62.7751C89.2285 62.7751 93.0213 58.753 93.0213 53.8072V17.9357C93.0213 12.9899 89.2285 8.96777 84.5648 8.96777Z" fill="black"/>
</svg>
