<svg width="24" height="24" viewBox="0 0 24 24" fill="none" xmlns="http://www.w3.org/2000/svg">
<path d="M5.5001 15.0001C6.3752 14.9951 7.21687 14.6634 7.8601 14.0701L14.1201 17.6501C14.0404 17.9264 14 18.2125 14.0001 18.5001C13.9937 19.3116 14.2671 20.1006 14.7743 20.7341C15.2815 21.3677 15.9915 21.8071 16.7848 21.9785C17.5781 22.1498 18.4061 22.0426 19.1296 21.6748C19.8531 21.307 20.4277 20.7012 20.7568 19.9594C21.0859 19.2175 21.1493 18.3849 20.9363 17.6018C20.7234 16.8187 20.2471 16.1328 19.5876 15.6597C18.9282 15.1867 18.1259 14.9553 17.3158 15.0045C16.5058 15.0538 15.7374 15.3806 15.1401 15.9301L8.8801 12.3501C8.95565 12.1037 8.99605 11.8478 9.0001 11.5901L15.1501 8.07008C15.7442 8.60692 16.5047 8.92317 17.3043 8.96578C18.1039 9.00839 18.8938 8.77479 19.5415 8.30413C20.1893 7.83348 20.6555 7.1544 20.862 6.3808C21.0685 5.6072 21.0027 4.78611 20.6757 4.05526C20.3486 3.3244 19.7802 2.72822 19.0658 2.36671C18.3514 2.00519 17.5344 1.90033 16.7518 2.06971C15.9692 2.23908 15.2687 2.67239 14.7677 3.29697C14.2667 3.92155 13.9957 4.6994 14.0001 5.50008C14.0035 5.78739 14.0438 6.07307 14.1201 6.35008L8.4301 9.60008C8.10041 9.09004 7.64367 8.67456 7.10479 8.39448C6.5659 8.11441 5.9634 7.97938 5.35653 8.00267C4.74965 8.02595 4.15928 8.20675 3.64343 8.5273C3.12759 8.84784 2.70403 9.29709 2.41439 9.8309C2.12475 10.3647 1.979 10.9647 1.99146 11.5719C2.00392 12.1791 2.17416 12.7726 2.48545 13.2941C2.79675 13.8155 3.23837 14.247 3.76693 14.5462C4.29549 14.8453 4.89278 15.0017 5.5001 15.0001V15.0001ZM17.5001 17.0001C17.7968 17.0001 18.0868 17.0881 18.3335 17.2529C18.5801 17.4177 18.7724 17.652 18.8859 17.9261C18.9995 18.2001 19.0292 18.5017 18.9713 18.7927C18.9134 19.0837 18.7705 19.351 18.5608 19.5607C18.351 19.7705 18.0837 19.9134 17.7927 19.9713C17.5018 20.0291 17.2002 19.9994 16.9261 19.8859C16.652 19.7724 16.4177 19.5801 16.2529 19.3334C16.0881 19.0868 16.0001 18.7968 16.0001 18.5001C16.0001 18.1023 16.1581 17.7207 16.4394 17.4394C16.7207 17.1581 17.1023 17.0001 17.5001 17.0001ZM17.5001 4.00008C17.7968 4.00008 18.0868 4.08805 18.3335 4.25288C18.5801 4.4177 18.7724 4.65197 18.8859 4.92606C18.9995 5.20014 19.0292 5.50174 18.9713 5.79272C18.9134 6.08369 18.7705 6.35096 18.5608 6.56074C18.351 6.77052 18.0837 6.91338 17.7927 6.97126C17.5018 7.02914 17.2002 6.99943 16.9261 6.8859C16.652 6.77237 16.4177 6.58011 16.2529 6.33344C16.0881 6.08676 16.0001 5.79675 16.0001 5.50008C16.0001 5.10226 16.1581 4.72072 16.4394 4.43942C16.7207 4.15812 17.1023 4.00008 17.5001 4.00008ZM5.5001 10.0001C5.79677 10.0001 6.08678 10.0881 6.33346 10.2529C6.58013 10.4177 6.77239 10.652 6.88592 10.9261C6.99945 11.2001 7.02916 11.5017 6.97128 11.7927C6.9134 12.0837 6.77054 12.351 6.56076 12.5607C6.35098 12.7705 6.08371 12.9134 5.79274 12.9713C5.50177 13.0291 5.20017 12.9994 4.92608 12.8859C4.65199 12.7724 4.41772 12.5801 4.2529 12.3334C4.08808 12.0868 4.0001 11.7968 4.0001 11.5001C4.0001 11.1023 4.15814 10.7207 4.43944 10.4394C4.72075 10.1581 5.10228 10.0001 5.5001 10.0001V10.0001Z" fill="black"/>
</svg>
