<svg width="30" height="32" viewBox="0 0 30 32" fill="none" xmlns="http://www.w3.org/2000/svg">
<path d="M5.521 20.4665C6.89771 20.4587 8.22184 19.9369 9.23378 19.0034L19.0821 24.6355C18.9566 25.0701 18.8931 25.5203 18.8933 25.9727C18.8832 27.2494 19.3133 28.4907 20.1112 29.4874C20.9092 30.4841 22.0262 31.1754 23.2742 31.445C24.5222 31.7145 25.8249 31.5458 26.9631 30.9672C28.1012 30.3886 29.0053 29.4356 29.523 28.2685C30.0407 27.1014 30.1404 25.7915 29.8054 24.5595C29.4704 23.3275 28.7211 22.2485 27.6837 21.5043C26.6462 20.76 25.384 20.396 24.1096 20.4735C22.8352 20.5509 21.6264 21.0652 20.6868 21.9296L10.8385 16.2975C10.9573 15.9098 11.0209 15.5073 11.0272 15.1018L20.7025 9.56412C21.6371 10.4087 22.8336 10.9062 24.0915 10.9732C25.3494 11.0403 26.592 10.6728 27.6111 9.93233C28.6302 9.19189 29.3636 8.12356 29.6885 6.90652C30.0134 5.68948 29.9099 4.39774 29.3954 3.24795C28.8809 2.09816 27.9867 1.16024 26.8627 0.591505C25.7388 0.0227658 24.4534 -0.142206 23.2223 0.124257C21.9911 0.39072 20.889 1.07241 20.1009 2.055C19.3127 3.0376 18.8863 4.26133 18.8933 5.52096C18.8986 5.97296 18.9621 6.42239 19.0821 6.85819L10.1305 11.9711C9.61183 11.1687 8.89329 10.5151 8.0455 10.0745C7.19772 9.63386 6.24987 9.42143 5.29512 9.45806C4.34038 9.49469 3.4116 9.77913 2.60007 10.2834C1.78854 10.7877 1.12219 11.4945 0.666526 12.3343C0.210861 13.1741 -0.018441 14.118 0.00115894 15.0732C0.0207589 16.0285 0.288586 16.9622 0.778315 17.7826C1.26804 18.6029 1.96282 19.2818 2.79435 19.7524C3.62588 20.2229 4.56555 20.469 5.521 20.4665ZM24.3995 23.6129C24.8663 23.6129 25.3225 23.7513 25.7106 24.0106C26.0987 24.2699 26.4011 24.6385 26.5797 25.0697C26.7583 25.5009 26.8051 25.9753 26.714 26.4331C26.623 26.8909 26.3982 27.3113 26.0682 27.6414C25.7382 27.9714 25.3177 28.1961 24.8599 28.2872C24.4022 28.3782 23.9277 28.3315 23.4965 28.1529C23.0653 27.9743 22.6967 27.6718 22.4374 27.2838C22.1781 26.8957 22.0397 26.4394 22.0397 25.9727C22.0397 25.3469 22.2883 24.7466 22.7309 24.3041C23.1734 23.8615 23.7737 23.6129 24.3995 23.6129ZM24.3995 3.16115C24.8663 3.16115 25.3225 3.29955 25.7106 3.55885C26.0987 3.81815 26.4011 4.1867 26.5797 4.6179C26.7583 5.0491 26.8051 5.52358 26.714 5.98134C26.623 6.4391 26.3982 6.85958 26.0682 7.18961C25.7382 7.51963 25.3177 7.74438 24.8599 7.83544C24.4022 7.92649 23.9277 7.87976 23.4965 7.70115C23.0653 7.52254 22.6967 7.22008 22.4374 6.83201C22.1781 6.44394 22.0397 5.98769 22.0397 5.52096C22.0397 4.8951 22.2883 4.29487 22.7309 3.85232C23.1734 3.40977 23.7737 3.16115 24.3995 3.16115ZM5.521 12.6004C5.98772 12.6004 6.44397 12.7388 6.83204 12.9981C7.22011 13.2574 7.52258 13.626 7.70118 14.0572C7.87979 14.4884 7.92653 14.9629 7.83547 15.4206C7.74442 15.8784 7.51967 16.2988 7.18964 16.6289C6.85961 16.9589 6.43913 17.1837 5.98137 17.2747C5.52361 17.3658 5.04913 17.319 4.61793 17.1404C4.18673 16.9618 3.81818 16.6593 3.55888 16.2713C3.29958 15.8832 3.16118 15.427 3.16118 14.9602C3.16118 14.3344 3.4098 13.7341 3.85235 13.2916C4.29491 12.849 4.89513 12.6004 5.521 12.6004Z" fill="black" fill-opacity="0.3"/>
</svg>
