<svg width="248" height="99" viewBox="0 0 248 99" fill="none" xmlns="http://www.w3.org/2000/svg">
<path d="M185.707 93.6011C185.346 94.1187 184.84 94.5068 184.191 94.7656C183.546 95.0195 182.794 95.1465 181.935 95.1465C181.066 95.1465 180.294 94.9438 179.621 94.5386C178.947 94.1284 178.424 93.5474 178.053 92.7954C177.687 92.0435 177.499 91.1719 177.489 90.1807V89.2505C177.489 87.644 177.863 86.3989 178.61 85.5151C179.362 84.6313 180.417 84.1895 181.774 84.1895C182.887 84.1895 183.783 84.4751 184.462 85.0464C185.141 85.6128 185.556 86.4185 185.707 87.4634H184.301C184.037 86.0522 183.197 85.3467 181.781 85.3467C180.839 85.3467 180.124 85.6787 179.635 86.3428C179.152 87.002 178.908 87.959 178.903 89.2139V90.0854C178.903 91.2817 179.176 92.2339 179.723 92.9419C180.27 93.645 181.01 93.9966 181.942 93.9966C182.47 93.9966 182.931 93.938 183.327 93.8208C183.722 93.7036 184.049 93.5059 184.308 93.2275V90.8325H181.84V89.6899H185.707V93.6011ZM191.134 95.1465C190.06 95.1465 189.186 94.7949 188.512 94.0918C187.838 93.3838 187.501 92.439 187.501 91.2573V91.0083C187.501 90.2222 187.65 89.5215 187.948 88.9062C188.251 88.2861 188.671 87.8027 189.208 87.4561C189.75 87.1045 190.336 86.9287 190.966 86.9287C191.996 86.9287 192.797 87.2681 193.368 87.9468C193.939 88.6255 194.225 89.5972 194.225 90.8618V91.4258H188.856C188.876 92.207 189.103 92.8394 189.538 93.3228C189.977 93.8013 190.534 94.0405 191.208 94.0405C191.686 94.0405 192.091 93.9429 192.423 93.7476C192.755 93.5522 193.046 93.2935 193.295 92.9712L194.123 93.6157C193.458 94.6362 192.462 95.1465 191.134 95.1465ZM190.966 88.042C190.419 88.042 189.96 88.2422 189.589 88.6426C189.218 89.0381 188.988 89.5947 188.9 90.3125H192.87V90.21C192.831 89.5215 192.646 88.9893 192.313 88.6133C191.981 88.2324 191.532 88.042 190.966 88.042ZM197.082 87.0752L197.125 88.0713C197.731 87.3096 198.522 86.9287 199.499 86.9287C201.173 86.9287 202.018 87.8735 202.033 89.7632V95H200.678V89.7559C200.673 89.1846 200.541 88.7622 200.282 88.4888C200.028 88.2153 199.63 88.0786 199.088 88.0786C198.649 88.0786 198.263 88.1958 197.931 88.4302C197.599 88.6646 197.34 88.9722 197.155 89.353V95H195.8V87.0752H197.082ZM205.548 95H204.193V87.0752H205.548V95ZM204.083 84.9731C204.083 84.7534 204.149 84.5679 204.281 84.4165C204.418 84.2651 204.618 84.1895 204.882 84.1895C205.146 84.1895 205.346 84.2651 205.482 84.4165C205.619 84.5679 205.688 84.7534 205.688 84.9731C205.688 85.1929 205.619 85.376 205.482 85.5225C205.346 85.6689 205.146 85.7422 204.882 85.7422C204.618 85.7422 204.418 85.6689 204.281 85.5225C204.149 85.376 204.083 85.1929 204.083 84.9731ZM212.616 95C212.538 94.8438 212.475 94.5654 212.426 94.165C211.796 94.8193 211.044 95.1465 210.17 95.1465C209.389 95.1465 208.747 94.9268 208.244 94.4873C207.746 94.043 207.497 93.4814 207.497 92.8027C207.497 91.9775 207.809 91.3379 208.434 90.8838C209.064 90.4248 209.948 90.1953 211.085 90.1953H212.404V89.5728C212.404 89.0991 212.262 88.7231 211.979 88.4448C211.696 88.1616 211.278 88.02 210.727 88.02C210.243 88.02 209.838 88.1421 209.511 88.3862C209.184 88.6304 209.02 88.9258 209.02 89.2725H207.658C207.658 88.877 207.797 88.4961 208.075 88.1299C208.358 87.7588 208.739 87.4658 209.218 87.251C209.701 87.0361 210.231 86.9287 210.807 86.9287C211.72 86.9287 212.436 87.1582 212.953 87.6172C213.471 88.0713 213.739 88.6987 213.759 89.4995V93.147C213.759 93.8745 213.852 94.4531 214.037 94.8828V95H212.616ZM210.368 93.9673C210.792 93.9673 211.195 93.8574 211.576 93.6377C211.957 93.418 212.233 93.1323 212.404 92.7808V91.1548H211.342C209.682 91.1548 208.852 91.6406 208.852 92.6123C208.852 93.0371 208.993 93.3691 209.276 93.6084C209.56 93.8477 209.923 93.9673 210.368 93.9673ZM220.775 95C220.697 94.8438 220.634 94.5654 220.585 94.165C219.955 94.8193 219.203 95.1465 218.329 95.1465C217.548 95.1465 216.906 94.9268 216.403 94.4873C215.905 94.043 215.656 93.4814 215.656 92.8027C215.656 91.9775 215.968 91.3379 216.593 90.8838C217.223 90.4248 218.107 90.1953 219.245 90.1953H220.563V89.5728C220.563 89.0991 220.421 88.7231 220.138 88.4448C219.855 88.1616 219.438 88.02 218.886 88.02C218.402 88.02 217.997 88.1421 217.67 88.3862C217.343 88.6304 217.179 88.9258 217.179 89.2725H215.817C215.817 88.877 215.956 88.4961 216.234 88.1299C216.518 87.7588 216.898 87.4658 217.377 87.251C217.86 87.0361 218.39 86.9287 218.966 86.9287C219.879 86.9287 220.595 87.1582 221.112 87.6172C221.63 88.0713 221.898 88.6987 221.918 89.4995V93.147C221.918 93.8745 222.011 94.4531 222.196 94.8828V95H220.775ZM218.527 93.9673C218.952 93.9673 219.354 93.8574 219.735 93.6377C220.116 93.418 220.392 93.1323 220.563 92.7808V91.1548H219.501C217.841 91.1548 217.011 91.6406 217.011 92.6123C217.011 93.0371 217.152 93.3691 217.436 93.6084C217.719 93.8477 218.083 93.9673 218.527 93.9673ZM225.514 95H224.159V83.75H225.514V95ZM229.206 91.9897H227.982L227.887 84.3359H229.308L229.206 91.9897ZM227.836 94.3188C227.836 94.0991 227.902 93.916 228.034 93.7695C228.17 93.6182 228.371 93.5425 228.634 93.5425C228.898 93.5425 229.098 93.6182 229.235 93.7695C229.372 93.916 229.44 94.0991 229.44 94.3188C229.44 94.5386 229.372 94.7217 229.235 94.8682C229.098 95.0098 228.898 95.0806 228.634 95.0806C228.371 95.0806 228.17 95.0098 228.034 94.8682C227.902 94.7217 227.836 94.5386 227.836 94.3188ZM233.073 91.9897H231.85L231.754 84.3359H233.175L233.073 91.9897ZM231.703 94.3188C231.703 94.0991 231.769 93.916 231.901 93.7695C232.038 93.6182 232.238 93.5425 232.501 93.5425C232.765 93.5425 232.965 93.6182 233.102 93.7695C233.239 93.916 233.307 94.0991 233.307 94.3188C233.307 94.5386 233.239 94.7217 233.102 94.8682C232.965 95.0098 232.765 95.0806 232.501 95.0806C232.238 95.0806 232.038 95.0098 231.901 94.8682C231.769 94.7217 231.703 94.5386 231.703 94.3188ZM236.94 91.9897H235.717L235.622 84.3359H237.042L236.94 91.9897ZM235.57 94.3188C235.57 94.0991 235.636 93.916 235.768 93.7695C235.905 93.6182 236.105 93.5425 236.369 93.5425C236.632 93.5425 236.833 93.6182 236.969 93.7695C237.106 93.916 237.174 94.0991 237.174 94.3188C237.174 94.5386 237.106 94.7217 236.969 94.8682C236.833 95.0098 236.632 95.0806 236.369 95.0806C236.105 95.0806 235.905 95.0098 235.768 94.8682C235.636 94.7217 235.57 94.5386 235.57 94.3188ZM240.807 91.9897H239.584L239.489 84.3359H240.91L240.807 91.9897ZM239.438 94.3188C239.438 94.0991 239.503 93.916 239.635 93.7695C239.772 93.6182 239.972 93.5425 240.236 93.5425C240.5 93.5425 240.7 93.6182 240.836 93.7695C240.973 93.916 241.042 94.0991 241.042 94.3188C241.042 94.5386 240.973 94.7217 240.836 94.8682C240.7 95.0098 240.5 95.0806 240.236 95.0806C239.972 95.0806 239.772 95.0098 239.635 94.8682C239.503 94.7217 239.438 94.5386 239.438 94.3188ZM244.674 91.9897H243.451L243.356 84.3359H244.777L244.674 91.9897ZM243.305 94.3188C243.305 94.0991 243.371 93.916 243.502 93.7695C243.639 93.6182 243.839 93.5425 244.103 93.5425C244.367 93.5425 244.567 93.6182 244.704 93.7695C244.84 93.916 244.909 94.0991 244.909 94.3188C244.909 94.5386 244.84 94.7217 244.704 94.8682C244.567 95.0098 244.367 95.0806 244.103 95.0806C243.839 95.0806 243.639 95.0098 243.502 94.8682C243.371 94.7217 243.305 94.5386 243.305 94.3188Z" fill="black" fill-opacity="0.5"/>
<path d="M8.60596 53.4932H5.17822V63H3.7793V53.4932H0.358887V52.3359H8.60596V53.4932ZM8.88428 58.9644C8.88428 58.188 9.03564 57.4897 9.33838 56.8696C9.646 56.2495 10.0708 55.771 10.6128 55.4341C11.1597 55.0972 11.7822 54.9287 12.4805 54.9287C13.5596 54.9287 14.4312 55.3022 15.0952 56.0493C15.7642 56.7964 16.0986 57.79 16.0986 59.0303V59.1255C16.0986 59.897 15.9497 60.5903 15.6519 61.2056C15.3589 61.8159 14.9365 62.292 14.3848 62.6338C13.8379 62.9756 13.208 63.1465 12.4951 63.1465C11.4209 63.1465 10.5493 62.7729 9.88037 62.0259C9.21631 61.2788 8.88428 60.29 8.88428 59.0596V58.9644ZM10.2466 59.1255C10.2466 60.0044 10.4492 60.71 10.8545 61.2422C11.2646 61.7744 11.8115 62.0405 12.4951 62.0405C13.1836 62.0405 13.7305 61.772 14.1357 61.2349C14.541 60.6929 14.7437 59.936 14.7437 58.9644C14.7437 58.0952 14.5361 57.3921 14.1211 56.855C13.7109 56.313 13.1641 56.042 12.4805 56.042C11.8115 56.042 11.272 56.3081 10.8618 56.8403C10.4517 57.3726 10.2466 58.1343 10.2466 59.1255ZM17.4683 58.9717C17.4683 57.7559 17.7563 56.7793 18.3325 56.042C18.9087 55.2998 19.6631 54.9287 20.5957 54.9287C21.5234 54.9287 22.2583 55.2461 22.8003 55.8809V51.75H24.1553V63H22.9102L22.8442 62.1504C22.3022 62.8145 21.5479 63.1465 20.5811 63.1465C19.6631 63.1465 18.9136 62.7705 18.3325 62.0186C17.7563 61.2666 17.4683 60.2852 17.4683 59.0742V58.9717ZM18.8232 59.1255C18.8232 60.0239 19.0088 60.7271 19.3799 61.2349C19.751 61.7427 20.2637 61.9966 20.918 61.9966C21.7773 61.9966 22.4048 61.6108 22.8003 60.8394V57.1992C22.395 56.4521 21.7725 56.0786 20.9326 56.0786C20.2686 56.0786 19.751 56.335 19.3799 56.8477C19.0088 57.3604 18.8232 58.1196 18.8232 59.1255ZM25.9058 58.9644C25.9058 58.188 26.0571 57.4897 26.3599 56.8696C26.6675 56.2495 27.0923 55.771 27.6343 55.4341C28.1812 55.0972 28.8037 54.9287 29.502 54.9287C30.5811 54.9287 31.4526 55.3022 32.1167 56.0493C32.7856 56.7964 33.1201 57.79 33.1201 59.0303V59.1255C33.1201 59.897 32.9712 60.5903 32.6733 61.2056C32.3804 61.8159 31.958 62.292 31.4062 62.6338C30.8594 62.9756 30.2295 63.1465 29.5166 63.1465C28.4424 63.1465 27.5708 62.7729 26.9019 62.0259C26.2378 61.2788 25.9058 60.29 25.9058 59.0596V58.9644ZM27.2681 59.1255C27.2681 60.0044 27.4707 60.71 27.876 61.2422C28.2861 61.7744 28.833 62.0405 29.5166 62.0405C30.2051 62.0405 30.752 61.772 31.1572 61.2349C31.5625 60.6929 31.7651 59.936 31.7651 58.9644C31.7651 58.0952 31.5576 57.3921 31.1426 56.855C30.7324 56.313 30.1855 56.042 29.502 56.042C28.833 56.042 28.2935 56.3081 27.8833 56.8403C27.4731 57.3726 27.2681 58.1343 27.2681 59.1255ZM45.249 59.1255C45.249 60.3364 44.9707 61.3105 44.4141 62.0479C43.8574 62.7803 43.1104 63.1465 42.1729 63.1465C41.1719 63.1465 40.3979 62.7925 39.8511 62.0845L39.7852 63H38.54V51.75H39.895V55.9468C40.4419 55.2681 41.1963 54.9287 42.1582 54.9287C43.1201 54.9287 43.8745 55.2925 44.4214 56.02C44.9731 56.7476 45.249 57.7437 45.249 59.0083V59.1255ZM43.894 58.9717C43.894 58.0488 43.7158 57.3359 43.3594 56.833C43.0029 56.3301 42.4902 56.0786 41.8213 56.0786C40.9277 56.0786 40.2856 56.4937 39.895 57.3237V60.7515C40.3101 61.5815 40.957 61.9966 41.8359 61.9966C42.4854 61.9966 42.9907 61.7451 43.3521 61.2422C43.7134 60.7393 43.894 59.9824 43.894 58.9717ZM48.4351 63H47.0801V55.0752H48.4351V63ZM46.9702 52.9731C46.9702 52.7534 47.0361 52.5679 47.168 52.4165C47.3047 52.2651 47.5049 52.1895 47.7686 52.1895C48.0322 52.1895 48.2324 52.2651 48.3691 52.4165C48.5059 52.5679 48.5742 52.7534 48.5742 52.9731C48.5742 53.1929 48.5059 53.376 48.3691 53.5225C48.2324 53.6689 48.0322 53.7422 47.7686 53.7422C47.5049 53.7422 47.3047 53.6689 47.168 53.5225C47.0361 53.376 46.9702 53.1929 46.9702 52.9731ZM53.8989 63.1465C52.8247 63.1465 51.9507 62.7949 51.2769 62.0918C50.603 61.3838 50.2661 60.439 50.2661 59.2573V59.0083C50.2661 58.2222 50.415 57.5215 50.7129 56.9062C51.0156 56.2861 51.4355 55.8027 51.9727 55.4561C52.5146 55.1045 53.1006 54.9287 53.7305 54.9287C54.7607 54.9287 55.5615 55.2681 56.1328 55.9468C56.7041 56.6255 56.9897 57.5972 56.9897 58.8618V59.4258H51.6211C51.6406 60.207 51.8677 60.8394 52.3022 61.3228C52.7417 61.8013 53.2983 62.0405 53.9722 62.0405C54.4507 62.0405 54.856 61.9429 55.188 61.7476C55.52 61.5522 55.8105 61.2935 56.0596 60.9712L56.8872 61.6157C56.2231 62.6362 55.2271 63.1465 53.8989 63.1465ZM53.7305 56.042C53.1836 56.042 52.7246 56.2422 52.3535 56.6426C51.9824 57.0381 51.7529 57.5947 51.665 58.3125H55.6348V58.21C55.5957 57.5215 55.4102 56.9893 55.0781 56.6133C54.7461 56.2324 54.2969 56.042 53.7305 56.042ZM59.8462 55.0752L59.8901 56.0713C60.4956 55.3096 61.2866 54.9287 62.2632 54.9287C63.938 54.9287 64.7827 55.8735 64.7974 57.7632V63H63.4424V57.7559C63.4375 57.1846 63.3057 56.7622 63.0469 56.4888C62.793 56.2153 62.395 56.0786 61.853 56.0786C61.4136 56.0786 61.0278 56.1958 60.6958 56.4302C60.3638 56.6646 60.105 56.9722 59.9194 57.353V63H58.5645V55.0752H59.8462ZM77.2559 59.1255C77.2559 60.3315 76.98 61.3032 76.4282 62.0405C75.8765 62.7778 75.1294 63.1465 74.187 63.1465C73.2251 63.1465 72.4683 62.8413 71.9165 62.231V66.0469H70.5615V55.0752H71.7993L71.8652 55.9541C72.417 55.2705 73.1836 54.9287 74.165 54.9287C75.1172 54.9287 75.8691 55.2876 76.4209 56.0054C76.9775 56.7231 77.2559 57.7217 77.2559 59.001V59.1255ZM75.9009 58.9717C75.9009 58.0781 75.7104 57.3726 75.3296 56.855C74.9487 56.3374 74.4263 56.0786 73.7622 56.0786C72.9419 56.0786 72.3267 56.4424 71.9165 57.1699V60.9565C72.3218 61.6792 72.9419 62.0405 73.7769 62.0405C74.4263 62.0405 74.9414 61.7842 75.3223 61.2715C75.708 60.7539 75.9009 59.9873 75.9009 58.9717ZM78.6255 58.9644C78.6255 58.188 78.7769 57.4897 79.0796 56.8696C79.3872 56.2495 79.812 55.771 80.354 55.4341C80.9009 55.0972 81.5234 54.9287 82.2217 54.9287C83.3008 54.9287 84.1724 55.3022 84.8364 56.0493C85.5054 56.7964 85.8398 57.79 85.8398 59.0303V59.1255C85.8398 59.897 85.6909 60.5903 85.3931 61.2056C85.1001 61.8159 84.6777 62.292 84.126 62.6338C83.5791 62.9756 82.9492 63.1465 82.2363 63.1465C81.1621 63.1465 80.2905 62.7729 79.6216 62.0259C78.9575 61.2788 78.6255 60.29 78.6255 59.0596V58.9644ZM79.9878 59.1255C79.9878 60.0044 80.1904 60.71 80.5957 61.2422C81.0059 61.7744 81.5527 62.0405 82.2363 62.0405C82.9248 62.0405 83.4717 61.772 83.877 61.2349C84.2822 60.6929 84.4849 59.936 84.4849 58.9644C84.4849 58.0952 84.2773 57.3921 83.8623 56.855C83.4521 56.313 82.9053 56.042 82.2217 56.042C81.5527 56.042 81.0132 56.3081 80.603 56.8403C80.1929 57.3726 79.9878 58.1343 79.9878 59.1255ZM91.3696 56.291C91.1646 56.2568 90.9424 56.2397 90.7031 56.2397C89.8145 56.2397 89.2114 56.6182 88.894 57.375V63H87.5391V55.0752H88.8574L88.8794 55.9907C89.3237 55.2827 89.9536 54.9287 90.769 54.9287C91.0327 54.9287 91.2329 54.9629 91.3696 55.0312V56.291ZM5.63965 78.8979C5.63965 78.5317 5.50049 78.2485 5.22217 78.0483C4.94873 77.8433 4.46777 77.6675 3.7793 77.521C3.0957 77.3745 2.55127 77.1987 2.146 76.9937C1.74561 76.7886 1.44775 76.5444 1.25244 76.2612C1.06201 75.978 0.966797 75.6411 0.966797 75.2505C0.966797 74.6011 1.24023 74.0518 1.78711 73.6025C2.33887 73.1533 3.04199 72.9287 3.89648 72.9287C4.79492 72.9287 5.52246 73.1606 6.0791 73.6245C6.64062 74.0884 6.92139 74.6816 6.92139 75.4043H5.55908C5.55908 75.0332 5.40039 74.7134 5.08301 74.4448C4.77051 74.1763 4.375 74.042 3.89648 74.042C3.40332 74.042 3.01758 74.1494 2.73926 74.3643C2.46094 74.5791 2.32178 74.8599 2.32178 75.2065C2.32178 75.5337 2.45117 75.7803 2.70996 75.9463C2.96875 76.1123 3.43506 76.271 4.10889 76.4224C4.7876 76.5737 5.33691 76.7544 5.75684 76.9644C6.17676 77.1743 6.48682 77.4282 6.68701 77.7261C6.89209 78.019 6.99463 78.3779 6.99463 78.8027C6.99463 79.5107 6.71143 80.0796 6.14502 80.5093C5.57861 80.9341 4.84375 81.1465 3.94043 81.1465C3.30566 81.1465 2.74414 81.0342 2.25586 80.8096C1.76758 80.585 1.38428 80.2725 1.10596 79.8721C0.83252 79.4668 0.695801 79.0298 0.695801 78.561H2.05078C2.0752 79.0151 2.25586 79.3765 2.59277 79.645C2.93457 79.9087 3.38379 80.0405 3.94043 80.0405C4.45312 80.0405 4.86328 79.938 5.1709 79.7329C5.4834 79.5229 5.63965 79.2446 5.63965 78.8979ZM13.6523 80.2163C13.125 80.8364 12.3511 81.1465 11.3306 81.1465C10.4858 81.1465 9.84131 80.9023 9.39697 80.4141C8.95752 79.9209 8.73535 79.1934 8.73047 78.2314V73.0752H10.0854V78.1948C10.0854 79.396 10.5737 79.9966 11.5503 79.9966C12.5854 79.9966 13.2739 79.6108 13.6157 78.8394V73.0752H14.9707V81H13.6816L13.6523 80.2163ZM20.3247 81.1465C19.2505 81.1465 18.3765 80.7949 17.7026 80.0918C17.0288 79.3838 16.6919 78.439 16.6919 77.2573V77.0083C16.6919 76.2222 16.8408 75.5215 17.1387 74.9062C17.4414 74.2861 17.8613 73.8027 18.3984 73.4561C18.9404 73.1045 19.5264 72.9287 20.1562 72.9287C21.1865 72.9287 21.9873 73.2681 22.5586 73.9468C23.1299 74.6255 23.4155 75.5972 23.4155 76.8618V77.4258H18.0469C18.0664 78.207 18.2935 78.8394 18.728 79.3228C19.1675 79.8013 19.7241 80.0405 20.3979 80.0405C20.8765 80.0405 21.2817 79.9429 21.6138 79.7476C21.9458 79.5522 22.2363 79.2935 22.4854 78.9712L23.313 79.6157C22.6489 80.6362 21.6528 81.1465 20.3247 81.1465ZM20.1562 74.042C19.6094 74.042 19.1504 74.2422 18.7793 74.6426C18.4082 75.0381 18.1787 75.5947 18.0908 76.3125H22.0605V76.21C22.0215 75.5215 21.8359 74.9893 21.5039 74.6133C21.1719 74.2324 20.7227 74.042 20.1562 74.042ZM28.8208 74.291C28.6157 74.2568 28.3936 74.2397 28.1543 74.2397C27.2656 74.2397 26.6626 74.6182 26.3452 75.375V81H24.9902V73.0752H26.3086L26.3306 73.9907C26.7749 73.2827 27.4048 72.9287 28.2202 72.9287C28.4839 72.9287 28.6841 72.9629 28.8208 73.0312V74.291ZM32.2778 71.1562V73.0752H33.7573V74.1226H32.2778V79.0371C32.2778 79.3545 32.3438 79.5938 32.4756 79.7549C32.6074 79.9111 32.832 79.9893 33.1494 79.9893C33.3057 79.9893 33.5205 79.96 33.7939 79.9014V81C33.4375 81.0977 33.0908 81.1465 32.7539 81.1465C32.1484 81.1465 31.6919 80.9634 31.3843 80.5972C31.0767 80.231 30.9229 79.7109 30.9229 79.0371V74.1226H29.48V73.0752H30.9229V71.1562H32.2778ZM38.6353 81.1465C37.561 81.1465 36.687 80.7949 36.0132 80.0918C35.3394 79.3838 35.0024 78.439 35.0024 77.2573V77.0083C35.0024 76.2222 35.1514 75.5215 35.4492 74.9062C35.752 74.2861 36.1719 73.8027 36.709 73.4561C37.251 73.1045 37.8369 72.9287 38.4668 72.9287C39.4971 72.9287 40.2979 73.2681 40.8691 73.9468C41.4404 74.6255 41.7261 75.5972 41.7261 76.8618V77.4258H36.3574C36.377 78.207 36.604 78.8394 37.0386 79.3228C37.478 79.8013 38.0347 80.0405 38.7085 80.0405C39.187 80.0405 39.5923 79.9429 39.9243 79.7476C40.2563 79.5522 40.5469 79.2935 40.7959 78.9712L41.6235 79.6157C40.9595 80.6362 39.9634 81.1465 38.6353 81.1465ZM38.4668 74.042C37.9199 74.042 37.4609 74.2422 37.0898 74.6426C36.7188 75.0381 36.4893 75.5947 36.4014 76.3125H40.3711V76.21C40.332 75.5215 40.1465 74.9893 39.8145 74.6133C39.4824 74.2324 39.0332 74.042 38.4668 74.042Z" fill="#4969D9"/>
<path d="M9.43359 28H8.02002V23.0708H2.64404V28H1.23779V17.3359H2.64404V21.9209H8.02002V17.3359H9.43359V28ZM11.3599 23.9644C11.3599 23.188 11.5112 22.4897 11.814 21.8696C12.1216 21.2495 12.5464 20.771 13.0884 20.4341C13.6353 20.0972 14.2578 19.9287 14.9561 19.9287C16.0352 19.9287 16.9067 20.3022 17.5708 21.0493C18.2397 21.7964 18.5742 22.79 18.5742 24.0303V24.1255C18.5742 24.897 18.4253 25.5903 18.1274 26.2056C17.8345 26.8159 17.4121 27.292 16.8604 27.6338C16.3135 27.9756 15.6836 28.1465 14.9707 28.1465C13.8965 28.1465 13.0249 27.7729 12.356 27.0259C11.6919 26.2788 11.3599 25.29 11.3599 24.0596V23.9644ZM12.7222 24.1255C12.7222 25.0044 12.9248 25.71 13.3301 26.2422C13.7402 26.7744 14.2871 27.0405 14.9707 27.0405C15.6592 27.0405 16.2061 26.772 16.6113 26.2349C17.0166 25.6929 17.2192 24.936 17.2192 23.9644C17.2192 23.0952 17.0117 22.3921 16.5967 21.855C16.1865 21.313 15.6396 21.042 14.9561 21.042C14.2871 21.042 13.7476 21.3081 13.3374 21.8403C12.9272 22.3726 12.7222 23.1343 12.7222 24.1255ZM21.7456 28H20.3906V16.75H21.7456V28ZM28.8135 28C28.7354 27.8438 28.6719 27.5654 28.623 27.165C27.9932 27.8193 27.2412 28.1465 26.3672 28.1465C25.5859 28.1465 24.9438 27.9268 24.4409 27.4873C23.9429 27.043 23.6938 26.4814 23.6938 25.8027C23.6938 24.9775 24.0063 24.3379 24.6313 23.8838C25.2612 23.4248 26.145 23.1953 27.2827 23.1953H28.6011V22.5728C28.6011 22.0991 28.4595 21.7231 28.1763 21.4448C27.8931 21.1616 27.4756 21.02 26.9238 21.02C26.4404 21.02 26.0352 21.1421 25.708 21.3862C25.3809 21.6304 25.2173 21.9258 25.2173 22.2725H23.855C23.855 21.877 23.9941 21.4961 24.2725 21.1299C24.5557 20.7588 24.9365 20.4658 25.415 20.251C25.8984 20.0361 26.4282 19.9287 27.0044 19.9287C27.9175 19.9287 28.6328 20.1582 29.1504 20.6172C29.668 21.0713 29.9365 21.6987 29.9561 22.4995V26.147C29.9561 26.8745 30.0488 27.4531 30.2344 27.8828V28H28.8135ZM26.5649 26.9673C26.9897 26.9673 27.3926 26.8574 27.7734 26.6377C28.1543 26.418 28.4302 26.1323 28.6011 25.7808V24.1548H27.5391C25.8789 24.1548 25.0488 24.6406 25.0488 25.6123C25.0488 26.0371 25.1904 26.3691 25.4736 26.6084C25.7568 26.8477 26.1206 26.9673 26.5649 26.9673Z" fill="#4969D9"/>
<path d="M165.441 41.6162C165.31 42.7441 164.892 43.6157 164.189 44.231C163.491 44.8413 162.561 45.1465 161.398 45.1465C160.139 45.1465 159.128 44.6948 158.366 43.7915C157.609 42.8882 157.231 41.6797 157.231 40.166V39.1406C157.231 38.1494 157.407 37.2778 157.758 36.5259C158.115 35.7739 158.618 35.1978 159.267 34.7974C159.917 34.3921 160.668 34.1895 161.523 34.1895C162.656 34.1895 163.564 34.5068 164.248 35.1416C164.931 35.7715 165.329 36.6455 165.441 37.7637H164.028C163.906 36.9141 163.64 36.2988 163.229 35.918C162.824 35.5371 162.255 35.3467 161.523 35.3467C160.625 35.3467 159.919 35.6787 159.406 36.3428C158.898 37.0068 158.645 37.9517 158.645 39.1772V40.21C158.645 41.3672 158.886 42.2876 159.37 42.9712C159.853 43.6548 160.529 43.9966 161.398 43.9966C162.18 43.9966 162.778 43.8208 163.193 43.4692C163.613 43.1128 163.891 42.4951 164.028 41.6162H165.441ZM166.796 40.9644C166.796 40.188 166.948 39.4897 167.25 38.8696C167.558 38.2495 167.983 37.771 168.525 37.4341C169.072 37.0972 169.694 36.9287 170.393 36.9287C171.472 36.9287 172.343 37.3022 173.007 38.0493C173.676 38.7964 174.011 39.79 174.011 41.0303V41.1255C174.011 41.897 173.862 42.5903 173.564 43.2056C173.271 43.8159 172.849 44.292 172.297 44.6338C171.75 44.9756 171.12 45.1465 170.407 45.1465C169.333 45.1465 168.461 44.7729 167.792 44.0259C167.128 43.2788 166.796 42.29 166.796 41.0596V40.9644ZM168.159 41.1255C168.159 42.0044 168.361 42.71 168.767 43.2422C169.177 43.7744 169.724 44.0405 170.407 44.0405C171.096 44.0405 171.643 43.772 172.048 43.2349C172.453 42.6929 172.656 41.936 172.656 40.9644C172.656 40.0952 172.448 39.3921 172.033 38.855C171.623 38.313 171.076 38.042 170.393 38.042C169.724 38.042 169.184 38.3081 168.774 38.8403C168.364 39.3726 168.159 40.1343 168.159 41.1255ZM176.984 37.0752L177.021 37.9541C177.602 37.2705 178.386 36.9287 179.372 36.9287C180.48 36.9287 181.235 37.3535 181.635 38.2031C181.899 37.8223 182.241 37.5146 182.661 37.2803C183.085 37.0459 183.586 36.9287 184.162 36.9287C185.9 36.9287 186.784 37.8491 186.813 39.6899V45H185.458V39.7705C185.458 39.2041 185.329 38.7817 185.07 38.5034C184.812 38.2202 184.377 38.0786 183.767 38.0786C183.264 38.0786 182.846 38.23 182.514 38.5327C182.182 38.8306 181.989 39.2334 181.936 39.7412V45H180.573V39.8071C180.573 38.6548 180.009 38.0786 178.881 38.0786C177.993 38.0786 177.385 38.457 177.058 39.2139V45H175.703V37.0752H176.984ZM188.505 40.9644C188.505 40.188 188.657 39.4897 188.959 38.8696C189.267 38.2495 189.692 37.771 190.234 37.4341C190.781 37.0972 191.403 36.9287 192.102 36.9287C193.181 36.9287 194.052 37.3022 194.716 38.0493C195.385 38.7964 195.72 39.79 195.72 41.0303V41.1255C195.72 41.897 195.571 42.5903 195.273 43.2056C194.98 43.8159 194.558 44.292 194.006 44.6338C193.459 44.9756 192.829 45.1465 192.116 45.1465C191.042 45.1465 190.17 44.7729 189.501 44.0259C188.837 43.2788 188.505 42.29 188.505 41.0596V40.9644ZM189.868 41.1255C189.868 42.0044 190.07 42.71 190.476 43.2422C190.886 43.7744 191.433 44.0405 192.116 44.0405C192.805 44.0405 193.352 43.772 193.757 43.2349C194.162 42.6929 194.365 41.936 194.365 40.9644C194.365 40.0952 194.157 39.3921 193.742 38.855C193.332 38.313 192.785 38.042 192.102 38.042C191.433 38.042 190.893 38.3081 190.483 38.8403C190.073 39.3726 189.868 40.1343 189.868 41.1255ZM206.032 45C205.954 44.8438 205.891 44.5654 205.842 44.165C205.212 44.8193 204.46 45.1465 203.586 45.1465C202.805 45.1465 202.163 44.9268 201.66 44.4873C201.162 44.043 200.913 43.4814 200.913 42.8027C200.913 41.9775 201.225 41.3379 201.85 40.8838C202.48 40.4248 203.364 40.1953 204.501 40.1953H205.82V39.5728C205.82 39.0991 205.678 38.7231 205.395 38.4448C205.112 38.1616 204.694 38.02 204.143 38.02C203.659 38.02 203.254 38.1421 202.927 38.3862C202.6 38.6304 202.436 38.9258 202.436 39.2725H201.074C201.074 38.877 201.213 38.4961 201.491 38.1299C201.774 37.7588 202.155 37.4658 202.634 37.251C203.117 37.0361 203.647 36.9287 204.223 36.9287C205.136 36.9287 205.852 37.1582 206.369 37.6172C206.887 38.0713 207.155 38.6987 207.175 39.4995V43.147C207.175 43.8745 207.268 44.4531 207.453 44.8828V45H206.032ZM203.784 43.9673C204.208 43.9673 204.611 43.8574 204.992 43.6377C205.373 43.418 205.649 43.1323 205.82 42.7808V41.1548H204.758C203.098 41.1548 202.268 41.6406 202.268 42.6123C202.268 43.0371 202.409 43.3691 202.692 43.6084C202.976 43.8477 203.339 43.9673 203.784 43.9673ZM210.581 37.0752L210.625 38.0713C211.23 37.3096 212.021 36.9287 212.998 36.9287C214.672 36.9287 215.517 37.8735 215.532 39.7632V45H214.177V39.7559C214.172 39.1846 214.04 38.7622 213.781 38.4888C213.527 38.2153 213.129 38.0786 212.587 38.0786C212.148 38.0786 211.762 38.1958 211.43 38.4302C211.098 38.6646 210.839 38.9722 210.654 39.353V45H209.299V37.0752H210.581ZM217.246 40.9717C217.246 39.7559 217.534 38.7793 218.11 38.042C218.686 37.2998 219.44 36.9287 220.373 36.9287C221.301 36.9287 222.036 37.2461 222.578 37.8809V33.75H223.933V45H222.688L222.622 44.1504C222.08 44.8145 221.325 45.1465 220.358 45.1465C219.44 45.1465 218.691 44.7705 218.11 44.0186C217.534 43.2666 217.246 42.2852 217.246 41.0742V40.9717ZM218.601 41.1255C218.601 42.0239 218.786 42.7271 219.157 43.2349C219.528 43.7427 220.041 43.9966 220.695 43.9966C221.555 43.9966 222.182 43.6108 222.578 42.8394V39.1992C222.172 38.4521 221.55 38.0786 220.71 38.0786C220.046 38.0786 219.528 38.335 219.157 38.8477C218.786 39.3604 218.601 40.1196 218.601 41.1255ZM230.935 45C230.856 44.8438 230.793 44.5654 230.744 44.165C230.114 44.8193 229.362 45.1465 228.488 45.1465C227.707 45.1465 227.065 44.9268 226.562 44.4873C226.064 44.043 225.815 43.4814 225.815 42.8027C225.815 41.9775 226.127 41.3379 226.752 40.8838C227.382 40.4248 228.266 40.1953 229.404 40.1953H230.722V39.5728C230.722 39.0991 230.581 38.7231 230.297 38.4448C230.014 38.1616 229.597 38.02 229.045 38.02C228.562 38.02 228.156 38.1421 227.829 38.3862C227.502 38.6304 227.338 38.9258 227.338 39.2725H225.976C225.976 38.877 226.115 38.4961 226.394 38.1299C226.677 37.7588 227.058 37.4658 227.536 37.251C228.02 37.0361 228.549 36.9287 229.125 36.9287C230.039 36.9287 230.754 37.1582 231.271 37.6172C231.789 38.0713 232.058 38.6987 232.077 39.4995V43.147C232.077 43.8745 232.17 44.4531 232.355 44.8828V45H230.935ZM228.686 43.9673C229.111 43.9673 229.514 43.8574 229.895 43.6377C230.275 43.418 230.551 43.1323 230.722 42.7808V41.1548H229.66C228 41.1548 227.17 41.6406 227.17 42.6123C227.17 43.0371 227.312 43.3691 227.595 43.6084C227.878 43.8477 228.242 43.9673 228.686 43.9673ZM229.938 33.75H231.579L229.616 35.9033H228.525L229.938 33.75ZM238.815 42.8979C238.815 42.5317 238.676 42.2485 238.398 42.0483C238.125 41.8433 237.644 41.6675 236.955 41.521C236.271 41.3745 235.727 41.1987 235.322 40.9937C234.921 40.7886 234.624 40.5444 234.428 40.2612C234.238 39.978 234.143 39.6411 234.143 39.2505C234.143 38.6011 234.416 38.0518 234.963 37.6025C235.515 37.1533 236.218 36.9287 237.072 36.9287C237.971 36.9287 238.698 37.1606 239.255 37.6245C239.816 38.0884 240.097 38.6816 240.097 39.4043H238.735C238.735 39.0332 238.576 38.7134 238.259 38.4448C237.946 38.1763 237.551 38.042 237.072 38.042C236.579 38.042 236.193 38.1494 235.915 38.3643C235.637 38.5791 235.498 38.8599 235.498 39.2065C235.498 39.5337 235.627 39.7803 235.886 39.9463C236.145 40.1123 236.611 40.271 237.285 40.4224C237.963 40.5737 238.513 40.7544 238.933 40.9644C239.353 41.1743 239.663 41.4282 239.863 41.7261C240.068 42.019 240.17 42.3779 240.17 42.8027C240.17 43.5107 239.887 44.0796 239.321 44.5093C238.754 44.9341 238.02 45.1465 237.116 45.1465C236.481 45.1465 235.92 45.0342 235.432 44.8096C234.943 44.585 234.56 44.2725 234.282 43.8721C234.008 43.4668 233.872 43.0298 233.872 42.561H235.227C235.251 43.0151 235.432 43.3765 235.769 43.645C236.11 43.9087 236.56 44.0405 237.116 44.0405C237.629 44.0405 238.039 43.938 238.347 43.7329C238.659 43.5229 238.815 43.2446 238.815 42.8979ZM243.525 41.9971C243.535 41.416 243.601 40.957 243.723 40.6201C243.845 40.2832 244.094 39.9097 244.47 39.4995L245.429 38.5107C245.839 38.0469 246.044 37.5488 246.044 37.0166C246.044 36.5039 245.91 36.1035 245.642 35.8154C245.373 35.5225 244.982 35.376 244.47 35.376C243.972 35.376 243.571 35.5078 243.269 35.7715C242.966 36.0352 242.814 36.3892 242.814 36.8335H241.459C241.469 36.0425 241.75 35.4053 242.302 34.9219C242.858 34.4336 243.581 34.1895 244.47 34.1895C245.393 34.1895 246.11 34.4385 246.623 34.9365C247.141 35.4297 247.399 36.1084 247.399 36.9727C247.399 37.8271 247.004 38.6694 246.213 39.4995L245.415 40.2905C245.058 40.686 244.88 41.2549 244.88 41.9971H243.525ZM243.466 44.3188C243.466 44.0991 243.532 43.916 243.664 43.7695C243.801 43.6182 244.001 43.5425 244.265 43.5425C244.528 43.5425 244.729 43.6182 244.865 43.7695C245.002 43.916 245.07 44.0991 245.07 44.3188C245.07 44.5386 245.002 44.7217 244.865 44.8682C244.729 45.0098 244.528 45.0806 244.265 45.0806C244.001 45.0806 243.801 45.0098 243.664 44.8682C243.532 44.7217 243.466 44.5386 243.466 44.3188Z" fill="black" fill-opacity="0.5"/>
<path d="M226.379 14H224.965V9.0708H219.589V14H218.183V3.33594H219.589V7.9209H224.965V3.33594H226.379V14ZM228.305 9.96436C228.305 9.18799 228.457 8.48975 228.759 7.86963C229.067 7.24951 229.492 6.771 230.034 6.43408C230.581 6.09717 231.203 5.92871 231.901 5.92871C232.98 5.92871 233.852 6.30225 234.516 7.04932C235.185 7.79639 235.52 8.79004 235.52 10.0303V10.1255C235.52 10.897 235.371 11.5903 235.073 12.2056C234.78 12.8159 234.357 13.292 233.806 13.6338C233.259 13.9756 232.629 14.1465 231.916 14.1465C230.842 14.1465 229.97 13.7729 229.301 13.0259C228.637 12.2788 228.305 11.29 228.305 10.0596V9.96436ZM229.667 10.1255C229.667 11.0044 229.87 11.71 230.275 12.2422C230.686 12.7744 231.232 13.0405 231.916 13.0405C232.604 13.0405 233.151 12.772 233.557 12.2349C233.962 11.6929 234.165 10.936 234.165 9.96436C234.165 9.09521 233.957 8.39209 233.542 7.85498C233.132 7.31299 232.585 7.04199 231.901 7.04199C231.232 7.04199 230.693 7.30811 230.283 7.84033C229.873 8.37256 229.667 9.13428 229.667 10.1255ZM238.691 14H237.336V2.75H238.691V14ZM245.759 14C245.681 13.8438 245.617 13.5654 245.568 13.165C244.938 13.8193 244.187 14.1465 243.312 14.1465C242.531 14.1465 241.889 13.9268 241.386 13.4873C240.888 13.043 240.639 12.4814 240.639 11.8027C240.639 10.9775 240.952 10.3379 241.577 9.88379C242.207 9.4248 243.09 9.19531 244.228 9.19531H245.546V8.57275C245.546 8.09912 245.405 7.72314 245.122 7.44482C244.838 7.16162 244.421 7.02002 243.869 7.02002C243.386 7.02002 242.98 7.14209 242.653 7.38623C242.326 7.63037 242.163 7.92578 242.163 8.27246H240.8C240.8 7.87695 240.939 7.49609 241.218 7.12988C241.501 6.75879 241.882 6.46582 242.36 6.25098C242.844 6.03613 243.374 5.92871 243.95 5.92871C244.863 5.92871 245.578 6.1582 246.096 6.61719C246.613 7.07129 246.882 7.69873 246.901 8.49951V12.147C246.901 12.8745 246.994 13.4531 247.18 13.8828V14H245.759ZM243.51 12.9673C243.935 12.9673 244.338 12.8574 244.719 12.6377C245.1 12.418 245.375 12.1323 245.546 11.7808V10.1548H244.484C242.824 10.1548 241.994 10.6406 241.994 11.6123C241.994 12.0371 242.136 12.3691 242.419 12.6084C242.702 12.8477 243.066 12.9673 243.51 12.9673Z" fill="black" fill-opacity="0.5"/>
</svg>
