<svg width="30" height="30" viewBox="0 0 30 30" fill="none" xmlns="http://www.w3.org/2000/svg">
<path d="M6.25 2.5C4.87125 2.5 3.75 3.62125 3.75 5V20C3.75 21.3787 4.87125 22.5 6.25 22.5H10.7325L15 26.7675L19.2675 22.5H23.75C25.1287 22.5 26.25 21.3787 26.25 20V5C26.25 3.62125 25.1287 2.5 23.75 2.5H6.25ZM23.75 20H18.2325L15 23.2325L11.7675 20H6.25V5H23.75V20Z" fill="black" fill-opacity="0.3"/>
<path d="M13.75 7.5H16.25V15H13.75V7.5ZM13.75 16.25H16.25V18.75H13.75V16.25Z" fill="black" fill-opacity="0.3"/>
</svg>
