<svg width="60" height="60" viewBox="0 0 60 60" fill="none" xmlns="http://www.w3.org/2000/svg">
<path d="M53.5647 27.7375L11.0647 7.73749C10.6367 7.53503 10.1601 7.45836 9.69027 7.51641C9.22045 7.57446 8.7768 7.76484 8.41103 8.06537C8.04526 8.3659 7.77244 8.76419 7.62436 9.21383C7.47628 9.66347 7.45904 10.1459 7.57465 10.605L12.4222 30L7.57465 49.395C7.45796 49.8542 7.47444 50.3372 7.62218 50.7874C7.76992 51.2376 8.04279 51.6364 8.40889 51.9372C8.77499 52.238 9.21917 52.4283 9.68948 52.4859C10.1598 52.5436 10.6368 52.466 11.0647 52.2625L53.5647 32.2625C53.9941 32.0606 54.3573 31.7406 54.6117 31.34C54.866 30.9393 55.0011 30.4746 55.0011 30C55.0011 29.5254 54.866 29.0606 54.6117 28.66C54.3573 28.2593 53.9941 27.9394 53.5647 27.7375ZM13.7022 45.4925L15.7997 37.1L29.9997 30L15.7997 22.9L13.7022 14.5075L46.6271 30L13.7022 45.4925Z" fill="black"/>
</svg>
