<svg width="28" height="24" viewBox="0 0 28 24" fill="none" xmlns="http://www.w3.org/2000/svg">
<path d="M27.1698 10.8258L2.60755 0.721196C2.36024 0.618908 2.08477 0.58017 1.81325 0.609499C1.54172 0.638828 1.28532 0.735015 1.07393 0.88685C0.86254 1.03868 0.704866 1.23991 0.619285 1.46708C0.533704 1.69425 0.52374 1.93801 0.590556 2.16994L3.3921 11.9688L0.590556 21.7677C0.523115 21.9997 0.532643 22.2437 0.618025 22.4712C0.703407 22.6987 0.861113 22.9002 1.07269 23.0521C1.28428 23.2041 1.54098 23.3003 1.81279 23.3294C2.0846 23.3585 2.36027 23.3193 2.60755 23.2165L27.1698 13.1119C27.418 13.0099 27.6279 12.8482 27.7749 12.6458C27.9219 12.4434 28 12.2086 28 11.9688C28 11.7291 27.9219 11.4942 27.7749 11.2918C27.6279 11.0894 27.418 10.9278 27.1698 10.8258ZM4.13186 19.7961L5.34408 15.5559L13.5508 11.9688L5.34408 8.38171L4.13186 4.14159L23.1604 11.9688L4.13186 19.7961Z" fill="#0F39CE"/>
</svg>
