<svg width="35" height="35" viewBox="0 0 35 35" fill="none" xmlns="http://www.w3.org/2000/svg">
<path d="M33.9416 15.8306L2.62802 1.07883C2.31274 0.929495 1.96155 0.872942 1.61539 0.915759C1.26923 0.958577 0.942352 1.099 0.672858 1.32067C0.403364 1.54233 0.202351 1.83611 0.0932468 2.16776C-0.0158575 2.49941 -0.0285597 2.85527 0.0566212 3.19387L3.62821 17.4994L0.0566212 31.805C-0.0293567 32.1437 -0.01721 32.5 0.0916404 32.832C0.200491 33.1641 0.401544 33.4583 0.671282 33.6801C0.941021 33.902 1.26829 34.0424 1.61481 34.0849C1.96133 34.1274 2.31277 34.0702 2.62802 33.9201L33.9416 19.1682C34.2581 19.0193 34.5256 18.7833 34.7131 18.4878C34.9005 18.1923 35 17.8495 35 17.4994C35 17.1494 34.9005 16.8066 34.7131 16.5111C34.5256 16.2156 34.2581 15.9796 33.9416 15.8306ZM4.57131 28.9266L6.11672 22.7363L16.5791 17.4994L6.11672 12.2625L4.57131 6.07232L28.8301 17.4994L4.57131 28.9266Z" fill="black" fill-opacity="0.3"/>
</svg>
