<svg width="30" height="30" viewBox="0 0 30 30" fill="none" xmlns="http://www.w3.org/2000/svg">
<path d="M9.37378 13.75C10.4093 13.75 11.2488 12.9105 11.2488 11.875C11.2488 10.8395 10.4093 10 9.37378 10C8.33825 10 7.49878 10.8395 7.49878 11.875C7.49878 12.9105 8.33825 13.75 9.37378 13.75Z" fill="black" fill-opacity="0.3"/>
<path d="M13.1238 17.5L11.2488 15L7.49878 20H22.4988L16.8738 12.5L13.1238 17.5Z" fill="black" fill-opacity="0.3"/>
<path d="M24.9988 5H4.99878C3.62003 5 2.49878 6.12125 2.49878 7.5V22.5C2.49878 23.8787 3.62003 25 4.99878 25H24.9988C26.3775 25 27.4988 23.8787 27.4988 22.5V7.5C27.4988 6.12125 26.3775 5 24.9988 5ZM4.99878 22.5V7.5H24.9988L25.0013 22.5H4.99878Z" fill="black" fill-opacity="0.3"/>
</svg>
