<svg width="30" height="30" viewBox="0 0 30 30" fill="none" xmlns="http://www.w3.org/2000/svg">
<path d="M6.25 26.25H23.75C24.413 26.25 25.0489 25.9866 25.5178 25.5178C25.9866 25.0489 26.25 24.4131 26.25 23.75V10C26.251 9.83551 26.2194 9.67243 26.1572 9.52014C26.095 9.36784 26.0034 9.22932 25.8875 9.11252L20.8875 4.11252C20.7707 3.99667 20.6322 3.90501 20.4799 3.84281C20.3276 3.7806 20.1645 3.74907 20 3.75002H6.25C5.58696 3.75002 4.95107 4.01341 4.48223 4.48225C4.01339 4.95109 3.75 5.58698 3.75 6.25002V23.75C3.75 24.4131 4.01339 25.0489 4.48223 25.5178C4.95107 25.9866 5.58696 26.25 6.25 26.25ZM18.75 23.75H11.25V17.5H18.75V23.75ZM16.25 8.75002H13.75V6.25002H16.25V8.75002ZM6.25 6.25002H8.75V11.25H18.75V6.25002H19.4875L23.75 10.5125V23.75H21.25V17.5C21.25 16.837 20.9866 16.2011 20.5178 15.7323C20.0489 15.2634 19.413 15 18.75 15H11.25C10.587 15 9.95107 15.2634 9.48223 15.7323C9.01339 16.2011 8.75 16.837 8.75 17.5V23.75H6.25V6.25002Z" fill="black" fill-opacity="0.3"/>
</svg>
