<svg width="35" height="36" viewBox="0 0 35 36" fill="none" xmlns="http://www.w3.org/2000/svg">
<path d="M1.71758 19.5694H3.43553V31.5951C3.43553 33.49 4.97654 35.031 6.87144 35.031H27.4868C29.3817 35.031 30.9227 33.49 30.9227 31.5951V19.5694H32.6407C32.9804 19.5694 33.3125 19.4686 33.5949 19.2798C33.8774 19.091 34.0975 18.8227 34.2275 18.5089C34.3575 18.195 34.3915 17.8496 34.3253 17.5164C34.259 17.1832 34.0955 16.8772 33.8553 16.6369L18.3937 1.17534C18.2343 1.01566 18.045 0.888982 17.8366 0.80255C17.6282 0.716119 17.4048 0.671631 17.1791 0.671631C16.9535 0.671631 16.7301 0.716119 16.5217 0.80255C16.3133 0.888982 16.124 1.01566 15.9645 1.17534L0.502993 16.6369C0.262808 16.8772 0.0992478 17.1832 0.0329906 17.5164C-0.0332665 17.8496 0.000754096 18.195 0.130751 18.5089C0.260749 18.8227 0.480886 19.091 0.763334 19.2798C1.04578 19.4686 1.37786 19.5694 1.71758 19.5694ZM13.7432 31.5951V23.0053H20.615V31.5951H13.7432ZM17.1791 4.81911L27.4868 15.1268V23.0053L27.4886 31.5951H24.0509V23.0053C24.0509 21.1104 22.5099 19.5694 20.615 19.5694H13.7432C11.8483 19.5694 10.3073 21.1104 10.3073 23.0053V31.5951H6.87144V15.1268L17.1791 4.81911Z" fill="black" fill-opacity="0.3"/>
</svg>
