<svg width="38" height="38" viewBox="0 0 38 38" fill="none" xmlns="http://www.w3.org/2000/svg">
<path d="M2.75889 21.3048H4.60893V34.2551C4.60893 36.2957 6.26841 37.9551 8.309 37.9551H30.5095C32.5501 37.9551 34.2096 36.2957 34.2096 34.2551V21.3048H36.0596C36.4254 21.3047 36.7831 21.1962 37.0872 20.9929C37.3914 20.7896 37.6284 20.5007 37.7684 20.1627C37.9084 19.8247 37.9451 19.4528 37.8737 19.0939C37.8024 18.7351 37.6262 18.4055 37.3676 18.1468L20.7172 1.49641C20.5456 1.32446 20.3417 1.18804 20.1172 1.09497C19.8928 1.00189 19.6522 0.953979 19.4092 0.953979C19.1663 0.953979 18.9257 1.00189 18.7012 1.09497C18.4768 1.18804 18.2729 1.32446 18.1013 1.49641L1.45091 18.1468C1.19226 18.4055 1.01612 18.7351 0.944768 19.0939C0.873416 19.4528 0.910053 19.8247 1.05005 20.1627C1.19004 20.5007 1.4271 20.7896 1.73127 20.9929C2.03543 21.1962 2.39304 21.3047 2.75889 21.3048ZM15.7092 34.2551V25.0049H23.1093V34.2551H15.7092ZM19.4092 5.42035L30.5095 16.5206V25.0049L30.5113 34.2551H26.8094V25.0049C26.8094 22.9643 25.1499 21.3048 23.1093 21.3048H15.7092C13.6686 21.3048 12.0091 22.9643 12.0091 25.0049V34.2551H8.309V16.5206L19.4092 5.42035Z" fill="white"/>
</svg>
