<svg width="40" height="40" viewBox="0 0 40 40" fill="none" xmlns="http://www.w3.org/2000/svg">
<path d="M27.6167 36.6669C28.0594 36.6695 28.4981 36.5838 28.9073 36.415C29.3165 36.2462 29.688 35.9975 30 35.6836L34.5167 31.1669C34.8271 30.8546 35.0014 30.4322 35.0014 29.9919C35.0014 29.5516 34.8271 29.1292 34.5167 28.8169L27.85 22.1502C27.5378 21.8398 27.1153 21.6656 26.675 21.6656C26.2347 21.6656 25.8123 21.8398 25.5 22.1502L22.8334 24.8002C20.9871 24.308 19.2772 23.4017 17.8334 22.1502C16.5852 20.7041 15.6794 18.995 15.1834 17.1502L17.8334 14.4836C18.1438 14.1713 18.318 13.7489 18.318 13.3086C18.318 12.8683 18.1438 12.4458 17.8334 12.1336L11.1667 5.4669C10.8544 5.15648 10.432 4.98225 9.9917 4.98225C9.55139 4.98225 9.12897 5.15648 8.8167 5.4669L4.3167 10.0002C4.00276 10.3123 3.75411 10.6838 3.58528 11.093C3.41645 11.5022 3.33081 11.9409 3.33337 12.3836C3.48457 18.7874 6.04349 24.899 10.5 29.5002C15.1012 33.9568 21.2129 36.5157 27.6167 36.6669ZM10 9.0169L14.3167 13.3336L12.1667 15.4836C11.9631 15.6743 11.8106 15.9131 11.7232 16.1781C11.6359 16.4431 11.6164 16.7258 11.6667 17.0002C12.2896 19.7842 13.6086 22.3646 15.5 24.5002C17.634 26.3941 20.2151 27.7134 23 28.3336C23.2703 28.3901 23.5504 28.3785 23.8152 28.3C24.0799 28.2214 24.321 28.0783 24.5167 27.8836L26.6667 25.6836L30.9834 30.0002L27.65 33.3336C22.1229 33.1913 16.8492 30.9855 12.8667 27.1502C9.02156 23.1661 6.80938 17.8854 6.6667 12.3502L10 9.0169ZM33.3334 18.3336H36.6667C36.7099 16.3519 36.3515 14.382 35.6129 12.5426C34.8744 10.7032 33.7711 9.03231 32.3695 7.63073C30.968 6.22914 29.2971 5.12584 27.4577 4.38732C25.6183 3.6488 23.6484 3.29035 21.6667 3.33357V6.6669C23.2132 6.61341 24.7542 6.87859 26.1939 7.44596C27.6335 8.01333 28.9411 8.87077 30.0353 9.96497C31.1295 11.0592 31.9869 12.3667 32.5543 13.8064C33.1217 15.2461 33.3869 16.7871 33.3334 18.3336Z" fill="#798BCA"/>
<path d="M21.6667 13.3333C25.1667 13.3333 26.6667 14.8333 26.6667 18.3333H30C30 12.9667 27.0333 10 21.6667 10V13.3333Z" fill="#798BCA"/>
</svg>
