<svg width="215" height="215" viewBox="0 0 215 215" fill="none" xmlns="http://www.w3.org/2000/svg">
<path d="M40.6253 107.323C52.9366 107.323 62.9169 97.343 62.9169 85.0317C62.9169 72.7203 52.9366 62.74 40.6253 62.74C28.3139 62.74 18.3336 72.7203 18.3336 85.0317C18.3336 97.343 28.3139 107.323 40.6253 107.323Z" fill="#4969D9"/>
<path d="M80.7503 71.6546C93.0616 71.6546 103.042 61.6743 103.042 49.363C103.042 37.0516 93.0616 27.0713 80.7503 27.0713C68.4389 27.0713 58.4586 37.0516 58.4586 49.363C58.4586 61.6743 68.4389 71.6546 80.7503 71.6546Z" fill="#4969D9"/>
<path d="M134.25 71.6546C146.562 71.6546 156.542 61.6743 156.542 49.363C156.542 37.0516 146.562 27.0713 134.25 27.0713C121.939 27.0713 111.959 37.0516 111.959 49.363C111.959 61.6743 121.939 71.6546 134.25 71.6546Z" fill="#4969D9"/>
<path d="M174.375 107.323C186.687 107.323 196.667 97.343 196.667 85.0317C196.667 72.7203 186.687 62.74 174.375 62.74C162.064 62.74 152.084 72.7203 152.084 85.0317C152.084 97.343 162.064 107.323 174.375 107.323Z" fill="#4969D9"/>
<path d="M155.114 132.823C147.357 123.728 140.847 115.97 133.001 106.875C128.899 102.06 123.638 97.2455 117.397 95.1055C116.416 94.7488 115.435 94.4813 114.454 94.303C112.225 93.9463 109.817 93.9463 107.499 93.9463C105.181 93.9463 102.773 93.9463 100.455 94.3921C99.4741 94.5705 98.4933 94.838 97.5124 95.1946C91.2708 97.3346 86.0991 102.15 81.9083 106.965C74.1508 116.06 67.6416 123.817 59.795 132.912C48.1141 144.593 33.7583 157.522 36.4333 175.623C39.0191 184.718 45.5283 193.724 57.2091 196.31C63.7183 197.647 84.4941 192.386 106.607 192.386H108.212C130.326 192.386 151.102 197.558 157.611 196.31C169.292 193.724 175.801 184.629 178.387 175.623C181.151 157.433 166.795 144.504 155.114 132.823Z" fill="#4969D9"/>
</svg>
