<svg width="52" height="52" viewBox="0 0 52 52" fill="none" xmlns="http://www.w3.org/2000/svg">
<path d="M9.75016 26.0004C12.7417 26.0004 15.1668 23.5753 15.1668 20.5838C15.1668 17.5922 12.7417 15.1671 9.75016 15.1671C6.75862 15.1671 4.3335 17.5922 4.3335 20.5838C4.3335 23.5753 6.75862 26.0004 9.75016 26.0004Z" fill="#4969D9"/>
<path d="M19.5002 17.3333C22.4917 17.3333 24.9168 14.9082 24.9168 11.9167C24.9168 8.92512 22.4917 6.5 19.5002 6.5C16.5086 6.5 14.0835 8.92512 14.0835 11.9167C14.0835 14.9082 16.5086 17.3333 19.5002 17.3333Z" fill="#4969D9"/>
<path d="M32.5002 17.3333C35.4917 17.3333 37.9168 14.9082 37.9168 11.9167C37.9168 8.92512 35.4917 6.5 32.5002 6.5C29.5086 6.5 27.0835 8.92512 27.0835 11.9167C27.0835 14.9082 29.5086 17.3333 32.5002 17.3333Z" fill="#4969D9"/>
<path d="M42.2502 26.0004C45.2417 26.0004 47.6668 23.5753 47.6668 20.5838C47.6668 17.5922 45.2417 15.1671 42.2502 15.1671C39.2586 15.1671 36.8335 17.5922 36.8335 20.5838C36.8335 23.5753 39.2586 26.0004 42.2502 26.0004Z" fill="#4969D9"/>
<path d="M37.5699 32.1967C35.6849 29.9867 34.1032 28.1017 32.1965 25.8917C31.1999 24.7217 29.9215 23.5517 28.4049 23.0317C28.1665 22.945 27.9282 22.88 27.6899 22.8367C27.1482 22.75 26.5632 22.75 25.9999 22.75C25.4365 22.75 24.8515 22.75 24.2882 22.8583C24.0499 22.9017 23.8115 22.9667 23.5732 23.0533C22.0565 23.5733 20.7999 24.7433 19.7815 25.9133C17.8965 28.1233 16.3149 30.0083 14.4082 32.2183C11.5699 35.0567 8.08153 38.1983 8.73153 42.5967C9.35986 44.8067 10.9415 46.995 13.7799 47.6233C15.3615 47.9483 20.4099 46.67 25.7832 46.67H26.1732C31.5465 46.67 36.5949 47.9267 38.1765 47.6233C41.0149 46.995 42.5965 44.785 43.2249 42.5967C43.8965 38.1767 40.4082 35.035 37.5699 32.1967V32.1967Z" fill="#4969D9"/>
</svg>
