<svg width="110" height="130" viewBox="0 0 110 130" fill="none" xmlns="http://www.w3.org/2000/svg">
<path d="M21.0103 54.9204C27.3033 54.9204 32.4048 49.8189 32.4048 43.5259C32.4048 37.2329 27.3033 32.1313 21.0103 32.1313C14.7173 32.1313 9.61575 37.2329 9.61575 43.5259C9.61575 49.8189 14.7173 54.9204 21.0103 54.9204Z" fill="#4969D9"/>
<path d="M41.5204 36.688C47.8135 36.688 52.915 31.5865 52.915 25.2935C52.915 19.0004 47.8135 13.8989 41.5204 13.8989C35.2274 13.8989 30.1259 19.0004 30.1259 25.2935C30.1259 31.5865 35.2274 36.688 41.5204 36.688Z" fill="#4969D9"/>
<path d="M68.8673 36.688C75.1604 36.688 80.2619 31.5865 80.2619 25.2935C80.2619 19.0004 75.1604 13.8989 68.8673 13.8989C62.5743 13.8989 57.4728 19.0004 57.4728 25.2935C57.4728 31.5865 62.5743 36.688 68.8673 36.688Z" fill="#4969D9"/>
<path d="M89.3775 54.9204C95.6705 54.9204 100.772 49.8189 100.772 43.5259C100.772 37.2329 95.6705 32.1313 89.3775 32.1313C83.0845 32.1313 77.983 37.2329 77.983 43.5259C77.983 49.8189 83.0845 54.9204 89.3775 54.9204Z" fill="#4969D9"/>
<path d="M79.532 67.9546C75.5667 63.3056 72.2395 59.3403 68.2287 54.6913C66.1321 52.2301 63.443 49.7689 60.2525 48.675C59.7511 48.4927 59.2498 48.356 58.7484 48.2648C57.609 48.0825 56.3783 48.0825 55.1933 48.0825C54.0083 48.0825 52.7777 48.0825 51.5926 48.3104C51.0913 48.4016 50.5899 48.5383 50.0886 48.7206C46.8981 49.8145 44.2546 52.2757 42.1124 54.7369C38.1471 59.3859 34.8199 63.3512 30.809 68.0002C24.8383 73.9709 17.5002 80.5797 18.8675 89.8321C20.1893 94.4811 23.5165 99.0845 29.4873 100.406C32.8145 101.09 43.4342 98.4008 54.7375 98.4008H55.5579C66.8613 98.4008 77.481 101.044 80.8082 100.406C86.779 99.0845 90.1062 94.4355 91.4279 89.8321C92.8409 80.5342 85.5028 73.9253 79.532 67.9546Z" fill="#4969D9"/>
<path d="M22.95 120.287L26.4752 108.59H30.0431L24.6271 124.144H21.2835L15.8889 108.59H19.4462L22.95 120.287ZM37.5207 124.144C37.3783 123.866 37.2751 123.52 37.211 123.107C36.4632 123.941 35.4911 124.357 34.2947 124.357C33.1623 124.357 32.2223 124.03 31.4745 123.374C30.7339 122.719 30.3636 121.893 30.3636 120.896C30.3636 119.671 30.8158 118.731 31.7202 118.076C32.6318 117.421 33.9457 117.09 35.662 117.083H37.0828V116.42C37.0828 115.886 36.9439 115.459 36.6662 115.138C36.3955 114.818 35.9647 114.658 35.3736 114.658C34.8537 114.658 34.4442 114.782 34.1451 115.031C33.8531 115.281 33.7071 115.623 33.7071 116.057H30.6199C30.6199 115.388 30.8265 114.768 31.2395 114.198C31.6526 113.629 32.2365 113.183 32.9914 112.863C33.7463 112.535 34.5938 112.372 35.5338 112.372C36.9581 112.372 38.0869 112.731 38.9201 113.45C39.7605 114.163 40.1807 115.167 40.1807 116.463V121.473C40.1878 122.57 40.3409 123.399 40.64 123.962V124.144H37.5207ZM34.9677 121.996C35.4234 121.996 35.8436 121.897 36.2282 121.697C36.6127 121.491 36.8976 121.217 37.0828 120.875V118.888H35.9291C34.3837 118.888 33.5611 119.422 33.4614 120.49L33.4508 120.672C33.4508 121.056 33.5861 121.373 33.8567 121.623C34.1273 121.872 34.4976 121.996 34.9677 121.996ZM48.812 120.95C48.812 120.572 48.6233 120.277 48.2459 120.063C47.8755 119.842 47.2773 119.646 46.4512 119.475C43.7023 118.899 42.3278 117.731 42.3278 115.972C42.3278 114.946 42.7515 114.091 43.599 113.408C44.4536 112.717 45.5681 112.372 46.9426 112.372C48.4096 112.372 49.5811 112.717 50.4571 113.408C51.3402 114.099 51.7817 114.996 51.7817 116.1H48.6945C48.6945 115.658 48.5521 115.295 48.2672 115.01C47.9824 114.718 47.5373 114.572 46.9319 114.572C46.412 114.572 46.0097 114.69 45.7248 114.925C45.4399 115.16 45.2975 115.459 45.2975 115.822C45.2975 116.164 45.4578 116.442 45.7782 116.655C46.1058 116.862 46.6542 117.043 47.4233 117.2C48.1924 117.35 48.8405 117.52 49.3675 117.713C50.9983 118.311 51.8138 119.347 51.8138 120.821C51.8138 121.875 51.3615 122.73 50.4571 123.385C49.5527 124.033 48.3847 124.357 46.9533 124.357C45.9847 124.357 45.123 124.186 44.3681 123.844C43.6204 123.495 43.0329 123.022 42.6056 122.424C42.1783 121.818 41.9646 121.167 41.9646 120.469H44.8916C44.9201 121.017 45.123 121.437 45.5005 121.729C45.8779 122.021 46.3836 122.167 47.0174 122.167C47.6085 122.167 48.0536 122.057 48.3527 121.836C48.6589 121.608 48.812 121.313 48.812 120.95ZM60.5092 124.144C60.3668 123.866 60.2635 123.52 60.1994 123.107C59.4517 123.941 58.4796 124.357 57.2831 124.357C56.1508 124.357 55.2108 124.03 54.463 123.374C53.7223 122.719 53.352 121.893 53.352 120.896C53.352 119.671 53.8042 118.731 54.7087 118.076C55.6203 117.421 56.9342 117.09 58.6505 117.083H60.0712V116.42C60.0712 115.886 59.9324 115.459 59.6546 115.138C59.384 114.818 58.9532 114.658 58.3621 114.658C57.8422 114.658 57.4327 114.782 57.1336 115.031C56.8416 115.281 56.6956 115.623 56.6956 116.057H53.6084C53.6084 115.388 53.8149 114.768 54.228 114.198C54.641 113.629 55.225 113.183 55.9799 112.863C56.7348 112.535 57.5822 112.372 58.5223 112.372C59.9466 112.372 61.0754 112.731 61.9086 113.45C62.749 114.163 63.1691 115.167 63.1691 116.463V121.473C63.1763 122.57 63.3294 123.399 63.6285 123.962V124.144H60.5092ZM57.9561 121.996C58.4119 121.996 58.8321 121.897 59.2167 121.697C59.6012 121.491 59.8861 121.217 60.0712 120.875V118.888H58.9175C57.3722 118.888 56.5496 119.422 56.4499 120.49L56.4392 120.672C56.4392 121.056 56.5745 121.373 56.8452 121.623C57.1158 121.872 57.4861 121.996 57.9561 121.996ZM78.3915 124.144H75.1868L68.9483 113.91V124.144H65.7436V108.59H68.9483L75.1975 118.845V108.59H78.3915V124.144ZM86.3072 124.357C84.6122 124.357 83.2306 123.837 82.1624 122.798C81.1013 121.758 80.5707 120.373 80.5707 118.642V118.343C80.5707 117.182 80.7951 116.146 81.2437 115.234C81.6924 114.316 82.3262 113.611 83.1452 113.119C83.9713 112.621 84.9113 112.372 85.9653 112.372C87.5463 112.372 88.789 112.87 89.6935 113.867C90.605 114.864 91.0608 116.278 91.0608 118.108V119.369H83.7007C83.8004 120.123 84.0995 120.729 84.598 121.185C85.1036 121.64 85.741 121.868 86.5101 121.868C87.6994 121.868 88.6288 121.437 89.2982 120.576L90.8151 122.274C90.3522 122.929 89.7255 123.442 88.935 123.812C88.1445 124.176 87.2686 124.357 86.3072 124.357ZM85.9546 114.871C85.3422 114.871 84.8437 115.078 84.4591 115.491C84.0817 115.904 83.8395 116.495 83.7327 117.264H88.027V117.018C88.0128 116.335 87.8276 115.808 87.4715 115.437C87.1155 115.06 86.6098 114.871 85.9546 114.871ZM96.5195 109.744V112.585H98.4958V114.85H96.5195V120.618C96.5195 121.046 96.6014 121.352 96.7652 121.537C96.929 121.722 97.2424 121.815 97.7053 121.815C98.0471 121.815 98.3498 121.79 98.6133 121.74V124.079C98.0079 124.265 97.3848 124.357 96.7438 124.357C94.5789 124.357 93.475 123.264 93.4323 121.078V114.85H91.7445V112.585H93.4323V109.744H96.5195Z" fill="#4969D9"/>
</svg>
