<svg width="215" height="352" viewBox="0 0 215 352" fill="none" xmlns="http://www.w3.org/2000/svg">
<path d="M40.6253 107.323C52.9366 107.323 62.9169 97.343 62.9169 85.0317C62.9169 72.7203 52.9366 62.74 40.6253 62.74C28.3139 62.74 18.3336 72.7203 18.3336 85.0317C18.3336 97.343 28.3139 107.323 40.6253 107.323Z" fill="#4969D9"/>
<path d="M80.7503 71.6546C93.0616 71.6546 103.042 61.6743 103.042 49.363C103.042 37.0516 93.0616 27.0713 80.7503 27.0713C68.4389 27.0713 58.4586 37.0516 58.4586 49.363C58.4586 61.6743 68.4389 71.6546 80.7503 71.6546Z" fill="#4969D9"/>
<path d="M134.25 71.6546C146.562 71.6546 156.542 61.6743 156.542 49.363C156.542 37.0516 146.562 27.0713 134.25 27.0713C121.939 27.0713 111.959 37.0516 111.959 49.363C111.959 61.6743 121.939 71.6546 134.25 71.6546Z" fill="#4969D9"/>
<path d="M174.375 107.323C186.687 107.323 196.667 97.343 196.667 85.0317C196.667 72.7203 186.687 62.74 174.375 62.74C162.064 62.74 152.084 72.7203 152.084 85.0317C152.084 97.343 162.064 107.323 174.375 107.323Z" fill="#4969D9"/>
<path d="M155.114 132.823C147.357 123.728 140.847 115.97 133.001 106.875C128.899 102.06 123.638 97.2455 117.397 95.1055C116.416 94.7488 115.435 94.4813 114.454 94.303C112.225 93.9463 109.817 93.9463 107.499 93.9463C105.181 93.9463 102.773 93.9463 100.455 94.3921C99.4741 94.5705 98.4933 94.838 97.5124 95.1946C91.2708 97.3346 86.0991 102.15 81.9083 106.965C74.1508 116.06 67.6416 123.817 59.795 132.912C48.1141 144.593 33.7583 157.522 36.4333 175.623C39.0191 184.718 45.5283 193.724 57.2091 196.31C63.7183 197.647 84.4941 192.386 106.607 192.386H108.212C130.326 192.386 151.102 197.558 157.611 196.31C169.292 193.724 175.801 184.629 178.387 175.623C181.151 157.433 166.795 144.504 155.114 132.823Z" fill="#4969D9"/>
<path d="M45.4105 236.077L52.307 213.193H59.2871L48.6916 243.621H42.1504L31.5967 213.193H38.5559L45.4105 236.077ZM73.916 243.621C73.6374 243.078 73.4353 242.402 73.31 241.594C71.8471 243.224 69.9453 244.039 67.6047 244.039C65.3895 244.039 63.5504 243.398 62.0875 242.116C60.6385 240.835 59.9141 239.218 59.9141 237.268C59.9141 234.872 60.7988 233.033 62.5682 231.751C64.3515 230.469 66.922 229.821 70.2797 229.807H73.0592V228.512C73.0592 227.467 72.7875 226.631 72.2441 226.004C71.7147 225.377 70.8718 225.063 69.7154 225.063C68.6984 225.063 67.8973 225.307 67.3121 225.795C66.7409 226.282 66.4553 226.951 66.4553 227.801H60.4156C60.4156 226.491 60.8197 225.279 61.6277 224.165C62.4358 223.05 63.5783 222.179 65.0551 221.552C66.5319 220.911 68.1898 220.591 70.0289 220.591C72.8154 220.591 75.0236 221.295 76.6537 222.702C78.2977 224.095 79.1197 226.059 79.1197 228.595V238.396C79.1337 240.542 79.4332 242.165 80.0184 243.266V243.621H73.916ZM68.9213 239.421C69.813 239.421 70.635 239.225 71.3873 238.835C72.1396 238.431 72.6969 237.895 73.0592 237.226V233.339H70.8021C67.7788 233.339 66.1697 234.384 65.9746 236.474L65.9537 236.829C65.9537 237.581 66.2184 238.201 66.7478 238.689C67.2773 239.177 68.0018 239.421 68.9213 239.421ZM96.0057 237.372C96.0057 236.634 95.6365 236.056 94.898 235.638C94.1736 235.206 93.0033 234.823 91.3871 234.488C86.0092 233.36 83.3203 231.075 83.3203 227.634C83.3203 225.628 84.1493 223.956 85.8072 222.618C87.4791 221.267 89.6595 220.591 92.3484 220.591C95.2185 220.591 97.5104 221.267 99.224 222.618C100.952 223.97 101.815 225.725 101.815 227.885H95.7758C95.7758 227.021 95.4971 226.31 94.9398 225.753C94.3826 225.182 93.5118 224.896 92.3275 224.896C91.3105 224.896 90.5233 225.126 89.966 225.586C89.4087 226.046 89.1301 226.631 89.1301 227.341C89.1301 228.01 89.4436 228.553 90.0705 228.971C90.7114 229.375 91.7842 229.731 93.2889 230.037C94.7936 230.33 96.0614 230.664 97.0924 231.04C100.283 232.211 101.878 234.238 101.878 237.122C101.878 239.184 100.993 240.856 99.224 242.137C97.4546 243.405 95.1697 244.039 92.3693 244.039C90.4745 244.039 88.7887 243.705 87.3119 243.036C85.849 242.353 84.6996 241.427 83.8637 240.256C83.0277 239.072 82.6098 237.797 82.6098 236.432H88.3359C88.3917 237.505 88.7887 238.327 89.5271 238.898C90.2656 239.469 91.2548 239.755 92.4947 239.755C93.6511 239.755 94.5219 239.539 95.107 239.107C95.7061 238.661 96.0057 238.083 96.0057 237.372ZM118.889 243.621C118.611 243.078 118.409 242.402 118.283 241.594C116.821 243.224 114.919 244.039 112.578 244.039C110.363 244.039 108.524 243.398 107.061 242.116C105.612 240.835 104.888 239.218 104.888 237.268C104.888 234.872 105.772 233.033 107.542 231.751C109.325 230.469 111.895 229.821 115.253 229.807H118.033V228.512C118.033 227.467 117.761 226.631 117.218 226.004C116.688 225.377 115.845 225.063 114.689 225.063C113.672 225.063 112.871 225.307 112.286 225.795C111.714 226.282 111.429 226.951 111.429 227.801H105.389C105.389 226.491 105.793 225.279 106.601 224.165C107.409 223.05 108.552 222.179 110.029 221.552C111.505 220.911 113.163 220.591 115.002 220.591C117.789 220.591 119.997 221.295 121.627 222.702C123.271 224.095 124.093 226.059 124.093 228.595V238.396C124.107 240.542 124.407 242.165 124.992 243.266V243.621H118.889ZM113.895 239.421C114.786 239.421 115.608 239.225 116.361 238.835C117.113 238.431 117.67 237.895 118.033 237.226V233.339H115.776C112.752 233.339 111.143 234.384 110.948 236.474L110.927 236.829C110.927 237.581 111.192 238.201 111.721 238.689C112.251 239.177 112.975 239.421 113.895 239.421ZM153.873 243.621H147.604L135.399 223.6V243.621H129.13V213.193H135.399L147.625 233.255V213.193H153.873V243.621ZM169.359 244.039C166.043 244.039 163.34 243.022 161.251 240.988C159.175 238.954 158.137 236.244 158.137 232.858V232.273C158.137 230.002 158.576 227.975 159.453 226.192C160.331 224.395 161.571 223.015 163.173 222.054C164.789 221.079 166.628 220.591 168.69 220.591C171.783 220.591 174.215 221.566 175.984 223.517C177.767 225.467 178.659 228.233 178.659 231.813V234.279H164.26C164.455 235.756 165.04 236.941 166.015 237.832C167.005 238.724 168.252 239.17 169.756 239.17C172.083 239.17 173.901 238.327 175.211 236.641L178.178 239.964C177.273 241.246 176.047 242.249 174.5 242.973C172.954 243.684 171.24 244.039 169.359 244.039ZM168.67 225.481C167.471 225.481 166.496 225.885 165.744 226.693C165.005 227.501 164.532 228.658 164.323 230.162H172.724V229.682C172.696 228.344 172.334 227.313 171.637 226.589C170.94 225.85 169.951 225.481 168.67 225.481ZM189.338 215.45V221.009H193.204V225.439H189.338V236.725C189.338 237.561 189.498 238.16 189.819 238.522C190.139 238.884 190.752 239.065 191.658 239.065C192.327 239.065 192.919 239.016 193.434 238.919V243.496C192.25 243.858 191.031 244.039 189.777 244.039C185.542 244.039 183.382 241.9 183.298 237.623V225.439H179.996V221.009H183.298V215.45H189.338Z" fill="#4969D9"/>
<path d="M72.5586 272.474H70.2246V277.679H67.2949V263.46H72.5781C74.2578 263.46 75.5534 263.835 76.4648 264.583C77.3763 265.332 77.832 266.39 77.832 267.757C77.832 268.727 77.6204 269.538 77.1973 270.189C76.7806 270.833 76.1458 271.348 75.293 271.732L78.3691 277.542V277.679H75.2246L72.5586 272.474ZM70.2246 270.101H72.5879C73.3236 270.101 73.8932 269.915 74.2969 269.544C74.7005 269.167 74.9023 268.649 74.9023 267.991C74.9023 267.321 74.7103 266.794 74.3262 266.409C73.9486 266.025 73.3659 265.833 72.5781 265.833H70.2246V270.101ZM84.7461 277.874C83.1966 277.874 81.9336 277.399 80.957 276.448C79.987 275.498 79.502 274.232 79.502 272.65V272.376C79.502 271.315 79.707 270.368 80.1172 269.534C80.5273 268.695 81.1068 268.05 81.8555 267.601C82.6107 267.145 83.4701 266.917 84.4336 266.917C85.8789 266.917 87.015 267.373 87.8418 268.284C88.6751 269.196 89.0918 270.488 89.0918 272.161V273.314H82.3633C82.4544 274.004 82.7279 274.557 83.1836 274.974C83.6458 275.391 84.2285 275.599 84.9316 275.599C86.0189 275.599 86.8685 275.205 87.4805 274.417L88.8672 275.97C88.444 276.569 87.8711 277.038 87.1484 277.376C86.4258 277.708 85.625 277.874 84.7461 277.874ZM84.4238 269.202C83.8639 269.202 83.4082 269.391 83.0566 269.769C82.7116 270.146 82.4902 270.687 82.3926 271.39H86.3184V271.165C86.3053 270.54 86.1361 270.059 85.8105 269.72C85.485 269.375 85.0228 269.202 84.4238 269.202ZM90.2637 272.318C90.2637 270.67 90.6315 269.359 91.3672 268.382C92.1094 267.406 93.1217 266.917 94.4043 266.917C95.4329 266.917 96.2826 267.301 96.9531 268.07V262.679H99.7852V277.679H97.2363L97.0996 276.556C96.3965 277.435 95.4915 277.874 94.3848 277.874C93.1413 277.874 92.1419 277.386 91.3867 276.409C90.638 275.426 90.2637 274.062 90.2637 272.318ZM93.0859 272.523C93.0859 273.512 93.2585 274.271 93.6035 274.798C93.9486 275.325 94.4499 275.589 95.1074 275.589C95.9798 275.589 96.5951 275.221 96.9531 274.486V270.316C96.6016 269.58 95.9928 269.212 95.127 269.212C93.7663 269.212 93.0859 270.316 93.0859 272.523ZM106.514 272.318C106.514 270.67 106.882 269.359 107.617 268.382C108.359 267.406 109.372 266.917 110.654 266.917C111.683 266.917 112.533 267.301 113.203 268.07V262.679H116.035V277.679H113.486L113.35 276.556C112.646 277.435 111.742 277.874 110.635 277.874C109.391 277.874 108.392 277.386 107.637 276.409C106.888 275.426 106.514 274.062 106.514 272.318ZM109.336 272.523C109.336 273.512 109.508 274.271 109.854 274.798C110.199 275.325 110.7 275.589 111.357 275.589C112.23 275.589 112.845 275.221 113.203 274.486V270.316C112.852 269.58 112.243 269.212 111.377 269.212C110.016 269.212 109.336 270.316 109.336 272.523ZM123.086 277.874C121.536 277.874 120.273 277.399 119.297 276.448C118.327 275.498 117.842 274.232 117.842 272.65V272.376C117.842 271.315 118.047 270.368 118.457 269.534C118.867 268.695 119.447 268.05 120.195 267.601C120.951 267.145 121.81 266.917 122.773 266.917C124.219 266.917 125.355 267.373 126.182 268.284C127.015 269.196 127.432 270.488 127.432 272.161V273.314H120.703C120.794 274.004 121.068 274.557 121.523 274.974C121.986 275.391 122.568 275.599 123.271 275.599C124.359 275.599 125.208 275.205 125.82 274.417L127.207 275.97C126.784 276.569 126.211 277.038 125.488 277.376C124.766 277.708 123.965 277.874 123.086 277.874ZM122.764 269.202C122.204 269.202 121.748 269.391 121.396 269.769C121.051 270.146 120.83 270.687 120.732 271.39H124.658V271.165C124.645 270.54 124.476 270.059 124.15 269.72C123.825 269.375 123.363 269.202 122.764 269.202ZM137.002 277.679H134.17V262.679H137.002V277.679ZM145.459 277.679C145.329 277.425 145.234 277.109 145.176 276.732C144.492 277.493 143.604 277.874 142.51 277.874C141.475 277.874 140.615 277.575 139.932 276.976C139.255 276.377 138.916 275.622 138.916 274.71C138.916 273.59 139.329 272.731 140.156 272.132C140.99 271.533 142.191 271.23 143.76 271.224H145.059V270.618C145.059 270.13 144.932 269.74 144.678 269.447C144.43 269.154 144.036 269.007 143.496 269.007C143.021 269.007 142.646 269.121 142.373 269.349C142.106 269.577 141.973 269.889 141.973 270.286H139.15C139.15 269.674 139.339 269.108 139.717 268.587C140.094 268.066 140.628 267.659 141.318 267.366C142.008 267.067 142.783 266.917 143.643 266.917C144.945 266.917 145.977 267.246 146.738 267.904C147.507 268.555 147.891 269.473 147.891 270.657V275.238C147.897 276.24 148.037 276.999 148.311 277.513V277.679H145.459ZM143.125 275.716C143.542 275.716 143.926 275.625 144.277 275.443C144.629 275.254 144.889 275.003 145.059 274.691V272.874H144.004C142.591 272.874 141.839 273.363 141.748 274.339L141.738 274.505C141.738 274.857 141.862 275.146 142.109 275.374C142.357 275.602 142.695 275.716 143.125 275.716ZM68.584 295.943C68.4733 297.473 67.9069 298.677 66.8848 299.556C65.8691 300.435 64.528 300.874 62.8613 300.874C61.0384 300.874 59.6029 300.262 58.5547 299.038C57.513 297.808 56.9922 296.122 56.9922 293.98V293.111C56.9922 291.743 57.2331 290.539 57.7148 289.497C58.1966 288.456 58.8835 287.658 59.7754 287.105C60.6738 286.545 61.7155 286.265 62.9004 286.265C64.541 286.265 65.8626 286.704 66.8652 287.583C67.8678 288.462 68.4473 289.696 68.6035 291.284H65.6738C65.6022 290.366 65.3451 289.702 64.9023 289.292C64.4661 288.876 63.7988 288.667 62.9004 288.667C61.9238 288.667 61.1914 289.019 60.7031 289.722C60.2214 290.419 59.974 291.503 59.9609 292.974V294.048C59.9609 295.585 60.1921 296.708 60.6543 297.417C61.123 298.127 61.8587 298.482 62.8613 298.482C63.7663 298.482 64.4401 298.277 64.8828 297.866C65.332 297.45 65.5892 296.809 65.6543 295.943H68.584ZM69.8828 295.298C69.8828 294.25 70.0846 293.316 70.4883 292.495C70.8919 291.675 71.4714 291.04 72.2266 290.591C72.9883 290.142 73.8704 289.917 74.873 289.917C76.2988 289.917 77.4609 290.353 78.3594 291.226C79.2643 292.098 79.7689 293.283 79.873 294.781L79.8926 295.503C79.8926 297.124 79.4401 298.426 78.5352 299.409C77.6302 300.386 76.416 300.874 74.8926 300.874C73.3691 300.874 72.1517 300.386 71.2402 299.409C70.3353 298.433 69.8828 297.105 69.8828 295.425V295.298ZM72.7051 295.503C72.7051 296.506 72.8939 297.274 73.2715 297.808C73.6491 298.335 74.1895 298.599 74.8926 298.599C75.5762 298.599 76.11 298.338 76.4941 297.818C76.8783 297.29 77.0703 296.45 77.0703 295.298C77.0703 294.315 76.8783 293.553 76.4941 293.013C76.11 292.473 75.5697 292.202 74.873 292.202C74.1829 292.202 73.6491 292.473 73.2715 293.013C72.8939 293.547 72.7051 294.377 72.7051 295.503ZM84.2773 290.113L84.3652 291.294C85.1139 290.376 86.1263 289.917 87.4023 289.917C88.763 289.917 89.6973 290.454 90.2051 291.529C90.9473 290.454 92.0052 289.917 93.3789 289.917C94.5247 289.917 95.3776 290.253 95.9375 290.923C96.4974 291.587 96.7773 292.59 96.7773 293.931V300.679H93.9453V293.941C93.9453 293.342 93.8281 292.906 93.5938 292.632C93.3594 292.352 92.946 292.212 92.3535 292.212C91.5072 292.212 90.9212 292.616 90.5957 293.423L90.6055 300.679H87.7832V293.95C87.7832 293.338 87.6628 292.896 87.4219 292.622C87.181 292.349 86.7708 292.212 86.1914 292.212C85.3906 292.212 84.8112 292.544 84.4531 293.208V300.679H81.6309V290.113H84.2773ZM105.283 299.605C104.587 300.451 103.623 300.874 102.393 300.874C101.26 300.874 100.394 300.549 99.7949 299.898C99.2025 299.247 98.8997 298.293 98.8867 297.036V290.113H101.709V296.939C101.709 298.039 102.21 298.589 103.213 298.589C104.17 298.589 104.827 298.257 105.186 297.593V290.113H108.018V300.679H105.361L105.283 299.605ZM112.744 290.113L112.832 291.333C113.587 290.389 114.6 289.917 115.869 289.917C116.989 289.917 117.822 290.246 118.369 290.904C118.916 291.561 119.196 292.544 119.209 293.853V300.679H116.387V293.921C116.387 293.322 116.257 292.889 115.996 292.622C115.736 292.349 115.303 292.212 114.697 292.212C113.903 292.212 113.307 292.551 112.91 293.228V300.679H110.088V290.113H112.744ZM124.336 300.679H121.504V290.113H124.336V300.679ZM121.338 287.378C121.338 286.955 121.478 286.607 121.758 286.333C122.044 286.06 122.432 285.923 122.92 285.923C123.402 285.923 123.786 286.06 124.072 286.333C124.359 286.607 124.502 286.955 124.502 287.378C124.502 287.808 124.355 288.159 124.062 288.433C123.776 288.706 123.395 288.843 122.92 288.843C122.445 288.843 122.061 288.706 121.768 288.433C121.481 288.159 121.338 287.808 121.338 287.378ZM126.23 295.318C126.23 293.67 126.598 292.359 127.334 291.382C128.076 290.406 129.089 289.917 130.371 289.917C131.4 289.917 132.249 290.301 132.92 291.07V285.679H135.752V300.679H133.203L133.066 299.556C132.363 300.435 131.458 300.874 130.352 300.874C129.108 300.874 128.109 300.386 127.354 299.409C126.605 298.426 126.23 297.062 126.23 295.318ZM129.053 295.523C129.053 296.512 129.225 297.271 129.57 297.798C129.915 298.325 130.417 298.589 131.074 298.589C131.947 298.589 132.562 298.221 132.92 297.486V293.316C132.568 292.58 131.96 292.212 131.094 292.212C129.733 292.212 129.053 293.316 129.053 295.523ZM144.062 300.679C143.932 300.425 143.838 300.109 143.779 299.732C143.096 300.493 142.207 300.874 141.113 300.874C140.078 300.874 139.219 300.575 138.535 299.976C137.858 299.377 137.52 298.622 137.52 297.71C137.52 296.59 137.933 295.731 138.76 295.132C139.593 294.533 140.794 294.23 142.363 294.224H143.662V293.618C143.662 293.13 143.535 292.74 143.281 292.447C143.034 292.154 142.64 292.007 142.1 292.007C141.624 292.007 141.25 292.121 140.977 292.349C140.71 292.577 140.576 292.889 140.576 293.286H137.754C137.754 292.674 137.943 292.108 138.32 291.587C138.698 291.066 139.232 290.659 139.922 290.366C140.612 290.067 141.387 289.917 142.246 289.917C143.548 289.917 144.58 290.246 145.342 290.904C146.11 291.555 146.494 292.473 146.494 293.657V298.238C146.501 299.24 146.641 299.999 146.914 300.513V300.679H144.062ZM141.729 298.716C142.145 298.716 142.529 298.625 142.881 298.443C143.232 298.254 143.493 298.003 143.662 297.691V295.874H142.607C141.195 295.874 140.443 296.363 140.352 297.339L140.342 297.505C140.342 297.857 140.465 298.146 140.713 298.374C140.96 298.602 141.299 298.716 141.729 298.716ZM148.223 295.318C148.223 293.67 148.59 292.359 149.326 291.382C150.068 290.406 151.081 289.917 152.363 289.917C153.392 289.917 154.242 290.301 154.912 291.07V285.679H157.744V300.679H155.195L155.059 299.556C154.355 300.435 153.451 300.874 152.344 300.874C151.1 300.874 150.101 300.386 149.346 299.409C148.597 298.426 148.223 297.062 148.223 295.318ZM151.045 295.523C151.045 296.512 151.217 297.271 151.562 297.798C151.908 298.325 152.409 298.589 153.066 298.589C153.939 298.589 154.554 298.221 154.912 297.486V293.316C154.561 292.58 153.952 292.212 153.086 292.212C151.725 292.212 151.045 293.316 151.045 295.523ZM42.0312 319.948C42.0312 319.395 41.8359 318.972 41.4453 318.679C41.0547 318.379 40.3516 318.067 39.3359 317.741C38.3203 317.409 37.5163 317.084 36.9238 316.765C35.3092 315.892 34.502 314.717 34.502 313.24C34.502 312.471 34.7168 311.788 35.1465 311.189C35.5827 310.583 36.2044 310.111 37.0117 309.773C37.8255 309.434 38.737 309.265 39.7461 309.265C40.7617 309.265 41.6667 309.45 42.4609 309.822C43.2552 310.186 43.8704 310.704 44.3066 311.374C44.7493 312.045 44.9707 312.807 44.9707 313.659H42.041C42.041 313.008 41.8359 312.504 41.4258 312.146C41.0156 311.781 40.4395 311.599 39.6973 311.599C38.9811 311.599 38.4245 311.752 38.0273 312.058C37.6302 312.357 37.4316 312.754 37.4316 313.249C37.4316 313.712 37.6628 314.099 38.125 314.411C38.5938 314.724 39.2806 315.017 40.1855 315.29C41.8522 315.792 43.0664 316.413 43.8281 317.156C44.5898 317.898 44.9707 318.822 44.9707 319.929C44.9707 321.159 44.5052 322.126 43.5742 322.829C42.6432 323.526 41.39 323.874 39.8145 323.874C38.7207 323.874 37.7246 323.676 36.8262 323.279C35.9277 322.875 35.2409 322.325 34.7656 321.628C34.2969 320.932 34.0625 320.124 34.0625 319.206H37.002C37.002 320.775 37.9395 321.56 39.8145 321.56C40.5111 321.56 41.0547 321.42 41.4453 321.14C41.8359 320.853 42.0312 320.456 42.0312 319.948ZM52.9004 323.679C52.7702 323.425 52.6758 323.109 52.6172 322.732C51.9336 323.493 51.0449 323.874 49.9512 323.874C48.916 323.874 48.0566 323.575 47.373 322.976C46.696 322.377 46.3574 321.622 46.3574 320.71C46.3574 319.59 46.7708 318.731 47.5977 318.132C48.431 317.533 49.6322 317.23 51.2012 317.224H52.5V316.618C52.5 316.13 52.373 315.74 52.1191 315.447C51.8717 315.154 51.4779 315.007 50.9375 315.007C50.4622 315.007 50.0879 315.121 49.8145 315.349C49.5475 315.577 49.4141 315.889 49.4141 316.286H46.5918C46.5918 315.674 46.7806 315.108 47.1582 314.587C47.5358 314.066 48.0697 313.659 48.7598 313.366C49.4499 313.067 50.2246 312.917 51.084 312.917C52.3861 312.917 53.418 313.246 54.1797 313.904C54.9479 314.555 55.332 315.473 55.332 316.657V321.238C55.3385 322.24 55.4785 322.999 55.752 323.513V323.679H52.9004ZM50.5664 321.716C50.9831 321.716 51.3672 321.625 51.7188 321.443C52.0703 321.254 52.3307 321.003 52.5 320.691V318.874H51.4453C50.0326 318.874 49.2806 319.363 49.1895 320.339L49.1797 320.505C49.1797 320.857 49.3034 321.146 49.5508 321.374C49.7982 321.602 50.1367 321.716 50.5664 321.716ZM60.0977 313.113L60.1855 314.333C60.9408 313.389 61.9531 312.917 63.2227 312.917C64.3424 312.917 65.1758 313.246 65.7227 313.904C66.2695 314.561 66.5495 315.544 66.5625 316.853V323.679H63.7402V316.921C63.7402 316.322 63.61 315.889 63.3496 315.622C63.0892 315.349 62.6562 315.212 62.0508 315.212C61.2565 315.212 60.6608 315.551 60.2637 316.228V323.679H57.4414V313.113H60.0977ZM71.6895 323.679H68.8574V313.113H71.6895V323.679ZM68.6914 310.378C68.6914 309.955 68.8314 309.607 69.1113 309.333C69.3978 309.06 69.7852 308.923 70.2734 308.923C70.7552 308.923 71.1393 309.06 71.4258 309.333C71.7122 309.607 71.8555 309.955 71.8555 310.378C71.8555 310.808 71.709 311.159 71.416 311.433C71.1296 311.706 70.7487 311.843 70.2734 311.843C69.7982 311.843 69.4141 311.706 69.1211 311.433C68.8346 311.159 68.6914 310.808 68.6914 310.378ZM77.4023 310.515V313.113H79.209V315.183H77.4023V320.456C77.4023 320.847 77.4772 321.127 77.627 321.296C77.7767 321.465 78.0632 321.55 78.4863 321.55C78.7988 321.55 79.0755 321.527 79.3164 321.482V323.62C78.763 323.79 78.1934 323.874 77.6074 323.874C75.6283 323.874 74.6191 322.875 74.5801 320.876V315.183H73.0371V313.113H74.5801V310.515H77.4023ZM86.9043 323.679C86.7741 323.425 86.6797 323.109 86.6211 322.732C85.9375 323.493 85.0488 323.874 83.9551 323.874C82.9199 323.874 82.0605 323.575 81.377 322.976C80.6999 322.377 80.3613 321.622 80.3613 320.71C80.3613 319.59 80.7747 318.731 81.6016 318.132C82.4349 317.533 83.6361 317.23 85.2051 317.224H86.5039V316.618C86.5039 316.13 86.377 315.74 86.123 315.447C85.8757 315.154 85.4818 315.007 84.9414 315.007C84.4661 315.007 84.0918 315.121 83.8184 315.349C83.5514 315.577 83.418 315.889 83.418 316.286H80.5957C80.5957 315.674 80.7845 315.108 81.1621 314.587C81.5397 314.066 82.0736 313.659 82.7637 313.366C83.4538 313.067 84.2285 312.917 85.0879 312.917C86.39 312.917 87.4219 313.246 88.1836 313.904C88.9518 314.555 89.3359 315.473 89.3359 316.657V321.238C89.3424 322.24 89.4824 322.999 89.7559 323.513V323.679H86.9043ZM84.5703 321.716C84.987 321.716 85.3711 321.625 85.7227 321.443C86.0742 321.254 86.3346 321.003 86.5039 320.691V318.874H85.4492C84.0365 318.874 83.2845 319.363 83.1934 320.339L83.1836 320.505C83.1836 320.857 83.3073 321.146 83.5547 321.374C83.8021 321.602 84.1406 321.716 84.5703 321.716ZM97.4414 315.759C97.0573 315.707 96.7188 315.681 96.4258 315.681C95.3581 315.681 94.6582 316.042 94.3262 316.765V323.679H91.5039V313.113H94.1699L94.248 314.372C94.8145 313.402 95.599 312.917 96.6016 312.917C96.9141 312.917 97.207 312.96 97.4805 313.044L97.4414 315.759ZM101.787 323.679H98.9551V313.113H101.787V323.679ZM98.7891 310.378C98.7891 309.955 98.929 309.607 99.209 309.333C99.4954 309.06 99.8828 308.923 100.371 308.923C100.853 308.923 101.237 309.06 101.523 309.333C101.81 309.607 101.953 309.955 101.953 310.378C101.953 310.808 101.807 311.159 101.514 311.433C101.227 311.706 100.846 311.843 100.371 311.843C99.8958 311.843 99.5117 311.706 99.2188 311.433C98.9323 311.159 98.7891 310.808 98.7891 310.378ZM110.244 323.679C110.114 323.425 110.02 323.109 109.961 322.732C109.277 323.493 108.389 323.874 107.295 323.874C106.26 323.874 105.4 323.575 104.717 322.976C104.04 322.377 103.701 321.622 103.701 320.71C103.701 319.59 104.115 318.731 104.941 318.132C105.775 317.533 106.976 317.23 108.545 317.224H109.844V316.618C109.844 316.13 109.717 315.74 109.463 315.447C109.215 315.154 108.822 315.007 108.281 315.007C107.806 315.007 107.432 315.121 107.158 315.349C106.891 315.577 106.758 315.889 106.758 316.286H103.936C103.936 315.674 104.124 315.108 104.502 314.587C104.88 314.066 105.413 313.659 106.104 313.366C106.794 313.067 107.568 312.917 108.428 312.917C109.73 312.917 110.762 313.246 111.523 313.904C112.292 314.555 112.676 315.473 112.676 316.657V321.238C112.682 322.24 112.822 322.999 113.096 323.513V323.679H110.244ZM107.91 321.716C108.327 321.716 108.711 321.625 109.062 321.443C109.414 321.254 109.674 321.003 109.844 320.691V318.874H108.789C107.376 318.874 106.624 319.363 106.533 320.339L106.523 320.505C106.523 320.857 106.647 321.146 106.895 321.374C107.142 321.602 107.48 321.716 107.91 321.716ZM128.037 320.749H122.9L121.924 323.679H118.809L124.102 309.46H126.816L132.139 323.679H129.023L128.037 320.749ZM123.691 318.376H127.246L125.459 313.054L123.691 318.376ZM135.41 313.113L135.498 314.333C136.253 313.389 137.266 312.917 138.535 312.917C139.655 312.917 140.488 313.246 141.035 313.904C141.582 314.561 141.862 315.544 141.875 316.853V323.679H139.053V316.921C139.053 316.322 138.923 315.889 138.662 315.622C138.402 315.349 137.969 315.212 137.363 315.212C136.569 315.212 135.973 315.551 135.576 316.228V323.679H132.754V313.113H135.41ZM147.002 323.679H144.17V313.113H147.002V323.679ZM144.004 310.378C144.004 309.955 144.144 309.607 144.424 309.333C144.71 309.06 145.098 308.923 145.586 308.923C146.068 308.923 146.452 309.06 146.738 309.333C147.025 309.607 147.168 309.955 147.168 310.378C147.168 310.808 147.021 311.159 146.729 311.433C146.442 311.706 146.061 311.843 145.586 311.843C145.111 311.843 144.727 311.706 144.434 311.433C144.147 311.159 144.004 310.808 144.004 310.378ZM151.982 313.113L152.07 314.294C152.819 313.376 153.831 312.917 155.107 312.917C156.468 312.917 157.402 313.454 157.91 314.529C158.652 313.454 159.71 312.917 161.084 312.917C162.23 312.917 163.083 313.253 163.643 313.923C164.202 314.587 164.482 315.59 164.482 316.931V323.679H161.65V316.941C161.65 316.342 161.533 315.906 161.299 315.632C161.064 315.352 160.651 315.212 160.059 315.212C159.212 315.212 158.626 315.616 158.301 316.423L158.311 323.679H155.488V316.95C155.488 316.338 155.368 315.896 155.127 315.622C154.886 315.349 154.476 315.212 153.896 315.212C153.096 315.212 152.516 315.544 152.158 316.208V323.679H149.336V313.113H151.982ZM172.783 323.679C172.653 323.425 172.559 323.109 172.5 322.732C171.816 323.493 170.928 323.874 169.834 323.874C168.799 323.874 167.939 323.575 167.256 322.976C166.579 322.377 166.24 321.622 166.24 320.71C166.24 319.59 166.654 318.731 167.48 318.132C168.314 317.533 169.515 317.23 171.084 317.224H172.383V316.618C172.383 316.13 172.256 315.74 172.002 315.447C171.755 315.154 171.361 315.007 170.82 315.007C170.345 315.007 169.971 315.121 169.697 315.349C169.43 315.577 169.297 315.889 169.297 316.286H166.475C166.475 315.674 166.663 315.108 167.041 314.587C167.419 314.066 167.952 313.659 168.643 313.366C169.333 313.067 170.107 312.917 170.967 312.917C172.269 312.917 173.301 313.246 174.062 313.904C174.831 314.555 175.215 315.473 175.215 316.657V321.238C175.221 322.24 175.361 322.999 175.635 323.513V323.679H172.783ZM170.449 321.716C170.866 321.716 171.25 321.625 171.602 321.443C171.953 321.254 172.214 321.003 172.383 320.691V318.874H171.328C169.915 318.874 169.163 319.363 169.072 320.339L169.062 320.505C169.062 320.857 169.186 321.146 169.434 321.374C169.681 321.602 170.02 321.716 170.449 321.716ZM180.361 323.679H177.529V308.679H180.361V323.679ZM50.5957 341.318C50.5957 339.67 50.9635 338.359 51.6992 337.382C52.4414 336.406 53.4538 335.917 54.7363 335.917C55.765 335.917 56.6146 336.301 57.2852 337.07V331.679H60.1172V346.679H57.5684L57.4316 345.556C56.7285 346.435 55.8236 346.874 54.7168 346.874C53.4733 346.874 52.474 346.386 51.7188 345.409C50.9701 344.426 50.5957 343.062 50.5957 341.318ZM53.418 341.523C53.418 342.512 53.5905 343.271 53.9355 343.798C54.2806 344.325 54.7819 344.589 55.4395 344.589C56.3118 344.589 56.9271 344.221 57.2852 343.486V339.316C56.9336 338.58 56.3249 338.212 55.459 338.212C54.0983 338.212 53.418 339.316 53.418 341.523ZM67.168 346.874C65.6185 346.874 64.3555 346.399 63.3789 345.448C62.4089 344.498 61.9238 343.232 61.9238 341.65V341.376C61.9238 340.315 62.1289 339.368 62.5391 338.534C62.9492 337.695 63.5286 337.05 64.2773 336.601C65.0326 336.145 65.8919 335.917 66.8555 335.917C68.3008 335.917 69.4368 336.373 70.2637 337.284C71.097 338.196 71.5137 339.488 71.5137 341.161V342.314H64.7852C64.8763 343.004 65.1497 343.557 65.6055 343.974C66.0677 344.391 66.6504 344.599 67.3535 344.599C68.4408 344.599 69.2904 344.205 69.9023 343.417L71.2891 344.97C70.8659 345.569 70.293 346.038 69.5703 346.376C68.8477 346.708 68.0469 346.874 67.168 346.874ZM66.8457 338.202C66.2858 338.202 65.8301 338.391 65.4785 338.769C65.1335 339.146 64.9121 339.687 64.8145 340.39H68.7402V340.165C68.7272 339.54 68.5579 339.059 68.2324 338.72C67.9069 338.375 67.4447 338.202 66.8457 338.202ZM86.3184 343.749H81.1816L80.2051 346.679H77.0898L82.3828 332.46H85.0977L90.4199 346.679H87.3047L86.3184 343.749ZM81.9727 341.376H85.5273L83.7402 336.054L81.9727 341.376ZM97.5 338.759C97.1159 338.707 96.7773 338.681 96.4844 338.681C95.4167 338.681 94.7168 339.042 94.3848 339.765V346.679H91.5625V336.113H94.2285L94.3066 337.372C94.873 336.402 95.6576 335.917 96.6602 335.917C96.9727 335.917 97.2656 335.96 97.5391 336.044L97.5 338.759ZM98.2617 341.318C98.2617 339.697 98.6458 338.391 99.4141 337.402C100.189 336.412 101.23 335.917 102.539 335.917C103.698 335.917 104.6 336.314 105.244 337.109L105.361 336.113H107.92V346.327C107.92 347.252 107.708 348.056 107.285 348.74C106.868 349.423 106.279 349.944 105.518 350.302C104.756 350.66 103.864 350.839 102.842 350.839C102.067 350.839 101.312 350.683 100.576 350.37C99.8405 350.064 99.2839 349.667 98.9062 349.179L100.156 347.46C100.859 348.248 101.712 348.642 102.715 348.642C103.464 348.642 104.046 348.44 104.463 348.036C104.88 347.639 105.088 347.073 105.088 346.337V345.771C104.437 346.506 103.581 346.874 102.52 346.874C101.25 346.874 100.221 346.379 99.4336 345.39C98.6523 344.394 98.2617 343.075 98.2617 341.435V341.318ZM101.084 341.523C101.084 342.48 101.276 343.232 101.66 343.779C102.044 344.319 102.572 344.589 103.242 344.589C104.102 344.589 104.717 344.267 105.088 343.622V339.179C104.71 338.534 104.102 338.212 103.262 338.212C102.585 338.212 102.051 338.489 101.66 339.042C101.276 339.596 101.084 340.422 101.084 341.523ZM114.961 346.874C113.411 346.874 112.148 346.399 111.172 345.448C110.202 344.498 109.717 343.232 109.717 341.65V341.376C109.717 340.315 109.922 339.368 110.332 338.534C110.742 337.695 111.322 337.05 112.07 336.601C112.826 336.145 113.685 335.917 114.648 335.917C116.094 335.917 117.23 336.373 118.057 337.284C118.89 338.196 119.307 339.488 119.307 341.161V342.314H112.578C112.669 343.004 112.943 343.557 113.398 343.974C113.861 344.391 114.443 344.599 115.146 344.599C116.234 344.599 117.083 344.205 117.695 343.417L119.082 344.97C118.659 345.569 118.086 346.038 117.363 346.376C116.641 346.708 115.84 346.874 114.961 346.874ZM114.639 338.202C114.079 338.202 113.623 338.391 113.271 338.769C112.926 339.146 112.705 339.687 112.607 340.39H116.533V340.165C116.52 339.54 116.351 339.059 116.025 338.72C115.7 338.375 115.238 338.202 114.639 338.202ZM123.516 336.113L123.604 337.333C124.359 336.389 125.371 335.917 126.641 335.917C127.76 335.917 128.594 336.246 129.141 336.904C129.688 337.561 129.967 338.544 129.98 339.853V346.679H127.158V339.921C127.158 339.322 127.028 338.889 126.768 338.622C126.507 338.349 126.074 338.212 125.469 338.212C124.674 338.212 124.079 338.551 123.682 339.228V346.679H120.859V336.113H123.516ZM135.508 333.515V336.113H137.314V338.183H135.508V343.456C135.508 343.847 135.583 344.127 135.732 344.296C135.882 344.465 136.169 344.55 136.592 344.55C136.904 344.55 137.181 344.527 137.422 344.482V346.62C136.868 346.79 136.299 346.874 135.713 346.874C133.734 346.874 132.725 345.875 132.686 343.876V338.183H131.143V336.113H132.686V333.515H135.508ZM141.865 346.679H139.033V336.113H141.865V346.679ZM138.867 333.378C138.867 332.955 139.007 332.607 139.287 332.333C139.574 332.06 139.961 331.923 140.449 331.923C140.931 331.923 141.315 332.06 141.602 332.333C141.888 332.607 142.031 332.955 142.031 333.378C142.031 333.808 141.885 334.159 141.592 334.433C141.305 334.706 140.924 334.843 140.449 334.843C139.974 334.843 139.59 334.706 139.297 334.433C139.01 334.159 138.867 333.808 138.867 333.378ZM146.797 336.113L146.885 337.333C147.64 336.389 148.652 335.917 149.922 335.917C151.042 335.917 151.875 336.246 152.422 336.904C152.969 337.561 153.249 338.544 153.262 339.853V346.679H150.439V339.921C150.439 339.322 150.309 338.889 150.049 338.622C149.788 338.349 149.355 338.212 148.75 338.212C147.956 338.212 147.36 338.551 146.963 339.228V346.679H144.141V336.113H146.797ZM161.533 346.679C161.403 346.425 161.309 346.109 161.25 345.732C160.566 346.493 159.678 346.874 158.584 346.874C157.549 346.874 156.689 346.575 156.006 345.976C155.329 345.377 154.99 344.622 154.99 343.71C154.99 342.59 155.404 341.731 156.23 341.132C157.064 340.533 158.265 340.23 159.834 340.224H161.133V339.618C161.133 339.13 161.006 338.74 160.752 338.447C160.505 338.154 160.111 338.007 159.57 338.007C159.095 338.007 158.721 338.121 158.447 338.349C158.18 338.577 158.047 338.889 158.047 339.286H155.225C155.225 338.674 155.413 338.108 155.791 337.587C156.169 337.066 156.702 336.659 157.393 336.366C158.083 336.067 158.857 335.917 159.717 335.917C161.019 335.917 162.051 336.246 162.812 336.904C163.581 337.555 163.965 338.473 163.965 339.657V344.238C163.971 345.24 164.111 345.999 164.385 346.513V346.679H161.533ZM159.199 344.716C159.616 344.716 160 344.625 160.352 344.443C160.703 344.254 160.964 344.003 161.133 343.691V341.874H160.078C158.665 341.874 157.913 342.363 157.822 343.339L157.812 343.505C157.812 343.857 157.936 344.146 158.184 344.374C158.431 344.602 158.77 344.716 159.199 344.716Z" fill="#4969D9"/>
</svg>
