<svg width="215" height="352" viewBox="0 0 215 352" fill="none" xmlns="http://www.w3.org/2000/svg">
<path d="M40.6253 107.323C52.9366 107.323 62.9169 97.3429 62.9169 85.0315C62.9169 72.7202 52.9366 62.7399 40.6253 62.7399C28.3139 62.7399 18.3336 72.7202 18.3336 85.0315C18.3336 97.3429 28.3139 107.323 40.6253 107.323Z" fill="#4969D9"/>
<path d="M80.7503 71.6545C93.0616 71.6545 103.042 61.6742 103.042 49.3628C103.042 37.0515 93.0616 27.0712 80.7503 27.0712C68.4389 27.0712 58.4586 37.0515 58.4586 49.3628C58.4586 61.6742 68.4389 71.6545 80.7503 71.6545Z" fill="#4969D9"/>
<path d="M134.25 71.6545C146.562 71.6545 156.542 61.6742 156.542 49.3628C156.542 37.0515 146.562 27.0712 134.25 27.0712C121.939 27.0712 111.959 37.0515 111.959 49.3628C111.959 61.6742 121.939 71.6545 134.25 71.6545Z" fill="#4969D9"/>
<path d="M174.375 107.323C186.687 107.323 196.667 97.3429 196.667 85.0315C196.667 72.7202 186.687 62.7399 174.375 62.7399C162.064 62.7399 152.084 72.7202 152.084 85.0315C152.084 97.3429 162.064 107.323 174.375 107.323Z" fill="#4969D9"/>
<path d="M155.114 132.823C147.357 123.728 140.847 115.97 133.001 106.875C128.899 102.06 123.638 97.2453 117.397 95.1053C116.416 94.7487 115.435 94.4812 114.454 94.3028C112.225 93.9462 109.817 93.9462 107.499 93.9462C105.181 93.9462 102.773 93.9462 100.455 94.392C99.4741 94.5703 98.4933 94.8378 97.5124 95.1945C91.2708 97.3345 86.0991 102.149 81.9083 106.964C74.1508 116.059 67.6416 123.817 59.795 132.912C48.1141 144.593 33.7583 157.522 36.4333 175.623C39.0191 184.718 45.5283 193.724 57.2091 196.309C63.7183 197.647 84.4941 192.386 106.607 192.386H108.212C130.326 192.386 151.102 197.558 157.611 196.309C169.292 193.724 175.801 184.629 178.387 175.623C181.151 157.433 166.795 144.504 155.114 132.823Z" fill="#4969D9"/>
<path d="M40.4507 236.077L47.3472 213.193H54.3273L43.7318 243.621H37.1906L26.6369 213.193H33.596L40.4507 236.077ZM68.9562 243.621C68.6776 243.078 68.4755 242.402 68.3502 241.594C66.8873 243.224 64.9855 244.039 62.6449 244.039C60.4296 244.039 58.5906 243.398 57.1277 242.116C55.6787 240.835 54.9543 239.218 54.9543 237.268C54.9543 234.871 55.839 233.032 57.6084 231.751C59.3917 230.469 61.9622 229.821 65.3199 229.807H68.0994V228.511C68.0994 227.466 67.8277 226.631 67.2843 226.004C66.7549 225.377 65.912 225.063 64.7556 225.063C63.7386 225.063 62.9375 225.307 62.3523 225.795C61.7811 226.282 61.4955 226.951 61.4955 227.801H55.4558C55.4558 226.491 55.8599 225.279 56.6679 224.165C57.476 223.05 58.6184 222.179 60.0953 221.552C61.5721 220.911 63.23 220.591 65.0691 220.591C67.8556 220.591 70.0638 221.294 71.6939 222.702C73.3379 224.095 74.1599 226.059 74.1599 228.595V238.396C74.1738 240.542 74.4734 242.165 75.0585 243.266V243.621H68.9562ZM63.9615 239.42C64.8531 239.42 65.6752 239.225 66.4275 238.835C67.1798 238.431 67.7371 237.895 68.0994 237.226V233.339H65.8423C62.819 233.339 61.2099 234.384 61.0148 236.474L60.9939 236.829C60.9939 237.581 61.2586 238.201 61.788 238.689C62.3175 239.177 63.0419 239.42 63.9615 239.42ZM91.0459 237.372C91.0459 236.634 90.6767 236.056 89.9382 235.638C89.2138 235.206 88.0434 234.823 86.4273 234.488C81.0494 233.36 78.3605 231.075 78.3605 227.634C78.3605 225.627 79.1895 223.956 80.8474 222.618C82.5193 221.267 84.6997 220.591 87.3886 220.591C90.2587 220.591 92.5505 221.267 94.2642 222.618C95.9918 223.969 96.8556 225.725 96.8556 227.884H90.816C90.816 227.021 90.5373 226.31 89.98 225.753C89.4227 225.182 88.552 224.896 87.3677 224.896C86.3507 224.896 85.5635 225.126 85.0062 225.586C84.4489 226.045 84.1703 226.631 84.1703 227.341C84.1703 228.01 84.4837 228.553 85.1107 228.971C85.7516 229.375 86.8244 229.73 88.3291 230.037C89.8337 230.33 91.1016 230.664 92.1326 231.04C95.3231 232.21 96.9183 234.238 96.9183 237.122C96.9183 239.184 96.0336 240.855 94.2642 242.137C92.4948 243.405 90.2099 244.039 87.4095 244.039C85.5147 244.039 83.8289 243.705 82.3521 243.036C80.8892 242.353 79.7398 241.427 78.9039 240.256C78.0679 239.072 77.65 237.797 77.65 236.432H83.3761C83.4319 237.505 83.8289 238.327 84.5673 238.898C85.3058 239.469 86.2949 239.755 87.5349 239.755C88.6913 239.755 89.5621 239.539 90.1472 239.107C90.7463 238.661 91.0459 238.083 91.0459 237.372ZM113.93 243.621C113.651 243.078 113.449 242.402 113.324 241.594C111.861 243.224 109.959 244.039 107.618 244.039C105.403 244.039 103.564 243.398 102.101 242.116C100.652 240.835 99.9277 239.218 99.9277 237.268C99.9277 234.871 100.812 233.032 102.582 231.751C104.365 230.469 106.936 229.821 110.293 229.807H113.073V228.511C113.073 227.466 112.801 226.631 112.258 226.004C111.728 225.377 110.885 225.063 109.729 225.063C108.712 225.063 107.911 225.307 107.326 225.795C106.755 226.282 106.469 226.951 106.469 227.801H100.429C100.429 226.491 100.833 225.279 101.641 224.165C102.449 223.05 103.592 222.179 105.069 221.552C106.546 220.911 108.203 220.591 110.043 220.591C112.829 220.591 115.037 221.294 116.667 222.702C118.311 224.095 119.133 226.059 119.133 228.595V238.396C119.147 240.542 119.447 242.165 120.032 243.266V243.621H113.93ZM108.935 239.42C109.827 239.42 110.649 239.225 111.401 238.835C112.153 238.431 112.711 237.895 113.073 237.226V233.339H110.816C107.792 233.339 106.183 234.384 105.988 236.474L105.967 236.829C105.967 237.581 106.232 238.201 106.761 238.689C107.291 239.177 108.015 239.42 108.935 239.42ZM148.914 243.621H142.644L130.439 223.6V243.621H124.17V213.193H130.439L142.665 233.255V213.193H148.914V243.621ZM164.399 244.039C161.083 244.039 158.381 243.022 156.291 240.988C154.215 238.954 153.177 236.244 153.177 232.858V232.273C153.177 230.002 153.616 227.975 154.494 226.192C155.371 224.394 156.611 223.015 158.213 222.054C159.83 221.079 161.669 220.591 163.731 220.591C166.824 220.591 169.255 221.566 171.024 223.517C172.808 225.467 173.699 228.233 173.699 231.813V234.279H159.3C159.495 235.756 160.08 236.94 161.056 237.832C162.045 238.724 163.292 239.17 164.796 239.17C167.123 239.17 168.941 238.327 170.251 236.641L173.219 239.964C172.313 241.246 171.087 242.249 169.54 242.973C167.994 243.684 166.28 244.039 164.399 244.039ZM163.71 225.481C162.512 225.481 161.536 225.885 160.784 226.693C160.046 227.501 159.572 228.658 159.363 230.162H167.764V229.682C167.736 228.344 167.374 227.313 166.677 226.589C165.981 225.85 164.991 225.481 163.71 225.481ZM184.378 215.45V221.009H188.244V225.439H184.378V236.724C184.378 237.56 184.539 238.16 184.859 238.522C185.179 238.884 185.792 239.065 186.698 239.065C187.367 239.065 187.959 239.016 188.474 238.919V243.496C187.29 243.858 186.071 244.039 184.817 244.039C180.582 244.039 178.422 241.9 178.339 237.623V225.439H175.037V221.009H178.339V215.45H184.378Z" fill="#4969D9"/>
<path d="M67.3145 263.46H72.6172C73.7044 263.46 74.6387 263.623 75.4199 263.948C76.2077 264.274 76.8132 264.756 77.2363 265.394C77.6595 266.032 77.8711 266.816 77.8711 267.747C77.8711 268.509 77.7409 269.163 77.4805 269.71C77.2266 270.25 76.8652 270.703 76.3965 271.068C75.9342 271.426 75.3906 271.712 74.7656 271.927L73.8379 272.415H69.2285L69.209 270.13H72.6367C73.151 270.13 73.5775 270.039 73.916 269.857C74.2546 269.674 74.5085 269.42 74.6777 269.095C74.8535 268.769 74.9414 268.392 74.9414 267.962C74.9414 267.506 74.8568 267.112 74.6875 266.78C74.5182 266.448 74.2611 266.194 73.916 266.019C73.571 265.843 73.138 265.755 72.6172 265.755H70.2441V277.679H67.3145V263.46ZM75.2637 277.679L72.0215 271.341L75.1172 271.321L78.3984 277.542V277.679H75.2637ZM84.8145 277.874C83.9941 277.874 83.2585 277.744 82.6074 277.484C81.9564 277.217 81.403 276.849 80.9473 276.38C80.498 275.911 80.153 275.368 79.9121 274.749C79.6712 274.124 79.5508 273.46 79.5508 272.757V272.366C79.5508 271.566 79.6647 270.833 79.8926 270.169C80.1204 269.505 80.446 268.929 80.8691 268.441C81.2988 267.952 81.8197 267.578 82.4316 267.318C83.0436 267.051 83.7337 266.917 84.502 266.917C85.2507 266.917 85.9147 267.041 86.4941 267.288C87.0736 267.536 87.5586 267.887 87.9492 268.343C88.3464 268.799 88.6458 269.345 88.8477 269.984C89.0495 270.615 89.1504 271.318 89.1504 272.093V273.265H80.752V271.39H86.3867V271.175C86.3867 270.784 86.3151 270.436 86.1719 270.13C86.0352 269.818 85.8268 269.57 85.5469 269.388C85.2669 269.206 84.9089 269.114 84.4727 269.114C84.1016 269.114 83.7826 269.196 83.5156 269.359C83.2487 269.521 83.0306 269.749 82.8613 270.042C82.6986 270.335 82.5749 270.68 82.4902 271.077C82.4121 271.468 82.373 271.898 82.373 272.366V272.757C82.373 273.18 82.4316 273.571 82.5488 273.929C82.6725 274.287 82.8451 274.596 83.0664 274.857C83.2943 275.117 83.5677 275.319 83.8867 275.462C84.2122 275.605 84.5801 275.677 84.9902 275.677C85.498 275.677 85.9701 275.579 86.4062 275.384C86.849 275.182 87.2298 274.879 87.5488 274.476L88.916 275.96C88.6947 276.279 88.3919 276.585 88.0078 276.878C87.6302 277.171 87.1745 277.412 86.6406 277.601C86.1068 277.783 85.498 277.874 84.8145 277.874ZM96.9922 275.374V262.679H99.8242V277.679H97.2754L96.9922 275.374ZM90.3125 272.523V272.318C90.3125 271.51 90.4036 270.778 90.5859 270.12C90.7682 269.456 91.0352 268.887 91.3867 268.411C91.7383 267.936 92.1712 267.568 92.6855 267.308C93.1999 267.047 93.7858 266.917 94.4434 266.917C95.0618 266.917 95.6022 267.047 96.0645 267.308C96.5332 267.568 96.9303 267.939 97.2559 268.421C97.5879 268.896 97.8548 269.459 98.0566 270.11C98.2585 270.755 98.4049 271.461 98.4961 272.23V272.679C98.4049 273.415 98.2585 274.098 98.0566 274.73C97.8548 275.361 97.5879 275.915 97.2559 276.39C96.9303 276.859 96.5332 277.223 96.0645 277.484C95.5957 277.744 95.0488 277.874 94.4238 277.874C93.7663 277.874 93.1803 277.741 92.666 277.474C92.1582 277.207 91.7285 276.832 91.377 276.351C91.0319 275.869 90.7682 275.303 90.5859 274.651C90.4036 274 90.3125 273.291 90.3125 272.523ZM93.125 272.318V272.523C93.125 272.959 93.1576 273.366 93.2227 273.743C93.2943 274.121 93.4082 274.456 93.5645 274.749C93.7272 275.036 93.9355 275.26 94.1895 275.423C94.4499 275.579 94.7656 275.657 95.1367 275.657C95.6185 275.657 96.0156 275.55 96.3281 275.335C96.6406 275.114 96.8783 274.811 97.041 274.427C97.2103 274.043 97.3079 273.6 97.334 273.099V271.819C97.3145 271.409 97.2559 271.041 97.1582 270.716C97.0671 270.384 96.9303 270.101 96.748 269.866C96.5723 269.632 96.3509 269.45 96.084 269.319C95.8236 269.189 95.5143 269.124 95.1562 269.124C94.7917 269.124 94.4792 269.209 94.2188 269.378C93.9583 269.541 93.7467 269.765 93.584 270.052C93.4277 270.338 93.3105 270.677 93.2324 271.068C93.1608 271.452 93.125 271.868 93.125 272.318ZM113.242 275.374V262.679H116.074V277.679H113.525L113.242 275.374ZM106.562 272.523V272.318C106.562 271.51 106.654 270.778 106.836 270.12C107.018 269.456 107.285 268.887 107.637 268.411C107.988 267.936 108.421 267.568 108.936 267.308C109.45 267.047 110.036 266.917 110.693 266.917C111.312 266.917 111.852 267.047 112.314 267.308C112.783 267.568 113.18 267.939 113.506 268.421C113.838 268.896 114.105 269.459 114.307 270.11C114.508 270.755 114.655 271.461 114.746 272.23V272.679C114.655 273.415 114.508 274.098 114.307 274.73C114.105 275.361 113.838 275.915 113.506 276.39C113.18 276.859 112.783 277.223 112.314 277.484C111.846 277.744 111.299 277.874 110.674 277.874C110.016 277.874 109.43 277.741 108.916 277.474C108.408 277.207 107.979 276.832 107.627 276.351C107.282 275.869 107.018 275.303 106.836 274.651C106.654 274 106.562 273.291 106.562 272.523ZM109.375 272.318V272.523C109.375 272.959 109.408 273.366 109.473 273.743C109.544 274.121 109.658 274.456 109.814 274.749C109.977 275.036 110.186 275.26 110.439 275.423C110.7 275.579 111.016 275.657 111.387 275.657C111.868 275.657 112.266 275.55 112.578 275.335C112.891 275.114 113.128 274.811 113.291 274.427C113.46 274.043 113.558 273.6 113.584 273.099V271.819C113.564 271.409 113.506 271.041 113.408 270.716C113.317 270.384 113.18 270.101 112.998 269.866C112.822 269.632 112.601 269.45 112.334 269.319C112.074 269.189 111.764 269.124 111.406 269.124C111.042 269.124 110.729 269.209 110.469 269.378C110.208 269.541 109.997 269.765 109.834 270.052C109.678 270.338 109.561 270.677 109.482 271.068C109.411 271.452 109.375 271.868 109.375 272.318ZM123.135 277.874C122.314 277.874 121.579 277.744 120.928 277.484C120.277 277.217 119.723 276.849 119.268 276.38C118.818 275.911 118.473 275.368 118.232 274.749C117.992 274.124 117.871 273.46 117.871 272.757V272.366C117.871 271.566 117.985 270.833 118.213 270.169C118.441 269.505 118.766 268.929 119.189 268.441C119.619 267.952 120.14 267.578 120.752 267.318C121.364 267.051 122.054 266.917 122.822 266.917C123.571 266.917 124.235 267.041 124.814 267.288C125.394 267.536 125.879 267.887 126.27 268.343C126.667 268.799 126.966 269.345 127.168 269.984C127.37 270.615 127.471 271.318 127.471 272.093V273.265H119.072V271.39H124.707V271.175C124.707 270.784 124.635 270.436 124.492 270.13C124.355 269.818 124.147 269.57 123.867 269.388C123.587 269.206 123.229 269.114 122.793 269.114C122.422 269.114 122.103 269.196 121.836 269.359C121.569 269.521 121.351 269.749 121.182 270.042C121.019 270.335 120.895 270.68 120.811 271.077C120.732 271.468 120.693 271.898 120.693 272.366V272.757C120.693 273.18 120.752 273.571 120.869 273.929C120.993 274.287 121.165 274.596 121.387 274.857C121.615 275.117 121.888 275.319 122.207 275.462C122.533 275.605 122.9 275.677 123.311 275.677C123.818 275.677 124.29 275.579 124.727 275.384C125.169 275.182 125.55 274.879 125.869 274.476L127.236 275.96C127.015 276.279 126.712 276.585 126.328 276.878C125.951 277.171 125.495 277.412 124.961 277.601C124.427 277.783 123.818 277.874 123.135 277.874ZM137.021 262.679V277.679H134.199V262.679H137.021ZM145.049 275.296V270.589C145.049 270.25 144.993 269.961 144.883 269.72C144.772 269.472 144.6 269.28 144.365 269.144C144.137 269.007 143.841 268.939 143.477 268.939C143.164 268.939 142.894 268.994 142.666 269.105C142.438 269.209 142.262 269.362 142.139 269.564C142.015 269.759 141.953 269.99 141.953 270.257H139.141C139.141 269.808 139.245 269.381 139.453 268.978C139.661 268.574 139.964 268.219 140.361 267.913C140.758 267.601 141.23 267.357 141.777 267.181C142.331 267.005 142.949 266.917 143.633 266.917C144.453 266.917 145.182 267.054 145.82 267.327C146.458 267.601 146.96 268.011 147.324 268.558C147.695 269.105 147.881 269.788 147.881 270.609V275.13C147.881 275.709 147.917 276.185 147.988 276.556C148.06 276.92 148.164 277.239 148.301 277.513V277.679H145.459C145.322 277.392 145.218 277.034 145.146 276.605C145.081 276.168 145.049 275.732 145.049 275.296ZM145.42 271.243L145.439 272.835H143.867C143.496 272.835 143.174 272.877 142.9 272.962C142.627 273.047 142.402 273.167 142.227 273.323C142.051 273.473 141.921 273.649 141.836 273.851C141.758 274.053 141.719 274.274 141.719 274.515C141.719 274.756 141.774 274.974 141.885 275.169C141.995 275.358 142.155 275.508 142.363 275.618C142.572 275.722 142.816 275.775 143.096 275.775C143.519 275.775 143.887 275.69 144.199 275.521C144.512 275.351 144.753 275.143 144.922 274.896C145.098 274.648 145.189 274.414 145.195 274.193L145.938 275.384C145.833 275.651 145.69 275.928 145.508 276.214C145.332 276.5 145.107 276.771 144.834 277.025C144.561 277.272 144.232 277.477 143.848 277.64C143.464 277.796 143.008 277.874 142.48 277.874C141.81 277.874 141.201 277.741 140.654 277.474C140.114 277.2 139.684 276.826 139.365 276.351C139.053 275.869 138.896 275.322 138.896 274.71C138.896 274.157 139.001 273.665 139.209 273.235C139.417 272.806 139.723 272.444 140.127 272.151C140.537 271.852 141.048 271.627 141.66 271.478C142.272 271.321 142.982 271.243 143.789 271.243H145.42ZM65.6836 295.962H68.6035C68.5449 296.919 68.2812 297.769 67.8125 298.511C67.3503 299.253 66.7025 299.832 65.8691 300.249C65.0423 300.666 64.0462 300.874 62.8809 300.874C61.9694 300.874 61.1523 300.718 60.4297 300.405C59.707 300.086 59.0885 299.631 58.5742 299.038C58.0664 298.446 57.679 297.73 57.4121 296.89C57.1452 296.05 57.0117 295.109 57.0117 294.068V293.081C57.0117 292.04 57.1484 291.099 57.4219 290.259C57.7018 289.413 58.099 288.693 58.6133 288.101C59.1341 287.508 59.7559 287.053 60.4785 286.734C61.2012 286.415 62.0085 286.255 62.9004 286.255C64.0853 286.255 65.0846 286.47 65.8984 286.9C66.7188 287.329 67.3535 287.922 67.8027 288.677C68.2585 289.432 68.5319 290.291 68.623 291.255H65.6934C65.6608 290.682 65.5469 290.197 65.3516 289.8C65.1562 289.396 64.86 289.094 64.4629 288.892C64.0723 288.683 63.5514 288.579 62.9004 288.579C62.4121 288.579 61.9857 288.67 61.6211 288.853C61.2565 289.035 60.9505 289.312 60.7031 289.683C60.4557 290.054 60.2702 290.523 60.1465 291.089C60.0293 291.649 59.9707 292.306 59.9707 293.062V294.068C59.9707 294.803 60.026 295.451 60.1367 296.011C60.2474 296.564 60.4167 297.033 60.6445 297.417C60.8789 297.795 61.1784 298.081 61.543 298.276C61.9141 298.465 62.36 298.56 62.8809 298.56C63.4928 298.56 63.9974 298.462 64.3945 298.267C64.7917 298.071 65.0944 297.782 65.3027 297.398C65.5176 297.013 65.6445 296.535 65.6836 295.962ZM69.9023 295.503V295.298C69.9023 294.523 70.013 293.81 70.2344 293.159C70.4557 292.502 70.778 291.932 71.2012 291.45C71.6243 290.969 72.1452 290.594 72.7637 290.327C73.3822 290.054 74.0918 289.917 74.8926 289.917C75.6934 289.917 76.4062 290.054 77.0312 290.327C77.6562 290.594 78.1803 290.969 78.6035 291.45C79.0332 291.932 79.3587 292.502 79.5801 293.159C79.8014 293.81 79.9121 294.523 79.9121 295.298V295.503C79.9121 296.271 79.8014 296.984 79.5801 297.642C79.3587 298.293 79.0332 298.862 78.6035 299.351C78.1803 299.832 77.6595 300.207 77.041 300.474C76.4225 300.741 75.7129 300.874 74.9121 300.874C74.1113 300.874 73.3984 300.741 72.7734 300.474C72.1549 300.207 71.6309 299.832 71.2012 299.351C70.778 298.862 70.4557 298.293 70.2344 297.642C70.013 296.984 69.9023 296.271 69.9023 295.503ZM72.7148 295.298V295.503C72.7148 295.946 72.7539 296.359 72.832 296.743C72.9102 297.127 73.0339 297.466 73.2031 297.759C73.3789 298.045 73.6068 298.27 73.8867 298.433C74.1667 298.595 74.5085 298.677 74.9121 298.677C75.3027 298.677 75.638 298.595 75.918 298.433C76.1979 298.27 76.4225 298.045 76.5918 297.759C76.7611 297.466 76.8848 297.127 76.9629 296.743C77.0475 296.359 77.0898 295.946 77.0898 295.503V295.298C77.0898 294.868 77.0475 294.465 76.9629 294.087C76.8848 293.703 76.7578 293.364 76.582 293.071C76.4128 292.772 76.1882 292.538 75.9082 292.368C75.6283 292.199 75.2897 292.114 74.8926 292.114C74.4954 292.114 74.1569 292.199 73.877 292.368C73.6035 292.538 73.3789 292.772 73.2031 293.071C73.0339 293.364 72.9102 293.703 72.832 294.087C72.7539 294.465 72.7148 294.868 72.7148 295.298ZM84.4531 292.3V300.679H81.6309V290.112H84.2773L84.4531 292.3ZM84.0625 295.025H83.2812C83.2812 294.289 83.3691 293.612 83.5449 292.993C83.7272 292.368 83.9909 291.828 84.3359 291.372C84.6875 290.91 85.1204 290.552 85.6348 290.298C86.1491 290.044 86.7448 289.917 87.4219 289.917C87.8906 289.917 88.3203 289.989 88.7109 290.132C89.1016 290.269 89.4368 290.487 89.7168 290.786C90.0033 291.079 90.2246 291.463 90.3809 291.939C90.5371 292.407 90.6152 292.97 90.6152 293.628V300.679H87.8027V293.941C87.8027 293.459 87.7376 293.088 87.6074 292.827C87.4772 292.567 87.2917 292.385 87.0508 292.28C86.8164 292.176 86.5332 292.124 86.2012 292.124C85.8366 292.124 85.5176 292.199 85.2441 292.349C84.9772 292.498 84.7559 292.707 84.5801 292.974C84.4043 293.234 84.2741 293.54 84.1895 293.892C84.1048 294.243 84.0625 294.621 84.0625 295.025ZM90.3516 294.702L89.3457 294.829C89.3457 294.139 89.4303 293.498 89.5996 292.905C89.7754 292.313 90.0326 291.792 90.3711 291.343C90.7161 290.894 91.1426 290.545 91.6504 290.298C92.1582 290.044 92.7441 289.917 93.4082 289.917C93.916 289.917 94.3783 289.992 94.7949 290.142C95.2116 290.285 95.5664 290.516 95.8594 290.835C96.1589 291.148 96.3867 291.558 96.543 292.066C96.7057 292.573 96.7871 293.195 96.7871 293.931V300.679H93.9648V293.931C93.9648 293.443 93.8997 293.071 93.7695 292.818C93.6458 292.557 93.4635 292.378 93.2227 292.28C92.9883 292.176 92.7083 292.124 92.3828 292.124C92.0443 292.124 91.748 292.193 91.4941 292.329C91.2402 292.459 91.0286 292.642 90.8594 292.876C90.6901 293.11 90.5632 293.384 90.4785 293.696C90.3939 294.002 90.3516 294.338 90.3516 294.702ZM105.215 298.15V290.112H108.027V300.679H105.381L105.215 298.15ZM105.527 295.982L106.357 295.962C106.357 296.665 106.276 297.319 106.113 297.925C105.951 298.524 105.706 299.045 105.381 299.487C105.055 299.924 104.645 300.265 104.15 300.513C103.656 300.754 103.073 300.874 102.402 300.874C101.888 300.874 101.413 300.803 100.977 300.659C100.547 300.51 100.176 300.278 99.8633 299.966C99.5573 299.647 99.3164 299.24 99.1406 298.745C98.9714 298.244 98.8867 297.642 98.8867 296.939V290.112H101.699V296.958C101.699 297.271 101.735 297.534 101.807 297.749C101.885 297.964 101.992 298.14 102.129 298.276C102.266 298.413 102.425 298.511 102.607 298.569C102.796 298.628 103.005 298.657 103.232 298.657C103.812 298.657 104.268 298.54 104.6 298.306C104.938 298.071 105.176 297.752 105.312 297.349C105.456 296.939 105.527 296.483 105.527 295.982ZM112.93 292.368V300.679H110.117V290.112H112.754L112.93 292.368ZM112.52 295.025H111.758C111.758 294.243 111.859 293.54 112.061 292.915C112.262 292.284 112.546 291.747 112.91 291.304C113.275 290.855 113.708 290.513 114.209 290.278C114.717 290.038 115.283 289.917 115.908 289.917C116.403 289.917 116.855 289.989 117.266 290.132C117.676 290.275 118.027 290.503 118.32 290.816C118.62 291.128 118.848 291.541 119.004 292.056C119.167 292.57 119.248 293.198 119.248 293.941V300.679H116.416V293.931C116.416 293.462 116.351 293.097 116.221 292.837C116.09 292.577 115.898 292.394 115.645 292.29C115.397 292.179 115.091 292.124 114.727 292.124C114.349 292.124 114.02 292.199 113.74 292.349C113.467 292.498 113.239 292.707 113.057 292.974C112.881 293.234 112.747 293.54 112.656 293.892C112.565 294.243 112.52 294.621 112.52 295.025ZM124.355 290.112V300.679H121.533V290.112H124.355ZM121.357 287.359C121.357 286.948 121.501 286.61 121.787 286.343C122.074 286.076 122.458 285.943 122.939 285.943C123.415 285.943 123.796 286.076 124.082 286.343C124.375 286.61 124.521 286.948 124.521 287.359C124.521 287.769 124.375 288.107 124.082 288.374C123.796 288.641 123.415 288.775 122.939 288.775C122.458 288.775 122.074 288.641 121.787 288.374C121.501 288.107 121.357 287.769 121.357 287.359ZM132.92 298.374V285.679H135.752V300.679H133.203L132.92 298.374ZM126.24 295.523V295.318C126.24 294.51 126.331 293.778 126.514 293.12C126.696 292.456 126.963 291.887 127.314 291.411C127.666 290.936 128.099 290.568 128.613 290.308C129.128 290.047 129.714 289.917 130.371 289.917C130.99 289.917 131.53 290.047 131.992 290.308C132.461 290.568 132.858 290.939 133.184 291.421C133.516 291.896 133.783 292.459 133.984 293.11C134.186 293.755 134.333 294.461 134.424 295.23V295.679C134.333 296.415 134.186 297.098 133.984 297.73C133.783 298.361 133.516 298.915 133.184 299.39C132.858 299.859 132.461 300.223 131.992 300.484C131.523 300.744 130.977 300.874 130.352 300.874C129.694 300.874 129.108 300.741 128.594 300.474C128.086 300.207 127.656 299.832 127.305 299.351C126.96 298.869 126.696 298.303 126.514 297.651C126.331 297 126.24 296.291 126.24 295.523ZM129.053 295.318V295.523C129.053 295.959 129.085 296.366 129.15 296.743C129.222 297.121 129.336 297.456 129.492 297.749C129.655 298.036 129.863 298.26 130.117 298.423C130.378 298.579 130.693 298.657 131.064 298.657C131.546 298.657 131.943 298.55 132.256 298.335C132.568 298.114 132.806 297.811 132.969 297.427C133.138 297.043 133.236 296.6 133.262 296.099V294.819C133.242 294.409 133.184 294.041 133.086 293.716C132.995 293.384 132.858 293.101 132.676 292.866C132.5 292.632 132.279 292.45 132.012 292.319C131.751 292.189 131.442 292.124 131.084 292.124C130.719 292.124 130.407 292.209 130.146 292.378C129.886 292.541 129.674 292.765 129.512 293.052C129.355 293.338 129.238 293.677 129.16 294.068C129.089 294.452 129.053 294.868 129.053 295.318ZM143.652 298.296V293.589C143.652 293.25 143.597 292.961 143.486 292.72C143.376 292.472 143.203 292.28 142.969 292.144C142.741 292.007 142.445 291.939 142.08 291.939C141.768 291.939 141.497 291.994 141.27 292.105C141.042 292.209 140.866 292.362 140.742 292.564C140.618 292.759 140.557 292.99 140.557 293.257H137.744C137.744 292.808 137.848 292.381 138.057 291.978C138.265 291.574 138.568 291.219 138.965 290.913C139.362 290.601 139.834 290.357 140.381 290.181C140.934 290.005 141.553 289.917 142.236 289.917C143.057 289.917 143.786 290.054 144.424 290.327C145.062 290.601 145.563 291.011 145.928 291.558C146.299 292.105 146.484 292.788 146.484 293.609V298.13C146.484 298.709 146.52 299.185 146.592 299.556C146.663 299.92 146.768 300.239 146.904 300.513V300.679H144.062C143.926 300.392 143.822 300.034 143.75 299.605C143.685 299.168 143.652 298.732 143.652 298.296ZM144.023 294.243L144.043 295.835H142.471C142.1 295.835 141.777 295.877 141.504 295.962C141.23 296.047 141.006 296.167 140.83 296.323C140.654 296.473 140.524 296.649 140.439 296.851C140.361 297.053 140.322 297.274 140.322 297.515C140.322 297.756 140.378 297.974 140.488 298.169C140.599 298.358 140.758 298.508 140.967 298.618C141.175 298.722 141.419 298.775 141.699 298.775C142.122 298.775 142.49 298.69 142.803 298.521C143.115 298.351 143.356 298.143 143.525 297.896C143.701 297.648 143.792 297.414 143.799 297.193L144.541 298.384C144.437 298.651 144.294 298.928 144.111 299.214C143.936 299.5 143.711 299.771 143.438 300.025C143.164 300.272 142.835 300.477 142.451 300.64C142.067 300.796 141.611 300.874 141.084 300.874C140.413 300.874 139.805 300.741 139.258 300.474C138.717 300.2 138.288 299.826 137.969 299.351C137.656 298.869 137.5 298.322 137.5 297.71C137.5 297.157 137.604 296.665 137.812 296.235C138.021 295.806 138.327 295.444 138.73 295.151C139.141 294.852 139.652 294.627 140.264 294.478C140.876 294.321 141.585 294.243 142.393 294.243H144.023ZM154.893 298.374V285.679H157.725V300.679H155.176L154.893 298.374ZM148.213 295.523V295.318C148.213 294.51 148.304 293.778 148.486 293.12C148.669 292.456 148.936 291.887 149.287 291.411C149.639 290.936 150.072 290.568 150.586 290.308C151.1 290.047 151.686 289.917 152.344 289.917C152.962 289.917 153.503 290.047 153.965 290.308C154.434 290.568 154.831 290.939 155.156 291.421C155.488 291.896 155.755 292.459 155.957 293.11C156.159 293.755 156.305 294.461 156.396 295.23V295.679C156.305 296.415 156.159 297.098 155.957 297.73C155.755 298.361 155.488 298.915 155.156 299.39C154.831 299.859 154.434 300.223 153.965 300.484C153.496 300.744 152.949 300.874 152.324 300.874C151.667 300.874 151.081 300.741 150.566 300.474C150.059 300.207 149.629 299.832 149.277 299.351C148.932 298.869 148.669 298.303 148.486 297.651C148.304 297 148.213 296.291 148.213 295.523ZM151.025 295.318V295.523C151.025 295.959 151.058 296.366 151.123 296.743C151.195 297.121 151.309 297.456 151.465 297.749C151.628 298.036 151.836 298.26 152.09 298.423C152.35 298.579 152.666 298.657 153.037 298.657C153.519 298.657 153.916 298.55 154.229 298.335C154.541 298.114 154.779 297.811 154.941 297.427C155.111 297.043 155.208 296.6 155.234 296.099V294.819C155.215 294.409 155.156 294.041 155.059 293.716C154.967 293.384 154.831 293.101 154.648 292.866C154.473 292.632 154.251 292.45 153.984 292.319C153.724 292.189 153.415 292.124 153.057 292.124C152.692 292.124 152.38 292.209 152.119 292.378C151.859 292.541 151.647 292.765 151.484 293.052C151.328 293.338 151.211 293.677 151.133 294.068C151.061 294.452 151.025 294.868 151.025 295.318ZM42.041 319.958C42.041 319.704 42.002 319.476 41.9238 319.275C41.8522 319.066 41.7155 318.877 41.5137 318.708C41.3118 318.532 41.0286 318.36 40.6641 318.191C40.2995 318.021 39.8275 317.845 39.248 317.663C38.6035 317.455 37.9915 317.22 37.4121 316.96C36.8392 316.7 36.3314 316.397 35.8887 316.052C35.4525 315.7 35.1074 315.293 34.8535 314.831C34.6061 314.369 34.4824 313.832 34.4824 313.22C34.4824 312.627 34.6126 312.09 34.873 311.609C35.1335 311.12 35.498 310.704 35.9668 310.359C36.4355 310.007 36.9889 309.737 37.627 309.548C38.2715 309.359 38.9779 309.265 39.7461 309.265C40.7943 309.265 41.709 309.454 42.4902 309.831C43.2715 310.209 43.877 310.726 44.3066 311.384C44.7428 312.041 44.9609 312.793 44.9609 313.64H42.0508C42.0508 313.223 41.9629 312.859 41.7871 312.546C41.6178 312.227 41.3574 311.976 41.0059 311.794C40.6608 311.612 40.2246 311.521 39.6973 311.521C39.1895 311.521 38.7663 311.599 38.4277 311.755C38.0892 311.905 37.8353 312.11 37.666 312.37C37.4967 312.624 37.4121 312.911 37.4121 313.23C37.4121 313.47 37.4707 313.689 37.5879 313.884C37.7116 314.079 37.8939 314.262 38.1348 314.431C38.3757 314.6 38.6719 314.76 39.0234 314.909C39.375 315.059 39.7819 315.206 40.2441 315.349C41.0189 315.583 41.6992 315.847 42.2852 316.14C42.8776 316.433 43.3724 316.762 43.7695 317.126C44.1667 317.491 44.4661 317.904 44.668 318.366C44.8698 318.829 44.9707 319.353 44.9707 319.939C44.9707 320.557 44.8503 321.11 44.6094 321.599C44.3685 322.087 44.0202 322.5 43.5645 322.839C43.1087 323.178 42.5651 323.435 41.9336 323.61C41.3021 323.786 40.5957 323.874 39.8145 323.874C39.1113 323.874 38.418 323.783 37.7344 323.601C37.0508 323.412 36.429 323.129 35.8691 322.751C35.3158 322.373 34.873 321.892 34.541 321.306C34.209 320.72 34.043 320.026 34.043 319.226H36.9824C36.9824 319.668 37.0508 320.043 37.1875 320.349C37.3242 320.655 37.5163 320.902 37.7637 321.091C38.0176 321.28 38.3171 321.416 38.6621 321.501C39.0137 321.586 39.3978 321.628 39.8145 321.628C40.3223 321.628 40.7389 321.556 41.0645 321.413C41.3965 321.27 41.6406 321.071 41.7969 320.818C41.9596 320.564 42.041 320.277 42.041 319.958ZM52.4902 321.296V316.589C52.4902 316.25 52.4349 315.961 52.3242 315.72C52.2135 315.472 52.041 315.28 51.8066 315.144C51.5788 315.007 51.2826 314.939 50.918 314.939C50.6055 314.939 50.3353 314.994 50.1074 315.105C49.8796 315.209 49.7038 315.362 49.5801 315.564C49.4564 315.759 49.3945 315.99 49.3945 316.257H46.582C46.582 315.808 46.6862 315.381 46.8945 314.978C47.1029 314.574 47.4056 314.219 47.8027 313.913C48.1999 313.601 48.6719 313.357 49.2188 313.181C49.7721 313.005 50.3906 312.917 51.0742 312.917C51.8945 312.917 52.6237 313.054 53.2617 313.327C53.8997 313.601 54.401 314.011 54.7656 314.558C55.1367 315.105 55.3223 315.788 55.3223 316.609V321.13C55.3223 321.709 55.3581 322.185 55.4297 322.556C55.5013 322.92 55.6055 323.239 55.7422 323.513V323.679H52.9004C52.7637 323.392 52.6595 323.034 52.5879 322.605C52.5228 322.168 52.4902 321.732 52.4902 321.296ZM52.8613 317.243L52.8809 318.835H51.3086C50.9375 318.835 50.6152 318.877 50.3418 318.962C50.0684 319.047 49.8438 319.167 49.668 319.323C49.4922 319.473 49.362 319.649 49.2773 319.851C49.1992 320.053 49.1602 320.274 49.1602 320.515C49.1602 320.756 49.2155 320.974 49.3262 321.169C49.4368 321.358 49.5964 321.508 49.8047 321.618C50.013 321.722 50.2572 321.775 50.5371 321.775C50.9603 321.775 51.3281 321.69 51.6406 321.521C51.9531 321.351 52.194 321.143 52.3633 320.896C52.5391 320.648 52.6302 320.414 52.6367 320.193L53.3789 321.384C53.2747 321.651 53.1315 321.928 52.9492 322.214C52.7734 322.5 52.5488 322.771 52.2754 323.025C52.002 323.272 51.6732 323.477 51.2891 323.64C50.9049 323.796 50.4492 323.874 49.9219 323.874C49.2513 323.874 48.6426 323.741 48.0957 323.474C47.5553 323.2 47.1257 322.826 46.8066 322.351C46.4941 321.869 46.3379 321.322 46.3379 320.71C46.3379 320.157 46.4421 319.665 46.6504 319.235C46.8587 318.806 47.1647 318.444 47.5684 318.151C47.9785 317.852 48.4896 317.627 49.1016 317.478C49.7135 317.321 50.4232 317.243 51.2305 317.243H52.8613ZM60.2441 315.368V323.679H57.4316V313.112H60.0684L60.2441 315.368ZM59.834 318.025H59.0723C59.0723 317.243 59.1732 316.54 59.375 315.915C59.5768 315.284 59.86 314.747 60.2246 314.304C60.5892 313.855 61.0221 313.513 61.5234 313.278C62.0312 313.038 62.5977 312.917 63.2227 312.917C63.7174 312.917 64.1699 312.989 64.5801 313.132C64.9902 313.275 65.3418 313.503 65.6348 313.816C65.9342 314.128 66.1621 314.541 66.3184 315.056C66.4811 315.57 66.5625 316.198 66.5625 316.941V323.679H63.7305V316.931C63.7305 316.462 63.6654 316.097 63.5352 315.837C63.4049 315.577 63.2129 315.394 62.959 315.29C62.7116 315.179 62.4056 315.124 62.041 315.124C61.6634 315.124 61.3346 315.199 61.0547 315.349C60.7812 315.498 60.5534 315.707 60.3711 315.974C60.1953 316.234 60.0618 316.54 59.9707 316.892C59.8796 317.243 59.834 317.621 59.834 318.025ZM71.6699 313.112V323.679H68.8477V313.112H71.6699ZM68.6719 310.359C68.6719 309.948 68.8151 309.61 69.1016 309.343C69.388 309.076 69.7721 308.943 70.2539 308.943C70.7292 308.943 71.11 309.076 71.3965 309.343C71.6895 309.61 71.8359 309.948 71.8359 310.359C71.8359 310.769 71.6895 311.107 71.3965 311.374C71.11 311.641 70.7292 311.775 70.2539 311.775C69.7721 311.775 69.388 311.641 69.1016 311.374C68.8151 311.107 68.6719 310.769 68.6719 310.359ZM79.1699 313.112V315.105H73.0176V313.112H79.1699ZM74.541 310.505H77.3535V320.495C77.3535 320.801 77.3926 321.036 77.4707 321.198C77.5553 321.361 77.679 321.475 77.8418 321.54C78.0046 321.599 78.2096 321.628 78.457 321.628C78.6328 321.628 78.7891 321.622 78.9258 321.609C79.069 321.589 79.1895 321.569 79.2871 321.55L79.2969 323.62C79.056 323.698 78.7956 323.76 78.5156 323.806C78.2357 323.851 77.9264 323.874 77.5879 323.874C76.9694 323.874 76.429 323.773 75.9668 323.571C75.5111 323.363 75.1595 323.031 74.9121 322.575C74.6647 322.12 74.541 321.521 74.541 320.778V310.505ZM86.4746 321.296V316.589C86.4746 316.25 86.4193 315.961 86.3086 315.72C86.1979 315.472 86.0254 315.28 85.791 315.144C85.5632 315.007 85.2669 314.939 84.9023 314.939C84.5898 314.939 84.3197 314.994 84.0918 315.105C83.8639 315.209 83.6882 315.362 83.5645 315.564C83.4408 315.759 83.3789 315.99 83.3789 316.257H80.5664C80.5664 315.808 80.6706 315.381 80.8789 314.978C81.0872 314.574 81.39 314.219 81.7871 313.913C82.1842 313.601 82.6562 313.357 83.2031 313.181C83.7565 313.005 84.375 312.917 85.0586 312.917C85.8789 312.917 86.6081 313.054 87.2461 313.327C87.8841 313.601 88.3854 314.011 88.75 314.558C89.1211 315.105 89.3066 315.788 89.3066 316.609V321.13C89.3066 321.709 89.3424 322.185 89.4141 322.556C89.4857 322.92 89.5898 323.239 89.7266 323.513V323.679H86.8848C86.748 323.392 86.6439 323.034 86.5723 322.605C86.5072 322.168 86.4746 321.732 86.4746 321.296ZM86.8457 317.243L86.8652 318.835H85.293C84.9219 318.835 84.5996 318.877 84.3262 318.962C84.0527 319.047 83.8281 319.167 83.6523 319.323C83.4766 319.473 83.3464 319.649 83.2617 319.851C83.1836 320.053 83.1445 320.274 83.1445 320.515C83.1445 320.756 83.1999 320.974 83.3105 321.169C83.4212 321.358 83.5807 321.508 83.7891 321.618C83.9974 321.722 84.2415 321.775 84.5215 321.775C84.9447 321.775 85.3125 321.69 85.625 321.521C85.9375 321.351 86.1784 321.143 86.3477 320.896C86.5234 320.648 86.6146 320.414 86.6211 320.193L87.3633 321.384C87.2591 321.651 87.1159 321.928 86.9336 322.214C86.7578 322.5 86.5332 322.771 86.2598 323.025C85.9863 323.272 85.6576 323.477 85.2734 323.64C84.8893 323.796 84.4336 323.874 83.9062 323.874C83.2357 323.874 82.627 323.741 82.0801 323.474C81.5397 323.2 81.11 322.826 80.791 322.351C80.4785 321.869 80.3223 321.322 80.3223 320.71C80.3223 320.157 80.4264 319.665 80.6348 319.235C80.8431 318.806 81.1491 318.444 81.5527 318.151C81.9629 317.852 82.474 317.627 83.0859 317.478C83.6979 317.321 84.4076 317.243 85.2148 317.243H86.8457ZM94.2871 315.417V323.679H91.4746V313.112H94.1211L94.2871 315.417ZM97.4707 313.044L97.4219 315.651C97.2852 315.632 97.1191 315.616 96.9238 315.603C96.735 315.583 96.5625 315.573 96.4062 315.573C96.0091 315.573 95.6641 315.625 95.3711 315.73C95.0846 315.827 94.8438 315.974 94.6484 316.169C94.4596 316.364 94.3164 316.602 94.2188 316.882C94.1276 317.162 94.0755 317.481 94.0625 317.839L93.4961 317.663C93.4961 316.98 93.5645 316.351 93.7012 315.778C93.8379 315.199 94.0365 314.694 94.2969 314.265C94.5638 313.835 94.8893 313.503 95.2734 313.269C95.6576 313.034 96.097 312.917 96.5918 312.917C96.748 312.917 96.9076 312.93 97.0703 312.956C97.2331 312.976 97.3665 313.005 97.4707 313.044ZM101.768 313.112V323.679H98.9453V313.112H101.768ZM98.7695 310.359C98.7695 309.948 98.9128 309.61 99.1992 309.343C99.4857 309.076 99.8698 308.943 100.352 308.943C100.827 308.943 101.208 309.076 101.494 309.343C101.787 309.61 101.934 309.948 101.934 310.359C101.934 310.769 101.787 311.107 101.494 311.374C101.208 311.641 100.827 311.775 100.352 311.775C99.8698 311.775 99.4857 311.641 99.1992 311.374C98.9128 311.107 98.7695 310.769 98.7695 310.359ZM109.795 321.296V316.589C109.795 316.25 109.74 315.961 109.629 315.72C109.518 315.472 109.346 315.28 109.111 315.144C108.883 315.007 108.587 314.939 108.223 314.939C107.91 314.939 107.64 314.994 107.412 315.105C107.184 315.209 107.008 315.362 106.885 315.564C106.761 315.759 106.699 315.99 106.699 316.257H103.887C103.887 315.808 103.991 315.381 104.199 314.978C104.408 314.574 104.71 314.219 105.107 313.913C105.505 313.601 105.977 313.357 106.523 313.181C107.077 313.005 107.695 312.917 108.379 312.917C109.199 312.917 109.928 313.054 110.566 313.327C111.204 313.601 111.706 314.011 112.07 314.558C112.441 315.105 112.627 315.788 112.627 316.609V321.13C112.627 321.709 112.663 322.185 112.734 322.556C112.806 322.92 112.91 323.239 113.047 323.513V323.679H110.205C110.068 323.392 109.964 323.034 109.893 322.605C109.827 322.168 109.795 321.732 109.795 321.296ZM110.166 317.243L110.186 318.835H108.613C108.242 318.835 107.92 318.877 107.646 318.962C107.373 319.047 107.148 319.167 106.973 319.323C106.797 319.473 106.667 319.649 106.582 319.851C106.504 320.053 106.465 320.274 106.465 320.515C106.465 320.756 106.52 320.974 106.631 321.169C106.742 321.358 106.901 321.508 107.109 321.618C107.318 321.722 107.562 321.775 107.842 321.775C108.265 321.775 108.633 321.69 108.945 321.521C109.258 321.351 109.499 321.143 109.668 320.896C109.844 320.648 109.935 320.414 109.941 320.193L110.684 321.384C110.579 321.651 110.436 321.928 110.254 322.214C110.078 322.5 109.854 322.771 109.58 323.025C109.307 323.272 108.978 323.477 108.594 323.64C108.21 323.796 107.754 323.874 107.227 323.874C106.556 323.874 105.947 323.741 105.4 323.474C104.86 323.2 104.43 322.826 104.111 322.351C103.799 321.869 103.643 321.322 103.643 320.71C103.643 320.157 103.747 319.665 103.955 319.235C104.163 318.806 104.469 318.444 104.873 318.151C105.283 317.852 105.794 317.627 106.406 317.478C107.018 317.321 107.728 317.243 108.535 317.243H110.166ZM125.732 311.892L121.865 323.679H118.75L124.033 309.46H126.016L125.732 311.892ZM128.945 323.679L125.068 311.892L124.756 309.46H126.758L132.07 323.679H128.945ZM128.77 318.386V320.681H121.26V318.386H128.77ZM135.654 315.368V323.679H132.842V313.112H135.479L135.654 315.368ZM135.244 318.025H134.482C134.482 317.243 134.583 316.54 134.785 315.915C134.987 315.284 135.27 314.747 135.635 314.304C135.999 313.855 136.432 313.513 136.934 313.278C137.441 313.038 138.008 312.917 138.633 312.917C139.128 312.917 139.58 312.989 139.99 313.132C140.4 313.275 140.752 313.503 141.045 313.816C141.344 314.128 141.572 314.541 141.729 315.056C141.891 315.57 141.973 316.198 141.973 316.941V323.679H139.141V316.931C139.141 316.462 139.076 316.097 138.945 315.837C138.815 315.577 138.623 315.394 138.369 315.29C138.122 315.179 137.816 315.124 137.451 315.124C137.074 315.124 136.745 315.199 136.465 315.349C136.191 315.498 135.964 315.707 135.781 315.974C135.605 316.234 135.472 316.54 135.381 316.892C135.29 317.243 135.244 317.621 135.244 318.025ZM147.08 313.112V323.679H144.258V313.112H147.08ZM144.082 310.359C144.082 309.948 144.225 309.61 144.512 309.343C144.798 309.076 145.182 308.943 145.664 308.943C146.139 308.943 146.52 309.076 146.807 309.343C147.1 309.61 147.246 309.948 147.246 310.359C147.246 310.769 147.1 311.107 146.807 311.374C146.52 311.641 146.139 311.775 145.664 311.775C145.182 311.775 144.798 311.641 144.512 311.374C144.225 311.107 144.082 310.769 144.082 310.359ZM152.217 315.3V323.679H149.395V313.112H152.041L152.217 315.3ZM151.826 318.025H151.045C151.045 317.289 151.133 316.612 151.309 315.993C151.491 315.368 151.755 314.828 152.1 314.372C152.451 313.91 152.884 313.552 153.398 313.298C153.913 313.044 154.508 312.917 155.186 312.917C155.654 312.917 156.084 312.989 156.475 313.132C156.865 313.269 157.201 313.487 157.48 313.786C157.767 314.079 157.988 314.463 158.145 314.939C158.301 315.407 158.379 315.97 158.379 316.628V323.679H155.566V316.941C155.566 316.459 155.501 316.088 155.371 315.827C155.241 315.567 155.055 315.385 154.814 315.28C154.58 315.176 154.297 315.124 153.965 315.124C153.6 315.124 153.281 315.199 153.008 315.349C152.741 315.498 152.52 315.707 152.344 315.974C152.168 316.234 152.038 316.54 151.953 316.892C151.868 317.243 151.826 317.621 151.826 318.025ZM158.115 317.702L157.109 317.829C157.109 317.139 157.194 316.498 157.363 315.905C157.539 315.313 157.796 314.792 158.135 314.343C158.48 313.894 158.906 313.545 159.414 313.298C159.922 313.044 160.508 312.917 161.172 312.917C161.68 312.917 162.142 312.992 162.559 313.142C162.975 313.285 163.33 313.516 163.623 313.835C163.923 314.148 164.15 314.558 164.307 315.066C164.469 315.573 164.551 316.195 164.551 316.931V323.679H161.729V316.931C161.729 316.443 161.663 316.071 161.533 315.818C161.41 315.557 161.227 315.378 160.986 315.28C160.752 315.176 160.472 315.124 160.146 315.124C159.808 315.124 159.512 315.193 159.258 315.329C159.004 315.459 158.792 315.642 158.623 315.876C158.454 316.11 158.327 316.384 158.242 316.696C158.158 317.002 158.115 317.338 158.115 317.702ZM172.432 321.296V316.589C172.432 316.25 172.376 315.961 172.266 315.72C172.155 315.472 171.982 315.28 171.748 315.144C171.52 315.007 171.224 314.939 170.859 314.939C170.547 314.939 170.277 314.994 170.049 315.105C169.821 315.209 169.645 315.362 169.521 315.564C169.398 315.759 169.336 315.99 169.336 316.257H166.523C166.523 315.808 166.628 315.381 166.836 314.978C167.044 314.574 167.347 314.219 167.744 313.913C168.141 313.601 168.613 313.357 169.16 313.181C169.714 313.005 170.332 312.917 171.016 312.917C171.836 312.917 172.565 313.054 173.203 313.327C173.841 313.601 174.342 314.011 174.707 314.558C175.078 315.105 175.264 315.788 175.264 316.609V321.13C175.264 321.709 175.299 322.185 175.371 322.556C175.443 322.92 175.547 323.239 175.684 323.513V323.679H172.842C172.705 323.392 172.601 323.034 172.529 322.605C172.464 322.168 172.432 321.732 172.432 321.296ZM172.803 317.243L172.822 318.835H171.25C170.879 318.835 170.557 318.877 170.283 318.962C170.01 319.047 169.785 319.167 169.609 319.323C169.434 319.473 169.303 319.649 169.219 319.851C169.141 320.053 169.102 320.274 169.102 320.515C169.102 320.756 169.157 320.974 169.268 321.169C169.378 321.358 169.538 321.508 169.746 321.618C169.954 321.722 170.199 321.775 170.479 321.775C170.902 321.775 171.27 321.69 171.582 321.521C171.895 321.351 172.135 321.143 172.305 320.896C172.48 320.648 172.572 320.414 172.578 320.193L173.32 321.384C173.216 321.651 173.073 321.928 172.891 322.214C172.715 322.5 172.49 322.771 172.217 323.025C171.943 323.272 171.615 323.477 171.23 323.64C170.846 323.796 170.391 323.874 169.863 323.874C169.193 323.874 168.584 323.741 168.037 323.474C167.497 323.2 167.067 322.826 166.748 322.351C166.436 321.869 166.279 321.322 166.279 320.71C166.279 320.157 166.383 319.665 166.592 319.235C166.8 318.806 167.106 318.444 167.51 318.151C167.92 317.852 168.431 317.627 169.043 317.478C169.655 317.321 170.365 317.243 171.172 317.243H172.803ZM180.4 308.679V323.679H177.578V308.679H180.4ZM57.3145 344.374V331.679H60.1465V346.679H57.5977L57.3145 344.374ZM50.6348 341.523V341.318C50.6348 340.51 50.7259 339.778 50.9082 339.12C51.0905 338.456 51.3574 337.887 51.709 337.411C52.0605 336.936 52.4935 336.568 53.0078 336.308C53.5221 336.047 54.1081 335.917 54.7656 335.917C55.3841 335.917 55.9245 336.047 56.3867 336.308C56.8555 336.568 57.2526 336.939 57.5781 337.421C57.9102 337.896 58.1771 338.459 58.3789 339.11C58.5807 339.755 58.7272 340.461 58.8184 341.23V341.679C58.7272 342.415 58.5807 343.098 58.3789 343.73C58.1771 344.361 57.9102 344.915 57.5781 345.39C57.2526 345.859 56.8555 346.223 56.3867 346.484C55.918 346.744 55.3711 346.874 54.7461 346.874C54.0885 346.874 53.5026 346.741 52.9883 346.474C52.4805 346.207 52.0508 345.832 51.6992 345.351C51.3542 344.869 51.0905 344.303 50.9082 343.651C50.7259 343 50.6348 342.291 50.6348 341.523ZM53.4473 341.318V341.523C53.4473 341.959 53.4798 342.366 53.5449 342.743C53.6165 343.121 53.7305 343.456 53.8867 343.749C54.0495 344.036 54.2578 344.26 54.5117 344.423C54.7721 344.579 55.0879 344.657 55.459 344.657C55.9408 344.657 56.3379 344.55 56.6504 344.335C56.9629 344.114 57.2005 343.811 57.3633 343.427C57.5326 343.043 57.6302 342.6 57.6562 342.099V340.819C57.6367 340.409 57.5781 340.041 57.4805 339.716C57.3893 339.384 57.2526 339.101 57.0703 338.866C56.8945 338.632 56.6732 338.45 56.4062 338.319C56.1458 338.189 55.8366 338.124 55.4785 338.124C55.1139 338.124 54.8014 338.209 54.541 338.378C54.2806 338.541 54.069 338.765 53.9062 339.052C53.75 339.338 53.6328 339.677 53.5547 340.068C53.4831 340.452 53.4473 340.868 53.4473 341.318ZM67.207 346.874C66.3867 346.874 65.651 346.744 65 346.484C64.349 346.217 63.7956 345.849 63.3398 345.38C62.8906 344.911 62.5456 344.368 62.3047 343.749C62.0638 343.124 61.9434 342.46 61.9434 341.757V341.366C61.9434 340.566 62.0573 339.833 62.2852 339.169C62.513 338.505 62.8385 337.929 63.2617 337.441C63.6914 336.952 64.2122 336.578 64.8242 336.318C65.4362 336.051 66.1263 335.917 66.8945 335.917C67.6432 335.917 68.3073 336.041 68.8867 336.288C69.4661 336.536 69.9512 336.887 70.3418 337.343C70.7389 337.799 71.0384 338.345 71.2402 338.984C71.4421 339.615 71.543 340.318 71.543 341.093V342.265H63.1445V340.39H68.7793V340.175C68.7793 339.784 68.7077 339.436 68.5645 339.13C68.4277 338.818 68.2194 338.57 67.9395 338.388C67.6595 338.206 67.3014 338.114 66.8652 338.114C66.4941 338.114 66.1751 338.196 65.9082 338.359C65.6413 338.521 65.4232 338.749 65.2539 339.042C65.0911 339.335 64.9674 339.68 64.8828 340.077C64.8047 340.468 64.7656 340.898 64.7656 341.366V341.757C64.7656 342.18 64.8242 342.571 64.9414 342.929C65.0651 343.287 65.2376 343.596 65.459 343.857C65.6868 344.117 65.9603 344.319 66.2793 344.462C66.6048 344.605 66.9727 344.677 67.3828 344.677C67.8906 344.677 68.3626 344.579 68.7988 344.384C69.2415 344.182 69.6224 343.879 69.9414 343.476L71.3086 344.96C71.0872 345.279 70.7845 345.585 70.4004 345.878C70.0228 346.171 69.5671 346.412 69.0332 346.601C68.4993 346.783 67.8906 346.874 67.207 346.874ZM84.082 334.892L80.2148 346.679H77.0996L82.3828 332.46H84.3652L84.082 334.892ZM87.2949 346.679L83.418 334.892L83.1055 332.46H85.1074L90.4199 346.679H87.2949ZM87.1191 341.386V343.681H79.6094V341.386H87.1191ZM94.375 338.417V346.679H91.5625V336.112H94.209L94.375 338.417ZM97.5586 336.044L97.5098 338.651C97.373 338.632 97.207 338.616 97.0117 338.603C96.8229 338.583 96.6504 338.573 96.4941 338.573C96.097 338.573 95.752 338.625 95.459 338.73C95.1725 338.827 94.9316 338.974 94.7363 339.169C94.5475 339.364 94.4043 339.602 94.3066 339.882C94.2155 340.162 94.1634 340.481 94.1504 340.839L93.584 340.663C93.584 339.98 93.6523 339.351 93.7891 338.778C93.9258 338.199 94.1243 337.694 94.3848 337.265C94.6517 336.835 94.9772 336.503 95.3613 336.269C95.7454 336.034 96.1849 335.917 96.6797 335.917C96.8359 335.917 96.9954 335.93 97.1582 335.956C97.321 335.976 97.4544 336.005 97.5586 336.044ZM105.381 336.112H107.93V346.327C107.93 347.291 107.715 348.108 107.285 348.778C106.862 349.456 106.27 349.967 105.508 350.312C104.746 350.663 103.861 350.839 102.852 350.839C102.409 350.839 101.94 350.78 101.445 350.663C100.957 350.546 100.488 350.364 100.039 350.116C99.5964 349.869 99.2253 349.556 98.9258 349.179L100.166 347.519C100.492 347.896 100.869 348.189 101.299 348.398C101.729 348.612 102.204 348.72 102.725 348.72C103.232 348.72 103.662 348.625 104.014 348.437C104.365 348.254 104.635 347.984 104.824 347.626C105.013 347.275 105.107 346.848 105.107 346.347V338.554L105.381 336.112ZM98.2715 341.523V341.318C98.2715 340.51 98.3691 339.778 98.5645 339.12C98.7663 338.456 99.0495 337.887 99.4141 337.411C99.7852 336.936 100.234 336.568 100.762 336.308C101.289 336.047 101.885 335.917 102.549 335.917C103.252 335.917 103.841 336.047 104.316 336.308C104.792 336.568 105.182 336.939 105.488 337.421C105.794 337.896 106.032 338.459 106.201 339.11C106.377 339.755 106.514 340.461 106.611 341.23V341.679C106.514 342.415 106.367 343.098 106.172 343.73C105.977 344.361 105.719 344.915 105.4 345.39C105.081 345.859 104.684 346.223 104.209 346.484C103.74 346.744 103.18 346.874 102.529 346.874C101.878 346.874 101.289 346.741 100.762 346.474C100.241 346.207 99.7949 345.832 99.4238 345.351C99.0527 344.869 98.7663 344.303 98.5645 343.651C98.3691 343 98.2715 342.291 98.2715 341.523ZM101.084 341.318V341.523C101.084 341.959 101.126 342.366 101.211 342.743C101.296 343.121 101.426 343.456 101.602 343.749C101.784 344.036 102.008 344.26 102.275 344.423C102.549 344.579 102.871 344.657 103.242 344.657C103.757 344.657 104.176 344.55 104.502 344.335C104.827 344.114 105.072 343.811 105.234 343.427C105.397 343.043 105.492 342.6 105.518 342.099V340.819C105.505 340.409 105.449 340.041 105.352 339.716C105.254 339.384 105.117 339.101 104.941 338.866C104.766 338.632 104.538 338.45 104.258 338.319C103.978 338.189 103.646 338.124 103.262 338.124C102.891 338.124 102.568 338.209 102.295 338.378C102.028 338.541 101.803 338.765 101.621 339.052C101.445 339.338 101.312 339.677 101.221 340.068C101.13 340.452 101.084 340.868 101.084 341.318ZM114.98 346.874C114.16 346.874 113.424 346.744 112.773 346.484C112.122 346.217 111.569 345.849 111.113 345.38C110.664 344.911 110.319 344.368 110.078 343.749C109.837 343.124 109.717 342.46 109.717 341.757V341.366C109.717 340.566 109.831 339.833 110.059 339.169C110.286 338.505 110.612 337.929 111.035 337.441C111.465 336.952 111.986 336.578 112.598 336.318C113.21 336.051 113.9 335.917 114.668 335.917C115.417 335.917 116.081 336.041 116.66 336.288C117.24 336.536 117.725 336.887 118.115 337.343C118.512 337.799 118.812 338.345 119.014 338.984C119.215 339.615 119.316 340.318 119.316 341.093V342.265H110.918V340.39H116.553V340.175C116.553 339.784 116.481 339.436 116.338 339.13C116.201 338.818 115.993 338.57 115.713 338.388C115.433 338.206 115.075 338.114 114.639 338.114C114.268 338.114 113.949 338.196 113.682 338.359C113.415 338.521 113.197 338.749 113.027 339.042C112.865 339.335 112.741 339.68 112.656 340.077C112.578 340.468 112.539 340.898 112.539 341.366V341.757C112.539 342.18 112.598 342.571 112.715 342.929C112.839 343.287 113.011 343.596 113.232 343.857C113.46 344.117 113.734 344.319 114.053 344.462C114.378 344.605 114.746 344.677 115.156 344.677C115.664 344.677 116.136 344.579 116.572 344.384C117.015 344.182 117.396 343.879 117.715 343.476L119.082 344.96C118.861 345.279 118.558 345.585 118.174 345.878C117.796 346.171 117.34 346.412 116.807 346.601C116.273 346.783 115.664 346.874 114.98 346.874ZM123.672 338.368V346.679H120.859V336.112H123.496L123.672 338.368ZM123.262 341.025H122.5C122.5 340.243 122.601 339.54 122.803 338.915C123.005 338.284 123.288 337.747 123.652 337.304C124.017 336.855 124.45 336.513 124.951 336.278C125.459 336.038 126.025 335.917 126.65 335.917C127.145 335.917 127.598 335.989 128.008 336.132C128.418 336.275 128.77 336.503 129.062 336.816C129.362 337.128 129.59 337.541 129.746 338.056C129.909 338.57 129.99 339.198 129.99 339.941V346.679H127.158V339.931C127.158 339.462 127.093 339.097 126.963 338.837C126.833 338.577 126.641 338.394 126.387 338.29C126.139 338.179 125.833 338.124 125.469 338.124C125.091 338.124 124.762 338.199 124.482 338.349C124.209 338.498 123.981 338.707 123.799 338.974C123.623 339.234 123.49 339.54 123.398 339.892C123.307 340.243 123.262 340.621 123.262 341.025ZM137.305 336.112V338.105H131.152V336.112H137.305ZM132.676 333.505H135.488V343.495C135.488 343.801 135.527 344.036 135.605 344.198C135.69 344.361 135.814 344.475 135.977 344.54C136.139 344.599 136.344 344.628 136.592 344.628C136.768 344.628 136.924 344.622 137.061 344.609C137.204 344.589 137.324 344.569 137.422 344.55L137.432 346.62C137.191 346.698 136.93 346.76 136.65 346.806C136.37 346.851 136.061 346.874 135.723 346.874C135.104 346.874 134.564 346.773 134.102 346.571C133.646 346.363 133.294 346.031 133.047 345.575C132.799 345.12 132.676 344.521 132.676 343.778V333.505ZM141.875 336.112V346.679H139.053V336.112H141.875ZM138.877 333.359C138.877 332.948 139.02 332.61 139.307 332.343C139.593 332.076 139.977 331.943 140.459 331.943C140.934 331.943 141.315 332.076 141.602 332.343C141.895 332.61 142.041 332.948 142.041 333.359C142.041 333.769 141.895 334.107 141.602 334.374C141.315 334.641 140.934 334.775 140.459 334.775C139.977 334.775 139.593 334.641 139.307 334.374C139.02 334.107 138.877 333.769 138.877 333.359ZM146.953 338.368V346.679H144.141V336.112H146.777L146.953 338.368ZM146.543 341.025H145.781C145.781 340.243 145.882 339.54 146.084 338.915C146.286 338.284 146.569 337.747 146.934 337.304C147.298 336.855 147.731 336.513 148.232 336.278C148.74 336.038 149.307 335.917 149.932 335.917C150.426 335.917 150.879 335.989 151.289 336.132C151.699 336.275 152.051 336.503 152.344 336.816C152.643 337.128 152.871 337.541 153.027 338.056C153.19 338.57 153.271 339.198 153.271 339.941V346.679H150.439V339.931C150.439 339.462 150.374 339.097 150.244 338.837C150.114 338.577 149.922 338.394 149.668 338.29C149.421 338.179 149.115 338.124 148.75 338.124C148.372 338.124 148.044 338.199 147.764 338.349C147.49 338.498 147.262 338.707 147.08 338.974C146.904 339.234 146.771 339.54 146.68 339.892C146.589 340.243 146.543 340.621 146.543 341.025ZM161.113 344.296V339.589C161.113 339.25 161.058 338.961 160.947 338.72C160.837 338.472 160.664 338.28 160.43 338.144C160.202 338.007 159.906 337.939 159.541 337.939C159.229 337.939 158.958 337.994 158.73 338.105C158.503 338.209 158.327 338.362 158.203 338.564C158.079 338.759 158.018 338.99 158.018 339.257H155.205C155.205 338.808 155.309 338.381 155.518 337.978C155.726 337.574 156.029 337.219 156.426 336.913C156.823 336.601 157.295 336.357 157.842 336.181C158.395 336.005 159.014 335.917 159.697 335.917C160.518 335.917 161.247 336.054 161.885 336.327C162.523 336.601 163.024 337.011 163.389 337.558C163.76 338.105 163.945 338.788 163.945 339.609V344.13C163.945 344.709 163.981 345.185 164.053 345.556C164.124 345.92 164.229 346.239 164.365 346.513V346.679H161.523C161.387 346.392 161.283 346.034 161.211 345.605C161.146 345.168 161.113 344.732 161.113 344.296ZM161.484 340.243L161.504 341.835H159.932C159.561 341.835 159.238 341.877 158.965 341.962C158.691 342.047 158.467 342.167 158.291 342.323C158.115 342.473 157.985 342.649 157.9 342.851C157.822 343.053 157.783 343.274 157.783 343.515C157.783 343.756 157.839 343.974 157.949 344.169C158.06 344.358 158.219 344.508 158.428 344.618C158.636 344.722 158.88 344.775 159.16 344.775C159.583 344.775 159.951 344.69 160.264 344.521C160.576 344.351 160.817 344.143 160.986 343.896C161.162 343.648 161.253 343.414 161.26 343.193L162.002 344.384C161.898 344.651 161.755 344.928 161.572 345.214C161.396 345.5 161.172 345.771 160.898 346.025C160.625 346.272 160.296 346.477 159.912 346.64C159.528 346.796 159.072 346.874 158.545 346.874C157.874 346.874 157.266 346.741 156.719 346.474C156.178 346.2 155.749 345.826 155.43 345.351C155.117 344.869 154.961 344.322 154.961 343.71C154.961 343.157 155.065 342.665 155.273 342.235C155.482 341.806 155.788 341.444 156.191 341.151C156.602 340.852 157.113 340.627 157.725 340.478C158.337 340.321 159.046 340.243 159.854 340.243H161.484Z" fill="#4969D9"/>
</svg>
