<svg width="52" height="62" viewBox="0 0 52 62" fill="none" xmlns="http://www.w3.org/2000/svg">
<path d="M9.75016 26.0004C12.7417 26.0004 15.1668 23.5753 15.1668 20.5838C15.1668 17.5922 12.7417 15.1671 9.75016 15.1671C6.75862 15.1671 4.3335 17.5922 4.3335 20.5838C4.3335 23.5753 6.75862 26.0004 9.75016 26.0004Z" fill="white"/>
<path d="M19.5002 17.3333C22.4917 17.3333 24.9168 14.9082 24.9168 11.9167C24.9168 8.92512 22.4917 6.5 19.5002 6.5C16.5086 6.5 14.0835 8.92512 14.0835 11.9167C14.0835 14.9082 16.5086 17.3333 19.5002 17.3333Z" fill="white"/>
<path d="M32.5002 17.3333C35.4917 17.3333 37.9168 14.9082 37.9168 11.9167C37.9168 8.92512 35.4917 6.5 32.5002 6.5C29.5086 6.5 27.0835 8.92512 27.0835 11.9167C27.0835 14.9082 29.5086 17.3333 32.5002 17.3333Z" fill="white"/>
<path d="M42.2502 26.0004C45.2417 26.0004 47.6668 23.5753 47.6668 20.5838C47.6668 17.5922 45.2417 15.1671 42.2502 15.1671C39.2586 15.1671 36.8335 17.5922 36.8335 20.5838C36.8335 23.5753 39.2586 26.0004 42.2502 26.0004Z" fill="white"/>
<path d="M37.5699 32.1967C35.6849 29.9867 34.1032 28.1017 32.1965 25.8917C31.1999 24.7217 29.9215 23.5517 28.4049 23.0317C28.1665 22.945 27.9282 22.88 27.6899 22.8367C27.1482 22.75 26.5632 22.75 25.9999 22.75C25.4365 22.75 24.8515 22.75 24.2882 22.8583C24.0499 22.9017 23.8115 22.9667 23.5732 23.0533C22.0565 23.5733 20.7999 24.7433 19.7815 25.9133C17.8965 28.1233 16.3149 30.0083 14.4082 32.2183C11.5699 35.0567 8.08153 38.1983 8.73153 42.5967C9.35986 44.8067 10.9415 46.995 13.7799 47.6233C15.3615 47.9483 20.4099 46.67 25.7832 46.67H26.1732C31.5465 46.67 36.5949 47.9267 38.1765 47.6233C41.0149 46.995 42.5965 44.785 43.2249 42.5967C43.8965 38.1767 40.4082 35.035 37.5699 32.1967Z" fill="white"/>
<path d="M10.6155 56.5973L12.2633 51.1294H13.9312L11.3995 58.3999H9.83651L7.3148 51.1294H8.97763L10.6155 56.5973ZM17.4266 58.3999C17.36 58.2701 17.3118 58.1086 17.2818 57.9155C16.9323 58.305 16.4779 58.4998 15.9186 58.4998C15.3893 58.4998 14.9498 58.3466 14.6003 58.0404C14.2541 57.7341 14.081 57.3479 14.081 56.8819C14.081 56.3093 14.2924 55.8699 14.7152 55.5636C15.1413 55.2573 15.7555 55.1025 16.5578 55.0992H17.2219V54.7896C17.2219 54.5399 17.157 54.3402 17.0271 54.1904C16.9006 54.0406 16.6992 53.9657 16.4229 53.9657C16.1799 53.9657 15.9885 54.0239 15.8487 54.1405C15.7122 54.257 15.6439 54.4168 15.6439 54.6198H14.2008C14.2008 54.3069 14.2974 54.0173 14.4904 53.751C14.6835 53.4846 14.9565 53.2766 15.3094 53.1268C15.6623 52.9736 16.0584 52.8971 16.4978 52.8971C17.1636 52.8971 17.6913 53.0652 18.0808 53.4014C18.4736 53.7343 18.67 54.2037 18.67 54.8096V57.1515C18.6733 57.6642 18.7449 58.052 18.8847 58.315V58.3999H17.4266ZM16.2332 57.3962C16.4462 57.3962 16.6426 57.3496 16.8224 57.2564C17.0022 57.1599 17.1353 57.0317 17.2219 56.8719V55.9431H16.6826C15.9602 55.9431 15.5757 56.1928 15.5291 56.6921L15.5241 56.777C15.5241 56.9568 15.5873 57.1049 15.7139 57.2214C15.8404 57.338 16.0135 57.3962 16.2332 57.3962ZM22.7047 56.9068C22.7047 56.7304 22.6165 56.5923 22.4401 56.4924C22.267 56.3892 21.9873 56.2976 21.6012 56.2177C20.3162 55.9481 19.6737 55.4021 19.6737 54.5799C19.6737 54.1005 19.8718 53.701 20.2679 53.3814C20.6674 53.0585 21.1884 52.8971 21.8309 52.8971C22.5167 52.8971 23.0643 53.0585 23.4737 53.3814C23.8865 53.7044 24.0929 54.1238 24.0929 54.6398H22.6498C22.6498 54.4334 22.5832 54.2636 22.4501 54.1305C22.3169 53.994 22.1088 53.9257 21.8259 53.9257C21.5829 53.9257 21.3948 53.9807 21.2616 54.0905C21.1285 54.2004 21.0619 54.3402 21.0619 54.51C21.0619 54.6698 21.1368 54.7996 21.2866 54.8995C21.4397 54.996 21.6961 55.0809 22.0556 55.1541C22.4151 55.224 22.7181 55.3039 22.9644 55.3938C23.7267 55.6735 24.1079 56.1578 24.1079 56.8469C24.1079 57.3396 23.8965 57.7391 23.4737 58.0454C23.051 58.3483 22.505 58.4998 21.8359 58.4998C21.3831 58.4998 20.9803 58.4199 20.6274 58.2601C20.2779 58.097 20.0033 57.8756 19.8035 57.596C19.6038 57.313 19.5039 57.0084 19.5039 56.6821H20.8721C20.8854 56.9385 20.9803 57.1349 21.1568 57.2714C21.3332 57.4079 21.5696 57.4761 21.8658 57.4761C22.1421 57.4761 22.3502 57.4245 22.49 57.3213C22.6332 57.2148 22.7047 57.0766 22.7047 56.9068ZM28.1726 58.3999C28.106 58.2701 28.0578 58.1086 28.0278 57.9155C27.6783 58.305 27.2238 58.4998 26.6646 58.4998C26.1353 58.4998 25.6958 58.3466 25.3463 58.0404C25.0001 57.7341 24.827 57.3479 24.827 56.8819C24.827 56.3093 25.0384 55.8699 25.4611 55.5636C25.8873 55.2573 26.5015 55.1025 27.3037 55.0992H27.9679V54.7896C27.9679 54.5399 27.903 54.3402 27.7731 54.1904C27.6466 54.0406 27.4452 53.9657 27.1689 53.9657C26.9259 53.9657 26.7345 54.0239 26.5947 54.1405C26.4582 54.257 26.3899 54.4168 26.3899 54.6198H24.9468C24.9468 54.3069 25.0434 54.0173 25.2364 53.751C25.4295 53.4846 25.7025 53.2766 26.0554 53.1268C26.4082 52.9736 26.8044 52.8971 27.2438 52.8971C27.9096 52.8971 28.4373 53.0652 28.8268 53.4014C29.2196 53.7343 29.416 54.2037 29.416 54.8096V57.1515C29.4193 57.6642 29.4909 58.052 29.6307 58.315V58.3999H28.1726ZM26.9792 57.3962C27.1922 57.3962 27.3886 57.3496 27.5684 57.2564C27.7482 57.1599 27.8813 57.0317 27.9679 56.8719V55.9431H27.4286C26.7062 55.9431 26.3217 56.1928 26.2751 56.6921L26.2701 56.777C26.2701 56.9568 26.3333 57.1049 26.4598 57.2214C26.5863 57.338 26.7595 57.3962 26.9792 57.3962ZM36.5317 58.3999H35.0337L32.1175 53.6161V58.3999H30.6194V51.1294H32.1175L35.0387 55.9231V51.1294H36.5317V58.3999ZM40.2319 58.4998C39.4396 58.4998 38.7938 58.2568 38.2944 57.7707C37.7984 57.2847 37.5504 56.6372 37.5504 55.8283V55.6884C37.5504 55.1458 37.6552 54.6614 37.865 54.2353C38.0747 53.8059 38.371 53.4763 38.7538 53.2466C39.14 53.0136 39.5794 52.8971 40.0721 52.8971C40.8111 52.8971 41.392 53.1301 41.8148 53.5962C42.2409 54.0622 42.454 54.723 42.454 55.5786V56.1678H39.0135C39.0601 56.5207 39.1999 56.8036 39.4329 57.0167C39.6693 57.2298 39.9672 57.3363 40.3268 57.3363C40.8827 57.3363 41.3171 57.1349 41.6301 56.7321L42.3391 57.526C42.1228 57.8323 41.8298 58.072 41.4603 58.2451C41.0908 58.4149 40.6813 58.4998 40.2319 58.4998ZM40.0671 54.0656C39.7808 54.0656 39.5478 54.1621 39.368 54.3552C39.1916 54.5483 39.0784 54.8246 39.0285 55.1841H41.0358V55.0692C41.0292 54.7497 40.9426 54.5033 40.7762 54.3302C40.6097 54.1538 40.3734 54.0656 40.0671 54.0656ZM45.0057 51.6687V52.9969H45.9295V54.0556H45.0057V56.7521C45.0057 56.9518 45.0439 57.0949 45.1205 57.1815C45.1971 57.268 45.3436 57.3113 45.5599 57.3113C45.7197 57.3113 45.8612 57.2997 45.9844 57.2764V58.3699C45.7014 58.4565 45.4101 58.4998 45.1105 58.4998C44.0985 58.4998 43.5825 57.9888 43.5625 56.9668V54.0556H42.7736V52.9969H43.5625V51.6687H45.0057Z" fill="white"/>
</svg>
