<svg width="283" height="329" viewBox="0 0 283 329" fill="none" xmlns="http://www.w3.org/2000/svg">
<path d="M52.9591 150.702C69.2082 150.702 82.3806 136.733 82.3806 119.502C82.3806 102.27 69.2082 88.3008 52.9591 88.3008C36.7101 88.3008 23.5376 102.27 23.5376 119.502C23.5376 136.733 36.7101 150.702 52.9591 150.702Z" fill="black"/>
<path d="M105.918 100.778C122.167 100.778 135.339 86.809 135.339 69.5773C135.339 52.3455 122.167 38.3765 105.918 38.3765C89.6688 38.3765 76.4963 52.3455 76.4963 69.5773C76.4963 86.809 89.6688 100.778 105.918 100.778Z" fill="black"/>
<path d="M176.529 100.778C192.779 100.778 205.951 86.809 205.951 69.5773C205.951 52.3455 192.779 38.3765 176.529 38.3765C160.28 38.3765 147.108 52.3455 147.108 69.5773C147.108 86.809 160.28 100.778 176.529 100.778Z" fill="black"/>
<path d="M229.488 150.702C245.737 150.702 258.91 136.733 258.91 119.502C258.91 102.27 245.737 88.3008 229.488 88.3008C213.239 88.3008 200.067 102.27 200.067 119.502C200.067 136.733 213.239 150.702 229.488 150.702Z" fill="black"/>
<path d="M204.066 186.393C193.828 173.663 185.237 162.805 174.88 150.075C169.467 143.336 162.523 136.597 154.285 133.601C152.991 133.102 151.696 132.728 150.402 132.478C147.459 131.979 144.282 131.979 141.222 131.979C138.162 131.979 134.985 131.979 131.925 132.603C130.63 132.853 129.336 133.227 128.041 133.726C119.803 136.722 112.977 143.461 107.446 150.2C97.2075 162.93 88.6164 173.788 78.26 186.518C62.8432 202.867 43.8957 220.964 47.4263 246.299C50.8392 259.029 59.4303 271.634 74.8471 275.253C83.4382 277.125 110.859 269.762 140.045 269.762H142.164C171.35 269.762 198.771 277 207.362 275.253C222.779 271.634 231.37 258.904 234.783 246.299C238.431 220.839 219.483 202.742 204.066 186.393V186.393Z" fill="black"/>
<path d="M88.3722 310.113L93.754 292.255H99.2011L90.9326 316H85.828L77.5922 292.255H83.0229L88.3722 310.113ZM110.617 316C110.4 315.576 110.242 315.049 110.144 314.418C109.003 315.69 107.518 316.326 105.692 316.326C103.963 316.326 102.528 315.826 101.386 314.826C100.256 313.826 99.6903 312.564 99.6903 311.042C99.6903 309.172 100.381 307.737 101.762 306.737C103.153 305.736 105.159 305.231 107.779 305.22H109.948V304.209C109.948 303.393 109.736 302.741 109.312 302.252C108.899 301.763 108.241 301.518 107.339 301.518C106.545 301.518 105.92 301.708 105.464 302.089C105.018 302.469 104.795 302.991 104.795 303.654H100.082C100.082 302.632 100.397 301.686 101.028 300.817C101.658 299.947 102.55 299.267 103.702 298.778C104.855 298.278 106.149 298.028 107.584 298.028C109.758 298.028 111.481 298.577 112.754 299.675C114.036 300.762 114.678 302.295 114.678 304.274V311.923C114.689 313.597 114.923 314.864 115.379 315.723V316H110.617ZM106.719 312.722C107.415 312.722 108.057 312.57 108.644 312.265C109.231 311.95 109.666 311.531 109.948 311.01V307.976H108.187C105.828 307.976 104.572 308.792 104.42 310.422L104.404 310.7C104.404 311.287 104.61 311.771 105.023 312.151C105.436 312.532 106.002 312.722 106.719 312.722ZM127.855 311.124C127.855 310.547 127.567 310.096 126.991 309.77C126.426 309.433 125.512 309.134 124.251 308.873C120.054 307.992 117.956 306.209 117.956 303.524C117.956 301.958 118.603 300.654 119.897 299.61C121.201 298.555 122.903 298.028 125.001 298.028C127.241 298.028 129.029 298.555 130.367 299.61C131.715 300.664 132.389 302.034 132.389 303.72H127.676C127.676 303.046 127.458 302.491 127.024 302.056C126.589 301.61 125.909 301.387 124.985 301.387C124.191 301.387 123.577 301.567 123.142 301.926C122.707 302.284 122.49 302.741 122.49 303.296C122.49 303.817 122.734 304.242 123.224 304.568C123.724 304.883 124.561 305.16 125.735 305.399C126.909 305.628 127.899 305.889 128.703 306.182C131.193 307.096 132.438 308.677 132.438 310.928C132.438 312.537 131.748 313.842 130.367 314.842C128.986 315.831 127.203 316.326 125.018 316.326C123.539 316.326 122.223 316.065 121.071 315.543C119.929 315.011 119.032 314.288 118.38 313.374C117.728 312.45 117.401 311.455 117.401 310.39H121.87C121.914 311.227 122.223 311.868 122.8 312.314C123.376 312.76 124.148 312.983 125.115 312.983C126.018 312.983 126.697 312.814 127.154 312.477C127.622 312.129 127.855 311.678 127.855 311.124ZM145.713 316C145.496 315.576 145.338 315.049 145.24 314.418C144.099 315.69 142.615 316.326 140.788 316.326C139.059 316.326 137.624 315.826 136.483 314.826C135.352 313.826 134.786 312.564 134.786 311.042C134.786 309.172 135.477 307.737 136.858 306.737C138.249 305.736 140.255 305.231 142.875 305.22H145.045V304.209C145.045 303.393 144.833 302.741 144.408 302.252C143.995 301.763 143.338 301.518 142.435 301.518C141.641 301.518 141.016 301.708 140.56 302.089C140.114 302.469 139.891 302.991 139.891 303.654H135.178C135.178 302.632 135.493 301.686 136.124 300.817C136.754 299.947 137.646 299.267 138.798 298.778C139.951 298.278 141.245 298.028 142.68 298.028C144.854 298.028 146.578 298.577 147.85 299.675C149.133 300.762 149.774 302.295 149.774 304.274V311.923C149.785 313.597 150.019 314.864 150.475 315.723V316H145.713ZM141.815 312.722C142.511 312.722 143.153 312.57 143.74 312.265C144.327 311.95 144.762 311.531 145.045 311.01V307.976H143.283C140.924 307.976 139.668 308.792 139.516 310.422L139.5 310.7C139.5 311.287 139.706 311.771 140.119 312.151C140.532 312.532 141.098 312.722 141.815 312.722ZM173.014 316H168.121L158.597 300.376V316H153.704V292.255H158.597L168.137 307.911V292.255H173.014V316ZM185.098 316.326C182.511 316.326 180.402 315.532 178.771 313.945C177.151 312.358 176.341 310.243 176.341 307.601V307.144C176.341 305.372 176.683 303.79 177.368 302.399C178.053 300.996 179.021 299.92 180.271 299.17C181.532 298.408 182.967 298.028 184.577 298.028C186.99 298.028 188.887 298.789 190.268 300.311C191.66 301.833 192.356 303.991 192.356 306.786V308.71H181.119C181.271 309.863 181.728 310.787 182.489 311.483C183.261 312.178 184.234 312.526 185.408 312.526C187.224 312.526 188.643 311.868 189.665 310.553L191.981 313.146C191.274 314.146 190.317 314.929 189.11 315.494C187.904 316.049 186.566 316.326 185.098 316.326ZM184.56 301.844C183.625 301.844 182.864 302.159 182.277 302.79C181.701 303.421 181.331 304.323 181.168 305.497H187.724V305.122C187.702 304.078 187.42 303.274 186.876 302.708C186.332 302.132 185.561 301.844 184.56 301.844ZM200.689 294.016V298.354H203.707V301.812H200.689V310.618C200.689 311.271 200.814 311.738 201.065 312.021C201.315 312.303 201.793 312.445 202.5 312.445C203.022 312.445 203.484 312.407 203.886 312.331V315.902C202.962 316.185 202.01 316.326 201.032 316.326C197.727 316.326 196.042 314.657 195.976 311.319V301.812H193.4V298.354H195.976V294.016H200.689Z" fill="black"/>
</svg>
