<svg width="32" height="31" viewBox="0 0 32 31" fill="none" xmlns="http://www.w3.org/2000/svg">
<path d="M13.7824 26.1223C16.6797 26.1217 19.4935 25.1518 21.7757 23.3671L28.9513 30.5423L31.2593 28.2344L24.0838 21.0592C25.8695 18.7768 26.84 15.9626 26.8407 13.0647C26.8407 5.86505 20.9824 0.00708008 13.7824 0.00708008C6.5824 0.00708008 0.724121 5.86505 0.724121 13.0647C0.724121 20.2643 6.5824 26.1223 13.7824 26.1223ZM13.7824 3.27148C19.1837 3.27148 23.5762 7.66373 23.5762 13.0647C23.5762 18.4656 19.1837 22.8579 13.7824 22.8579C8.38118 22.8579 3.9887 18.4656 3.9887 13.0647C3.9887 7.66373 8.38118 3.27148 13.7824 3.27148Z" fill="black" fill-opacity="0.3"/>
</svg>
