<svg width="35" height="35" viewBox="0 0 35 35" fill="none" xmlns="http://www.w3.org/2000/svg">
<rect width="35" height="35" rx="17.5" fill="#F03F3F"/>
<path d="M18.0001 8.74339C16.6381 7.41512 14.8554 6.67792 13.0051 6.67786C12.0258 6.67894 11.0563 6.88542 10.1525 7.28541C9.24872 7.6854 8.42843 8.27101 7.73885 9.00854C4.7976 12.1413 4.79885 17.0413 7.74135 20.1608L16.9063 29.8813C17.1188 30.2777 17.5288 30.5335 18.0001 30.5335C18.1936 30.5315 18.384 30.4814 18.5559 30.3873C18.7278 30.2931 18.8765 30.1575 18.9901 29.9913L28.2589 20.1608C31.2013 17.04 31.2013 12.1413 28.2563 9.00323C27.5671 8.26706 26.7475 7.68264 25.8446 7.28357C24.9417 6.8845 23.9733 6.67865 22.9951 6.67786C21.1449 6.67818 19.3622 7.41534 18.0001 8.74339ZM26.4888 10.8779C28.4426 12.9606 28.4438 16.214 26.4913 18.2862L18.0001 27.2921L9.50885 18.2862C7.55635 16.214 7.5576 12.9606 9.50635 10.8832C10.4563 9.88089 11.6988 9.32937 13.0051 9.32937C14.3113 9.32937 15.5488 9.88089 16.4913 10.8805L17.1163 11.5434C17.2323 11.6666 17.3701 11.7644 17.5217 11.8311C17.6734 11.8978 17.8359 11.9321 18.0001 11.9321C18.1643 11.9321 18.3268 11.8978 18.4785 11.8311C18.6301 11.7644 18.7679 11.6666 18.8838 11.5434L19.5088 10.8805C21.3988 8.87994 24.6013 8.88524 26.4888 10.8779Z" fill="white"/>
</svg>
