<svg width="60" height="60" viewBox="0 0 60 60" fill="none" xmlns="http://www.w3.org/2000/svg">
<rect width="60" height="60" rx="30" fill="#726FF9" fill-opacity="0.7"/>
<path d="M46.3827 21.7325H35.8139L37.9288 15.3917C38.3092 14.2467 38.1171 12.9774 37.4109 11.9981C36.7047 11.0188 35.5597 10.4331 34.3525 10.4331H31.3168C30.7574 10.4331 30.2283 10.6817 29.8686 11.1111L21.0173 21.7325H16.2509C14.1736 21.7325 12.4844 23.4218 12.4844 25.499V42.4482C12.4844 44.5254 14.1736 46.2146 16.2509 46.2146H41.3111C42.0774 46.2121 42.8248 45.9771 43.4547 45.5406C44.0845 45.1041 44.567 44.4868 44.8384 43.7702L50.0305 29.9265C50.1093 29.7151 50.1495 29.4912 50.1492 29.2655V25.499C50.1492 23.4218 48.4599 21.7325 46.3827 21.7325ZM16.2509 25.499H20.0173V42.4482H16.2509V25.499ZM46.3827 28.9246L41.3111 42.4482H23.7838V24.2975L32.1981 14.1996H34.3563L31.4147 23.0188C31.3192 23.3019 31.2926 23.6036 31.337 23.8991C31.3814 24.1945 31.4956 24.4751 31.6702 24.7176C31.8447 24.96 32.0745 25.1574 32.3406 25.2933C32.6066 25.4292 32.9013 25.4997 33.2 25.499H46.3827V28.9246Z" fill="#FFFCFC"/>
</svg>
