<svg width="690" height="43" viewBox="0 0 690 43" fill="none" xmlns="http://www.w3.org/2000/svg">
<rect x="0.933061" y="1.53121" width="653.341" height="39.9373" rx="19.9686" fill="#FFFBFB" stroke="#0F39CE" stroke-width="1.86612"/>
<line x1="26.7854" y1="32.2056" x2="26.7854" y2="10.6972" stroke="#0F39CE" stroke-width="0.509797"/>
<path d="M689.137 20.6815L663.592 8.89627C663.334 8.77696 663.048 8.73178 662.765 8.76599C662.483 8.8002 662.216 8.91238 661.997 9.08947C661.777 9.26656 661.613 9.50126 661.524 9.76621C661.435 10.0312 661.424 10.3155 661.494 10.586L664.407 22.0147L661.494 33.4434C661.424 33.714 661.434 33.9986 661.522 34.2639C661.611 34.5291 661.775 34.7642 661.995 34.9414C662.215 35.1187 662.482 35.2308 662.765 35.2647C663.048 35.2987 663.334 35.253 663.592 35.1331L689.137 23.3479C689.395 23.2289 689.613 23.0404 689.766 22.8043C689.919 22.5682 690 22.2943 690 22.0147C690 21.735 689.919 21.4611 689.766 21.2251C689.613 20.989 689.395 20.8004 689.137 20.6815ZM665.177 31.1438L666.438 26.1984L674.973 22.0147L666.438 17.8309L665.177 12.8856L684.967 22.0147L665.177 31.1438Z" fill="#0F39CE"/>
</svg>
