<svg width="60" height="60" viewBox="0 0 60 60" fill="none" xmlns="http://www.w3.org/2000/svg">
<path d="M30 39.9998C35.515 39.9998 40 35.5148 40 29.9998V14.9998C40 9.45726 35.5375 4.94727 30.0525 4.94727C29.8765 4.94832 29.7013 4.96929 29.53 5.00977C26.9631 5.13422 24.5423 6.24065 22.7684 8.10014C20.9946 9.95964 20.0034 12.4299 20 14.9998V29.9998C20 35.5148 24.485 39.9998 30 39.9998Z" fill="#398D11"/>
<path d="M27.5 49.8275V55H32.5V49.8275C42.3475 48.59 50 40.1825 50 30H45C45 38.2725 38.2725 45 30 45C21.7275 45 15 38.2725 15 30H10C10 40.18 17.6525 48.59 27.5 49.8275Z" fill="#398D11"/>
</svg>
