<svg width="60" height="60" viewBox="0 0 60 60" fill="none" xmlns="http://www.w3.org/2000/svg">
<path d="M54.2674 50.7323L45.7674 42.2323C48.5071 38.7432 49.9974 34.436 49.9999 29.9998H44.9999C44.9975 33.1105 44.019 36.1421 42.2024 38.6673L38.5799 35.0423C39.5014 33.5211 39.9922 31.7782 39.9999 29.9998V14.9998C39.9999 9.45727 35.5374 4.94727 30.0524 4.94727C29.8774 4.94727 29.7024 4.96977 29.5299 5.00977C26.963 5.13422 24.5422 6.24065 22.7684 8.10014C20.9945 9.95964 20.0033 12.4299 19.9999 14.9998V16.4648L9.26742 5.73227L5.73242 9.26727L50.7324 54.2673L54.2674 50.7323ZM14.9999 29.9998H9.99992C9.99992 40.1798 17.6499 48.5898 27.4999 49.8273V54.9998H32.4999V49.8273C34.4347 49.5805 36.3225 49.0498 38.1024 48.2523L34.2299 44.3823C32.8568 44.7896 31.4322 44.9975 29.9999 44.9998C21.7274 44.9998 14.9999 38.2723 14.9999 29.9998Z" fill="#E70C0C"/>
<path d="M20.0176 30.1675C20.0625 32.7565 21.1111 35.227 22.9421 37.058C24.7731 38.889 27.2435 39.9375 29.8326 39.9825L20.0176 30.1675Z" fill="#E70C0C"/>
</svg>
