<svg width="44" height="44" viewBox="0 0 44 44" fill="none" xmlns="http://www.w3.org/2000/svg">
<path d="M21.6327 29.5782C25.6095 29.5782 28.8435 26.3441 28.8435 22.3673V11.551C28.8435 7.55435 25.6257 4.30225 21.6705 4.30225C21.5436 4.30301 21.4172 4.31813 21.2937 4.34731C19.4428 4.43705 17.6972 5.23489 16.4181 6.57575C15.1389 7.91661 14.4242 9.69787 14.4218 11.551V22.3673C14.4218 26.3441 17.6558 29.5782 21.6327 29.5782Z" fill="black" fill-opacity="0.5"/>
<path d="M19.8299 36.6651V40.3949H23.4354V36.6651C30.5363 35.7727 36.0544 29.7102 36.0544 22.3677H32.449C32.449 28.3329 27.5978 33.184 21.6326 33.184C15.6674 33.184 10.8163 28.3329 10.8163 22.3677H7.21088C7.21088 29.7084 12.729 35.7727 19.8299 36.6651Z" fill="black" fill-opacity="0.5"/>
</svg>
