<svg width="44" height="43" viewBox="0 0 44 43" fill="none" xmlns="http://www.w3.org/2000/svg">
<path d="M21.6327 28.6664C25.6095 28.6664 28.8436 25.4521 28.8436 21.4997V10.7497C28.8436 6.77758 25.6257 3.54541 21.6705 3.54541C21.5436 3.54617 21.4172 3.56119 21.2938 3.5902C19.4428 3.67939 17.6972 4.47234 16.4181 5.80497C15.139 7.13761 14.4242 8.90795 14.4218 10.7497V21.4997C14.4218 25.4521 17.6559 28.6664 21.6327 28.6664Z" fill="black" fill-opacity="0.3"/>
<path d="M19.8299 35.7092V39.4162H23.4354V35.7092C30.5363 34.8223 36.0544 28.797 36.0544 21.4995H32.449C32.449 27.4281 27.5979 32.2495 21.6327 32.2495C15.6675 32.2495 10.8163 27.4281 10.8163 21.4995H7.21089C7.21089 28.7952 12.729 34.8223 19.8299 35.7092Z" fill="black" fill-opacity="0.3"/>
</svg>
