<svg width="30" height="30" viewBox="0 0 30 30" fill="none" xmlns="http://www.w3.org/2000/svg">
<path d="M22.5 2.5H7.5C6.12125 2.5 5 3.62125 5 5V26.25C5 26.5815 5.1317 26.8995 5.36612 27.1339C5.60054 27.3683 5.91848 27.5 6.25 27.5H23.75C24.0815 27.5 24.3995 27.3683 24.6339 27.1339C24.8683 26.8995 25 26.5815 25 26.25V5C25 3.62125 23.8787 2.5 22.5 2.5ZM22.5 25H7.5V5H22.5V25Z" fill="black" fill-opacity="0.5"/>
<path d="M10 7.5H13.75V10H10V7.5ZM16.25 7.5H20V10H16.25V7.5ZM10 12.5H13.75V15H10V12.5ZM16.25 12.5388H20V15H16.25V12.5388ZM10 17.5H13.75V20H10V17.5ZM16.25 17.5H20V20H16.25V17.5Z" fill="black" fill-opacity="0.5"/>
</svg>
