<svg width="60" height="60" viewBox="0 0 60 60" fill="none" xmlns="http://www.w3.org/2000/svg">
<rect width="60" height="60" rx="30" transform="matrix(1 0 0 -1 0 60)" fill="#726FF9" fill-opacity="0.7"/>
<path d="M46.3832 38.2675H35.8144L37.9293 44.6083C38.3097 45.7533 38.1176 47.0226 37.4114 48.0019C36.7052 48.9812 35.5602 49.5669 34.353 49.5669H31.3173C30.7579 49.5669 30.2287 49.3183 29.869 48.8889L21.0178 38.2675H16.2513C14.1741 38.2675 12.4849 36.5782 12.4849 34.501V17.5518C12.4849 15.4746 14.1741 13.7854 16.2513 13.7854H41.3116C42.0779 13.7879 42.8253 14.0229 43.4551 14.4594C44.085 14.8959 44.5675 15.5132 44.8389 16.2298L50.031 30.0735C50.1098 30.2849 50.15 30.5088 50.1496 30.7345V34.501C50.1496 36.5782 48.4604 38.2675 46.3832 38.2675ZM16.2513 34.501H20.0178V17.5518H16.2513V34.501ZM46.3832 31.0754L41.3116 17.5518H23.7843V35.7025L32.1986 45.8004H34.3568L31.4152 36.9812C31.3197 36.6981 31.2931 36.3964 31.3375 36.1009C31.3819 35.8055 31.4961 35.5249 31.6707 35.2824C31.8452 35.04 32.075 34.8426 32.3411 34.7067C32.6071 34.5708 32.9017 34.5003 33.2005 34.501H46.3832V31.0754Z" fill="#FFFCFC"/>
</svg>
