<svg width="39" height="39" viewBox="0 0 39 39" fill="none" xmlns="http://www.w3.org/2000/svg">
<g clip-path="url(#clip0_641_108)">
<path d="M30.7999 22.3626V16.6847C30.7999 11.5911 27.3403 7.30032 22.6536 6.0099C22.1897 4.8414 21.0561 4.01807 19.7166 4.01807C18.3771 4.01807 17.2434 4.8414 16.7795 6.0099C12.0928 7.3019 8.63322 11.5911 8.63322 16.6847V22.3626L5.93047 25.0653C5.78315 25.2121 5.66632 25.3866 5.5867 25.5787C5.50709 25.7708 5.46625 25.9768 5.46655 26.1847V29.3514C5.46655 29.7713 5.63337 30.1741 5.9303 30.471C6.22723 30.7679 6.62996 30.9347 7.04989 30.9347H32.3832C32.8032 30.9347 33.2059 30.7679 33.5028 30.471C33.7997 30.1741 33.9666 29.7713 33.9666 29.3514V26.1847C33.9669 25.9768 33.926 25.7708 33.8464 25.5787C33.7668 25.3866 33.65 25.2121 33.5026 25.0653L30.7999 22.3626ZM30.7999 27.7681H8.63322V26.8402L11.336 24.1375C11.4833 23.9907 11.6001 23.8162 11.6797 23.6241C11.7594 23.432 11.8002 23.226 11.7999 23.0181V16.6847C11.7999 12.3195 15.3513 8.76807 19.7166 8.76807C24.0818 8.76807 27.6332 12.3195 27.6332 16.6847V23.0181C27.6332 23.4392 27.7995 23.8414 28.0971 24.1375L30.7999 26.8402V27.7681ZM19.7166 35.6847C20.6971 35.686 21.6537 35.3817 22.4533 34.8142C23.253 34.2466 23.8559 33.4441 24.1784 32.5181H15.2547C15.5772 33.4441 16.1801 34.2466 16.9798 34.8142C17.7794 35.3817 18.736 35.686 19.7166 35.6847Z" fill="black" fill-opacity="0.3"/>
<circle cx="27.0175" cy="8.35144" r="7.5" fill="#F03F3F"/>
<path d="M25.7773 7.15857H26.8319C27.2421 7.15857 27.5815 7.08777 27.85 6.94617C28.1234 6.80457 28.3261 6.60925 28.4579 6.36023C28.5898 6.11121 28.6557 5.82556 28.6557 5.5033C28.6557 5.16638 28.5946 4.8783 28.4726 4.63904C28.3554 4.3949 28.1747 4.20691 27.9306 4.07507C27.6913 3.94324 27.3861 3.87732 27.015 3.87732C26.7025 3.87732 26.4193 3.9408 26.1654 4.06775C25.9164 4.18982 25.7187 4.3656 25.5722 4.59509C25.4257 4.8197 25.3524 5.08826 25.3524 5.40076H23.58C23.58 4.83435 23.7289 4.33142 24.0268 3.89197C24.3246 3.45251 24.7299 3.10828 25.2426 2.85925C25.7602 2.60535 26.3412 2.47839 26.9857 2.47839C27.6742 2.47839 28.2748 2.59314 28.7875 2.82263C29.3051 3.04724 29.7079 3.38416 29.996 3.83337C30.2841 4.28259 30.4281 4.83923 30.4281 5.5033C30.4281 5.80603 30.3573 6.11365 30.2157 6.42615C30.0741 6.73865 29.8642 7.02429 29.5858 7.28308C29.3075 7.53699 28.9608 7.74451 28.5458 7.90564C28.1308 8.06189 27.6498 8.14001 27.1029 8.14001H25.7773V7.15857ZM25.7773 8.53552V7.56873H27.1029C27.7279 7.56873 28.2602 7.64197 28.6996 7.78845C29.144 7.93494 29.5053 8.13757 29.7836 8.39636C30.0619 8.65027 30.2646 8.9408 30.3915 9.26794C30.5233 9.59509 30.5893 9.94177 30.5893 10.308C30.5893 10.806 30.4989 11.2504 30.3183 11.641C30.1425 12.0267 29.891 12.3539 29.5639 12.6224C29.2367 12.891 28.8534 13.0936 28.414 13.2303C27.9794 13.3671 27.5058 13.4354 26.9931 13.4354C26.5341 13.4354 26.0946 13.3719 25.6747 13.245C25.2548 13.118 24.8788 12.9301 24.5468 12.681C24.2148 12.4271 23.9511 12.1122 23.7558 11.7362C23.5653 11.3553 23.4701 10.9159 23.4701 10.4178H25.2353C25.2353 10.7352 25.3085 11.016 25.455 11.2601C25.6064 11.4994 25.8163 11.6874 26.0849 11.8241C26.3583 11.9608 26.6708 12.0292 27.0224 12.0292C27.3935 12.0292 27.7133 11.9633 27.9818 11.8314C28.2504 11.6996 28.4555 11.5043 28.5971 11.2455C28.7436 10.9867 28.8168 10.6742 28.8168 10.308C28.8168 9.89294 28.7362 9.55603 28.5751 9.29724C28.414 9.03845 28.1845 8.84802 27.8866 8.72595C27.5888 8.599 27.2372 8.53552 26.8319 8.53552H25.7773Z" fill="white"/>
</g>
<defs>
<clipPath id="clip0_641_108">
<rect width="38" height="38" fill="white" transform="translate(0.716553 0.85144)"/>
</clipPath>
</defs>
</svg>
