<svg width="60" height="60" viewBox="0 0 60 60" fill="none" xmlns="http://www.w3.org/2000/svg">
<path d="M47.5 33.965V25C47.5 16.9575 42.0375 10.1825 34.6375 8.145C33.905 6.3 32.115 5 30 5C27.885 5 26.095 6.3 25.3625 8.145C17.9625 10.185 12.5 16.9575 12.5 25V33.965L8.2325 38.2325C7.9999 38.4643 7.81543 38.7397 7.68971 39.0431C7.564 39.3464 7.49953 39.6716 7.5 40V45C7.5 45.663 7.76339 46.2989 8.23224 46.7678C8.70108 47.2366 9.33696 47.5 10 47.5H50C50.663 47.5 51.2989 47.2366 51.7678 46.7678C52.2366 46.2989 52.5 45.663 52.5 45V40C52.5005 39.6716 52.436 39.3464 52.3103 39.0431C52.1846 38.7397 52.0001 38.4643 51.7675 38.2325L47.5 33.965ZM47.5 42.5H12.5V41.035L16.7675 36.7675C17.0001 36.5357 17.1846 36.2603 17.3103 35.9569C17.436 35.6536 17.5005 35.3284 17.5 35V25C17.5 18.1075 23.1075 12.5 30 12.5C36.8925 12.5 42.5 18.1075 42.5 25V35C42.5 35.665 42.7625 36.3 43.2325 36.7675L47.5 41.035V42.5ZM30 55C31.5483 55.0019 33.0586 54.5215 34.3212 53.6254C35.5838 52.7293 36.5358 51.4621 37.045 50H22.955C23.4642 51.4621 24.4162 52.7293 25.6788 53.6254C26.9414 54.5215 28.4518 55.0019 30 55Z" fill="black"/>
</svg>
