<svg width="38" height="38" viewBox="0 0 38 38" fill="none" xmlns="http://www.w3.org/2000/svg">
<path d="M33.7981 22.3887V15.7546C33.7981 9.80314 29.3067 4.78964 23.2223 3.28189C22.62 1.91659 21.1482 0.95459 19.4092 0.95459C17.6702 0.95459 16.1985 1.91659 15.5962 3.28189C9.51174 4.79149 5.02035 9.80314 5.02035 15.7546V22.3887L1.51152 25.5466C1.32027 25.7181 1.16859 25.922 1.06523 26.1465C0.961863 26.3709 0.908851 26.6116 0.909243 26.8546V30.5546C0.909243 31.0452 1.12581 31.5158 1.5113 31.8627C1.89679 32.2097 2.41963 32.4046 2.9648 32.4046H35.8537C36.3989 32.4046 36.9217 32.2097 37.3072 31.8627C37.6927 31.5158 37.9092 31.0452 37.9092 30.5546V26.8546C37.9096 26.6116 37.8566 26.3709 37.7533 26.1465C37.6499 25.922 37.4982 25.7181 37.307 25.5466L33.7981 22.3887ZM33.7981 28.7046H5.02035V27.6205L8.52919 24.4625C8.72044 24.291 8.87212 24.0872 8.97548 23.8627C9.07884 23.6382 9.13186 23.3976 9.13146 23.1546V15.7546C9.13146 10.6541 13.7421 6.50459 19.4092 6.50459C25.0764 6.50459 29.687 10.6541 29.687 15.7546V23.1546C29.687 23.6467 29.9028 24.1166 30.2893 24.4625L33.7981 27.6205V28.7046ZM19.4092 37.9546C20.6822 37.956 21.9241 37.6005 22.9622 36.9374C24.0004 36.2743 24.7832 35.3366 25.2018 34.2546H13.6167C14.0353 35.3366 14.8181 36.2743 15.8562 36.9374C16.8944 37.6005 18.1362 37.956 19.4092 37.9546Z" fill="#FFFCFC"/>
</svg>
