<svg width="30" height="30" viewBox="0 0 30 30" fill="none" xmlns="http://www.w3.org/2000/svg">
<path d="M15 27.5C15.7741 27.501 16.5293 27.2607 17.1606 26.8127C17.7919 26.3647 18.2679 25.7311 18.5225 25H11.4775C11.7321 25.7311 12.2081 26.3647 12.8394 26.8127C13.4707 27.2607 14.2259 27.501 15 27.5ZM26.25 22.5V20C26.2502 19.8358 26.218 19.6732 26.1551 19.5215C26.0923 19.3699 26.0001 19.2321 25.8838 19.1163L23.75 16.9825V12.5C23.75 8.47875 21.0187 5.09125 17.3187 4.0725C16.9525 3.15 16.0575 2.5 15 2.5C13.9425 2.5 13.0475 3.15 12.6813 4.0725C11.0275 4.5275 9.6025 5.4825 8.49875 6.73125L4.63375 2.86625L2.86625 4.63375L25.3663 27.1338L27.1338 25.3663L25.4313 23.6638C25.6706 23.5771 25.8775 23.419 26.0239 23.2108C26.1704 23.0027 26.2493 22.7545 26.25 22.5ZM15 6.25C18.4462 6.25 21.25 9.05375 21.25 12.5V17.5C21.25 17.8325 21.3813 18.15 21.6162 18.3838L23.75 20.5175V21.25H23.0175L10.2587 8.49125C11.4 7.13125 13.0887 6.25 15 6.25ZM8.38375 18.3838C8.50005 18.2679 8.59229 18.1301 8.65514 17.9785C8.718 17.8268 8.75024 17.6642 8.75 17.5V13.9013L6.335 11.4863C6.29625 11.8213 6.25 12.155 6.25 12.5V16.9825L4.11625 19.1163C3.99995 19.2321 3.90771 19.3699 3.84485 19.5215C3.782 19.6732 3.74976 19.8358 3.75 20V22.5C3.75 22.8315 3.8817 23.1495 4.11612 23.3839C4.35054 23.6183 4.66848 23.75 5 23.75H18.5988L16.0988 21.25H6.25V20.5175L8.38375 18.3838Z" fill="black" fill-opacity="0.3"/>
</svg>
