<svg width="263" height="30" viewBox="0 0 263 30" fill="none" xmlns="http://www.w3.org/2000/svg">
<path d="M15 27.5C15.7741 27.501 16.5293 27.2607 17.1606 26.8127C17.7919 26.3647 18.2679 25.7311 18.5225 25H11.4775C11.7321 25.7311 12.2081 26.3647 12.8394 26.8127C13.4707 27.2607 14.2259 27.501 15 27.5V27.5ZM26.25 22.5V20C26.2502 19.8358 26.218 19.6732 26.1551 19.5215C26.0923 19.3699 26.0001 19.2321 25.8838 19.1163L23.75 16.9825V12.5C23.75 8.47875 21.0188 5.09125 17.3187 4.0725C16.9525 3.15 16.0575 2.5 15 2.5C13.9425 2.5 13.0475 3.15 12.6813 4.0725C11.0275 4.5275 9.6025 5.4825 8.49875 6.73125L4.63375 2.86625L2.86625 4.63375L25.3663 27.1338L27.1338 25.3663L25.4313 23.6638C25.6706 23.5771 25.8775 23.419 26.0239 23.2108C26.1704 23.0027 26.2493 22.7545 26.25 22.5V22.5ZM15 6.25C18.4463 6.25 21.25 9.05375 21.25 12.5V17.5C21.25 17.8325 21.3812 18.15 21.6162 18.3838L23.75 20.5175V21.25H23.0175L10.2587 8.49125C11.4 7.13125 13.0887 6.25 15 6.25ZM8.38375 18.3838C8.50005 18.2679 8.59229 18.1301 8.65514 17.9785C8.718 17.8268 8.75024 17.6642 8.75 17.5V13.9013L6.335 11.4863C6.29625 11.8213 6.25 12.155 6.25 12.5V16.9825L4.11625 19.1163C3.99995 19.2321 3.90771 19.3699 3.84485 19.5215C3.782 19.6732 3.74976 19.8358 3.75 20V22.5C3.75 22.8315 3.8817 23.1495 4.11612 23.3839C4.35054 23.6183 4.66848 23.75 5 23.75H18.5987L16.0987 21.25H6.25V20.5175L8.38375 18.3838Z" fill="black" fill-opacity="0.3"/>
<path d="M62.9258 17.8379C62.9258 17.5449 62.8802 17.2845 62.7891 17.0566C62.7044 16.8288 62.5514 16.6204 62.3301 16.4316C62.1087 16.2428 61.7962 16.0605 61.3926 15.8848C60.9954 15.7025 60.4876 15.5169 59.8691 15.3281C59.1921 15.1198 58.5671 14.8887 57.9941 14.6348C57.4277 14.3743 56.9329 14.0749 56.5098 13.7363C56.0866 13.3913 55.7578 12.9974 55.5234 12.5547C55.2891 12.1055 55.1719 11.5879 55.1719 11.002C55.1719 10.4225 55.2923 9.89518 55.5332 9.41992C55.7806 8.94466 56.1289 8.53451 56.5781 8.18945C57.0339 7.83789 57.571 7.56771 58.1895 7.37891C58.8079 7.18359 59.4915 7.08594 60.2402 7.08594C61.2949 7.08594 62.2031 7.28125 62.9648 7.67188C63.7331 8.0625 64.3223 8.58659 64.7324 9.24414C65.1491 9.90169 65.3574 10.6276 65.3574 11.4219H62.9258C62.9258 10.9531 62.8249 10.5397 62.623 10.1816C62.4277 9.81706 62.1283 9.5306 61.7246 9.32227C61.3275 9.11393 60.8229 9.00977 60.2109 9.00977C59.6315 9.00977 59.1497 9.09766 58.7656 9.27344C58.3815 9.44922 58.0951 9.68685 57.9062 9.98633C57.7174 10.2858 57.623 10.6243 57.623 11.002C57.623 11.2689 57.6849 11.513 57.8086 11.7344C57.9323 11.9492 58.1211 12.151 58.375 12.3398C58.6289 12.5221 58.9479 12.6947 59.332 12.8574C59.7161 13.0202 60.1686 13.1764 60.6895 13.3262C61.4772 13.5605 62.1641 13.821 62.75 14.1074C63.3359 14.3874 63.8242 14.7064 64.2148 15.0645C64.6055 15.4225 64.8984 15.8294 65.0938 16.2852C65.2891 16.7344 65.3867 17.2454 65.3867 17.8184C65.3867 18.4173 65.2663 18.9577 65.0254 19.4395C64.7845 19.9147 64.4395 20.3216 63.9902 20.6602C63.5475 20.9922 63.0137 21.2493 62.3887 21.4316C61.7702 21.6074 61.0801 21.6953 60.3184 21.6953C59.6348 21.6953 58.9609 21.6042 58.2969 21.4219C57.6393 21.2396 57.0404 20.9629 56.5 20.5918C55.9596 20.2142 55.5299 19.7454 55.2109 19.1855C54.8919 18.6191 54.7324 17.9583 54.7324 17.2031H57.1836C57.1836 17.6654 57.2617 18.0592 57.418 18.3848C57.5807 18.7103 57.8053 18.9772 58.0918 19.1855C58.3783 19.3874 58.7103 19.5371 59.0879 19.6348C59.472 19.7324 59.8822 19.7812 60.3184 19.7812C60.8913 19.7812 61.3698 19.6999 61.7539 19.5371C62.1445 19.3743 62.4375 19.1465 62.6328 18.8535C62.8281 18.5605 62.9258 18.222 62.9258 17.8379ZM69.8398 10.9336V21.5H67.4766V10.9336H69.8398ZM67.3203 8.16016C67.3203 7.80208 67.4375 7.50586 67.6719 7.27148C67.9128 7.0306 68.2448 6.91016 68.668 6.91016C69.0846 6.91016 69.4134 7.0306 69.6543 7.27148C69.8952 7.50586 70.0156 7.80208 70.0156 8.16016C70.0156 8.51172 69.8952 8.80469 69.6543 9.03906C69.4134 9.27344 69.0846 9.39062 68.668 9.39062C68.2448 9.39062 67.9128 9.27344 67.6719 9.03906C67.4375 8.80469 67.3203 8.51172 67.3203 8.16016ZM74.9375 6.5V21.5H72.5742V6.5H74.9375ZM82.1738 21.6953C81.3926 21.6953 80.6862 21.5684 80.0547 21.3145C79.4297 21.054 78.8958 20.6927 78.4531 20.2305C78.0169 19.7682 77.6816 19.2246 77.4473 18.5996C77.2129 17.9746 77.0957 17.3008 77.0957 16.5781V16.1875C77.0957 15.3607 77.2161 14.612 77.457 13.9414C77.6979 13.2708 78.0332 12.6979 78.4629 12.2227C78.8926 11.7409 79.4004 11.373 79.9863 11.1191C80.5723 10.8652 81.207 10.7383 81.8906 10.7383C82.6458 10.7383 83.3066 10.8652 83.873 11.1191C84.4395 11.373 84.9082 11.7311 85.2793 12.1934C85.6569 12.6491 85.9368 13.1927 86.1191 13.8242C86.3079 14.4557 86.4023 15.1523 86.4023 15.9141V16.9199H78.2383V15.2305H84.0781V15.0449C84.0651 14.6217 83.9805 14.2246 83.8242 13.8535C83.6745 13.4824 83.4434 13.1829 83.1309 12.9551C82.8184 12.7272 82.4017 12.6133 81.8809 12.6133C81.4902 12.6133 81.1419 12.6979 80.8359 12.8672C80.5365 13.0299 80.2858 13.2676 80.084 13.5801C79.8822 13.8926 79.7259 14.2702 79.6152 14.7129C79.5111 15.1491 79.459 15.6406 79.459 16.1875V16.5781C79.459 17.0404 79.5208 17.4701 79.6445 17.8672C79.7747 18.2578 79.9635 18.5996 80.2109 18.8926C80.4583 19.1855 80.7578 19.4167 81.1094 19.5859C81.4609 19.7487 81.8613 19.8301 82.3105 19.8301C82.877 19.8301 83.3815 19.7161 83.8242 19.4883C84.2669 19.2604 84.651 18.9382 84.9766 18.5215L86.2168 19.7227C85.9889 20.0547 85.6927 20.3737 85.3281 20.6797C84.9635 20.9792 84.5176 21.2233 83.9902 21.4121C83.4694 21.6009 82.8639 21.6953 82.1738 21.6953ZM90.5723 13.1895V21.5H88.2188V10.9336H90.4355L90.5723 13.1895ZM90.1523 15.8262L89.3906 15.8164C89.3971 15.0677 89.5013 14.3809 89.7031 13.7559C89.9115 13.1309 90.1979 12.5938 90.5625 12.1445C90.9336 11.6953 91.3763 11.3503 91.8906 11.1094C92.4049 10.862 92.9779 10.7383 93.6094 10.7383C94.1172 10.7383 94.5762 10.8099 94.9863 10.9531C95.403 11.0898 95.7578 11.3145 96.0508 11.627C96.3503 11.9395 96.5781 12.3464 96.7344 12.8477C96.8906 13.3424 96.9688 13.9512 96.9688 14.6738V21.5H94.6055V14.6641C94.6055 14.1562 94.5306 13.7559 94.3809 13.4629C94.2376 13.1634 94.026 12.9518 93.7461 12.8281C93.4727 12.6979 93.1309 12.6328 92.7207 12.6328C92.3171 12.6328 91.9557 12.7174 91.6367 12.8867C91.3177 13.056 91.0475 13.2871 90.8262 13.5801C90.6113 13.873 90.4453 14.2116 90.3281 14.5957C90.2109 14.9798 90.1523 15.39 90.1523 15.8262ZM103.688 19.8203C104.072 19.8203 104.417 19.7454 104.723 19.5957C105.035 19.4395 105.286 19.2246 105.475 18.9512C105.67 18.6777 105.777 18.362 105.797 18.0039H108.014C108.001 18.6875 107.799 19.3092 107.408 19.8691C107.018 20.429 106.5 20.875 105.855 21.207C105.211 21.5326 104.498 21.6953 103.717 21.6953C102.91 21.6953 102.206 21.5586 101.607 21.2852C101.008 21.0052 100.51 20.6211 100.113 20.1328C99.7161 19.6445 99.4167 19.0814 99.2148 18.4434C99.0195 17.8053 98.9219 17.1217 98.9219 16.3926V16.0508C98.9219 15.3216 99.0195 14.638 99.2148 14C99.4167 13.3555 99.7161 12.7891 100.113 12.3008C100.51 11.8125 101.008 11.4316 101.607 11.1582C102.206 10.8783 102.906 10.7383 103.707 10.7383C104.553 10.7383 105.296 10.9076 105.934 11.2461C106.572 11.5781 107.073 12.0436 107.438 12.6426C107.809 13.235 108.001 13.9251 108.014 14.7129H105.797C105.777 14.3223 105.68 13.9707 105.504 13.6582C105.335 13.3392 105.094 13.0853 104.781 12.8965C104.475 12.7077 104.107 12.6133 103.678 12.6133C103.202 12.6133 102.809 12.7109 102.496 12.9062C102.184 13.0951 101.939 13.3555 101.764 13.6875C101.588 14.013 101.461 14.3809 101.383 14.791C101.311 15.1947 101.275 15.6146 101.275 16.0508V16.3926C101.275 16.8288 101.311 17.252 101.383 17.6621C101.454 18.0723 101.578 18.4401 101.754 18.7656C101.936 19.0846 102.184 19.3418 102.496 19.5371C102.809 19.7259 103.206 19.8203 103.688 19.8203ZM112.34 10.9336V21.5H109.977V10.9336H112.34ZM109.82 8.16016C109.82 7.80208 109.938 7.50586 110.172 7.27148C110.413 7.0306 110.745 6.91016 111.168 6.91016C111.585 6.91016 111.913 7.0306 112.154 7.27148C112.395 7.50586 112.516 7.80208 112.516 8.16016C112.516 8.51172 112.395 8.80469 112.154 9.03906C111.913 9.27344 111.585 9.39062 111.168 9.39062C110.745 9.39062 110.413 9.27344 110.172 9.03906C109.938 8.80469 109.82 8.51172 109.82 8.16016ZM120.875 19.3809V14.3418C120.875 13.9642 120.807 13.6387 120.67 13.3652C120.533 13.0918 120.325 12.8802 120.045 12.7305C119.771 12.5807 119.426 12.5059 119.01 12.5059C118.626 12.5059 118.294 12.571 118.014 12.7012C117.734 12.8314 117.516 13.0072 117.359 13.2285C117.203 13.4499 117.125 13.7005 117.125 13.9805H114.781C114.781 13.5638 114.882 13.1602 115.084 12.7695C115.286 12.3789 115.579 12.0306 115.963 11.7246C116.347 11.4186 116.806 11.1777 117.34 11.002C117.874 10.8262 118.473 10.7383 119.137 10.7383C119.931 10.7383 120.634 10.8717 121.246 11.1387C121.865 11.4056 122.35 11.8092 122.701 12.3496C123.059 12.8835 123.238 13.554 123.238 14.3613V19.0586C123.238 19.5404 123.271 19.9733 123.336 20.3574C123.408 20.735 123.508 21.0638 123.639 21.3438V21.5H121.227C121.116 21.2461 121.028 20.9238 120.963 20.5332C120.904 20.1361 120.875 19.752 120.875 19.3809ZM121.217 15.0742L121.236 16.5293H119.547C119.111 16.5293 118.727 16.5716 118.395 16.6562C118.062 16.7344 117.786 16.8516 117.564 17.0078C117.343 17.1641 117.177 17.3529 117.066 17.5742C116.956 17.7956 116.9 18.0462 116.9 18.3262C116.9 18.6061 116.965 18.8633 117.096 19.0977C117.226 19.3255 117.415 19.5046 117.662 19.6348C117.916 19.765 118.222 19.8301 118.58 19.8301C119.062 19.8301 119.482 19.7324 119.84 19.5371C120.204 19.3353 120.491 19.0911 120.699 18.8047C120.908 18.5117 121.018 18.235 121.031 17.9746L121.793 19.0195C121.715 19.2865 121.581 19.5729 121.393 19.8789C121.204 20.1849 120.956 20.4779 120.65 20.7578C120.351 21.0312 119.99 21.2559 119.566 21.4316C119.15 21.6074 118.668 21.6953 118.121 21.6953C117.431 21.6953 116.816 21.5586 116.275 21.2852C115.735 21.0052 115.312 20.6309 115.006 20.1621C114.7 19.6868 114.547 19.1497 114.547 18.5508C114.547 17.9909 114.651 17.4961 114.859 17.0664C115.074 16.6302 115.387 16.2656 115.797 15.9727C116.214 15.6797 116.721 15.4583 117.32 15.3086C117.919 15.1523 118.603 15.0742 119.371 15.0742H121.217ZM128.062 12.9453V21.5H125.709V10.9336H127.955L128.062 12.9453ZM131.295 10.8652L131.275 13.0527C131.132 13.0267 130.976 13.0072 130.807 12.9941C130.644 12.9811 130.481 12.9746 130.318 12.9746C129.915 12.9746 129.56 13.0332 129.254 13.1504C128.948 13.2611 128.691 13.4238 128.482 13.6387C128.281 13.847 128.124 14.1009 128.014 14.4004C127.903 14.6999 127.838 15.0352 127.818 15.4062L127.281 15.4453C127.281 14.7812 127.346 14.166 127.477 13.5996C127.607 13.0332 127.802 12.5352 128.062 12.1055C128.329 11.6758 128.661 11.3405 129.059 11.0996C129.462 10.8587 129.928 10.7383 130.455 10.7383C130.598 10.7383 130.751 10.7513 130.914 10.7773C131.083 10.8034 131.21 10.8327 131.295 10.8652ZM140.084 13.1895V21.5H137.73V10.9336H139.947L140.084 13.1895ZM139.664 15.8262L138.902 15.8164C138.909 15.0677 139.013 14.3809 139.215 13.7559C139.423 13.1309 139.71 12.5938 140.074 12.1445C140.445 11.6953 140.888 11.3503 141.402 11.1094C141.917 10.862 142.49 10.7383 143.121 10.7383C143.629 10.7383 144.088 10.8099 144.498 10.9531C144.915 11.0898 145.27 11.3145 145.562 11.627C145.862 11.9395 146.09 12.3464 146.246 12.8477C146.402 13.3424 146.48 13.9512 146.48 14.6738V21.5H144.117V14.6641C144.117 14.1562 144.042 13.7559 143.893 13.4629C143.749 13.1634 143.538 12.9518 143.258 12.8281C142.984 12.6979 142.643 12.6328 142.232 12.6328C141.829 12.6328 141.467 12.7174 141.148 12.8867C140.829 13.056 140.559 13.2871 140.338 13.5801C140.123 13.873 139.957 14.2116 139.84 14.5957C139.723 14.9798 139.664 15.39 139.664 15.8262ZM148.434 16.334V16.1094C148.434 15.3477 148.544 14.6413 148.766 13.9902C148.987 13.3327 149.306 12.763 149.723 12.2812C150.146 11.793 150.66 11.4154 151.266 11.1484C151.878 10.875 152.568 10.7383 153.336 10.7383C154.111 10.7383 154.801 10.875 155.406 11.1484C156.018 11.4154 156.536 11.793 156.959 12.2812C157.382 12.763 157.704 13.3327 157.926 13.9902C158.147 14.6413 158.258 15.3477 158.258 16.1094V16.334C158.258 17.0957 158.147 17.8021 157.926 18.4531C157.704 19.1042 157.382 19.6738 156.959 20.1621C156.536 20.6439 156.021 21.0215 155.416 21.2949C154.811 21.5618 154.124 21.6953 153.355 21.6953C152.581 21.6953 151.887 21.5618 151.275 21.2949C150.67 21.0215 150.156 20.6439 149.732 20.1621C149.309 19.6738 148.987 19.1042 148.766 18.4531C148.544 17.8021 148.434 17.0957 148.434 16.334ZM150.787 16.1094V16.334C150.787 16.8092 150.836 17.2585 150.934 17.6816C151.031 18.1048 151.184 18.4759 151.393 18.7949C151.601 19.1139 151.868 19.3646 152.193 19.5469C152.519 19.7292 152.906 19.8203 153.355 19.8203C153.792 19.8203 154.169 19.7292 154.488 19.5469C154.814 19.3646 155.081 19.1139 155.289 18.7949C155.497 18.4759 155.65 18.1048 155.748 17.6816C155.852 17.2585 155.904 16.8092 155.904 16.334V16.1094C155.904 15.6406 155.852 15.1979 155.748 14.7812C155.65 14.3581 155.494 13.9837 155.279 13.6582C155.071 13.3327 154.804 13.0788 154.479 12.8965C154.16 12.7077 153.779 12.6133 153.336 12.6133C152.893 12.6133 152.509 12.7077 152.184 12.8965C151.865 13.0788 151.601 13.3327 151.393 13.6582C151.184 13.9837 151.031 14.3581 150.934 14.7812C150.836 15.1979 150.787 15.6406 150.787 16.1094ZM165.074 10.9336V12.6523H159.117V10.9336H165.074ZM160.836 8.3457H163.189V18.5801C163.189 18.9056 163.235 19.1562 163.326 19.332C163.424 19.5013 163.557 19.6152 163.727 19.6738C163.896 19.7324 164.094 19.7617 164.322 19.7617C164.485 19.7617 164.641 19.752 164.791 19.7324C164.941 19.7129 165.061 19.6934 165.152 19.6738L165.162 21.4707C164.967 21.5293 164.739 21.5814 164.479 21.627C164.225 21.6725 163.932 21.6953 163.6 21.6953C163.059 21.6953 162.581 21.6009 162.164 21.4121C161.747 21.2168 161.422 20.901 161.188 20.4648C160.953 20.0286 160.836 19.4492 160.836 18.7266V8.3457ZM169.41 10.9336V21.5H167.047V10.9336H169.41ZM166.891 8.16016C166.891 7.80208 167.008 7.50586 167.242 7.27148C167.483 7.0306 167.815 6.91016 168.238 6.91016C168.655 6.91016 168.984 7.0306 169.225 7.27148C169.465 7.50586 169.586 7.80208 169.586 8.16016C169.586 8.51172 169.465 8.80469 169.225 9.03906C168.984 9.27344 168.655 9.39062 168.238 9.39062C167.815 9.39062 167.483 9.27344 167.242 9.03906C167.008 8.80469 166.891 8.51172 166.891 8.16016ZM175.016 21.5H172.652V10.25C172.652 9.39714 172.822 8.67773 173.16 8.0918C173.505 7.50586 173.997 7.0599 174.635 6.75391C175.279 6.44792 176.044 6.29492 176.93 6.29492C177.451 6.29492 177.952 6.35026 178.434 6.46094C178.922 6.57161 179.426 6.71159 179.947 6.88086L179.586 8.79492C179.254 8.68424 178.886 8.58008 178.482 8.48242C178.079 8.37826 177.613 8.32617 177.086 8.32617C176.376 8.32617 175.852 8.48893 175.514 8.81445C175.182 9.13346 175.016 9.61198 175.016 10.25V21.5ZM177.135 10.9336V12.6523H171.031V10.9336H177.135ZM181.061 10.9336V21.5H178.707V10.9336H181.061ZM188.004 19.8203C188.388 19.8203 188.733 19.7454 189.039 19.5957C189.352 19.4395 189.602 19.2246 189.791 18.9512C189.986 18.6777 190.094 18.362 190.113 18.0039H192.33C192.317 18.6875 192.115 19.3092 191.725 19.8691C191.334 20.429 190.816 20.875 190.172 21.207C189.527 21.5326 188.814 21.6953 188.033 21.6953C187.226 21.6953 186.523 21.5586 185.924 21.2852C185.325 21.0052 184.827 20.6211 184.43 20.1328C184.033 19.6445 183.733 19.0814 183.531 18.4434C183.336 17.8053 183.238 17.1217 183.238 16.3926V16.0508C183.238 15.3216 183.336 14.638 183.531 14C183.733 13.3555 184.033 12.7891 184.43 12.3008C184.827 11.8125 185.325 11.4316 185.924 11.1582C186.523 10.8783 187.223 10.7383 188.023 10.7383C188.87 10.7383 189.612 10.9076 190.25 11.2461C190.888 11.5781 191.389 12.0436 191.754 12.6426C192.125 13.235 192.317 13.9251 192.33 14.7129H190.113C190.094 14.3223 189.996 13.9707 189.82 13.6582C189.651 13.3392 189.41 13.0853 189.098 12.8965C188.792 12.7077 188.424 12.6133 187.994 12.6133C187.519 12.6133 187.125 12.7109 186.812 12.9062C186.5 13.0951 186.256 13.3555 186.08 13.6875C185.904 14.013 185.777 14.3809 185.699 14.791C185.628 15.1947 185.592 15.6146 185.592 16.0508V16.3926C185.592 16.8288 185.628 17.252 185.699 17.6621C185.771 18.0723 185.895 18.4401 186.07 18.7656C186.253 19.0846 186.5 19.3418 186.812 19.5371C187.125 19.7259 187.522 19.8203 188.004 19.8203ZM200.094 19.3809V14.3418C200.094 13.9642 200.025 13.6387 199.889 13.3652C199.752 13.0918 199.544 12.8802 199.264 12.7305C198.99 12.5807 198.645 12.5059 198.229 12.5059C197.844 12.5059 197.512 12.571 197.232 12.7012C196.952 12.8314 196.734 13.0072 196.578 13.2285C196.422 13.4499 196.344 13.7005 196.344 13.9805H194C194 13.5638 194.101 13.1602 194.303 12.7695C194.505 12.3789 194.798 12.0306 195.182 11.7246C195.566 11.4186 196.025 11.1777 196.559 11.002C197.092 10.8262 197.691 10.7383 198.355 10.7383C199.15 10.7383 199.853 10.8717 200.465 11.1387C201.083 11.4056 201.568 11.8092 201.92 12.3496C202.278 12.8835 202.457 13.554 202.457 14.3613V19.0586C202.457 19.5404 202.49 19.9733 202.555 20.3574C202.626 20.735 202.727 21.0638 202.857 21.3438V21.5H200.445C200.335 21.2461 200.247 20.9238 200.182 20.5332C200.123 20.1361 200.094 19.752 200.094 19.3809ZM200.436 15.0742L200.455 16.5293H198.766C198.329 16.5293 197.945 16.5716 197.613 16.6562C197.281 16.7344 197.005 16.8516 196.783 17.0078C196.562 17.1641 196.396 17.3529 196.285 17.5742C196.174 17.7956 196.119 18.0462 196.119 18.3262C196.119 18.6061 196.184 18.8633 196.314 19.0977C196.445 19.3255 196.633 19.5046 196.881 19.6348C197.135 19.765 197.441 19.8301 197.799 19.8301C198.281 19.8301 198.701 19.7324 199.059 19.5371C199.423 19.3353 199.71 19.0911 199.918 18.8047C200.126 18.5117 200.237 18.235 200.25 17.9746L201.012 19.0195C200.934 19.2865 200.8 19.5729 200.611 19.8789C200.423 20.1849 200.175 20.4779 199.869 20.7578C199.57 21.0312 199.208 21.2559 198.785 21.4316C198.368 21.6074 197.887 21.6953 197.34 21.6953C196.65 21.6953 196.035 21.5586 195.494 21.2852C194.954 21.0052 194.531 20.6309 194.225 20.1621C193.919 19.6868 193.766 19.1497 193.766 18.5508C193.766 17.9909 193.87 17.4961 194.078 17.0664C194.293 16.6302 194.605 16.2656 195.016 15.9727C195.432 15.6797 195.94 15.4583 196.539 15.3086C197.138 15.1523 197.822 15.0742 198.59 15.0742H200.436ZM209.234 19.8203C209.618 19.8203 209.964 19.7454 210.27 19.5957C210.582 19.4395 210.833 19.2246 211.021 18.9512C211.217 18.6777 211.324 18.362 211.344 18.0039H213.561C213.548 18.6875 213.346 19.3092 212.955 19.8691C212.564 20.429 212.047 20.875 211.402 21.207C210.758 21.5326 210.045 21.6953 209.264 21.6953C208.456 21.6953 207.753 21.5586 207.154 21.2852C206.555 21.0052 206.057 20.6211 205.66 20.1328C205.263 19.6445 204.964 19.0814 204.762 18.4434C204.566 17.8053 204.469 17.1217 204.469 16.3926V16.0508C204.469 15.3216 204.566 14.638 204.762 14C204.964 13.3555 205.263 12.7891 205.66 12.3008C206.057 11.8125 206.555 11.4316 207.154 11.1582C207.753 10.8783 208.453 10.7383 209.254 10.7383C210.1 10.7383 210.842 10.9076 211.48 11.2461C212.118 11.5781 212.62 12.0436 212.984 12.6426C213.355 13.235 213.548 13.9251 213.561 14.7129H211.344C211.324 14.3223 211.227 13.9707 211.051 13.6582C210.882 13.3392 210.641 13.0853 210.328 12.8965C210.022 12.7077 209.654 12.6133 209.225 12.6133C208.749 12.6133 208.355 12.7109 208.043 12.9062C207.73 13.0951 207.486 13.3555 207.311 13.6875C207.135 14.013 207.008 14.3809 206.93 14.791C206.858 15.1947 206.822 15.6146 206.822 16.0508V16.3926C206.822 16.8288 206.858 17.252 206.93 17.6621C207.001 18.0723 207.125 18.4401 207.301 18.7656C207.483 19.0846 207.73 19.3418 208.043 19.5371C208.355 19.7259 208.753 19.8203 209.234 19.8203ZM217.887 10.9336V21.5H215.523V10.9336H217.887ZM215.367 8.16016C215.367 7.80208 215.484 7.50586 215.719 7.27148C215.96 7.0306 216.292 6.91016 216.715 6.91016C217.132 6.91016 217.46 7.0306 217.701 7.27148C217.942 7.50586 218.062 7.80208 218.062 8.16016C218.062 8.51172 217.942 8.80469 217.701 9.03906C217.46 9.27344 217.132 9.39062 216.715 9.39062C216.292 9.39062 215.96 9.27344 215.719 9.03906C215.484 8.80469 215.367 8.51172 215.367 8.16016ZM220.016 16.334V16.1094C220.016 15.3477 220.126 14.6413 220.348 13.9902C220.569 13.3327 220.888 12.763 221.305 12.2812C221.728 11.793 222.242 11.4154 222.848 11.1484C223.46 10.875 224.15 10.7383 224.918 10.7383C225.693 10.7383 226.383 10.875 226.988 11.1484C227.6 11.4154 228.118 11.793 228.541 12.2812C228.964 12.763 229.286 13.3327 229.508 13.9902C229.729 14.6413 229.84 15.3477 229.84 16.1094V16.334C229.84 17.0957 229.729 17.8021 229.508 18.4531C229.286 19.1042 228.964 19.6738 228.541 20.1621C228.118 20.6439 227.604 21.0215 226.998 21.2949C226.393 21.5618 225.706 21.6953 224.938 21.6953C224.163 21.6953 223.469 21.5618 222.857 21.2949C222.252 21.0215 221.738 20.6439 221.314 20.1621C220.891 19.6738 220.569 19.1042 220.348 18.4531C220.126 17.8021 220.016 17.0957 220.016 16.334ZM222.369 16.1094V16.334C222.369 16.8092 222.418 17.2585 222.516 17.6816C222.613 18.1048 222.766 18.4759 222.975 18.7949C223.183 19.1139 223.45 19.3646 223.775 19.5469C224.101 19.7292 224.488 19.8203 224.938 19.8203C225.374 19.8203 225.751 19.7292 226.07 19.5469C226.396 19.3646 226.663 19.1139 226.871 18.7949C227.079 18.4759 227.232 18.1048 227.33 17.6816C227.434 17.2585 227.486 16.8092 227.486 16.334V16.1094C227.486 15.6406 227.434 15.1979 227.33 14.7812C227.232 14.3581 227.076 13.9837 226.861 13.6582C226.653 13.3327 226.386 13.0788 226.061 12.8965C225.742 12.7077 225.361 12.6133 224.918 12.6133C224.475 12.6133 224.091 12.7077 223.766 12.8965C223.447 13.0788 223.183 13.3327 222.975 13.6582C222.766 13.9837 222.613 14.3581 222.516 14.7812C222.418 15.1979 222.369 15.6406 222.369 16.1094ZM234.146 13.1895V21.5H231.793V10.9336H234.01L234.146 13.1895ZM233.727 15.8262L232.965 15.8164C232.971 15.0677 233.076 14.3809 233.277 13.7559C233.486 13.1309 233.772 12.5938 234.137 12.1445C234.508 11.6953 234.951 11.3503 235.465 11.1094C235.979 10.862 236.552 10.7383 237.184 10.7383C237.691 10.7383 238.15 10.8099 238.561 10.9531C238.977 11.0898 239.332 11.3145 239.625 11.627C239.924 11.9395 240.152 12.3464 240.309 12.8477C240.465 13.3424 240.543 13.9512 240.543 14.6738V21.5H238.18V14.6641C238.18 14.1562 238.105 13.7559 237.955 13.4629C237.812 13.1634 237.6 12.9518 237.32 12.8281C237.047 12.6979 236.705 12.6328 236.295 12.6328C235.891 12.6328 235.53 12.7174 235.211 12.8867C234.892 13.056 234.622 13.2871 234.4 13.5801C234.186 13.873 234.02 14.2116 233.902 14.5957C233.785 14.9798 233.727 15.39 233.727 15.8262ZM247.604 21.6953C246.822 21.6953 246.116 21.5684 245.484 21.3145C244.859 21.054 244.326 20.6927 243.883 20.2305C243.447 19.7682 243.111 19.2246 242.877 18.5996C242.643 17.9746 242.525 17.3008 242.525 16.5781V16.1875C242.525 15.3607 242.646 14.612 242.887 13.9414C243.128 13.2708 243.463 12.6979 243.893 12.2227C244.322 11.7409 244.83 11.373 245.416 11.1191C246.002 10.8652 246.637 10.7383 247.32 10.7383C248.076 10.7383 248.736 10.8652 249.303 11.1191C249.869 11.373 250.338 11.7311 250.709 12.1934C251.087 12.6491 251.367 13.1927 251.549 13.8242C251.738 14.4557 251.832 15.1523 251.832 15.9141V16.9199H243.668V15.2305H249.508V15.0449C249.495 14.6217 249.41 14.2246 249.254 13.8535C249.104 13.4824 248.873 13.1829 248.561 12.9551C248.248 12.7272 247.831 12.6133 247.311 12.6133C246.92 12.6133 246.572 12.6979 246.266 12.8672C245.966 13.0299 245.715 13.2676 245.514 13.5801C245.312 13.8926 245.156 14.2702 245.045 14.7129C244.941 15.1491 244.889 15.6406 244.889 16.1875V16.5781C244.889 17.0404 244.951 17.4701 245.074 17.8672C245.204 18.2578 245.393 18.5996 245.641 18.8926C245.888 19.1855 246.188 19.4167 246.539 19.5859C246.891 19.7487 247.291 19.8301 247.74 19.8301C248.307 19.8301 248.811 19.7161 249.254 19.4883C249.697 19.2604 250.081 18.9382 250.406 18.5215L251.646 19.7227C251.419 20.0547 251.122 20.3737 250.758 20.6797C250.393 20.9792 249.947 21.2233 249.42 21.4121C248.899 21.6009 248.294 21.6953 247.604 21.6953ZM259.596 18.6387C259.596 18.4043 259.537 18.1927 259.42 18.0039C259.303 17.8086 259.078 17.6328 258.746 17.4766C258.421 17.3203 257.939 17.1771 257.301 17.0469C256.741 16.9232 256.227 16.7767 255.758 16.6074C255.296 16.4316 254.898 16.2201 254.566 15.9727C254.234 15.7253 253.977 15.4323 253.795 15.0938C253.613 14.7552 253.521 14.3646 253.521 13.9219C253.521 13.4922 253.616 13.0853 253.805 12.7012C253.993 12.3171 254.264 11.9785 254.615 11.6855C254.967 11.3926 255.393 11.1615 255.895 10.9922C256.402 10.8229 256.969 10.7383 257.594 10.7383C258.479 10.7383 259.238 10.888 259.869 11.1875C260.507 11.4805 260.995 11.8809 261.334 12.3887C261.673 12.89 261.842 13.4564 261.842 14.0879H259.488C259.488 13.8079 259.417 13.5475 259.273 13.3066C259.137 13.0592 258.928 12.8607 258.648 12.7109C258.368 12.5547 258.017 12.4766 257.594 12.4766C257.19 12.4766 256.855 12.5417 256.588 12.6719C256.327 12.7956 256.132 12.9583 256.002 13.1602C255.878 13.362 255.816 13.5833 255.816 13.8242C255.816 14 255.849 14.1595 255.914 14.3027C255.986 14.4395 256.103 14.5664 256.266 14.6836C256.428 14.7943 256.65 14.8984 256.93 14.9961C257.216 15.0938 257.574 15.1882 258.004 15.2793C258.811 15.4486 259.505 15.6667 260.084 15.9336C260.67 16.194 261.119 16.5326 261.432 16.9492C261.744 17.3594 261.9 17.8802 261.9 18.5117C261.9 18.9805 261.799 19.4102 261.598 19.8008C261.402 20.1849 261.116 20.5202 260.738 20.8066C260.361 21.0866 259.908 21.3047 259.381 21.4609C258.86 21.6172 258.274 21.6953 257.623 21.6953C256.666 21.6953 255.855 21.526 255.191 21.1875C254.527 20.8424 254.023 20.403 253.678 19.8691C253.339 19.3288 253.17 18.7689 253.17 18.1895H255.445C255.471 18.6257 255.592 18.974 255.807 19.2344C256.028 19.4883 256.301 19.6738 256.627 19.791C256.959 19.9017 257.301 19.957 257.652 19.957C258.076 19.957 258.43 19.9017 258.717 19.791C259.003 19.6738 259.221 19.5176 259.371 19.3223C259.521 19.1204 259.596 18.8926 259.596 18.6387Z" fill="black" fill-opacity="0.3"/>
</svg>
