<svg width="60" height="60" viewBox="0 0 60 60" fill="none" xmlns="http://www.w3.org/2000/svg">
<path d="M22.9251 33.5501C21.7847 32.023 20.9912 30.2655 20.6001 28.4001L26.7501 22.5001C27.2007 22.0339 27.4526 21.4109 27.4526 20.7626C27.4526 20.1143 27.2007 19.4913 26.7501 19.0251L17.6251 8.7751C17.1845 8.28939 16.5707 7.99623 15.916 7.95882C15.2613 7.92141 14.6181 8.14274 14.1251 8.5751L8.7001 13.2251C8.26732 13.6595 8.00929 14.2378 7.9751 14.8501C7.88611 23.9055 11.0234 32.6969 16.8251 39.6501L5.7251 50.7251L9.2751 54.2751L54.2751 9.2751L50.7251 5.7251L22.9251 33.5501ZM41.5251 33.6001C41.0429 33.1659 40.4108 32.9362 39.7623 32.9595C39.1138 32.9828 38.4998 33.2574 38.0501 33.7251L32.0501 40.0001C31.618 39.9112 31.1921 39.7943 30.7751 39.6501L24.1251 46.1751C30.2533 50.1937 37.3977 52.3873 44.7251 52.5001H45.6251C46.2373 52.4659 46.8157 52.2079 47.2501 51.7751L51.9001 46.3501C52.3218 45.8553 52.5341 45.2157 52.4921 44.567C52.4501 43.9182 52.1571 43.3114 51.6751 42.8751L41.5251 33.6001Z" fill="#E70C0C"/>
</svg>
