<svg width="60" height="60" viewBox="0 0 60 60" fill="none" xmlns="http://www.w3.org/2000/svg">
<path d="M49.9996 27.4975H54.9996C54.9996 14.6725 45.3171 5 32.4746 5V10C42.6296 10 49.9996 17.3575 49.9996 27.4975Z" fill="#398D11"/>
<path d="M32.4997 20.0006C37.7572 20.0006 39.9997 22.2431 39.9997 27.5006H44.9997C44.9997 19.4381 40.5622 15.0006 32.4997 15.0006V20.0006ZM41.0547 33.6081C40.5743 33.1715 39.9431 32.9386 39.2942 32.9587C38.6454 32.9787 38.0297 33.2501 37.5772 33.7156L31.5947 39.8681C30.1547 39.5931 27.2597 38.6906 24.2797 35.7181C21.2997 32.7356 20.3972 29.8331 20.1297 28.4031L26.2772 22.4181C26.7433 21.9659 27.0151 21.3502 27.0351 20.7011C27.0552 20.0521 26.8219 19.4207 26.3847 18.9406L17.1472 8.7831C16.7098 8.30149 16.1019 8.00936 15.4526 7.96875C14.8033 7.92814 14.1637 8.14224 13.6697 8.5656L8.24473 13.2181C7.81251 13.6519 7.55453 14.2292 7.51973 14.8406C7.48223 15.4656 6.76723 30.2706 18.2472 41.7556C28.2622 51.7681 40.8072 52.5006 44.2622 52.5006C44.7672 52.5006 45.0772 52.4856 45.1597 52.4806C45.771 52.4464 46.348 52.1873 46.7797 51.7531L51.4297 46.3256C51.8534 45.8319 52.0679 45.1925 52.0278 44.5432C51.9876 43.8939 51.696 43.2858 51.2147 42.8481L41.0547 33.6081Z" fill="#398D11"/>
</svg>
