<svg width="44" height="43" viewBox="0 0 44 43" fill="none" xmlns="http://www.w3.org/2000/svg">
<path d="M16.8983 24.0443C16.076 22.9499 15.5039 21.6903 15.2218 20.3534L19.6565 16.1251C19.9814 15.791 20.1631 15.3445 20.1631 14.8799C20.1631 14.4153 19.9814 13.9688 19.6565 13.6347L13.0766 6.28886C12.7589 5.94077 12.3163 5.73067 11.8442 5.70386C11.3721 5.67705 10.9083 5.83567 10.5528 6.14553L6.64086 9.47803C6.32879 9.78936 6.14273 10.2038 6.11807 10.6426C6.0539 17.1323 8.31613 23.4328 12.4997 28.4159L4.49562 36.353L7.05548 38.8972L39.5045 6.64719L36.9446 4.10303L16.8983 24.0443ZM30.3106 24.0801C29.9629 23.7689 29.5071 23.6043 29.0395 23.621C28.5719 23.6377 28.1291 23.8345 27.8048 24.1697L23.4783 28.6668C23.1667 28.6031 22.8596 28.5193 22.5589 28.4159L17.7636 33.0922C22.1826 35.9722 27.3343 37.5443 32.6181 37.6251H33.267C33.7085 37.6006 34.1256 37.4157 34.4388 37.1055L37.7919 33.2176C38.0959 32.863 38.2491 32.4046 38.2188 31.9397C38.1885 31.4748 37.9772 31.0399 37.6296 30.7272L30.3106 24.0801Z" fill="#E70C0C"/>
</svg>
