<svg width="223" height="50" viewBox="0 0 223 50" fill="none" xmlns="http://www.w3.org/2000/svg">
<rect width="223" height="49.6463" rx="10" fill="#FFFDFD"/>
<path d="M60.7979 28.3496C60.5537 30.5957 59.748 32.3145 58.3809 33.5059C57.0234 34.6973 55.2119 35.293 52.9463 35.293C51.3643 35.293 49.9629 34.8975 48.7422 34.1064C47.5312 33.3154 46.5938 32.1973 45.9297 30.752C45.2656 29.2969 44.9287 27.6367 44.9189 25.7715V23.0029C44.9189 21.1084 45.251 19.4287 45.915 17.9639C46.5791 16.499 47.5312 15.3711 48.7715 14.5801C50.0215 13.7793 51.457 13.3789 53.0781 13.3789C55.3633 13.3789 57.165 13.999 58.4834 15.2393C59.8115 16.4697 60.583 18.1738 60.7979 20.3516H58.9814C58.5322 16.7285 56.5645 14.917 53.0781 14.917C51.1445 14.917 49.6016 15.6396 48.4492 17.085C47.3066 18.5303 46.7354 20.5273 46.7354 23.0762V25.6836C46.7354 28.1445 47.292 30.1074 48.4053 31.5723C49.5283 33.0371 51.042 33.7695 52.9463 33.7695C54.8311 33.7695 56.252 33.3203 57.209 32.4219C58.166 31.5137 58.7568 30.1562 58.9814 28.3496H60.7979ZM63.8008 26.8408C63.8008 25.3174 64.0938 23.9453 64.6797 22.7246C65.2754 21.5039 66.1104 20.5566 67.1846 19.8828C68.2686 19.1992 69.4941 18.8574 70.8613 18.8574C72.9707 18.8574 74.6797 19.5996 75.9883 21.084C77.2969 22.5586 77.9512 24.5166 77.9512 26.958V27.3242C77.9512 28.8574 77.6533 30.2393 77.0576 31.4697C76.4717 32.6904 75.6416 33.6328 74.5674 34.2969C73.4932 34.9609 72.2676 35.293 70.8906 35.293C68.791 35.293 67.082 34.5557 65.7637 33.0811C64.4551 31.5967 63.8008 29.6338 63.8008 27.1924V26.8408ZM65.5586 27.3242C65.5586 29.2188 66.0469 30.7764 67.0234 31.9971C68.0098 33.208 69.2988 33.8135 70.8906 33.8135C72.4727 33.8135 73.752 33.208 74.7285 31.9971C75.7148 30.7764 76.208 29.1699 76.208 27.1777V26.8408C76.208 25.6299 75.9834 24.5215 75.5342 23.5156C75.085 22.5098 74.4551 21.7334 73.6445 21.1865C72.834 20.6299 71.9062 20.3516 70.8613 20.3516C69.2988 20.3516 68.0244 20.9668 67.0381 22.1973C66.0518 23.418 65.5586 25.0195 65.5586 27.002V27.3242ZM83.2539 19.1504L83.3125 21.8604C83.9082 20.8838 84.6504 20.1416 85.5391 19.6338C86.4277 19.1162 87.4092 18.8574 88.4834 18.8574C90.1826 18.8574 91.4473 19.3359 92.2773 20.293C93.1074 21.25 93.5273 22.6855 93.5371 24.5996V35H91.7939V24.585C91.7842 23.1689 91.4814 22.1143 90.8857 21.4209C90.2998 20.7275 89.3574 20.3809 88.0586 20.3809C86.9746 20.3809 86.0127 20.7227 85.1729 21.4062C84.3428 22.0801 83.7275 22.9932 83.3271 24.1455V35H81.584V19.1504H83.2539ZM100.803 15.0928V19.1504H104.084V20.5859H100.803V31.1475C100.803 32.0264 100.959 32.6807 101.271 33.1104C101.594 33.54 102.126 33.7549 102.868 33.7549C103.161 33.7549 103.635 33.7061 104.289 33.6084L104.362 35.0439C103.903 35.21 103.278 35.293 102.487 35.293C101.286 35.293 100.412 34.9463 99.8652 34.2529C99.3184 33.5498 99.0449 32.5195 99.0449 31.1621V20.5859H96.1299V19.1504H99.0449V15.0928H100.803ZM117.722 35C117.546 34.502 117.434 33.7646 117.385 32.7881C116.77 33.5889 115.983 34.209 115.026 34.6484C114.079 35.0781 113.073 35.293 112.009 35.293C110.485 35.293 109.25 34.8682 108.303 34.0186C107.365 33.1689 106.896 32.0947 106.896 30.7959C106.896 29.2529 107.536 28.0322 108.815 27.1338C110.104 26.2354 111.896 25.7861 114.191 25.7861H117.37V23.9844C117.37 22.8516 117.019 21.9629 116.315 21.3184C115.622 20.6641 114.606 20.3369 113.269 20.3369C112.048 20.3369 111.037 20.6494 110.236 21.2744C109.436 21.8994 109.035 22.6514 109.035 23.5303L107.277 23.5156C107.277 22.2559 107.863 21.167 109.035 20.249C110.207 19.3213 111.647 18.8574 113.356 18.8574C115.124 18.8574 116.516 19.3018 117.531 20.1904C118.557 21.0693 119.084 22.2998 119.113 23.8818V31.3818C119.113 32.915 119.274 34.0625 119.597 34.8242V35H117.722ZM112.214 33.7402C113.386 33.7402 114.431 33.457 115.349 32.8906C116.276 32.3242 116.95 31.5674 117.37 30.6201V27.1338H114.235C112.487 27.1533 111.12 27.4756 110.134 28.1006C109.147 28.7158 108.654 29.5654 108.654 30.6494C108.654 31.5381 108.981 32.2754 109.636 32.8613C110.3 33.4473 111.159 33.7402 112.214 33.7402ZM129.66 33.8135C130.881 33.8135 131.901 33.4717 132.722 32.7881C133.552 32.0947 134.001 31.2012 134.069 30.1074H135.754C135.705 31.0742 135.402 31.958 134.846 32.7588C134.289 33.5498 133.547 34.1699 132.619 34.6191C131.701 35.0684 130.715 35.293 129.66 35.293C127.58 35.293 125.93 34.5703 124.709 33.125C123.498 31.6797 122.893 29.7363 122.893 27.2949V26.7676C122.893 25.2051 123.166 23.8232 123.713 22.6221C124.26 21.4209 125.041 20.4932 126.057 19.8389C127.082 19.1846 128.278 18.8574 129.646 18.8574C131.384 18.8574 132.814 19.375 133.938 20.4102C135.07 21.4453 135.676 22.8076 135.754 24.4971H134.069C133.991 23.2568 133.542 22.2559 132.722 21.4941C131.911 20.7324 130.886 20.3516 129.646 20.3516C128.063 20.3516 126.833 20.9229 125.954 22.0654C125.085 23.208 124.65 24.8096 124.65 26.8701V27.3828C124.65 29.4043 125.085 30.9814 125.954 32.1143C126.833 33.2471 128.068 33.8135 129.66 33.8135ZM141.994 15.0928V19.1504H145.275V20.5859H141.994V31.1475C141.994 32.0264 142.15 32.6807 142.463 33.1104C142.785 33.54 143.317 33.7549 144.06 33.7549C144.353 33.7549 144.826 33.7061 145.48 33.6084L145.554 35.0439C145.095 35.21 144.47 35.293 143.679 35.293C142.478 35.293 141.604 34.9463 141.057 34.2529C140.51 33.5498 140.236 32.5195 140.236 31.1621V20.5859H137.321V19.1504H140.236V15.0928H141.994ZM147.648 26.8408C147.648 25.3174 147.941 23.9453 148.527 22.7246C149.123 21.5039 149.958 20.5566 151.032 19.8828C152.116 19.1992 153.342 18.8574 154.709 18.8574C156.818 18.8574 158.527 19.5996 159.836 21.084C161.145 22.5586 161.799 24.5166 161.799 26.958V27.3242C161.799 28.8574 161.501 30.2393 160.905 31.4697C160.319 32.6904 159.489 33.6328 158.415 34.2969C157.341 34.9609 156.115 35.293 154.738 35.293C152.639 35.293 150.93 34.5557 149.611 33.0811C148.303 31.5967 147.648 29.6338 147.648 27.1924V26.8408ZM149.406 27.3242C149.406 29.2188 149.895 30.7764 150.871 31.9971C151.857 33.208 153.146 33.8135 154.738 33.8135C156.32 33.8135 157.6 33.208 158.576 31.9971C159.562 30.7764 160.056 29.1699 160.056 27.1777V26.8408C160.056 25.6299 159.831 24.5215 159.382 23.5156C158.933 22.5098 158.303 21.7334 157.492 21.1865C156.682 20.6299 155.754 20.3516 154.709 20.3516C153.146 20.3516 151.872 20.9668 150.886 22.1973C149.899 23.418 149.406 25.0195 149.406 27.002V27.3242ZM174.924 30.9717C174.924 30.1025 174.572 29.4043 173.869 28.877C173.176 28.3496 172.126 27.9395 170.72 27.6465C169.313 27.3438 168.22 27.002 167.438 26.6211C166.667 26.2305 166.091 25.7568 165.71 25.2002C165.339 24.6436 165.153 23.9697 165.153 23.1787C165.153 21.9287 165.676 20.8984 166.721 20.0879C167.766 19.2676 169.104 18.8574 170.734 18.8574C172.502 18.8574 173.918 19.2969 174.982 20.1758C176.057 21.0449 176.594 22.1826 176.594 23.5889H174.836C174.836 22.6611 174.445 21.8896 173.664 21.2744C172.893 20.6592 171.916 20.3516 170.734 20.3516C169.582 20.3516 168.654 20.6104 167.951 21.1279C167.258 21.6357 166.911 22.2998 166.911 23.1201C166.911 23.9111 167.199 24.5264 167.775 24.9658C168.361 25.3955 169.421 25.791 170.954 26.1523C172.497 26.5137 173.649 26.8994 174.411 27.3096C175.183 27.7197 175.754 28.2129 176.125 28.7891C176.496 29.3652 176.682 30.0635 176.682 30.8838C176.682 32.2217 176.14 33.291 175.056 34.0918C173.981 34.8926 172.575 35.293 170.837 35.293C168.991 35.293 167.492 34.8486 166.34 33.96C165.197 33.0615 164.626 31.9287 164.626 30.5615H166.384C166.452 31.5869 166.882 32.3877 167.673 32.9639C168.474 33.5303 169.528 33.8135 170.837 33.8135C172.058 33.8135 173.044 33.5449 173.796 33.0078C174.548 32.4707 174.924 31.792 174.924 30.9717Z" fill="#4969D9"/>
</svg>
