<svg width="223" height="52" viewBox="0 0 223 52" fill="none" xmlns="http://www.w3.org/2000/svg">
<rect width="223" height="48.3766" rx="10" fill="#FFFDFD"/>
<path d="M41.7656 30.1984C41.7656 29.0167 41.3506 28.0841 40.5205 27.4005C39.6904 26.7072 38.1719 26.0529 35.9648 25.4376C33.7578 24.8126 32.1465 24.1339 31.1309 23.4015C29.6855 22.3663 28.9629 21.0089 28.9629 19.3292C28.9629 17.6984 29.6318 16.3751 30.9697 15.3595C32.3174 14.3341 34.0361 13.8214 36.126 13.8214C37.542 13.8214 38.8066 14.0948 39.9199 14.6417C41.043 15.1886 41.9121 15.9503 42.5273 16.9269C43.1426 17.9034 43.4502 18.9923 43.4502 20.1935H41.6338C41.6338 18.7384 41.1357 17.5714 40.1396 16.6925C39.1436 15.8038 37.8057 15.3595 36.126 15.3595C34.4951 15.3595 33.1963 15.7257 32.2295 16.4581C31.2627 17.1808 30.7793 18.1281 30.7793 19.2999C30.7793 20.3839 31.2139 21.2677 32.083 21.9513C32.9521 22.6349 34.3438 23.2404 36.2578 23.7677C38.1719 24.2853 39.6221 24.8273 40.6084 25.3937C41.5947 25.9503 42.3369 26.6193 42.835 27.4005C43.333 28.1818 43.582 29.1046 43.582 30.1691C43.582 31.8488 42.9082 33.1964 41.5605 34.212C40.2227 35.2277 38.4551 35.7355 36.2578 35.7355C34.7539 35.7355 33.3721 35.4669 32.1123 34.9298C30.8623 34.3927 29.9102 33.6407 29.2559 32.674C28.6113 31.7072 28.2891 30.5988 28.2891 29.3488H30.0908C30.0908 30.8527 30.6523 32.0392 31.7754 32.9083C32.8984 33.7775 34.3926 34.212 36.2578 34.212C37.918 34.212 39.251 33.8458 40.2568 33.1134C41.2627 32.381 41.7656 31.4093 41.7656 30.1984ZM57.2637 33.4357C56.209 34.9689 54.5244 35.7355 52.21 35.7355C50.5205 35.7355 49.2363 35.2472 48.3574 34.2706C47.4785 33.2843 47.0293 31.8292 47.0098 29.9054V19.5929H48.7529V29.6857C48.7529 32.7032 49.9736 34.212 52.415 34.212C54.9541 34.212 56.5605 33.1622 57.2344 31.0626V19.5929H58.9922V35.4425H57.293L57.2637 33.4357ZM62.8594 27.3712C62.8594 24.8907 63.4062 22.9279 64.5 21.4825C65.6035 20.0275 67.0977 19.2999 68.9824 19.2999C71.1406 19.2999 72.7812 20.1593 73.9043 21.8781L73.9922 19.5929H75.6328V35.1202C75.6328 37.1613 75.0615 38.7775 73.9189 39.9689C72.7764 41.1603 71.2285 41.756 69.2754 41.756C68.1719 41.756 67.1172 41.507 66.1113 41.0089C65.1152 40.5206 64.3291 39.8663 63.7529 39.046L64.7344 37.9913C65.9746 39.5148 67.4492 40.2765 69.1582 40.2765C70.623 40.2765 71.7656 39.8419 72.5859 38.9728C73.4062 38.1134 73.8311 36.9171 73.8604 35.3839V33.3917C72.7373 34.9542 71.1016 35.7355 68.9531 35.7355C67.1172 35.7355 65.6426 35.0031 64.5293 33.5382C63.416 32.0734 62.8594 30.0958 62.8594 27.6056V27.3712ZM64.6318 27.6788C64.6318 29.7003 65.0371 31.297 65.8477 32.4689C66.6582 33.631 67.8008 34.212 69.2754 34.212C71.4336 34.212 72.9619 33.2452 73.8604 31.3116V23.9435C73.4502 22.9279 72.8594 22.1564 72.0879 21.629C71.3164 21.0919 70.3887 20.8234 69.3047 20.8234C67.8301 20.8234 66.6826 21.4044 65.8623 22.5665C65.042 23.7189 64.6318 25.423 64.6318 27.6788ZM86.3408 35.7355C84.9932 35.7355 83.7725 35.4034 82.6787 34.7394C81.5947 34.0753 80.75 33.1525 80.1445 31.9708C79.5391 30.7794 79.2363 29.4464 79.2363 27.9718V27.3419C79.2363 25.8185 79.5293 24.4464 80.1152 23.2257C80.7109 22.005 81.5361 21.048 82.5908 20.3546C83.6455 19.6515 84.7881 19.2999 86.0186 19.2999C87.9424 19.2999 89.4658 19.9591 90.5889 21.2775C91.7217 22.5861 92.2881 24.3781 92.2881 26.6534V27.6349H80.9795V27.9718C80.9795 29.7687 81.4922 31.2677 82.5176 32.4689C83.5527 33.6603 84.8516 34.256 86.4141 34.256C87.3516 34.256 88.1768 34.0851 88.8896 33.7433C89.6123 33.4015 90.2666 32.8546 90.8525 32.1027L91.9512 32.9376C90.6621 34.8029 88.792 35.7355 86.3408 35.7355ZM86.0186 20.7941C84.7002 20.7941 83.5869 21.2775 82.6787 22.2443C81.7803 23.2111 81.2334 24.5099 81.0381 26.1407H90.5449V25.9503C90.4961 24.4269 90.0615 23.1866 89.2412 22.2296C88.4209 21.2726 87.3467 20.7941 86.0186 20.7941ZM103.025 21.087C102.654 21.0187 102.259 20.9845 101.839 20.9845C100.745 20.9845 99.8174 21.2921 99.0557 21.9073C98.3037 22.5128 97.7666 23.3966 97.4443 24.5587V35.4425H95.7012V19.5929H97.415L97.4443 22.1124C98.3721 20.2374 99.8613 19.2999 101.912 19.2999C102.4 19.2999 102.786 19.3634 103.069 19.4904L103.025 21.087ZM111.653 35.7355C110.306 35.7355 109.085 35.4034 107.991 34.7394C106.907 34.0753 106.062 33.1525 105.457 31.9708C104.852 30.7794 104.549 29.4464 104.549 27.9718V27.3419C104.549 25.8185 104.842 24.4464 105.428 23.2257C106.023 22.005 106.849 21.048 107.903 20.3546C108.958 19.6515 110.101 19.2999 111.331 19.2999C113.255 19.2999 114.778 19.9591 115.901 21.2775C117.034 22.5861 117.601 24.3781 117.601 26.6534V27.6349H106.292V27.9718C106.292 29.7687 106.805 31.2677 107.83 32.4689C108.865 33.6603 110.164 34.256 111.727 34.256C112.664 34.256 113.489 34.0851 114.202 33.7433C114.925 33.4015 115.579 32.8546 116.165 32.1027L117.264 32.9376C115.975 34.8029 114.104 35.7355 111.653 35.7355ZM111.331 20.7941C110.013 20.7941 108.899 21.2775 107.991 22.2443C107.093 23.2111 106.546 24.5099 106.351 26.1407H115.857V25.9503C115.809 24.4269 115.374 23.1866 114.554 22.2296C113.733 21.2726 112.659 20.7941 111.331 20.7941ZM122.684 19.5929L122.742 22.3029C123.338 21.3263 124.08 20.5841 124.969 20.0763C125.857 19.5587 126.839 19.2999 127.913 19.2999C129.612 19.2999 130.877 19.7784 131.707 20.7355C132.537 21.6925 132.957 23.1281 132.967 25.0421V35.4425H131.224V25.0275C131.214 23.6115 130.911 22.5568 130.315 21.8634C129.729 21.17 128.787 20.8234 127.488 20.8234C126.404 20.8234 125.442 21.1652 124.603 21.8488C123.772 22.5226 123.157 23.4357 122.757 24.588V35.4425H121.014V19.5929H122.684ZM143.367 34.256C144.588 34.256 145.608 33.9142 146.429 33.2306C147.259 32.5372 147.708 31.6437 147.776 30.5499H149.461C149.412 31.5167 149.109 32.4005 148.553 33.2013C147.996 33.9923 147.254 34.6124 146.326 35.0616C145.408 35.5109 144.422 35.7355 143.367 35.7355C141.287 35.7355 139.637 35.0128 138.416 33.5675C137.205 32.1222 136.6 30.1788 136.6 27.7374V27.2101C136.6 25.6476 136.873 24.2657 137.42 23.0646C137.967 21.8634 138.748 20.9357 139.764 20.2814C140.789 19.6271 141.985 19.2999 143.353 19.2999C145.091 19.2999 146.521 19.8175 147.645 20.8527C148.777 21.8878 149.383 23.2501 149.461 24.9396H147.776C147.698 23.6993 147.249 22.6984 146.429 21.9366C145.618 21.1749 144.593 20.7941 143.353 20.7941C141.771 20.7941 140.54 21.3654 139.661 22.5079C138.792 23.6505 138.357 25.2521 138.357 27.3126V27.8253C138.357 29.8468 138.792 31.424 139.661 32.5568C140.54 33.6896 141.775 34.256 143.367 34.256ZM154.939 35.4425H153.182V19.5929H154.939V35.4425ZM152.874 15.0079C152.874 14.6759 152.981 14.3976 153.196 14.173C153.411 13.9386 153.704 13.8214 154.075 13.8214C154.446 13.8214 154.739 13.9386 154.954 14.173C155.179 14.3976 155.291 14.6759 155.291 15.0079C155.291 15.34 155.179 15.6183 154.954 15.8429C154.739 16.0675 154.446 16.1798 154.075 16.1798C153.704 16.1798 153.411 16.0675 153.196 15.8429C152.981 15.6183 152.874 15.34 152.874 15.0079ZM169.72 35.4425C169.544 34.9445 169.432 34.2072 169.383 33.2306C168.768 34.0314 167.981 34.6515 167.024 35.0909C166.077 35.5206 165.071 35.7355 164.007 35.7355C162.483 35.7355 161.248 35.3107 160.301 34.4611C159.363 33.6115 158.895 32.5372 158.895 31.2384C158.895 29.6954 159.534 28.4747 160.813 27.5763C162.103 26.6779 163.895 26.2286 166.189 26.2286H169.368V24.4269C169.368 23.2941 169.017 22.4054 168.313 21.7609C167.62 21.1066 166.604 20.7794 165.267 20.7794C164.046 20.7794 163.035 21.0919 162.234 21.7169C161.434 22.3419 161.033 23.0939 161.033 23.9728L159.275 23.9581C159.275 22.6984 159.861 21.6095 161.033 20.6915C162.205 19.7638 163.646 19.2999 165.354 19.2999C167.122 19.2999 168.514 19.7443 169.529 20.6329C170.555 21.5118 171.082 22.7423 171.111 24.3243V31.8243C171.111 33.3575 171.272 34.505 171.595 35.2667V35.4425H169.72ZM164.212 34.1827C165.384 34.1827 166.429 33.8995 167.347 33.3331C168.274 32.7667 168.948 32.0099 169.368 31.0626V27.5763H166.233C164.485 27.5958 163.118 27.9181 162.132 28.5431C161.146 29.1583 160.652 30.0079 160.652 31.0919C160.652 31.9806 160.979 32.7179 161.634 33.3038C162.298 33.8898 163.157 34.1827 164.212 34.1827ZM185.291 31.4142C185.291 30.545 184.939 29.8468 184.236 29.3195C183.543 28.7921 182.493 28.382 181.087 28.089C179.681 27.7863 178.587 27.4445 177.806 27.0636C177.034 26.673 176.458 26.1993 176.077 25.6427C175.706 25.0861 175.521 24.4122 175.521 23.6212C175.521 22.3712 176.043 21.3409 177.088 20.5304C178.133 19.7101 179.471 19.2999 181.102 19.2999C182.869 19.2999 184.285 19.7394 185.35 20.6183C186.424 21.4874 186.961 22.6251 186.961 24.0314H185.203C185.203 23.1036 184.812 22.3322 184.031 21.7169C183.26 21.1017 182.283 20.7941 181.102 20.7941C179.949 20.7941 179.021 21.0529 178.318 21.5704C177.625 22.0782 177.278 22.7423 177.278 23.5626C177.278 24.3536 177.566 24.9689 178.143 25.4083C178.729 25.838 179.788 26.2335 181.321 26.5948C182.864 26.9562 184.017 27.3419 184.778 27.7521C185.55 28.1622 186.121 28.6554 186.492 29.2316C186.863 29.8077 187.049 30.506 187.049 31.3263C187.049 32.6642 186.507 33.7335 185.423 34.5343C184.349 35.3351 182.942 35.7355 181.204 35.7355C179.358 35.7355 177.859 35.2911 176.707 34.4025C175.564 33.504 174.993 32.3712 174.993 31.004H176.751C176.819 32.0294 177.249 32.8302 178.04 33.4064C178.841 33.9728 179.896 34.256 181.204 34.256C182.425 34.256 183.411 33.9874 184.163 33.4503C184.915 32.9132 185.291 32.2345 185.291 31.4142Z" fill="#4969D9"/>
</svg>
