<svg width="40" height="40" viewBox="0 0 40 40" fill="none" xmlns="http://www.w3.org/2000/svg">
<path d="M20 16.6665C18.1667 16.6665 16.6667 18.1665 16.6667 19.9998C16.6667 21.8332 18.1667 23.3332 20 23.3332C21.8333 23.3332 23.3333 21.8332 23.3333 19.9998C23.3333 18.1665 21.8333 16.6665 20 16.6665ZM20 6.6665C18.1667 6.6665 16.6667 8.1665 16.6667 9.99984C16.6667 11.8332 18.1667 13.3332 20 13.3332C21.8333 13.3332 23.3333 11.8332 23.3333 9.99984C23.3333 8.1665 21.8333 6.6665 20 6.6665ZM20 26.6665C18.1667 26.6665 16.6667 28.1665 16.6667 29.9998C16.6667 31.8332 18.1667 33.3332 20 33.3332C21.8333 33.3332 23.3333 31.8332 23.3333 29.9998C23.3333 28.1665 21.8333 26.6665 20 26.6665Z" fill="black" fill-opacity="0.3"/>
</svg>
