<svg width="60" height="60" viewBox="0 0 60 60" fill="none" xmlns="http://www.w3.org/2000/svg">
<path d="M30 5C27.5277 5 25.111 5.73311 23.0554 7.10663C20.9998 8.48015 19.3976 10.4324 18.4515 12.7165C17.5054 15.0005 17.2579 17.5139 17.7402 19.9386C18.2225 22.3634 19.413 24.5907 21.1612 26.3388C22.9093 28.087 25.1366 29.2775 27.5614 29.7598C29.9861 30.2421 32.4995 29.9946 34.7835 29.0485C37.0676 28.1024 39.0199 26.5002 40.3934 24.4446C41.7669 22.389 42.5 19.9723 42.5 17.5C42.5 14.1848 41.183 11.0054 38.8388 8.66117C36.4946 6.31696 33.3152 5 30 5V5ZM30 25C28.5166 25 27.0666 24.5601 25.8332 23.736C24.5999 22.9119 23.6386 21.7406 23.0709 20.3701C22.5032 18.9997 22.3547 17.4917 22.6441 16.0368C22.9335 14.582 23.6478 13.2456 24.6967 12.1967C25.7456 11.1478 27.082 10.4335 28.5368 10.1441C29.9917 9.85472 31.4997 10.0032 32.8701 10.5709C34.2406 11.1386 35.4119 12.0999 36.236 13.3332C37.0601 14.5666 37.5 16.0166 37.5 17.5C37.5 19.4891 36.7098 21.3968 35.3033 22.8033C33.8968 24.2098 31.9891 25 30 25V25ZM52.5 52.5V50C52.5 45.3587 50.6563 40.9075 47.3744 37.6256C44.0925 34.3437 39.6413 32.5 35 32.5H25C20.3587 32.5 15.9075 34.3437 12.6256 37.6256C9.34374 40.9075 7.5 45.3587 7.5 50V52.5H12.5V50C12.5 46.6848 13.817 43.5054 16.1612 41.1612C18.5054 38.817 21.6848 37.5 25 37.5H35C38.3152 37.5 41.4946 38.817 43.8388 41.1612C46.183 43.5054 47.5 46.6848 47.5 50V52.5H52.5Z" fill="black"/>
</svg>
